<svg width="88" height="87" viewBox="0 0 88 87" fill="none" xmlns="http://www.w3.org/2000/svg">
<path d="M87.5 0H0.609985V86.86H87.5V0Z" fill="white"/>
<path d="M9.24998 6.66003H7.84998V16.48H9.24998V6.66003Z" fill="black"/>
<path d="M9.24998 17.89H7.84998V22.1H9.24998V17.89Z" fill="black"/>
<path d="M9.24998 23.5H7.84998V24.9H9.24998V23.5Z" fill="black"/>
<path d="M9.24998 26.3101H7.84998V34.73H9.24998V26.3101Z" fill="black"/>
<path d="M9.24998 43.14H7.84998V45.95H9.24998V43.14Z" fill="black"/>
<path d="M9.24998 47.35H7.84998V48.75H9.24998V47.35Z" fill="black"/>
<path d="M9.24998 55.77H7.84998V57.17H9.24998V55.77Z" fill="black"/>
<path d="M9.24998 59.98H7.84998V66.99H9.24998V59.98Z" fill="black"/>
<path d="M9.24998 71.2H7.84998V81.02H9.24998V71.2Z" fill="black"/>
<path d="M10.65 6.66003H9.24997V8.06006H10.65V6.66003Z" fill="black"/>
<path d="M10.65 15.08H9.24997V16.48H10.65V15.08Z" fill="black"/>
<path d="M10.65 19.29H9.24997V22.1H10.65V19.29Z" fill="black"/>
<path d="M10.65 24.9H9.24997V26.3H10.65V24.9Z" fill="black"/>
<path d="M10.65 29.11H9.24997V30.51H10.65V29.11Z" fill="black"/>
<path d="M10.65 31.92H9.24997V33.3201H10.65V31.92Z" fill="black"/>
<path d="M10.65 34.72H9.24997V36.12H10.65V34.72Z" fill="black"/>
<path d="M10.65 38.9301H9.24997V41.74H10.65V38.9301Z" fill="black"/>
<path d="M10.65 43.14H9.24997V44.54H10.65V43.14Z" fill="black"/>
<path d="M10.65 45.95H9.24997V50.16H10.65V45.95Z" fill="black"/>
<path d="M10.65 52.96H9.24997V55.77H10.65V52.96Z" fill="black"/>
<path d="M10.65 57.17H9.24997V58.5701H10.65V57.17Z" fill="black"/>
<path d="M10.65 59.98H9.24997V64.1901H10.65V59.98Z" fill="black"/>
<path d="M10.65 65.59H9.24997V68.4H10.65V65.59Z" fill="black"/>
<path d="M10.65 71.2H9.24997V72.6H10.65V71.2Z" fill="black"/>
<path d="M10.65 79.62H9.24997V81.02H10.65V79.62Z" fill="black"/>
<path d="M12.06 6.66003H10.66V8.06006H12.06V6.66003Z" fill="black"/>
<path d="M12.06 9.46997H10.66V13.6801H12.06V9.46997Z" fill="black"/>
<path d="M12.06 15.08H10.66V16.48H12.06V15.08Z" fill="black"/>
<path d="M12.06 19.29H10.66V20.6901H12.06V19.29Z" fill="black"/>
<path d="M12.06 23.5H10.66V26.3101H12.06V23.5Z" fill="black"/>
<path d="M12.06 30.51H10.66V31.91H12.06V30.51Z" fill="black"/>
<path d="M12.06 33.3201H10.66V36.13H12.06V33.3201Z" fill="black"/>
<path d="M12.06 38.9301H10.66V40.33H12.06V38.9301Z" fill="black"/>
<path d="M12.06 43.14H10.66V44.54H12.06V43.14Z" fill="black"/>
<path d="M12.06 47.35H10.66V48.75H12.06V47.35Z" fill="black"/>
<path d="M12.06 50.16H10.66V51.5601H12.06V50.16Z" fill="black"/>
<path d="M12.06 52.96H10.66V54.36H12.06V52.96Z" fill="black"/>
<path d="M12.06 55.77H10.66V57.17H12.06V55.77Z" fill="black"/>
<path d="M12.06 61.38H10.66V65.59H12.06V61.38Z" fill="black"/>
<path d="M12.06 66.99H10.66V68.39H12.06V66.99Z" fill="black"/>
<path d="M12.06 71.2H10.66V72.6H12.06V71.2Z" fill="black"/>
<path d="M12.06 74.01H10.66V78.22H12.06V74.01Z" fill="black"/>
<path d="M12.06 79.62H10.66V81.02H12.06V79.62Z" fill="black"/>
<path d="M13.46 6.66003H12.06V8.06006H13.46V6.66003Z" fill="black"/>
<path d="M13.46 9.46997H12.06V13.6801H13.46V9.46997Z" fill="black"/>
<path d="M13.46 15.08H12.06V16.48H13.46V15.08Z" fill="black"/>
<path d="M13.46 17.89H12.06V19.29H13.46V17.89Z" fill="black"/>
<path d="M13.46 20.6901H12.06V22.09H13.46V20.6901Z" fill="black"/>
<path d="M13.46 26.3101H12.06V29.12H13.46V26.3101Z" fill="black"/>
<path d="M13.46 31.92H12.06V33.3201H13.46V31.92Z" fill="black"/>
<path d="M13.46 36.13H12.06V37.53H13.46V36.13Z" fill="black"/>
<path d="M13.46 38.9301H12.06V40.33H13.46V38.9301Z" fill="black"/>
<path d="M13.46 45.95H12.06V47.35H13.46V45.95Z" fill="black"/>
<path d="M13.46 55.77H12.06V57.17H13.46V55.77Z" fill="black"/>
<path d="M13.46 58.5701H12.06V61.38H13.46V58.5701Z" fill="black"/>
<path d="M13.46 65.59H12.06V66.99H13.46V65.59Z" fill="black"/>
<path d="M13.46 68.39H12.06V69.79H13.46V68.39Z" fill="black"/>
<path d="M13.46 71.2H12.06V72.6H13.46V71.2Z" fill="black"/>
<path d="M13.46 74.01H12.06V78.22H13.46V74.01Z" fill="black"/>
<path d="M13.46 79.62H12.06V81.02H13.46V79.62Z" fill="black"/>
<path d="M14.86 6.66003H13.46V8.06006H14.86V6.66003Z" fill="black"/>
<path d="M14.86 9.46997H13.46V13.6801H14.86V9.46997Z" fill="black"/>
<path d="M14.86 15.08H13.46V16.48H14.86V15.08Z" fill="black"/>
<path d="M14.86 17.89H13.46V19.29H14.86V17.89Z" fill="black"/>
<path d="M14.86 20.6901H13.46V22.09H14.86V20.6901Z" fill="black"/>
<path d="M14.86 23.5H13.46V26.3101H14.86V23.5Z" fill="black"/>
<path d="M14.86 34.72H13.46V37.53H14.86V34.72Z" fill="black"/>
<path d="M14.86 40.34H13.46V48.76H14.86V40.34Z" fill="black"/>
<path d="M14.86 50.16H13.46V51.5601H14.86V50.16Z" fill="black"/>
<path d="M14.86 52.96H13.46V57.17H14.86V52.96Z" fill="black"/>
<path d="M14.86 64.1901H13.46V67H14.86V64.1901Z" fill="black"/>
<path d="M14.86 71.2H13.46V72.6H14.86V71.2Z" fill="black"/>
<path d="M14.86 74.01H13.46V78.22H14.86V74.01Z" fill="black"/>
<path d="M14.86 79.62H13.46V81.02H14.86V79.62Z" fill="black"/>
<path d="M16.27 6.66003H14.87V8.06006H16.27V6.66003Z" fill="black"/>
<path d="M16.27 15.08H14.87V16.48H16.27V15.08Z" fill="black"/>
<path d="M16.27 17.89H14.87V19.29H16.27V17.89Z" fill="black"/>
<path d="M16.27 20.6901H14.87V23.5H16.27V20.6901Z" fill="black"/>
<path d="M16.27 24.9H14.87V26.3H16.27V24.9Z" fill="black"/>
<path d="M16.27 27.71H14.87V29.11H16.27V27.71Z" fill="black"/>
<path d="M16.27 30.51H14.87V33.3201H16.27V30.51Z" fill="black"/>
<path d="M16.27 37.53H14.87V41.74H16.27V37.53Z" fill="black"/>
<path d="M16.27 45.95H14.87V50.16H16.27V45.95Z" fill="black"/>
<path d="M16.27 55.77H14.87V64.1901H16.27V55.77Z" fill="black"/>
<path d="M16.27 65.59H14.87V66.99H16.27V65.59Z" fill="black"/>
<path d="M16.27 71.2H14.87V72.6H16.27V71.2Z" fill="black"/>
<path d="M16.27 79.62H14.87V81.02H16.27V79.62Z" fill="black"/>
<path d="M17.67 6.66003H16.27V16.48H17.67V6.66003Z" fill="black"/>
<path d="M17.67 17.89H16.27V19.29H17.67V17.89Z" fill="black"/>
<path d="M17.67 20.6901H16.27V22.09H17.67V20.6901Z" fill="black"/>
<path d="M17.67 23.5H16.27V24.9H17.67V23.5Z" fill="black"/>
<path d="M17.67 26.3101H16.27V27.71H17.67V26.3101Z" fill="black"/>
<path d="M17.67 29.11H16.27V30.51H17.67V29.11Z" fill="black"/>
<path d="M17.67 31.92H16.27V33.3201H17.67V31.92Z" fill="black"/>
<path d="M17.67 34.72H16.27V36.12H17.67V34.72Z" fill="black"/>
<path d="M17.67 37.53H16.27V38.9301H17.67V37.53Z" fill="black"/>
<path d="M17.67 40.34H16.27V41.74H17.67V40.34Z" fill="black"/>
<path d="M17.67 43.14H16.27V44.54H17.67V43.14Z" fill="black"/>
<path d="M17.67 45.95H16.27V47.35H17.67V45.95Z" fill="black"/>
<path d="M17.67 48.75H16.27V50.15H17.67V48.75Z" fill="black"/>
<path d="M17.67 51.5601H16.27V52.96H17.67V51.5601Z" fill="black"/>
<path d="M17.67 54.36H16.27V55.76H17.67V54.36Z" fill="black"/>
<path d="M17.67 57.17H16.27V58.5701H17.67V57.17Z" fill="black"/>
<path d="M17.67 59.98H16.27V61.38H17.67V59.98Z" fill="black"/>
<path d="M17.67 62.78H16.27V64.1801H17.67V62.78Z" fill="black"/>
<path d="M17.67 65.59H16.27V66.99H17.67V65.59Z" fill="black"/>
<path d="M17.67 68.39H16.27V69.79H17.67V68.39Z" fill="black"/>
<path d="M17.67 71.2H16.27V81.02H17.67V71.2Z" fill="black"/>
<path d="M19.07 17.89H17.67V19.29H19.07V17.89Z" fill="black"/>
<path d="M19.07 27.71H17.67V31.92H19.07V27.71Z" fill="black"/>
<path d="M19.07 33.3201H17.67V34.72H19.07V33.3201Z" fill="black"/>
<path d="M19.07 36.13H17.67V41.74H19.07V36.13Z" fill="black"/>
<path d="M19.07 45.95H17.67V52.96H19.07V45.95Z" fill="black"/>
<path d="M19.07 58.5701H17.67V62.78H19.07V58.5701Z" fill="black"/>
<path d="M19.07 64.1901H17.67V69.8H19.07V64.1901Z" fill="black"/>
<path d="M20.48 6.66003H19.08V10.87H20.48V6.66003Z" fill="black"/>
<path d="M20.48 12.28H19.08V13.6801H20.48V12.28Z" fill="black"/>
<path d="M20.48 15.08H19.08V16.48H20.48V15.08Z" fill="black"/>
<path d="M20.48 17.89H19.08V19.29H20.48V17.89Z" fill="black"/>
<path d="M20.48 22.1H19.08V26.3101H20.48V22.1Z" fill="black"/>
<path d="M20.48 27.71H19.08V29.11H20.48V27.71Z" fill="black"/>
<path d="M20.48 30.51H19.08V37.52H20.48V30.51Z" fill="black"/>
<path d="M20.48 38.9301H19.08V52.96H20.48V38.9301Z" fill="black"/>
<path d="M20.48 59.98H19.08V65.59H20.48V59.98Z" fill="black"/>
<path d="M20.48 68.39H19.08V76.8101H20.48V68.39Z" fill="black"/>
<path d="M20.48 79.62H19.08V81.02H20.48V79.62Z" fill="black"/>
<path d="M21.88 9.46997H20.48V13.6801H21.88V9.46997Z" fill="black"/>
<path d="M21.88 16.48H20.48V19.29H21.88V16.48Z" fill="black"/>
<path d="M21.88 20.6901H20.48V22.09H21.88V20.6901Z" fill="black"/>
<path d="M21.88 23.5H20.48V24.9H21.88V23.5Z" fill="black"/>
<path d="M21.88 26.3101H20.48V29.12H21.88V26.3101Z" fill="black"/>
<path d="M21.88 31.92H20.48V37.53H21.88V31.92Z" fill="black"/>
<path d="M21.88 38.9301H20.48V41.74H21.88V38.9301Z" fill="black"/>
<path d="M21.88 45.95H20.48V48.76H21.88V45.95Z" fill="black"/>
<path d="M21.88 52.96H20.48V54.36H21.88V52.96Z" fill="black"/>
<path d="M21.88 59.98H20.48V64.1901H21.88V59.98Z" fill="black"/>
<path d="M21.88 65.59H20.48V66.99H21.88V65.59Z" fill="black"/>
<path d="M23.28 6.66003H21.88V8.06006H23.28V6.66003Z" fill="black"/>
<path d="M23.28 9.46997H21.88V10.87H23.28V9.46997Z" fill="black"/>
<path d="M23.28 12.28H21.88V13.6801H23.28V12.28Z" fill="black"/>
<path d="M23.28 15.08H21.88V23.5H23.28V15.08Z" fill="black"/>
<path d="M23.28 29.11H21.88V31.92H23.28V29.11Z" fill="black"/>
<path d="M23.28 34.72H21.88V36.12H23.28V34.72Z" fill="black"/>
<path d="M23.28 38.9301H21.88V40.33H23.28V38.9301Z" fill="black"/>
<path d="M23.28 44.54H21.88V45.9401H23.28V44.54Z" fill="black"/>
<path d="M23.28 47.35H21.88V48.75H23.28V47.35Z" fill="black"/>
<path d="M23.28 51.5601H21.88V57.17H23.28V51.5601Z" fill="black"/>
<path d="M23.28 58.5701H21.88V59.97H23.28V58.5701Z" fill="black"/>
<path d="M23.28 61.38H21.88V62.78H23.28V61.38Z" fill="black"/>
<path d="M23.28 66.99H21.88V75.41H23.28V66.99Z" fill="black"/>
<path d="M23.28 76.8101H21.88V78.21H23.28V76.8101Z" fill="black"/>
<path d="M24.68 9.46997H23.28V15.08H24.68V9.46997Z" fill="black"/>
<path d="M24.68 17.89H23.28V23.5H24.68V17.89Z" fill="black"/>
<path d="M24.68 24.9H23.28V29.11H24.68V24.9Z" fill="black"/>
<path d="M24.68 30.51H23.28V31.91H24.68V30.51Z" fill="black"/>
<path d="M24.68 34.72H23.28V40.33H24.68V34.72Z" fill="black"/>
<path d="M24.68 41.74H23.28V44.55H24.68V41.74Z" fill="black"/>
<path d="M24.68 45.95H23.28V47.35H24.68V45.95Z" fill="black"/>
<path d="M24.68 52.96H23.28V54.36H24.68V52.96Z" fill="black"/>
<path d="M24.68 55.77H23.28V59.98H24.68V55.77Z" fill="black"/>
<path d="M24.68 61.38H23.28V66.99H24.68V61.38Z" fill="black"/>
<path d="M24.68 68.39H23.28V74H24.68V68.39Z" fill="black"/>
<path d="M24.68 75.41H23.28V78.22H24.68V75.41Z" fill="black"/>
<path d="M24.68 79.62H23.28V81.02H24.68V79.62Z" fill="black"/>
<path d="M26.09 6.66003H24.69V8.06006H26.09V6.66003Z" fill="black"/>
<path d="M26.09 10.87H24.69V12.27H26.09V10.87Z" fill="black"/>
<path d="M26.09 15.08H24.69V16.48H26.09V15.08Z" fill="black"/>
<path d="M26.09 17.89H24.69V26.3101H26.09V17.89Z" fill="black"/>
<path d="M26.09 27.71H24.69V33.3201H26.09V27.71Z" fill="black"/>
<path d="M26.09 34.72H24.69V36.12H26.09V34.72Z" fill="black"/>
<path d="M26.09 38.9301H24.69V40.33H26.09V38.9301Z" fill="black"/>
<path d="M26.09 43.14H24.69V48.75H26.09V43.14Z" fill="black"/>
<path d="M26.09 50.16H24.69V54.37H26.09V50.16Z" fill="black"/>
<path d="M26.09 57.17H24.69V66.99H26.09V57.17Z" fill="black"/>
<path d="M26.09 69.8H24.69V71.2H26.09V69.8Z" fill="black"/>
<path d="M26.09 75.41H24.69V76.8101H26.09V75.41Z" fill="black"/>
<path d="M26.09 78.21H24.69V81.02H26.09V78.21Z" fill="black"/>
<path d="M27.49 6.66003H26.09V8.06006H27.49V6.66003Z" fill="black"/>
<path d="M27.49 9.46997H26.09V12.28H27.49V9.46997Z" fill="black"/>
<path d="M27.49 23.5H26.09V24.9H27.49V23.5Z" fill="black"/>
<path d="M27.49 27.71H26.09V29.11H27.49V27.71Z" fill="black"/>
<path d="M27.49 30.51H26.09V31.91H27.49V30.51Z" fill="black"/>
<path d="M27.49 36.13H26.09V37.53H27.49V36.13Z" fill="black"/>
<path d="M27.49 38.9301H26.09V40.33H27.49V38.9301Z" fill="black"/>
<path d="M27.49 41.74H26.09V43.14H27.49V41.74Z" fill="black"/>
<path d="M27.49 44.54H26.09V48.75H27.49V44.54Z" fill="black"/>
<path d="M27.49 50.16H26.09V51.5601H27.49V50.16Z" fill="black"/>
<path d="M27.49 54.36H26.09V55.76H27.49V54.36Z" fill="black"/>
<path d="M27.49 58.5701H26.09V62.78H27.49V58.5701Z" fill="black"/>
<path d="M27.49 65.59H26.09V66.99H27.49V65.59Z" fill="black"/>
<path d="M27.49 68.39H26.09V69.79H27.49V68.39Z" fill="black"/>
<path d="M27.49 75.41H26.09V79.62H27.49V75.41Z" fill="black"/>
<path d="M28.89 6.66003H27.49V8.06006H28.89V6.66003Z" fill="black"/>
<path d="M28.89 9.46997H27.49V10.87H28.89V9.46997Z" fill="black"/>
<path d="M28.89 12.28H27.49V16.49H28.89V12.28Z" fill="black"/>
<path d="M28.89 17.89H27.49V22.1H28.89V17.89Z" fill="black"/>
<path d="M28.89 31.92H27.49V36.13H28.89V31.92Z" fill="black"/>
<path d="M28.89 37.53H27.49V38.9301H28.89V37.53Z" fill="black"/>
<path d="M28.89 41.74H27.49V43.14H28.89V41.74Z" fill="black"/>
<path d="M28.89 44.54H27.49V47.35H28.89V44.54Z" fill="black"/>
<path d="M28.89 48.75H27.49V52.96H28.89V48.75Z" fill="black"/>
<path d="M28.89 54.36H27.49V61.37H28.89V54.36Z" fill="black"/>
<path d="M28.89 62.78H27.49V64.1801H28.89V62.78Z" fill="black"/>
<path d="M28.89 72.6H27.49V75.41H28.89V72.6Z" fill="black"/>
<path d="M28.89 78.21H27.49V79.61H28.89V78.21Z" fill="black"/>
<path d="M30.3 8.07007H28.9V9.46997H30.3V8.07007Z" fill="black"/>
<path d="M30.3 13.6801H28.9V15.08H30.3V13.6801Z" fill="black"/>
<path d="M30.3 17.89H28.9V19.29H30.3V17.89Z" fill="black"/>
<path d="M30.3 20.6901H28.9V22.09H30.3V20.6901Z" fill="black"/>
<path d="M30.3 26.3101H28.9V27.71H30.3V26.3101Z" fill="black"/>
<path d="M30.3 29.11H28.9V34.72H30.3V29.11Z" fill="black"/>
<path d="M30.3 36.13H28.9V38.9401H30.3V36.13Z" fill="black"/>
<path d="M30.3 45.95H28.9V47.35H30.3V45.95Z" fill="black"/>
<path d="M30.3 51.5601H28.9V54.37H30.3V51.5601Z" fill="black"/>
<path d="M30.3 59.98H28.9V62.79H30.3V59.98Z" fill="black"/>
<path d="M30.3 66.99H28.9V68.39H30.3V66.99Z" fill="black"/>
<path d="M30.3 69.8H28.9V71.2H30.3V69.8Z" fill="black"/>
<path d="M30.3 76.8101H28.9V79.62H30.3V76.8101Z" fill="black"/>
<path d="M31.7 6.66003H30.3V9.46997H31.7V6.66003Z" fill="black"/>
<path d="M31.7 10.87H30.3V12.27H31.7V10.87Z" fill="black"/>
<path d="M31.7 15.08H30.3V17.89H31.7V15.08Z" fill="black"/>
<path d="M31.7 19.29H30.3V22.1H31.7V19.29Z" fill="black"/>
<path d="M31.7 26.3101H30.3V33.3201H31.7V26.3101Z" fill="black"/>
<path d="M31.7 36.13H30.3V37.53H31.7V36.13Z" fill="black"/>
<path d="M31.7 38.9301H30.3V40.33H31.7V38.9301Z" fill="black"/>
<path d="M31.7 43.14H30.3V44.54H31.7V43.14Z" fill="black"/>
<path d="M31.7 45.95H30.3V47.35H31.7V45.95Z" fill="black"/>
<path d="M31.7 51.5601H30.3V57.17H31.7V51.5601Z" fill="black"/>
<path d="M31.7 59.98H30.3V61.38H31.7V59.98Z" fill="black"/>
<path d="M31.7 62.78H30.3V64.1801H31.7V62.78Z" fill="black"/>
<path d="M31.7 66.99H30.3V68.39H31.7V66.99Z" fill="black"/>
<path d="M31.7 71.2H30.3V75.41H31.7V71.2Z" fill="black"/>
<path d="M31.7 76.8101H30.3V78.21H31.7V76.8101Z" fill="black"/>
<path d="M31.7 79.62H30.3V81.02H31.7V79.62Z" fill="black"/>
<path d="M33.1 6.66003H31.7V8.06006H33.1V6.66003Z" fill="black"/>
<path d="M33.1 10.87H31.7V12.27H33.1V10.87Z" fill="black"/>
<path d="M33.1 13.6801H31.7V15.08H33.1V13.6801Z" fill="black"/>
<path d="M33.1 16.48H31.7V17.88H33.1V16.48Z" fill="black"/>
<path d="M33.1 19.29H31.7V23.5H33.1V19.29Z" fill="black"/>
<path d="M33.1 27.71H31.7V31.92H33.1V27.71Z" fill="black"/>
<path d="M33.1 36.13H31.7V37.53H33.1V36.13Z" fill="black"/>
<path d="M33.1 38.9301H31.7V40.33H33.1V38.9301Z" fill="black"/>
<path d="M33.1 41.74H31.7V45.95H33.1V41.74Z" fill="black"/>
<path d="M33.1 47.35H31.7V50.16H33.1V47.35Z" fill="black"/>
<path d="M33.1 58.5701H31.7V64.1801H33.1V58.5701Z" fill="black"/>
<path d="M33.1 65.59H31.7V66.99H33.1V65.59Z" fill="black"/>
<path d="M33.1 68.39H31.7V74H33.1V68.39Z" fill="black"/>
<path d="M33.1 76.8101H31.7V81.02H33.1V76.8101Z" fill="black"/>
<path d="M34.51 6.66003H33.11V8.06006H34.51V6.66003Z" fill="black"/>
<path d="M34.51 12.28H33.11V13.6801H34.51V12.28Z" fill="black"/>
<path d="M34.51 15.08H33.11V17.89H34.51V15.08Z" fill="black"/>
<path d="M34.51 20.6901H33.11V22.09H34.51V20.6901Z" fill="black"/>
<path d="M34.51 24.9H33.11V31.91H34.51V24.9Z" fill="black"/>
<path d="M34.51 36.13H33.11V37.53H34.51V36.13Z" fill="black"/>
<path d="M34.51 44.54H33.11V45.9401H34.51V44.54Z" fill="black"/>
<path d="M34.51 47.35H33.11V48.75H34.51V47.35Z" fill="black"/>
<path d="M34.51 50.16H33.11V57.17H34.51V50.16Z" fill="black"/>
<path d="M34.51 58.5701H33.11V59.97H34.51V58.5701Z" fill="black"/>
<path d="M34.51 61.38H33.11V66.99H34.51V61.38Z" fill="black"/>
<path d="M34.51 71.2H33.11V76.8101H34.51V71.2Z" fill="black"/>
<path d="M35.91 6.66003H34.51V9.46997H35.91V6.66003Z" fill="black"/>
<path d="M35.91 13.6801H34.51V15.08H35.91V13.6801Z" fill="black"/>
<path d="M35.91 16.48H34.51V19.29H35.91V16.48Z" fill="black"/>
<path d="M35.91 24.9H34.51V29.11H35.91V24.9Z" fill="black"/>
<path d="M35.91 30.51H34.51V34.72H35.91V30.51Z" fill="black"/>
<path d="M35.91 36.13H34.51V37.53H35.91V36.13Z" fill="black"/>
<path d="M35.91 43.14H34.51V44.54H35.91V43.14Z" fill="black"/>
<path d="M35.91 45.95H34.51V47.35H35.91V45.95Z" fill="black"/>
<path d="M35.91 51.5601H34.51V54.37H35.91V51.5601Z" fill="black"/>
<path d="M35.91 55.77H34.51V59.98H35.91V55.77Z" fill="black"/>
<path d="M35.91 64.1901H34.51V67H35.91V64.1901Z" fill="black"/>
<path d="M35.91 68.39H34.51V69.79H35.91V68.39Z" fill="black"/>
<path d="M35.91 72.6H34.51V74H35.91V72.6Z" fill="black"/>
<path d="M35.91 75.41H34.51V79.62H35.91V75.41Z" fill="black"/>
<path d="M37.31 6.66003H35.91V8.06006H37.31V6.66003Z" fill="black"/>
<path d="M37.31 12.28H35.91V13.6801H37.31V12.28Z" fill="black"/>
<path d="M37.31 15.08H35.91V17.89H37.31V15.08Z" fill="black"/>
<path d="M37.31 24.9H35.91V26.3H37.31V24.9Z" fill="black"/>
<path d="M37.31 27.71H35.91V33.3201H37.31V27.71Z" fill="black"/>
<path d="M37.31 36.13H35.91V37.53H37.31V36.13Z" fill="black"/>
<path d="M37.31 40.34H35.91V41.74H37.31V40.34Z" fill="black"/>
<path d="M37.31 47.35H35.91V50.16H37.31V47.35Z" fill="black"/>
<path d="M37.31 52.96H35.91V54.36H37.31V52.96Z" fill="black"/>
<path d="M37.31 57.17H35.91V58.5701H37.31V57.17Z" fill="black"/>
<path d="M37.31 61.38H35.91V66.99H37.31V61.38Z" fill="black"/>
<path d="M37.31 71.2H35.91V72.6H37.31V71.2Z" fill="black"/>
<path d="M37.31 74.01H35.91V76.8201H37.31V74.01Z" fill="black"/>
<path d="M38.71 6.66003H37.31V9.46997H38.71V6.66003Z" fill="black"/>
<path d="M38.71 10.87H37.31V12.27H38.71V10.87Z" fill="black"/>
<path d="M38.71 19.29H37.31V22.1H38.71V19.29Z" fill="black"/>
<path d="M38.71 24.9H37.31V40.33H38.71V24.9Z" fill="black"/>
<path d="M38.71 41.74H37.31V43.14H38.71V41.74Z" fill="black"/>
<path d="M38.71 48.75H37.31V50.15H38.71V48.75Z" fill="black"/>
<path d="M38.71 66.99H37.31V68.39H38.71V66.99Z" fill="black"/>
<path d="M38.71 71.2H37.31V79.62H38.71V71.2Z" fill="black"/>
<path d="M40.12 6.66003H38.72V8.06006H40.12V6.66003Z" fill="black"/>
<path d="M40.12 9.46997H38.72V20.6901H40.12V9.46997Z" fill="black"/>
<path d="M40.12 23.5H38.72V26.3101H40.12V23.5Z" fill="black"/>
<path d="M40.12 27.71H38.72V29.11H40.12V27.71Z" fill="black"/>
<path d="M40.12 31.92H38.72V33.3201H40.12V31.92Z" fill="black"/>
<path d="M40.12 34.72H38.72V37.53H40.12V34.72Z" fill="black"/>
<path d="M40.12 40.34H38.72V45.95H40.12V40.34Z" fill="black"/>
<path d="M40.12 48.75H38.72V50.15H40.12V48.75Z" fill="black"/>
<path d="M40.12 51.5601H38.72V52.96H40.12V51.5601Z" fill="black"/>
<path d="M40.12 55.77H38.72V58.58H40.12V55.77Z" fill="black"/>
<path d="M40.12 62.78H38.72V65.59H40.12V62.78Z" fill="black"/>
<path d="M40.12 68.39H38.72V71.2H40.12V68.39Z" fill="black"/>
<path d="M40.12 72.6H38.72V75.41H40.12V72.6Z" fill="black"/>
<path d="M40.12 79.62H38.72V81.02H40.12V79.62Z" fill="black"/>
<path d="M41.52 9.46997H40.12V12.28H41.52V9.46997Z" fill="black"/>
<path d="M41.52 13.6801H40.12V15.08H41.52V13.6801Z" fill="black"/>
<path d="M41.52 19.29H40.12V22.1H41.52V19.29Z" fill="black"/>
<path d="M41.52 27.71H40.12V29.11H41.52V27.71Z" fill="black"/>
<path d="M41.52 30.51H40.12V31.91H41.52V30.51Z" fill="black"/>
<path d="M41.52 33.3201H40.12V36.13H41.52V33.3201Z" fill="black"/>
<path d="M41.52 38.9301H40.12V40.33H41.52V38.9301Z" fill="black"/>
<path d="M41.52 47.35H40.12V52.96H41.52V47.35Z" fill="black"/>
<path d="M41.52 54.36H40.12V57.17H41.52V54.36Z" fill="black"/>
<path d="M41.52 61.38H40.12V62.78H41.52V61.38Z" fill="black"/>
<path d="M41.52 65.59H40.12V69.8H41.52V65.59Z" fill="black"/>
<path d="M41.52 71.2H40.12V72.6H41.52V71.2Z" fill="black"/>
<path d="M41.52 76.8101H40.12V78.21H41.52V76.8101Z" fill="black"/>
<path d="M42.92 10.87H41.52V23.5H42.92V10.87Z" fill="black"/>
<path d="M42.92 24.9H41.52V29.11H42.92V24.9Z" fill="black"/>
<path d="M42.92 30.51H41.52V31.91H42.92V30.51Z" fill="black"/>
<path d="M42.92 33.3201H41.52V34.72H42.92V33.3201Z" fill="black"/>
<path d="M42.92 36.13H41.52V47.35H42.92V36.13Z" fill="black"/>
<path d="M42.92 48.75H41.52V50.15H42.92V48.75Z" fill="black"/>
<path d="M42.92 55.77H41.52V58.58H42.92V55.77Z" fill="black"/>
<path d="M42.92 59.98H41.52V64.1901H42.92V59.98Z" fill="black"/>
<path d="M42.92 68.39H41.52V75.4H42.92V68.39Z" fill="black"/>
<path d="M42.92 78.21H41.52V81.02H42.92V78.21Z" fill="black"/>
<path d="M44.33 8.07007H42.93V9.46997H44.33V8.07007Z" fill="black"/>
<path d="M44.33 12.28H42.93V13.6801H44.33V12.28Z" fill="black"/>
<path d="M44.33 17.89H42.93V24.9H44.33V17.89Z" fill="black"/>
<path d="M44.33 26.3101H42.93V31.92H44.33V26.3101Z" fill="black"/>
<path d="M44.33 34.72H42.93V36.12H44.33V34.72Z" fill="black"/>
<path d="M44.33 37.53H42.93V38.9301H44.33V37.53Z" fill="black"/>
<path d="M44.33 40.34H42.93V41.74H44.33V40.34Z" fill="black"/>
<path d="M44.33 45.95H42.93V50.16H44.33V45.95Z" fill="black"/>
<path d="M44.33 51.5601H42.93V59.98H44.33V51.5601Z" fill="black"/>
<path d="M44.33 61.38H42.93V65.59H44.33V61.38Z" fill="black"/>
<path d="M44.33 66.99H42.93V69.8H44.33V66.99Z" fill="black"/>
<path d="M44.33 74.01H42.93V75.41H44.33V74.01Z" fill="black"/>
<path d="M44.33 79.62H42.93V81.02H44.33V79.62Z" fill="black"/>
<path d="M45.73 9.46997H44.33V13.6801H45.73V9.46997Z" fill="black"/>
<path d="M45.73 15.08H44.33V16.48H45.73V15.08Z" fill="black"/>
<path d="M45.73 17.89H44.33V20.7H45.73V17.89Z" fill="black"/>
<path d="M45.73 24.9H44.33V29.11H45.73V24.9Z" fill="black"/>
<path d="M45.73 31.92H44.33V38.9301H45.73V31.92Z" fill="black"/>
<path d="M45.73 40.34H44.33V41.74H45.73V40.34Z" fill="black"/>
<path d="M45.73 43.14H44.33V44.54H45.73V43.14Z" fill="black"/>
<path d="M45.73 45.95H44.33V51.5601H45.73V45.95Z" fill="black"/>
<path d="M45.73 52.96H44.33V55.77H45.73V52.96Z" fill="black"/>
<path d="M45.73 57.17H44.33V58.5701H45.73V57.17Z" fill="black"/>
<path d="M45.73 61.38H44.33V64.1901H45.73V61.38Z" fill="black"/>
<path d="M45.73 68.39H44.33V69.79H45.73V68.39Z" fill="black"/>
<path d="M45.73 71.2H44.33V72.6H45.73V71.2Z" fill="black"/>
<path d="M45.73 74.01H44.33V76.8201H45.73V74.01Z" fill="black"/>
<path d="M45.73 78.21H44.33V79.61H45.73V78.21Z" fill="black"/>
<path d="M47.13 8.07007H45.73V10.88H47.13V8.07007Z" fill="black"/>
<path d="M47.13 12.28H45.73V13.6801H47.13V12.28Z" fill="black"/>
<path d="M47.13 17.89H45.73V23.5H47.13V17.89Z" fill="black"/>
<path d="M47.13 27.71H45.73V29.11H47.13V27.71Z" fill="black"/>
<path d="M47.13 33.3201H45.73V41.74H47.13V33.3201Z" fill="black"/>
<path d="M47.13 45.95H45.73V47.35H47.13V45.95Z" fill="black"/>
<path d="M47.13 50.16H45.73V51.5601H47.13V50.16Z" fill="black"/>
<path d="M47.13 52.96H45.73V54.36H47.13V52.96Z" fill="black"/>
<path d="M47.13 55.77H45.73V57.17H47.13V55.77Z" fill="black"/>
<path d="M47.13 59.98H45.73V62.79H47.13V59.98Z" fill="black"/>
<path d="M47.13 65.59H45.73V69.8H47.13V65.59Z" fill="black"/>
<path d="M47.13 74.01H45.73V76.8201H47.13V74.01Z" fill="black"/>
<path d="M48.53 6.66003H47.13V8.06006H48.53V6.66003Z" fill="black"/>
<path d="M48.53 12.28H47.13V19.29H48.53V12.28Z" fill="black"/>
<path d="M48.53 23.5H47.13V24.9H48.53V23.5Z" fill="black"/>
<path d="M48.53 26.3101H47.13V27.71H48.53V26.3101Z" fill="black"/>
<path d="M48.53 31.92H47.13V33.3201H48.53V31.92Z" fill="black"/>
<path d="M48.53 34.72H47.13V37.53H48.53V34.72Z" fill="black"/>
<path d="M48.53 38.9301H47.13V48.75H48.53V38.9301Z" fill="black"/>
<path d="M48.53 51.5601H47.13V52.96H48.53V51.5601Z" fill="black"/>
<path d="M48.53 55.77H47.13V62.78H48.53V55.77Z" fill="black"/>
<path d="M48.53 68.39H47.13V81.02H48.53V68.39Z" fill="black"/>
<path d="M49.94 6.66003H48.54V9.46997H49.94V6.66003Z" fill="black"/>
<path d="M49.94 10.87H48.54V12.27H49.94V10.87Z" fill="black"/>
<path d="M49.94 13.6801H48.54V15.08H49.94V13.6801Z" fill="black"/>
<path d="M49.94 16.48H48.54V17.88H49.94V16.48Z" fill="black"/>
<path d="M49.94 19.29H48.54V22.1H49.94V19.29Z" fill="black"/>
<path d="M49.94 23.5H48.54V26.3101H49.94V23.5Z" fill="black"/>
<path d="M49.94 27.71H48.54V29.11H49.94V27.71Z" fill="black"/>
<path d="M49.94 31.92H48.54V33.3201H49.94V31.92Z" fill="black"/>
<path d="M49.94 34.72H48.54V37.53H49.94V34.72Z" fill="black"/>
<path d="M49.94 38.9301H48.54V43.14H49.94V38.9301Z" fill="black"/>
<path d="M49.94 51.5601H48.54V52.96H49.94V51.5601Z" fill="black"/>
<path d="M49.94 57.17H48.54V59.98H49.94V57.17Z" fill="black"/>
<path d="M49.94 61.38H48.54V62.78H49.94V61.38Z" fill="black"/>
<path d="M49.94 65.59H48.54V68.4H49.94V65.59Z" fill="black"/>
<path d="M49.94 69.8H48.54V71.2H49.94V69.8Z" fill="black"/>
<path d="M49.94 72.6H48.54V74H49.94V72.6Z" fill="black"/>
<path d="M49.94 75.41H48.54V76.8101H49.94V75.41Z" fill="black"/>
<path d="M49.94 78.21H48.54V81.02H49.94V78.21Z" fill="black"/>
<path d="M51.34 6.66003H49.94V8.06006H51.34V6.66003Z" fill="black"/>
<path d="M51.34 9.46997H49.94V10.87H51.34V9.46997Z" fill="black"/>
<path d="M51.34 12.28H49.94V20.7H51.34V12.28Z" fill="black"/>
<path d="M51.34 26.3101H49.94V31.92H51.34V26.3101Z" fill="black"/>
<path d="M51.34 34.72H49.94V37.53H51.34V34.72Z" fill="black"/>
<path d="M51.34 38.9301H49.94V40.33H51.34V38.9301Z" fill="black"/>
<path d="M51.34 41.74H49.94V45.95H51.34V41.74Z" fill="black"/>
<path d="M51.34 47.35H49.94V48.75H51.34V47.35Z" fill="black"/>
<path d="M51.34 50.16H49.94V55.77H51.34V50.16Z" fill="black"/>
<path d="M51.34 58.5701H49.94V59.97H51.34V58.5701Z" fill="black"/>
<path d="M51.34 61.38H49.94V66.99H51.34V61.38Z" fill="black"/>
<path d="M51.34 69.8H49.94V72.61H51.34V69.8Z" fill="black"/>
<path d="M51.34 74.01H49.94V78.22H51.34V74.01Z" fill="black"/>
<path d="M52.74 9.46997H51.34V15.08H52.74V9.46997Z" fill="black"/>
<path d="M52.74 17.89H51.34V20.7H52.74V17.89Z" fill="black"/>
<path d="M52.74 22.1H51.34V23.5H52.74V22.1Z" fill="black"/>
<path d="M52.74 29.11H51.34V30.51H52.74V29.11Z" fill="black"/>
<path d="M52.74 31.92H51.34V33.3201H52.74V31.92Z" fill="black"/>
<path d="M52.74 36.13H51.34V37.53H52.74V36.13Z" fill="black"/>
<path d="M52.74 40.34H51.34V41.74H52.74V40.34Z" fill="black"/>
<path d="M52.74 45.95H51.34V47.35H52.74V45.95Z" fill="black"/>
<path d="M52.74 50.16H51.34V51.5601H52.74V50.16Z" fill="black"/>
<path d="M52.74 52.96H51.34V57.17H52.74V52.96Z" fill="black"/>
<path d="M52.74 58.5701H51.34V59.97H52.74V58.5701Z" fill="black"/>
<path d="M52.74 62.78H51.34V64.1801H52.74V62.78Z" fill="black"/>
<path d="M52.74 65.59H51.34V68.4H52.74V65.59Z" fill="black"/>
<path d="M52.74 69.8H51.34V75.41H52.74V69.8Z" fill="black"/>
<path d="M52.74 76.8101H51.34V78.21H52.74V76.8101Z" fill="black"/>
<path d="M52.74 79.62H51.34V81.02H52.74V79.62Z" fill="black"/>
<path d="M54.15 8.07007H52.75V12.28H54.15V8.07007Z" fill="black"/>
<path d="M54.15 13.6801H52.75V17.89H54.15V13.6801Z" fill="black"/>
<path d="M54.15 19.29H52.75V22.1H54.15V19.29Z" fill="black"/>
<path d="M54.15 23.5H52.75V31.92H54.15V23.5Z" fill="black"/>
<path d="M54.15 33.3201H52.75V34.72H54.15V33.3201Z" fill="black"/>
<path d="M54.15 36.13H52.75V45.95H54.15V36.13Z" fill="black"/>
<path d="M54.15 47.35H52.75V48.75H54.15V47.35Z" fill="black"/>
<path d="M54.15 50.16H52.75V51.5601H54.15V50.16Z" fill="black"/>
<path d="M54.15 52.96H52.75V54.36H54.15V52.96Z" fill="black"/>
<path d="M54.15 57.17H52.75V61.38H54.15V57.17Z" fill="black"/>
<path d="M54.15 62.78H52.75V64.1801H54.15V62.78Z" fill="black"/>
<path d="M54.15 65.59H52.75V66.99H54.15V65.59Z" fill="black"/>
<path d="M54.15 74.01H52.75V76.8201H54.15V74.01Z" fill="black"/>
<path d="M54.15 79.62H52.75V81.02H54.15V79.62Z" fill="black"/>
<path d="M55.55 6.66003H54.15V8.06006H55.55V6.66003Z" fill="black"/>
<path d="M55.55 9.46997H54.15V15.08H55.55V9.46997Z" fill="black"/>
<path d="M55.55 19.29H54.15V20.6901H55.55V19.29Z" fill="black"/>
<path d="M55.55 24.9H54.15V27.71H55.55V24.9Z" fill="black"/>
<path d="M55.55 33.3201H54.15V38.9301H55.55V33.3201Z" fill="black"/>
<path d="M55.55 40.34H54.15V44.55H55.55V40.34Z" fill="black"/>
<path d="M55.55 45.95H54.15V48.76H55.55V45.95Z" fill="black"/>
<path d="M55.55 50.16H54.15V51.5601H55.55V50.16Z" fill="black"/>
<path d="M55.55 52.96H54.15V54.36H55.55V52.96Z" fill="black"/>
<path d="M55.55 55.77H54.15V61.38H55.55V55.77Z" fill="black"/>
<path d="M55.55 64.1901H54.15V69.8H55.55V64.1901Z" fill="black"/>
<path d="M55.55 74.01H54.15V78.22H55.55V74.01Z" fill="black"/>
<path d="M55.55 79.62H54.15V81.02H55.55V79.62Z" fill="black"/>
<path d="M56.95 6.66003H55.55V10.87H56.95V6.66003Z" fill="black"/>
<path d="M56.95 15.08H55.55V20.6901H56.95V15.08Z" fill="black"/>
<path d="M56.95 22.1H55.55V23.5H56.95V22.1Z" fill="black"/>
<path d="M56.95 26.3101H55.55V29.12H56.95V26.3101Z" fill="black"/>
<path d="M56.95 30.51H55.55V34.72H56.95V30.51Z" fill="black"/>
<path d="M56.95 36.13H55.55V40.34H56.95V36.13Z" fill="black"/>
<path d="M56.95 47.35H55.55V50.16H56.95V47.35Z" fill="black"/>
<path d="M56.95 52.96H55.55V54.36H56.95V52.96Z" fill="black"/>
<path d="M56.95 58.5701H55.55V65.58H56.95V58.5701Z" fill="black"/>
<path d="M56.95 66.99H55.55V74H56.95V66.99Z" fill="black"/>
<path d="M56.95 78.21H55.55V81.02H56.95V78.21Z" fill="black"/>
<path d="M58.36 10.87H56.96V13.6801H58.36V10.87Z" fill="black"/>
<path d="M58.36 17.89H56.96V20.7H58.36V17.89Z" fill="black"/>
<path d="M58.36 24.9H56.96V26.3H58.36V24.9Z" fill="black"/>
<path d="M58.36 30.51H56.96V31.91H58.36V30.51Z" fill="black"/>
<path d="M58.36 34.72H56.96V36.12H58.36V34.72Z" fill="black"/>
<path d="M58.36 40.34H56.96V43.15H58.36V40.34Z" fill="black"/>
<path d="M58.36 44.54H56.96V45.9401H58.36V44.54Z" fill="black"/>
<path d="M58.36 50.16H56.96V52.97H58.36V50.16Z" fill="black"/>
<path d="M58.36 68.39H56.96V69.79H58.36V68.39Z" fill="black"/>
<path d="M58.36 72.6H56.96V74H58.36V72.6Z" fill="black"/>
<path d="M58.36 75.41H56.96V78.22H58.36V75.41Z" fill="black"/>
<path d="M59.76 6.66003H58.36V8.06006H59.76V6.66003Z" fill="black"/>
<path d="M59.76 9.46997H58.36V10.87H59.76V9.46997Z" fill="black"/>
<path d="M59.76 15.08H58.36V16.48H59.76V15.08Z" fill="black"/>
<path d="M59.76 17.89H58.36V24.9H59.76V17.89Z" fill="black"/>
<path d="M59.76 26.3101H58.36V27.71H59.76V26.3101Z" fill="black"/>
<path d="M59.76 29.11H58.36V30.51H59.76V29.11Z" fill="black"/>
<path d="M59.76 31.92H58.36V33.3201H59.76V31.92Z" fill="black"/>
<path d="M59.76 34.72H58.36V44.54H59.76V34.72Z" fill="black"/>
<path d="M59.76 45.95H58.36V50.16H59.76V45.95Z" fill="black"/>
<path d="M59.76 51.5601H58.36V52.96H59.76V51.5601Z" fill="black"/>
<path d="M59.76 57.17H58.36V58.5701H59.76V57.17Z" fill="black"/>
<path d="M59.76 59.98H58.36V61.38H59.76V59.98Z" fill="black"/>
<path d="M59.76 62.78H58.36V68.39H59.76V62.78Z" fill="black"/>
<path d="M59.76 72.6H58.36V75.41H59.76V72.6Z" fill="black"/>
<path d="M59.76 76.8101H58.36V81.02H59.76V76.8101Z" fill="black"/>
<path d="M61.16 6.66003H59.76V8.06006H61.16V6.66003Z" fill="black"/>
<path d="M61.16 9.46997H59.76V10.87H61.16V9.46997Z" fill="black"/>
<path d="M61.16 12.28H59.76V15.09H61.16V12.28Z" fill="black"/>
<path d="M61.16 17.89H59.76V20.7H61.16V17.89Z" fill="black"/>
<path d="M61.16 23.5H59.76V24.9H61.16V23.5Z" fill="black"/>
<path d="M61.16 26.3101H59.76V27.71H61.16V26.3101Z" fill="black"/>
<path d="M61.16 29.11H59.76V33.3201H61.16V29.11Z" fill="black"/>
<path d="M61.16 34.72H59.76V37.53H61.16V34.72Z" fill="black"/>
<path d="M61.16 43.14H59.76V44.54H61.16V43.14Z" fill="black"/>
<path d="M61.16 45.95H59.76V54.37H61.16V45.95Z" fill="black"/>
<path d="M61.16 62.78H59.76V64.1801H61.16V62.78Z" fill="black"/>
<path d="M61.16 66.99H59.76V68.39H61.16V66.99Z" fill="black"/>
<path d="M61.16 69.8H59.76V75.41H61.16V69.8Z" fill="black"/>
<path d="M61.16 76.8101H59.76V79.62H61.16V76.8101Z" fill="black"/>
<path d="M62.56 6.66003H61.16V16.48H62.56V6.66003Z" fill="black"/>
<path d="M62.56 19.29H61.16V27.71H62.56V19.29Z" fill="black"/>
<path d="M62.56 29.11H61.16V30.51H62.56V29.11Z" fill="black"/>
<path d="M62.56 34.72H61.16V36.12H62.56V34.72Z" fill="black"/>
<path d="M62.56 37.53H61.16V38.9301H62.56V37.53Z" fill="black"/>
<path d="M62.56 41.74H61.16V44.55H62.56V41.74Z" fill="black"/>
<path d="M62.56 45.95H61.16V47.35H62.56V45.95Z" fill="black"/>
<path d="M62.56 48.75H61.16V54.36H62.56V48.75Z" fill="black"/>
<path d="M62.56 57.17H61.16V59.98H62.56V57.17Z" fill="black"/>
<path d="M62.56 61.38H61.16V64.1901H62.56V61.38Z" fill="black"/>
<path d="M62.56 65.59H61.16V68.4H62.56V65.59Z" fill="black"/>
<path d="M62.56 69.8H61.16V71.2H62.56V69.8Z" fill="black"/>
<path d="M62.56 75.41H61.16V76.8101H62.56V75.41Z" fill="black"/>
<path d="M63.97 9.46997H62.57V15.08H63.97V9.46997Z" fill="black"/>
<path d="M63.97 20.6901H62.57V22.09H63.97V20.6901Z" fill="black"/>
<path d="M63.97 26.3101H62.57V27.71H63.97V26.3101Z" fill="black"/>
<path d="M63.97 30.51H62.57V33.3201H63.97V30.51Z" fill="black"/>
<path d="M63.97 41.74H62.57V43.14H63.97V41.74Z" fill="black"/>
<path d="M63.97 48.75H62.57V50.15H63.97V48.75Z" fill="black"/>
<path d="M63.97 52.96H62.57V54.36H63.97V52.96Z" fill="black"/>
<path d="M63.97 61.38H62.57V66.99H63.97V61.38Z" fill="black"/>
<path d="M63.97 69.8H62.57V72.61H63.97V69.8Z" fill="black"/>
<path d="M65.37 6.66003H63.97V8.06006H65.37V6.66003Z" fill="black"/>
<path d="M65.37 10.87H63.97V19.29H65.37V10.87Z" fill="black"/>
<path d="M65.37 20.6901H63.97V22.09H65.37V20.6901Z" fill="black"/>
<path d="M65.37 23.5H63.97V24.9H65.37V23.5Z" fill="black"/>
<path d="M65.37 30.51H63.97V31.91H65.37V30.51Z" fill="black"/>
<path d="M65.37 37.53H63.97V41.74H65.37V37.53Z" fill="black"/>
<path d="M65.37 44.54H63.97V45.9401H65.37V44.54Z" fill="black"/>
<path d="M65.37 47.35H63.97V48.75H65.37V47.35Z" fill="black"/>
<path d="M65.37 50.16H63.97V52.97H65.37V50.16Z" fill="black"/>
<path d="M65.37 57.17H63.97V59.98H65.37V57.17Z" fill="black"/>
<path d="M65.37 61.38H63.97V62.78H65.37V61.38Z" fill="black"/>
<path d="M65.37 64.1901H63.97V69.8H65.37V64.1901Z" fill="black"/>
<path d="M65.37 72.6H63.97V79.61H65.37V72.6Z" fill="black"/>
<path d="M66.77 6.66003H65.37V8.06006H66.77V6.66003Z" fill="black"/>
<path d="M66.77 10.87H65.37V12.27H66.77V10.87Z" fill="black"/>
<path d="M66.77 13.6801H65.37V15.08H66.77V13.6801Z" fill="black"/>
<path d="M66.77 17.89H65.37V23.5H66.77V17.89Z" fill="black"/>
<path d="M66.77 31.92H65.37V33.3201H66.77V31.92Z" fill="black"/>
<path d="M66.77 36.13H65.37V38.9401H66.77V36.13Z" fill="black"/>
<path d="M66.77 40.34H65.37V41.74H66.77V40.34Z" fill="black"/>
<path d="M66.77 44.54H65.37V47.35H66.77V44.54Z" fill="black"/>
<path d="M66.77 48.75H65.37V54.36H66.77V48.75Z" fill="black"/>
<path d="M66.77 58.5701H65.37V61.38H66.77V58.5701Z" fill="black"/>
<path d="M66.77 62.78H65.37V64.1801H66.77V62.78Z" fill="black"/>
<path d="M66.77 65.59H65.37V68.4H66.77V65.59Z" fill="black"/>
<path d="M66.77 69.8H65.37V72.61H66.77V69.8Z" fill="black"/>
<path d="M66.77 74.01H65.37V75.41H66.77V74.01Z" fill="black"/>
<path d="M66.77 78.21H65.37V81.02H66.77V78.21Z" fill="black"/>
<path d="M68.18 6.66003H66.78V9.46997H68.18V6.66003Z" fill="black"/>
<path d="M68.18 10.87H66.78V17.88H68.18V10.87Z" fill="black"/>
<path d="M68.18 19.29H66.78V20.6901H68.18V19.29Z" fill="black"/>
<path d="M68.18 22.1H66.78V23.5H68.18V22.1Z" fill="black"/>
<path d="M68.18 24.9H66.78V26.3H68.18V24.9Z" fill="black"/>
<path d="M68.18 29.11H66.78V31.92H68.18V29.11Z" fill="black"/>
<path d="M68.18 33.3201H66.78V34.72H68.18V33.3201Z" fill="black"/>
<path d="M68.18 36.13H66.78V40.34H68.18V36.13Z" fill="black"/>
<path d="M68.18 41.74H66.78V48.75H68.18V41.74Z" fill="black"/>
<path d="M68.18 52.96H66.78V57.17H68.18V52.96Z" fill="black"/>
<path d="M68.18 58.5701H66.78V62.78H68.18V58.5701Z" fill="black"/>
<path d="M68.18 64.1901H66.78V65.59H68.18V64.1901Z" fill="black"/>
<path d="M68.18 71.2H66.78V72.6H68.18V71.2Z" fill="black"/>
<path d="M68.18 75.41H66.78V76.8101H68.18V75.41Z" fill="black"/>
<path d="M68.18 78.21H66.78V79.61H68.18V78.21Z" fill="black"/>
<path d="M69.58 8.07007H68.18V10.88H69.58V8.07007Z" fill="black"/>
<path d="M69.58 17.89H68.18V22.1H69.58V17.89Z" fill="black"/>
<path d="M69.58 26.3101H68.18V27.71H69.58V26.3101Z" fill="black"/>
<path d="M69.58 29.11H68.18V33.3201H69.58V29.11Z" fill="black"/>
<path d="M69.58 34.72H68.18V41.73H69.58V34.72Z" fill="black"/>
<path d="M69.58 48.75H68.18V52.96H69.58V48.75Z" fill="black"/>
<path d="M69.58 55.77H68.18V58.58H69.58V55.77Z" fill="black"/>
<path d="M69.58 59.98H68.18V62.79H69.58V59.98Z" fill="black"/>
<path d="M69.58 65.59H68.18V66.99H69.58V65.59Z" fill="black"/>
<path d="M69.58 68.39H68.18V74H69.58V68.39Z" fill="black"/>
<path d="M69.58 79.62H68.18V81.02H69.58V79.62Z" fill="black"/>
<path d="M70.98 10.87H69.58V12.27H70.98V10.87Z" fill="black"/>
<path d="M70.98 15.08H69.58V17.89H70.98V15.08Z" fill="black"/>
<path d="M70.98 19.29H69.58V20.6901H70.98V19.29Z" fill="black"/>
<path d="M70.98 23.5H69.58V29.11H70.98V23.5Z" fill="black"/>
<path d="M70.98 31.92H69.58V37.53H70.98V31.92Z" fill="black"/>
<path d="M70.98 38.9301H69.58V47.35H70.98V38.9301Z" fill="black"/>
<path d="M70.98 51.5601H69.58V54.37H70.98V51.5601Z" fill="black"/>
<path d="M70.98 57.17H69.58V59.98H70.98V57.17Z" fill="black"/>
<path d="M70.98 65.59H69.58V75.41H70.98V65.59Z" fill="black"/>
<path d="M72.38 17.89H70.98V19.29H72.38V17.89Z" fill="black"/>
<path d="M72.38 22.1H70.98V29.11H72.38V22.1Z" fill="black"/>
<path d="M72.38 30.51H70.98V41.73H72.38V30.51Z" fill="black"/>
<path d="M72.38 45.95H70.98V50.16H72.38V45.95Z" fill="black"/>
<path d="M72.38 51.5601H70.98V52.96H72.38V51.5601Z" fill="black"/>
<path d="M72.38 54.36H70.98V55.76H72.38V54.36Z" fill="black"/>
<path d="M72.38 58.5701H70.98V59.97H72.38V58.5701Z" fill="black"/>
<path d="M72.38 64.1901H70.98V65.59H72.38V64.1901Z" fill="black"/>
<path d="M72.38 68.39H70.98V69.79H72.38V68.39Z" fill="black"/>
<path d="M72.38 74.01H70.98V75.41H72.38V74.01Z" fill="black"/>
<path d="M72.38 78.21H70.98V81.02H72.38V78.21Z" fill="black"/>
<path d="M73.79 6.66003H72.39V16.48H73.79V6.66003Z" fill="black"/>
<path d="M73.79 19.29H72.39V22.1H73.79V19.29Z" fill="black"/>
<path d="M73.79 23.5H72.39V24.9H73.79V23.5Z" fill="black"/>
<path d="M73.79 30.51H72.39V31.91H73.79V30.51Z" fill="black"/>
<path d="M73.79 36.13H72.39V38.9401H73.79V36.13Z" fill="black"/>
<path d="M73.79 40.34H72.39V41.74H73.79V40.34Z" fill="black"/>
<path d="M73.79 43.14H72.39V44.54H73.79V43.14Z" fill="black"/>
<path d="M73.79 45.95H72.39V51.5601H73.79V45.95Z" fill="black"/>
<path d="M73.79 58.5701H72.39V61.38H73.79V58.5701Z" fill="black"/>
<path d="M73.79 65.59H72.39V69.8H73.79V65.59Z" fill="black"/>
<path d="M73.79 71.2H72.39V72.6H73.79V71.2Z" fill="black"/>
<path d="M73.79 74.01H72.39V76.8201H73.79V74.01Z" fill="black"/>
<path d="M73.79 78.21H72.39V81.02H73.79V78.21Z" fill="black"/>
<path d="M75.19 6.66003H73.79V8.06006H75.19V6.66003Z" fill="black"/>
<path d="M75.19 15.08H73.79V16.48H75.19V15.08Z" fill="black"/>
<path d="M75.19 19.29H73.79V22.1H75.19V19.29Z" fill="black"/>
<path d="M75.19 23.5H73.79V29.11H75.19V23.5Z" fill="black"/>
<path d="M75.19 30.51H73.79V33.3201H75.19V30.51Z" fill="black"/>
<path d="M75.19 34.72H73.79V36.12H75.19V34.72Z" fill="black"/>
<path d="M75.19 37.53H73.79V41.74H75.19V37.53Z" fill="black"/>
<path d="M75.19 45.95H73.79V47.35H75.19V45.95Z" fill="black"/>
<path d="M75.19 48.75H73.79V50.15H75.19V48.75Z" fill="black"/>
<path d="M75.19 51.5601H73.79V57.17H75.19V51.5601Z" fill="black"/>
<path d="M75.19 59.98H73.79V61.38H75.19V59.98Z" fill="black"/>
<path d="M75.19 68.39H73.79V69.79H75.19V68.39Z" fill="black"/>
<path d="M75.19 74.01H73.79V78.22H75.19V74.01Z" fill="black"/>
<path d="M76.59 6.66003H75.19V8.06006H76.59V6.66003Z" fill="black"/>
<path d="M76.59 9.46997H75.19V13.6801H76.59V9.46997Z" fill="black"/>
<path d="M76.59 15.08H75.19V16.48H76.59V15.08Z" fill="black"/>
<path d="M76.59 17.89H75.19V19.29H76.59V17.89Z" fill="black"/>
<path d="M76.59 20.6901H75.19V22.09H76.59V20.6901Z" fill="black"/>
<path d="M76.59 23.5H75.19V26.3101H76.59V23.5Z" fill="black"/>
<path d="M76.59 27.71H75.19V31.92H76.59V27.71Z" fill="black"/>
<path d="M76.59 33.3201H75.19V37.53H76.59V33.3201Z" fill="black"/>
<path d="M76.59 40.34H75.19V51.5601H76.59V40.34Z" fill="black"/>
<path d="M76.59 52.96H75.19V57.17H76.59V52.96Z" fill="black"/>
<path d="M76.59 58.5701H75.19V66.99H76.59V58.5701Z" fill="black"/>
<path d="M76.59 68.39H75.19V81.02H76.59V68.39Z" fill="black"/>
<path d="M78 6.66003H76.6V8.06006H78V6.66003Z" fill="black"/>
<path d="M78 9.46997H76.6V13.6801H78V9.46997Z" fill="black"/>
<path d="M78 15.08H76.6V16.48H78V15.08Z" fill="black"/>
<path d="M78 19.29H76.6V23.5H78V19.29Z" fill="black"/>
<path d="M78 26.3101H76.6V27.71H78V26.3101Z" fill="black"/>
<path d="M78 29.11H76.6V30.51H78V29.11Z" fill="black"/>
<path d="M78 31.92H76.6V33.3201H78V31.92Z" fill="black"/>
<path d="M78 37.53H76.6V41.74H78V37.53Z" fill="black"/>
<path d="M78 43.14H76.6V48.75H78V43.14Z" fill="black"/>
<path d="M78 55.77H76.6V58.58H78V55.77Z" fill="black"/>
<path d="M78 59.98H76.6V65.59H78V59.98Z" fill="black"/>
<path d="M78 68.39H76.6V71.2H78V68.39Z" fill="black"/>
<path d="M78 72.6H76.6V74H78V72.6Z" fill="black"/>
<path d="M78 78.21H76.6V81.02H78V78.21Z" fill="black"/>
<path d="M79.4 6.66003H78V8.06006H79.4V6.66003Z" fill="black"/>
<path d="M79.4 9.46997H78V13.6801H79.4V9.46997Z" fill="black"/>
<path d="M79.4 15.08H78V16.48H79.4V15.08Z" fill="black"/>
<path d="M79.4 17.89H78V19.29H79.4V17.89Z" fill="black"/>
<path d="M79.4 20.6901H78V22.09H79.4V20.6901Z" fill="black"/>
<path d="M79.4 23.5H78V29.11H79.4V23.5Z" fill="black"/>
<path d="M79.4 33.3201H78V34.72H79.4V33.3201Z" fill="black"/>
<path d="M79.4 37.53H78V38.9301H79.4V37.53Z" fill="black"/>
<path d="M79.4 40.34H78V43.15H79.4V40.34Z" fill="black"/>
<path d="M79.4 44.54H78V45.9401H79.4V44.54Z" fill="black"/>
<path d="M79.4 47.35H78V48.75H79.4V47.35Z" fill="black"/>
<path d="M79.4 50.16H78V55.77H79.4V50.16Z" fill="black"/>
<path d="M79.4 58.5701H78V59.97H79.4V58.5701Z" fill="black"/>
<path d="M79.4 61.38H78V65.59H79.4V61.38Z" fill="black"/>
<path d="M79.4 66.99H78V68.39H79.4V66.99Z" fill="black"/>
<path d="M79.4 69.8H78V72.61H79.4V69.8Z" fill="black"/>
<path d="M79.4 75.41H78V76.8101H79.4V75.41Z" fill="black"/>
<path d="M79.4 78.21H78V79.61H79.4V78.21Z" fill="black"/>
<path d="M80.8 6.66003H79.4V8.06006H80.8V6.66003Z" fill="black"/>
<path d="M80.8 15.08H79.4V16.48H80.8V15.08Z" fill="black"/>
<path d="M80.8 17.89H79.4V20.7H80.8V17.89Z" fill="black"/>
<path d="M80.8 23.5H79.4V26.3101H80.8V23.5Z" fill="black"/>
<path d="M80.8 27.71H79.4V30.52H80.8V27.71Z" fill="black"/>
<path d="M80.8 33.3201H79.4V36.13H80.8V33.3201Z" fill="black"/>
<path d="M80.8 38.9301H79.4V40.33H80.8V38.9301Z" fill="black"/>
<path d="M80.8 44.54H79.4V45.9401H80.8V44.54Z" fill="black"/>
<path d="M80.8 51.5601H79.4V52.96H80.8V51.5601Z" fill="black"/>
<path d="M80.8 62.78H79.4V64.1801H80.8V62.78Z" fill="black"/>
<path d="M80.8 75.41H79.4V78.22H80.8V75.41Z" fill="black"/>
<path d="M82.21 6.66003H80.81V16.48H82.21V6.66003Z" fill="black"/>
<path d="M82.21 17.89H80.81V19.29H82.21V17.89Z" fill="black"/>
<path d="M82.21 22.1H80.81V23.5H82.21V22.1Z" fill="black"/>
<path d="M82.21 24.9H80.81V27.71H82.21V24.9Z" fill="black"/>
<path d="M82.21 29.11H80.81V33.3201H82.21V29.11Z" fill="black"/>
<path d="M82.21 36.13H80.81V37.53H82.21V36.13Z" fill="black"/>
<path d="M82.21 40.34H80.81V44.55H82.21V40.34Z" fill="black"/>
<path d="M82.21 45.95H80.81V47.35H82.21V45.95Z" fill="black"/>
<path d="M82.21 48.75H80.81V51.5601H82.21V48.75Z" fill="black"/>
<path d="M82.21 55.77H80.81V61.38H82.21V55.77Z" fill="black"/>
<path d="M82.21 64.1901H80.81V67H82.21V64.1901Z" fill="black"/>
<path d="M82.21 68.39H80.81V69.79H82.21V68.39Z" fill="black"/>
<path d="M82.21 72.6H80.81V75.41H82.21V72.6Z" fill="black"/>
<path d="M82.21 78.21H80.81V79.61H82.21V78.21Z" fill="black"/>
</svg>
