<svg width="88" height="87" viewBox="0 0 88 87" fill="none" xmlns="http://www.w3.org/2000/svg">
<path d="M87.47 0H0.579956V86.86H87.47V0Z" fill="white"/>
<path d="M8.41003 6.76001H7.28003V14.6801H8.41003V6.76001Z" fill="black"/>
<path d="M8.41003 15.8H7.28003V18.0601H8.41003V15.8Z" fill="black"/>
<path d="M8.41003 19.2H7.28003V20.33H8.41003V19.2Z" fill="black"/>
<path d="M8.41003 21.46H7.28003V22.59H8.41003V21.46Z" fill="black"/>
<path d="M8.41003 25.98H7.28003V27.11H8.41003V25.98Z" fill="black"/>
<path d="M8.41003 28.24H7.28003V31.63H8.41003V28.24Z" fill="black"/>
<path d="M8.41003 35.03H7.28003V36.16H8.41003V35.03Z" fill="black"/>
<path d="M8.41003 37.29H7.28003V40.6801H8.41003V37.29Z" fill="black"/>
<path d="M8.41003 41.8101H7.28003V42.9401H8.41003V41.8101Z" fill="black"/>
<path d="M8.41003 45.2H7.28003V47.46H8.41003V45.2Z" fill="black"/>
<path d="M8.41003 49.73H7.28003V51.99H8.41003V49.73Z" fill="black"/>
<path d="M8.41003 53.12H7.28003V57.64H8.41003V53.12Z" fill="black"/>
<path d="M8.41003 61.04H7.28003V62.17H8.41003V61.04Z" fill="black"/>
<path d="M8.41003 63.3H7.28003V65.5601H8.41003V63.3Z" fill="black"/>
<path d="M8.41003 66.6901H7.28003V67.8201H8.41003V66.6901Z" fill="black"/>
<path d="M8.41003 68.95H7.28003V70.08H8.41003V68.95Z" fill="black"/>
<path d="M8.41003 72.34H7.28003V80.26H8.41003V72.34Z" fill="black"/>
<path d="M9.54003 6.76001H8.41003V7.89001H9.54003V6.76001Z" fill="black"/>
<path d="M9.54003 13.54H8.41003V14.67H9.54003V13.54Z" fill="black"/>
<path d="M9.54003 18.0701H8.41003V19.2H9.54003V18.0701Z" fill="black"/>
<path d="M9.54003 21.46H8.41003V22.59H9.54003V21.46Z" fill="black"/>
<path d="M9.54003 24.85H8.41003V28.24H9.54003V24.85Z" fill="black"/>
<path d="M9.54003 29.37H8.41003V30.5H9.54003V29.37Z" fill="black"/>
<path d="M9.54003 31.64H8.41003V33.9H9.54003V31.64Z" fill="black"/>
<path d="M9.54003 35.03H8.41003V38.42H9.54003V35.03Z" fill="black"/>
<path d="M9.54003 41.8101H8.41003V42.9401H9.54003V41.8101Z" fill="black"/>
<path d="M9.54003 45.2H8.41003V46.33H9.54003V45.2Z" fill="black"/>
<path d="M9.54003 47.47H8.41003V48.6H9.54003V47.47Z" fill="black"/>
<path d="M9.54003 49.73H8.41003V51.99H9.54003V49.73Z" fill="black"/>
<path d="M9.54003 54.25H8.41003V55.38H9.54003V54.25Z" fill="black"/>
<path d="M9.54003 56.51H8.41003V57.64H9.54003V56.51Z" fill="black"/>
<path d="M9.54003 58.77H8.41003V59.9H9.54003V58.77Z" fill="black"/>
<path d="M9.54003 62.17H8.41003V63.3H9.54003V62.17Z" fill="black"/>
<path d="M9.54003 64.4301H8.41003V67.8201H9.54003V64.4301Z" fill="black"/>
<path d="M9.54003 70.08H8.41003V71.21H9.54003V70.08Z" fill="black"/>
<path d="M9.54003 72.34H8.41003V73.47H9.54003V72.34Z" fill="black"/>
<path d="M9.54003 79.13H8.41003V80.26H9.54003V79.13Z" fill="black"/>
<path d="M10.67 6.76001H9.54004V7.89001H10.67V6.76001Z" fill="black"/>
<path d="M10.67 9.02002H9.54004V12.41H10.67V9.02002Z" fill="black"/>
<path d="M10.67 13.54H9.54004V14.67H10.67V13.54Z" fill="black"/>
<path d="M10.67 19.2H9.54004V20.33H10.67V19.2Z" fill="black"/>
<path d="M10.67 24.85H9.54004V27.11H10.67V24.85Z" fill="black"/>
<path d="M10.67 29.37H9.54004V30.5H10.67V29.37Z" fill="black"/>
<path d="M10.67 31.64H9.54004V32.77H10.67V31.64Z" fill="black"/>
<path d="M10.67 35.03H9.54004V37.29H10.67V35.03Z" fill="black"/>
<path d="M10.67 41.8101H9.54004V42.9401H10.67V41.8101Z" fill="black"/>
<path d="M10.67 44.0701H9.54004V45.2H10.67V44.0701Z" fill="black"/>
<path d="M10.67 47.47H9.54004V48.6H10.67V47.47Z" fill="black"/>
<path d="M10.67 53.12H9.54004V58.77H10.67V53.12Z" fill="black"/>
<path d="M10.67 59.91H9.54004V61.04H10.67V59.91Z" fill="black"/>
<path d="M10.67 63.3H9.54004V64.4301H10.67V63.3Z" fill="black"/>
<path d="M10.67 65.5601H9.54004V68.95H10.67V65.5601Z" fill="black"/>
<path d="M10.67 70.08H9.54004V71.21H10.67V70.08Z" fill="black"/>
<path d="M10.67 72.34H9.54004V73.47H10.67V72.34Z" fill="black"/>
<path d="M10.67 74.61H9.54004V78H10.67V74.61Z" fill="black"/>
<path d="M10.67 79.13H9.54004V80.26H10.67V79.13Z" fill="black"/>
<path d="M11.8 6.76001H10.67V7.89001H11.8V6.76001Z" fill="black"/>
<path d="M11.8 9.02002H10.67V12.41H11.8V9.02002Z" fill="black"/>
<path d="M11.8 13.54H10.67V14.67H11.8V13.54Z" fill="black"/>
<path d="M11.8 15.8H10.67V18.0601H11.8V15.8Z" fill="black"/>
<path d="M11.8 19.2H10.67V20.33H11.8V19.2Z" fill="black"/>
<path d="M11.8 22.59H10.67V23.72H11.8V22.59Z" fill="black"/>
<path d="M11.8 24.85H10.67V25.98H11.8V24.85Z" fill="black"/>
<path d="M11.8 30.5H10.67V31.63H11.8V30.5Z" fill="black"/>
<path d="M11.8 32.77H10.67V35.03H11.8V32.77Z" fill="black"/>
<path d="M11.8 37.29H10.67V39.55H11.8V37.29Z" fill="black"/>
<path d="M11.8 40.6801H10.67V41.8101H11.8V40.6801Z" fill="black"/>
<path d="M11.8 44.0701H10.67V45.2H11.8V44.0701Z" fill="black"/>
<path d="M11.8 46.34H10.67V48.6H11.8V46.34Z" fill="black"/>
<path d="M11.8 51.99H10.67V53.12H11.8V51.99Z" fill="black"/>
<path d="M11.8 54.25H10.67V57.64H11.8V54.25Z" fill="black"/>
<path d="M11.8 61.04H10.67V70.09H11.8V61.04Z" fill="black"/>
<path d="M11.8 72.34H10.67V73.47H11.8V72.34Z" fill="black"/>
<path d="M11.8 74.61H10.67V78H11.8V74.61Z" fill="black"/>
<path d="M11.8 79.13H10.67V80.26H11.8V79.13Z" fill="black"/>
<path d="M12.93 6.76001H11.8V7.89001H12.93V6.76001Z" fill="black"/>
<path d="M12.93 9.02002H11.8V12.41H12.93V9.02002Z" fill="black"/>
<path d="M12.93 13.54H11.8V14.67H12.93V13.54Z" fill="black"/>
<path d="M12.93 16.9401H11.8V18.0701H12.93V16.9401Z" fill="black"/>
<path d="M12.93 19.2H11.8V20.33H12.93V19.2Z" fill="black"/>
<path d="M12.93 22.59H11.8V24.85H12.93V22.59Z" fill="black"/>
<path d="M12.93 25.98H11.8V27.11H12.93V25.98Z" fill="black"/>
<path d="M12.93 30.5H11.8V31.63H12.93V30.5Z" fill="black"/>
<path d="M12.93 37.29H11.8V39.55H12.93V37.29Z" fill="black"/>
<path d="M12.93 40.6801H11.8V49.73H12.93V40.6801Z" fill="black"/>
<path d="M12.93 50.86H11.8V51.99H12.93V50.86Z" fill="black"/>
<path d="M12.93 53.12H11.8V54.25H12.93V53.12Z" fill="black"/>
<path d="M12.93 57.64H11.8V58.77H12.93V57.64Z" fill="black"/>
<path d="M12.93 59.91H11.8V61.04H12.93V59.91Z" fill="black"/>
<path d="M12.93 70.08H11.8V71.21H12.93V70.08Z" fill="black"/>
<path d="M12.93 72.34H11.8V73.47H12.93V72.34Z" fill="black"/>
<path d="M12.93 74.61H11.8V78H12.93V74.61Z" fill="black"/>
<path d="M12.93 79.13H11.8V80.26H12.93V79.13Z" fill="black"/>
<path d="M14.06 6.76001H12.93V7.89001H14.06V6.76001Z" fill="black"/>
<path d="M14.06 13.54H12.93V14.67H14.06V13.54Z" fill="black"/>
<path d="M14.06 15.8H12.93V19.1901H14.06V15.8Z" fill="black"/>
<path d="M14.06 22.59H12.93V25.98H14.06V22.59Z" fill="black"/>
<path d="M14.06 27.11H12.93V35.03H14.06V27.11Z" fill="black"/>
<path d="M14.06 40.6801H12.93V41.8101H14.06V40.6801Z" fill="black"/>
<path d="M14.06 45.2H12.93V48.59H14.06V45.2Z" fill="black"/>
<path d="M14.06 50.86H12.93V53.12H14.06V50.86Z" fill="black"/>
<path d="M14.06 54.25H12.93V56.51H14.06V54.25Z" fill="black"/>
<path d="M14.06 59.91H12.93V61.04H14.06V59.91Z" fill="black"/>
<path d="M14.06 63.3H12.93V65.5601H14.06V63.3Z" fill="black"/>
<path d="M14.06 67.8201H12.93V68.95H14.06V67.8201Z" fill="black"/>
<path d="M14.06 72.34H12.93V73.47H14.06V72.34Z" fill="black"/>
<path d="M14.06 79.13H12.93V80.26H14.06V79.13Z" fill="black"/>
<path d="M15.19 6.76001H14.06V14.6801H15.19V6.76001Z" fill="black"/>
<path d="M15.19 15.8H14.06V16.9301H15.19V15.8Z" fill="black"/>
<path d="M15.19 18.0701H14.06V19.2H15.19V18.0701Z" fill="black"/>
<path d="M15.19 20.33H14.06V21.46H15.19V20.33Z" fill="black"/>
<path d="M15.19 22.59H14.06V23.72H15.19V22.59Z" fill="black"/>
<path d="M15.19 24.85H14.06V25.98H15.19V24.85Z" fill="black"/>
<path d="M15.19 27.11H14.06V28.24H15.19V27.11Z" fill="black"/>
<path d="M15.19 29.37H14.06V30.5H15.19V29.37Z" fill="black"/>
<path d="M15.19 31.64H14.06V32.77H15.19V31.64Z" fill="black"/>
<path d="M15.19 33.9H14.06V35.03H15.19V33.9Z" fill="black"/>
<path d="M15.19 36.16H14.06V37.29H15.19V36.16Z" fill="black"/>
<path d="M15.19 38.42H14.06V39.55H15.19V38.42Z" fill="black"/>
<path d="M15.19 40.6801H14.06V41.8101H15.19V40.6801Z" fill="black"/>
<path d="M15.19 42.9401H14.06V44.0701H15.19V42.9401Z" fill="black"/>
<path d="M15.19 45.2H14.06V46.33H15.19V45.2Z" fill="black"/>
<path d="M15.19 47.47H14.06V48.6H15.19V47.47Z" fill="black"/>
<path d="M15.19 49.73H14.06V50.86H15.19V49.73Z" fill="black"/>
<path d="M15.19 51.99H14.06V53.12H15.19V51.99Z" fill="black"/>
<path d="M15.19 54.25H14.06V55.38H15.19V54.25Z" fill="black"/>
<path d="M15.19 56.51H14.06V57.64H15.19V56.51Z" fill="black"/>
<path d="M15.19 58.77H14.06V59.9H15.19V58.77Z" fill="black"/>
<path d="M15.19 61.04H14.06V62.17H15.19V61.04Z" fill="black"/>
<path d="M15.19 63.3H14.06V64.4301H15.19V63.3Z" fill="black"/>
<path d="M15.19 65.5601H14.06V66.6901H15.19V65.5601Z" fill="black"/>
<path d="M15.19 67.8201H14.06V68.95H15.19V67.8201Z" fill="black"/>
<path d="M15.19 70.08H14.06V71.21H15.19V70.08Z" fill="black"/>
<path d="M15.19 72.34H14.06V80.26H15.19V72.34Z" fill="black"/>
<path d="M16.33 16.9401H15.2V24.86H16.33V16.9401Z" fill="black"/>
<path d="M16.33 28.24H15.2V30.5H16.33V28.24Z" fill="black"/>
<path d="M16.33 32.77H15.2V36.16H16.33V32.77Z" fill="black"/>
<path d="M16.33 38.42H15.2V41.8101H16.33V38.42Z" fill="black"/>
<path d="M16.33 45.2H15.2V46.33H16.33V45.2Z" fill="black"/>
<path d="M16.33 48.6H15.2V50.86H16.33V48.6Z" fill="black"/>
<path d="M16.33 51.99H15.2V56.51H16.33V51.99Z" fill="black"/>
<path d="M16.33 58.77H15.2V61.03H16.33V58.77Z" fill="black"/>
<path d="M16.33 66.6901H15.2V68.95H16.33V66.6901Z" fill="black"/>
<path d="M17.46 12.41H16.33V14.67H17.46V12.41Z" fill="black"/>
<path d="M17.46 15.8H16.33V16.9301H17.46V15.8Z" fill="black"/>
<path d="M17.46 18.0701H16.33V20.33H17.46V18.0701Z" fill="black"/>
<path d="M17.46 21.46H16.33V22.59H17.46V21.46Z" fill="black"/>
<path d="M17.46 23.72H16.33V24.85H17.46V23.72Z" fill="black"/>
<path d="M17.46 25.98H16.33V27.11H17.46V25.98Z" fill="black"/>
<path d="M17.46 31.64H16.33V32.77H17.46V31.64Z" fill="black"/>
<path d="M17.46 33.9H16.33V36.16H17.46V33.9Z" fill="black"/>
<path d="M17.46 38.42H16.33V51.99H17.46V38.42Z" fill="black"/>
<path d="M17.46 57.64H16.33V59.9H17.46V57.64Z" fill="black"/>
<path d="M17.46 63.3H16.33V66.6901H17.46V63.3Z" fill="black"/>
<path d="M17.46 68.95H16.33V70.08H17.46V68.95Z" fill="black"/>
<path d="M17.46 71.21H16.33V72.34H17.46V71.21Z" fill="black"/>
<path d="M17.46 73.47H16.33V74.6H17.46V73.47Z" fill="black"/>
<path d="M17.46 75.74H16.33V76.87H17.46V75.74Z" fill="black"/>
<path d="M17.46 79.13H16.33V80.26H17.46V79.13Z" fill="black"/>
<path d="M18.59 7.89001H17.46V9.02002H18.59V7.89001Z" fill="black"/>
<path d="M18.59 10.15H17.46V11.28H18.59V10.15Z" fill="black"/>
<path d="M18.59 14.67H17.46V15.8H18.59V14.67Z" fill="black"/>
<path d="M18.59 16.9401H17.46V18.0701H18.59V16.9401Z" fill="black"/>
<path d="M18.59 23.72H17.46V25.98H18.59V23.72Z" fill="black"/>
<path d="M18.59 28.24H17.46V30.5H18.59V28.24Z" fill="black"/>
<path d="M18.59 32.77H17.46V36.16H18.59V32.77Z" fill="black"/>
<path d="M18.59 37.29H17.46V40.6801H18.59V37.29Z" fill="black"/>
<path d="M18.59 42.9401H17.46V45.2H18.59V42.9401Z" fill="black"/>
<path d="M18.59 46.34H17.46V47.47H18.59V46.34Z" fill="black"/>
<path d="M18.59 50.86H17.46V53.12H18.59V50.86Z" fill="black"/>
<path d="M18.59 55.38H17.46V56.51H18.59V55.38Z" fill="black"/>
<path d="M18.59 57.64H17.46V63.29H18.59V57.64Z" fill="black"/>
<path d="M18.59 64.4301H17.46V65.5601H18.59V64.4301Z" fill="black"/>
<path d="M18.59 70.08H17.46V71.21H18.59V70.08Z" fill="black"/>
<path d="M18.59 72.34H17.46V74.6H18.59V72.34Z" fill="black"/>
<path d="M18.59 76.87H17.46V78H18.59V76.87Z" fill="black"/>
<path d="M19.72 7.89001H18.59V9.02002H19.72V7.89001Z" fill="black"/>
<path d="M19.72 10.15H18.59V12.41H19.72V10.15Z" fill="black"/>
<path d="M19.72 13.54H18.59V15.8H19.72V13.54Z" fill="black"/>
<path d="M19.72 16.9401H18.59V21.46H19.72V16.9401Z" fill="black"/>
<path d="M19.72 22.59H18.59V23.72H19.72V22.59Z" fill="black"/>
<path d="M19.72 27.11H18.59V28.24H19.72V27.11Z" fill="black"/>
<path d="M19.72 30.5H18.59V33.89H19.72V30.5Z" fill="black"/>
<path d="M19.72 35.03H18.59V36.16H19.72V35.03Z" fill="black"/>
<path d="M19.72 38.42H18.59V44.0701H19.72V38.42Z" fill="black"/>
<path d="M19.72 45.2H18.59V50.85H19.72V45.2Z" fill="black"/>
<path d="M19.72 51.99H18.59V53.12H19.72V51.99Z" fill="black"/>
<path d="M19.72 54.25H18.59V56.51H19.72V54.25Z" fill="black"/>
<path d="M19.72 57.64H18.59V62.16H19.72V57.64Z" fill="black"/>
<path d="M19.72 63.3H18.59V64.4301H19.72V63.3Z" fill="black"/>
<path d="M19.72 66.6901H18.59V68.95H19.72V66.6901Z" fill="black"/>
<path d="M19.72 70.08H18.59V72.34H19.72V70.08Z" fill="black"/>
<path d="M19.72 73.47H18.59V76.86H19.72V73.47Z" fill="black"/>
<path d="M19.72 79.13H18.59V80.26H19.72V79.13Z" fill="black"/>
<path d="M20.85 6.76001H19.72V7.89001H20.85V6.76001Z" fill="black"/>
<path d="M20.85 9.02002H19.72V12.41H20.85V9.02002Z" fill="black"/>
<path d="M20.85 14.67H19.72V16.9301H20.85V14.67Z" fill="black"/>
<path d="M20.85 19.2H19.72V21.46H20.85V19.2Z" fill="black"/>
<path d="M20.85 22.59H19.72V23.72H20.85V22.59Z" fill="black"/>
<path d="M20.85 25.98H19.72V27.11H20.85V25.98Z" fill="black"/>
<path d="M20.85 29.37H19.72V30.5H20.85V29.37Z" fill="black"/>
<path d="M20.85 31.64H19.72V32.77H20.85V31.64Z" fill="black"/>
<path d="M20.85 37.29H19.72V39.55H20.85V37.29Z" fill="black"/>
<path d="M20.85 42.9401H19.72V44.0701H20.85V42.9401Z" fill="black"/>
<path d="M20.85 46.34H19.72V48.6H20.85V46.34Z" fill="black"/>
<path d="M20.85 50.86H19.72V51.99H20.85V50.86Z" fill="black"/>
<path d="M20.85 53.12H19.72V55.38H20.85V53.12Z" fill="black"/>
<path d="M20.85 57.64H19.72V59.9H20.85V57.64Z" fill="black"/>
<path d="M20.85 65.5601H19.72V66.6901H20.85V65.5601Z" fill="black"/>
<path d="M20.85 71.21H19.72V77.99H20.85V71.21Z" fill="black"/>
<path d="M21.98 6.76001H20.85V9.02002H21.98V6.76001Z" fill="black"/>
<path d="M21.98 10.15H20.85V14.67H21.98V10.15Z" fill="black"/>
<path d="M21.98 28.24H20.85V29.37H21.98V28.24Z" fill="black"/>
<path d="M21.98 31.64H20.85V35.03H21.98V31.64Z" fill="black"/>
<path d="M21.98 36.16H20.85V39.55H21.98V36.16Z" fill="black"/>
<path d="M21.98 41.8101H20.85V42.9401H21.98V41.8101Z" fill="black"/>
<path d="M21.98 48.6H20.85V54.25H21.98V48.6Z" fill="black"/>
<path d="M21.98 57.64H20.85V61.03H21.98V57.64Z" fill="black"/>
<path d="M21.98 62.17H20.85V65.5601H21.98V62.17Z" fill="black"/>
<path d="M21.98 66.6901H20.85V67.8201H21.98V66.6901Z" fill="black"/>
<path d="M21.98 68.95H20.85V70.08H21.98V68.95Z" fill="black"/>
<path d="M21.98 71.21H20.85V75.73H21.98V71.21Z" fill="black"/>
<path d="M21.98 76.87H20.85V79.13H21.98V76.87Z" fill="black"/>
<path d="M23.11 6.76001H21.98V11.28H23.11V6.76001Z" fill="black"/>
<path d="M23.11 12.41H21.98V13.54H23.11V12.41Z" fill="black"/>
<path d="M23.11 14.67H21.98V15.8H23.11V14.67Z" fill="black"/>
<path d="M23.11 18.0701H21.98V21.46H23.11V18.0701Z" fill="black"/>
<path d="M23.11 22.59H21.98V23.72H23.11V22.59Z" fill="black"/>
<path d="M23.11 28.24H21.98V32.76H23.11V28.24Z" fill="black"/>
<path d="M23.11 33.9H21.98V35.03H23.11V33.9Z" fill="black"/>
<path d="M23.11 36.16H21.98V37.29H23.11V36.16Z" fill="black"/>
<path d="M23.11 41.8101H21.98V45.2H23.11V41.8101Z" fill="black"/>
<path d="M23.11 46.34H21.98V47.47H23.11V46.34Z" fill="black"/>
<path d="M23.11 48.6H21.98V49.73H23.11V48.6Z" fill="black"/>
<path d="M23.11 50.86H21.98V56.51H23.11V50.86Z" fill="black"/>
<path d="M23.11 65.5601H21.98V66.6901H23.11V65.5601Z" fill="black"/>
<path d="M23.11 71.21H21.98V72.34H23.11V71.21Z" fill="black"/>
<path d="M23.11 73.47H21.98V74.6H23.11V73.47Z" fill="black"/>
<path d="M23.11 76.87H21.98V78H23.11V76.87Z" fill="black"/>
<path d="M23.11 79.13H21.98V80.26H23.11V79.13Z" fill="black"/>
<path d="M24.24 7.89001H23.11V9.02002H24.24V7.89001Z" fill="black"/>
<path d="M24.24 12.41H23.11V14.67H24.24V12.41Z" fill="black"/>
<path d="M24.24 15.8H23.11V16.9301H24.24V15.8Z" fill="black"/>
<path d="M24.24 19.2H23.11V21.46H24.24V19.2Z" fill="black"/>
<path d="M24.24 23.72H23.11V24.85H24.24V23.72Z" fill="black"/>
<path d="M24.24 25.98H23.11V27.11H24.24V25.98Z" fill="black"/>
<path d="M24.24 28.24H23.11V29.37H24.24V28.24Z" fill="black"/>
<path d="M24.24 30.5H23.11V32.76H24.24V30.5Z" fill="black"/>
<path d="M24.24 33.9H23.11V39.55H24.24V33.9Z" fill="black"/>
<path d="M24.24 40.6801H23.11V41.8101H24.24V40.6801Z" fill="black"/>
<path d="M24.24 42.9401H23.11V46.33H24.24V42.9401Z" fill="black"/>
<path d="M24.24 50.86H23.11V58.78H24.24V50.86Z" fill="black"/>
<path d="M24.24 59.91H23.11V61.04H24.24V59.91Z" fill="black"/>
<path d="M24.24 63.3H23.11V65.5601H24.24V63.3Z" fill="black"/>
<path d="M24.24 67.8201H23.11V70.08H24.24V67.8201Z" fill="black"/>
<path d="M24.24 71.21H23.11V73.47H24.24V71.21Z" fill="black"/>
<path d="M24.24 74.61H23.11V75.74H24.24V74.61Z" fill="black"/>
<path d="M24.24 76.87H23.11V79.13H24.24V76.87Z" fill="black"/>
<path d="M25.37 6.76001H24.24V9.02002H25.37V6.76001Z" fill="black"/>
<path d="M25.37 16.9401H24.24V20.33H25.37V16.9401Z" fill="black"/>
<path d="M25.37 23.72H24.24V28.24H25.37V23.72Z" fill="black"/>
<path d="M25.37 30.5H24.24V32.76H25.37V30.5Z" fill="black"/>
<path d="M25.37 35.03H24.24V38.42H25.37V35.03Z" fill="black"/>
<path d="M25.37 41.8101H24.24V42.9401H25.37V41.8101Z" fill="black"/>
<path d="M25.37 47.47H24.24V48.6H25.37V47.47Z" fill="black"/>
<path d="M25.37 49.73H24.24V50.86H25.37V49.73Z" fill="black"/>
<path d="M25.37 55.38H24.24V58.77H25.37V55.38Z" fill="black"/>
<path d="M25.37 62.17H24.24V63.3H25.37V62.17Z" fill="black"/>
<path d="M25.37 65.5601H24.24V66.6901H25.37V65.5601Z" fill="black"/>
<path d="M25.37 67.8201H24.24V70.08H25.37V67.8201Z" fill="black"/>
<path d="M25.37 71.21H24.24V72.34H25.37V71.21Z" fill="black"/>
<path d="M25.37 73.47H24.24V74.6H25.37V73.47Z" fill="black"/>
<path d="M26.5 9.02002H25.37V10.15H26.5V9.02002Z" fill="black"/>
<path d="M26.5 12.41H25.37V18.0601H26.5V12.41Z" fill="black"/>
<path d="M26.5 22.59H25.37V23.72H26.5V22.59Z" fill="black"/>
<path d="M26.5 24.85H25.37V27.11H26.5V24.85Z" fill="black"/>
<path d="M26.5 29.37H25.37V30.5H26.5V29.37Z" fill="black"/>
<path d="M26.5 35.03H25.37V36.16H26.5V35.03Z" fill="black"/>
<path d="M26.5 39.55H25.37V40.6801H26.5V39.55Z" fill="black"/>
<path d="M26.5 42.9401H25.37V44.0701H26.5V42.9401Z" fill="black"/>
<path d="M26.5 45.2H25.37V46.33H26.5V45.2Z" fill="black"/>
<path d="M26.5 47.47H25.37V48.6H26.5V47.47Z" fill="black"/>
<path d="M26.5 49.73H25.37V50.86H26.5V49.73Z" fill="black"/>
<path d="M26.5 51.99H25.37V53.12H26.5V51.99Z" fill="black"/>
<path d="M26.5 54.25H25.37V55.38H26.5V54.25Z" fill="black"/>
<path d="M26.5 56.51H25.37V57.64H26.5V56.51Z" fill="black"/>
<path d="M26.5 58.77H25.37V59.9H26.5V58.77Z" fill="black"/>
<path d="M26.5 61.04H25.37V62.17H26.5V61.04Z" fill="black"/>
<path d="M26.5 65.5601H25.37V67.8201H26.5V65.5601Z" fill="black"/>
<path d="M26.5 70.08H25.37V73.47H26.5V70.08Z" fill="black"/>
<path d="M26.5 74.61H25.37V76.87H26.5V74.61Z" fill="black"/>
<path d="M27.63 6.76001H26.5V10.15H27.63V6.76001Z" fill="black"/>
<path d="M27.63 12.41H26.5V13.54H27.63V12.41Z" fill="black"/>
<path d="M27.63 15.8H26.5V18.0601H27.63V15.8Z" fill="black"/>
<path d="M27.63 19.2H26.5V21.46H27.63V19.2Z" fill="black"/>
<path d="M27.63 23.72H26.5V24.85H27.63V23.72Z" fill="black"/>
<path d="M27.63 25.98H26.5V31.63H27.63V25.98Z" fill="black"/>
<path d="M27.63 33.9H26.5V35.03H27.63V33.9Z" fill="black"/>
<path d="M27.63 37.29H26.5V38.42H27.63V37.29Z" fill="black"/>
<path d="M27.63 39.55H26.5V41.8101H27.63V39.55Z" fill="black"/>
<path d="M27.63 42.9401H26.5V45.2H27.63V42.9401Z" fill="black"/>
<path d="M27.63 48.6H26.5V49.73H27.63V48.6Z" fill="black"/>
<path d="M27.63 51.99H26.5V53.12H27.63V51.99Z" fill="black"/>
<path d="M27.63 55.38H26.5V58.77H27.63V55.38Z" fill="black"/>
<path d="M27.63 62.17H26.5V64.4301H27.63V62.17Z" fill="black"/>
<path d="M27.63 70.08H26.5V73.47H27.63V70.08Z" fill="black"/>
<path d="M27.63 78H26.5V80.26H27.63V78Z" fill="black"/>
<path d="M28.76 9.02002H27.63V12.41H28.76V9.02002Z" fill="black"/>
<path d="M28.76 13.54H27.63V14.67H28.76V13.54Z" fill="black"/>
<path d="M28.76 20.33H27.63V21.46H28.76V20.33Z" fill="black"/>
<path d="M28.76 23.72H27.63V24.85H28.76V23.72Z" fill="black"/>
<path d="M28.76 25.98H27.63V29.37H28.76V25.98Z" fill="black"/>
<path d="M28.76 31.64H27.63V33.9H28.76V31.64Z" fill="black"/>
<path d="M28.76 35.03H27.63V36.16H28.76V35.03Z" fill="black"/>
<path d="M28.76 37.29H27.63V40.6801H28.76V37.29Z" fill="black"/>
<path d="M28.76 45.2H27.63V48.59H28.76V45.2Z" fill="black"/>
<path d="M28.76 50.86H27.63V51.99H28.76V50.86Z" fill="black"/>
<path d="M28.76 57.64H27.63V59.9H28.76V57.64Z" fill="black"/>
<path d="M28.76 62.17H27.63V65.5601H28.76V62.17Z" fill="black"/>
<path d="M28.76 68.95H27.63V71.21H28.76V68.95Z" fill="black"/>
<path d="M28.76 74.61H27.63V78H28.76V74.61Z" fill="black"/>
<path d="M28.76 79.13H27.63V80.26H28.76V79.13Z" fill="black"/>
<path d="M29.89 9.02002H28.76V13.54H29.89V9.02002Z" fill="black"/>
<path d="M29.89 14.67H28.76V18.0601H29.89V14.67Z" fill="black"/>
<path d="M29.89 21.46H28.76V24.85H29.89V21.46Z" fill="black"/>
<path d="M29.89 25.98H28.76V30.5H29.89V25.98Z" fill="black"/>
<path d="M29.89 31.64H28.76V33.9H29.89V31.64Z" fill="black"/>
<path d="M29.89 35.03H28.76V39.55H29.89V35.03Z" fill="black"/>
<path d="M29.89 40.6801H28.76V41.8101H29.89V40.6801Z" fill="black"/>
<path d="M29.89 44.0701H28.76V46.33H29.89V44.0701Z" fill="black"/>
<path d="M29.89 53.12H28.76V54.25H29.89V53.12Z" fill="black"/>
<path d="M29.89 55.38H28.76V56.51H29.89V55.38Z" fill="black"/>
<path d="M29.89 57.64H28.76V58.77H29.89V57.64Z" fill="black"/>
<path d="M29.89 59.91H28.76V61.04H29.89V59.91Z" fill="black"/>
<path d="M29.89 62.17H28.76V64.4301H29.89V62.17Z" fill="black"/>
<path d="M29.89 65.5601H28.76V66.6901H29.89V65.5601Z" fill="black"/>
<path d="M29.89 68.95H28.76V71.21H29.89V68.95Z" fill="black"/>
<path d="M29.89 72.34H28.76V73.47H29.89V72.34Z" fill="black"/>
<path d="M29.89 79.13H28.76V80.26H29.89V79.13Z" fill="black"/>
<path d="M31.03 6.76001H29.9V7.89001H31.03V6.76001Z" fill="black"/>
<path d="M31.03 12.41H29.9V15.8H31.03V12.41Z" fill="black"/>
<path d="M31.03 19.2H29.9V21.46H31.03V19.2Z" fill="black"/>
<path d="M31.03 24.85H29.9V29.37H31.03V24.85Z" fill="black"/>
<path d="M31.03 30.5H29.9V33.89H31.03V30.5Z" fill="black"/>
<path d="M31.03 35.03H29.9V37.29H31.03V35.03Z" fill="black"/>
<path d="M31.03 38.42H29.9V40.6801H31.03V38.42Z" fill="black"/>
<path d="M31.03 49.73H29.9V53.12H31.03V49.73Z" fill="black"/>
<path d="M31.03 56.51H29.9V58.77H31.03V56.51Z" fill="black"/>
<path d="M31.03 59.91H29.9V61.04H31.03V59.91Z" fill="black"/>
<path d="M31.03 62.17H29.9V63.3H31.03V62.17Z" fill="black"/>
<path d="M31.03 65.5601H29.9V66.6901H31.03V65.5601Z" fill="black"/>
<path d="M31.03 67.8201H29.9V68.95H31.03V67.8201Z" fill="black"/>
<path d="M31.03 70.08H29.9V71.21H31.03V70.08Z" fill="black"/>
<path d="M31.03 72.34H29.9V75.73H31.03V72.34Z" fill="black"/>
<path d="M31.03 79.13H29.9V80.26H31.03V79.13Z" fill="black"/>
<path d="M32.16 9.02002H31.03V10.15H32.16V9.02002Z" fill="black"/>
<path d="M32.16 11.28H31.03V13.54H32.16V11.28Z" fill="black"/>
<path d="M32.16 14.67H31.03V15.8H32.16V14.67Z" fill="black"/>
<path d="M32.16 16.9401H31.03V18.0701H32.16V16.9401Z" fill="black"/>
<path d="M32.16 20.33H31.03V21.46H32.16V20.33Z" fill="black"/>
<path d="M32.16 22.59H31.03V24.85H32.16V22.59Z" fill="black"/>
<path d="M32.16 25.98H31.03V27.11H32.16V25.98Z" fill="black"/>
<path d="M32.16 28.24H31.03V29.37H32.16V28.24Z" fill="black"/>
<path d="M32.16 32.77H31.03V37.29H32.16V32.77Z" fill="black"/>
<path d="M32.16 39.55H31.03V50.86H32.16V39.55Z" fill="black"/>
<path d="M32.16 51.99H31.03V55.38H32.16V51.99Z" fill="black"/>
<path d="M32.16 56.51H31.03V57.64H32.16V56.51Z" fill="black"/>
<path d="M32.16 58.77H31.03V61.03H32.16V58.77Z" fill="black"/>
<path d="M32.16 62.17H31.03V64.4301H32.16V62.17Z" fill="black"/>
<path d="M32.16 66.6901H31.03V67.8201H32.16V66.6901Z" fill="black"/>
<path d="M32.16 71.21H31.03V76.86H32.16V71.21Z" fill="black"/>
<path d="M32.16 78H31.03V80.26H32.16V78Z" fill="black"/>
<path d="M33.29 6.76001H32.16V7.89001H33.29V6.76001Z" fill="black"/>
<path d="M33.29 10.15H32.16V11.28H33.29V10.15Z" fill="black"/>
<path d="M33.29 13.54H32.16V15.8H33.29V13.54Z" fill="black"/>
<path d="M33.29 18.0701H32.16V19.2H33.29V18.0701Z" fill="black"/>
<path d="M33.29 21.46H32.16V25.98H33.29V21.46Z" fill="black"/>
<path d="M33.29 30.5H32.16V31.63H33.29V30.5Z" fill="black"/>
<path d="M33.29 33.9H32.16V39.55H33.29V33.9Z" fill="black"/>
<path d="M33.29 42.9401H32.16V44.0701H33.29V42.9401Z" fill="black"/>
<path d="M33.29 46.34H32.16V47.47H33.29V46.34Z" fill="black"/>
<path d="M33.29 49.73H32.16V51.99H33.29V49.73Z" fill="black"/>
<path d="M33.29 55.38H32.16V56.51H33.29V55.38Z" fill="black"/>
<path d="M33.29 57.64H32.16V58.77H33.29V57.64Z" fill="black"/>
<path d="M33.29 61.04H32.16V64.4301H33.29V61.04Z" fill="black"/>
<path d="M33.29 65.5601H32.16V66.6901H33.29V65.5601Z" fill="black"/>
<path d="M33.29 70.08H32.16V71.21H33.29V70.08Z" fill="black"/>
<path d="M33.29 74.61H32.16V75.74H33.29V74.61Z" fill="black"/>
<path d="M33.29 76.87H32.16V78H33.29V76.87Z" fill="black"/>
<path d="M34.42 6.76001H33.29V7.89001H34.42V6.76001Z" fill="black"/>
<path d="M34.42 9.02002H33.29V10.15H34.42V9.02002Z" fill="black"/>
<path d="M34.42 14.67H33.29V18.0601H34.42V14.67Z" fill="black"/>
<path d="M34.42 19.2H33.29V21.46H34.42V19.2Z" fill="black"/>
<path d="M34.42 22.59H33.29V23.72H34.42V22.59Z" fill="black"/>
<path d="M34.42 27.11H33.29V28.24H34.42V27.11Z" fill="black"/>
<path d="M34.42 29.37H33.29V31.63H34.42V29.37Z" fill="black"/>
<path d="M34.42 32.77H33.29V35.03H34.42V32.77Z" fill="black"/>
<path d="M34.42 36.16H33.29V37.29H34.42V36.16Z" fill="black"/>
<path d="M34.42 39.55H33.29V40.6801H34.42V39.55Z" fill="black"/>
<path d="M34.42 41.8101H33.29V47.46H34.42V41.8101Z" fill="black"/>
<path d="M34.42 48.6H33.29V51.99H34.42V48.6Z" fill="black"/>
<path d="M34.42 53.12H33.29V54.25H34.42V53.12Z" fill="black"/>
<path d="M34.42 56.51H33.29V58.77H34.42V56.51Z" fill="black"/>
<path d="M34.42 59.91H33.29V61.04H34.42V59.91Z" fill="black"/>
<path d="M34.42 63.3H33.29V65.5601H34.42V63.3Z" fill="black"/>
<path d="M34.42 66.6901H33.29V68.95H34.42V66.6901Z" fill="black"/>
<path d="M34.42 70.08H33.29V71.21H34.42V70.08Z" fill="black"/>
<path d="M34.42 72.34H33.29V73.47H34.42V72.34Z" fill="black"/>
<path d="M34.42 74.61H33.29V78H34.42V74.61Z" fill="black"/>
<path d="M35.55 6.76001H34.42V7.89001H35.55V6.76001Z" fill="black"/>
<path d="M35.55 10.15H34.42V11.28H35.55V10.15Z" fill="black"/>
<path d="M35.55 12.41H34.42V14.67H35.55V12.41Z" fill="black"/>
<path d="M35.55 16.9401H34.42V18.0701H35.55V16.9401Z" fill="black"/>
<path d="M35.55 21.46H34.42V22.59H35.55V21.46Z" fill="black"/>
<path d="M35.55 24.85H34.42V29.37H35.55V24.85Z" fill="black"/>
<path d="M35.55 32.77H34.42V33.9H35.55V32.77Z" fill="black"/>
<path d="M35.55 35.03H34.42V36.16H35.55V35.03Z" fill="black"/>
<path d="M35.55 37.29H34.42V38.42H35.55V37.29Z" fill="black"/>
<path d="M35.55 40.6801H34.42V42.9401H35.55V40.6801Z" fill="black"/>
<path d="M35.55 44.0701H34.42V45.2H35.55V44.0701Z" fill="black"/>
<path d="M35.55 46.34H34.42V47.47H35.55V46.34Z" fill="black"/>
<path d="M35.55 50.86H34.42V54.25H35.55V50.86Z" fill="black"/>
<path d="M35.55 55.38H34.42V56.51H35.55V55.38Z" fill="black"/>
<path d="M35.55 57.64H34.42V59.9H35.55V57.64Z" fill="black"/>
<path d="M35.55 62.17H34.42V65.5601H35.55V62.17Z" fill="black"/>
<path d="M35.55 66.6901H34.42V68.95H35.55V66.6901Z" fill="black"/>
<path d="M35.55 72.34H34.42V73.47H35.55V72.34Z" fill="black"/>
<path d="M35.55 75.74H34.42V80.26H35.55V75.74Z" fill="black"/>
<path d="M36.68 6.76001H35.55V9.02002H36.68V6.76001Z" fill="black"/>
<path d="M36.68 11.28H35.55V12.41H36.68V11.28Z" fill="black"/>
<path d="M36.68 14.67H35.55V16.9301H36.68V14.67Z" fill="black"/>
<path d="M36.68 19.2H35.55V22.59H36.68V19.2Z" fill="black"/>
<path d="M36.68 24.85H35.55V25.98H36.68V24.85Z" fill="black"/>
<path d="M36.68 28.24H35.55V32.76H36.68V28.24Z" fill="black"/>
<path d="M36.68 33.9H35.55V36.16H36.68V33.9Z" fill="black"/>
<path d="M36.68 39.55H35.55V40.6801H36.68V39.55Z" fill="black"/>
<path d="M36.68 41.8101H35.55V42.9401H36.68V41.8101Z" fill="black"/>
<path d="M36.68 45.2H35.55V46.33H36.68V45.2Z" fill="black"/>
<path d="M36.68 48.6H35.55V49.73H36.68V48.6Z" fill="black"/>
<path d="M36.68 53.12H35.55V55.38H36.68V53.12Z" fill="black"/>
<path d="M36.68 56.51H35.55V59.9H36.68V56.51Z" fill="black"/>
<path d="M36.68 64.4301H35.55V71.21H36.68V64.4301Z" fill="black"/>
<path d="M36.68 72.34H35.55V74.6H36.68V72.34Z" fill="black"/>
<path d="M36.68 75.74H35.55V76.87H36.68V75.74Z" fill="black"/>
<path d="M36.68 79.13H35.55V80.26H36.68V79.13Z" fill="black"/>
<path d="M37.81 6.76001H36.68V14.6801H37.81V6.76001Z" fill="black"/>
<path d="M37.81 16.9401H36.68V21.46H37.81V16.9401Z" fill="black"/>
<path d="M37.81 22.59H36.68V23.72H37.81V22.59Z" fill="black"/>
<path d="M37.81 24.85H36.68V25.98H37.81V24.85Z" fill="black"/>
<path d="M37.81 28.24H36.68V29.37H37.81V28.24Z" fill="black"/>
<path d="M37.81 30.5H36.68V31.63H37.81V30.5Z" fill="black"/>
<path d="M37.81 32.77H36.68V37.29H37.81V32.77Z" fill="black"/>
<path d="M37.81 38.42H36.68V39.55H37.81V38.42Z" fill="black"/>
<path d="M37.81 40.6801H36.68V41.8101H37.81V40.6801Z" fill="black"/>
<path d="M37.81 44.0701H36.68V48.59H37.81V44.0701Z" fill="black"/>
<path d="M37.81 50.86H36.68V54.25H37.81V50.86Z" fill="black"/>
<path d="M37.81 55.38H36.68V57.64H37.81V55.38Z" fill="black"/>
<path d="M37.81 61.04H36.68V63.3H37.81V61.04Z" fill="black"/>
<path d="M37.81 68.95H36.68V70.08H37.81V68.95Z" fill="black"/>
<path d="M37.81 72.34H36.68V73.47H37.81V72.34Z" fill="black"/>
<path d="M37.81 74.61H36.68V78H37.81V74.61Z" fill="black"/>
<path d="M37.81 79.13H36.68V80.26H37.81V79.13Z" fill="black"/>
<path d="M38.94 6.76001H37.81V9.02002H38.94V6.76001Z" fill="black"/>
<path d="M38.94 10.15H37.81V13.54H38.94V10.15Z" fill="black"/>
<path d="M38.94 22.59H37.81V24.85H38.94V22.59Z" fill="black"/>
<path d="M38.94 29.37H37.81V30.5H38.94V29.37Z" fill="black"/>
<path d="M38.94 31.64H37.81V35.03H38.94V31.64Z" fill="black"/>
<path d="M38.94 36.16H37.81V44.08H38.94V36.16Z" fill="black"/>
<path d="M38.94 45.2H37.81V46.33H38.94V45.2Z" fill="black"/>
<path d="M38.94 50.86H37.81V51.99H38.94V50.86Z" fill="black"/>
<path d="M38.94 54.25H37.81V56.51H38.94V54.25Z" fill="black"/>
<path d="M38.94 59.91H37.81V61.04H38.94V59.91Z" fill="black"/>
<path d="M38.94 65.5601H37.81V66.6901H38.94V65.5601Z" fill="black"/>
<path d="M38.94 68.95H37.81V70.08H38.94V68.95Z" fill="black"/>
<path d="M38.94 72.34H37.81V73.47H38.94V72.34Z" fill="black"/>
<path d="M40.07 6.76001H38.94V7.89001H40.07V6.76001Z" fill="black"/>
<path d="M40.07 10.15H38.94V11.28H40.07V10.15Z" fill="black"/>
<path d="M40.07 13.54H38.94V15.8H40.07V13.54Z" fill="black"/>
<path d="M40.07 18.0701H38.94V20.33H40.07V18.0701Z" fill="black"/>
<path d="M40.07 21.46H38.94V22.59H40.07V21.46Z" fill="black"/>
<path d="M40.07 23.72H38.94V25.98H40.07V23.72Z" fill="black"/>
<path d="M40.07 29.37H38.94V30.5H40.07V29.37Z" fill="black"/>
<path d="M40.07 32.77H38.94V33.9H40.07V32.77Z" fill="black"/>
<path d="M40.07 35.03H38.94V36.16H40.07V35.03Z" fill="black"/>
<path d="M40.07 40.6801H38.94V42.9401H40.07V40.6801Z" fill="black"/>
<path d="M40.07 46.34H38.94V47.47H40.07V46.34Z" fill="black"/>
<path d="M40.07 48.6H38.94V51.99H40.07V48.6Z" fill="black"/>
<path d="M40.07 54.25H38.94V55.38H40.07V54.25Z" fill="black"/>
<path d="M40.07 56.51H38.94V57.64H40.07V56.51Z" fill="black"/>
<path d="M40.07 58.77H38.94V59.9H40.07V58.77Z" fill="black"/>
<path d="M40.07 61.04H38.94V65.5601H40.07V61.04Z" fill="black"/>
<path d="M40.07 68.95H38.94V70.08H40.07V68.95Z" fill="black"/>
<path d="M40.07 72.34H38.94V75.73H40.07V72.34Z" fill="black"/>
<path d="M40.07 78H38.94V79.13H40.07V78Z" fill="black"/>
<path d="M41.2 6.76001H40.07V10.15H41.2V6.76001Z" fill="black"/>
<path d="M41.2 12.41H40.07V13.54H41.2V12.41Z" fill="black"/>
<path d="M41.2 15.8H40.07V16.9301H41.2V15.8Z" fill="black"/>
<path d="M41.2 19.2H40.07V21.46H41.2V19.2Z" fill="black"/>
<path d="M41.2 25.98H40.07V27.11H41.2V25.98Z" fill="black"/>
<path d="M41.2 30.5H40.07V31.63H41.2V30.5Z" fill="black"/>
<path d="M41.2 32.77H40.07V36.16H41.2V32.77Z" fill="black"/>
<path d="M41.2 38.42H40.07V39.55H41.2V38.42Z" fill="black"/>
<path d="M41.2 42.9401H40.07V45.2H41.2V42.9401Z" fill="black"/>
<path d="M41.2 48.6H40.07V49.73H41.2V48.6Z" fill="black"/>
<path d="M41.2 51.99H40.07V53.12H41.2V51.99Z" fill="black"/>
<path d="M41.2 54.25H40.07V55.38H41.2V54.25Z" fill="black"/>
<path d="M41.2 57.64H40.07V59.9H41.2V57.64Z" fill="black"/>
<path d="M41.2 62.17H40.07V63.3H41.2V62.17Z" fill="black"/>
<path d="M41.2 65.5601H40.07V66.6901H41.2V65.5601Z" fill="black"/>
<path d="M41.2 67.8201H40.07V68.95H41.2V67.8201Z" fill="black"/>
<path d="M41.2 70.08H40.07V71.21H41.2V70.08Z" fill="black"/>
<path d="M41.2 74.61H40.07V78H41.2V74.61Z" fill="black"/>
<path d="M41.2 79.13H40.07V80.26H41.2V79.13Z" fill="black"/>
<path d="M42.33 6.76001H41.2V9.02002H42.33V6.76001Z" fill="black"/>
<path d="M42.33 11.28H41.2V16.9301H42.33V11.28Z" fill="black"/>
<path d="M42.33 20.33H41.2V23.72H42.33V20.33Z" fill="black"/>
<path d="M42.33 24.85H41.2V27.11H42.33V24.85Z" fill="black"/>
<path d="M42.33 29.37H41.2V30.5H42.33V29.37Z" fill="black"/>
<path d="M42.33 33.9H41.2V35.03H42.33V33.9Z" fill="black"/>
<path d="M42.33 40.6801H41.2V47.46H42.33V40.6801Z" fill="black"/>
<path d="M42.33 48.6H41.2V50.86H42.33V48.6Z" fill="black"/>
<path d="M42.33 54.25H41.2V57.64H42.33V54.25Z" fill="black"/>
<path d="M42.33 63.3H41.2V66.6901H42.33V63.3Z" fill="black"/>
<path d="M42.33 70.08H41.2V76.86H42.33V70.08Z" fill="black"/>
<path d="M42.33 79.13H41.2V80.26H42.33V79.13Z" fill="black"/>
<path d="M43.46 6.76001H42.33V9.02002H43.46V6.76001Z" fill="black"/>
<path d="M43.46 11.28H42.33V12.41H43.46V11.28Z" fill="black"/>
<path d="M43.46 15.8H42.33V18.0601H43.46V15.8Z" fill="black"/>
<path d="M43.46 19.2H42.33V21.46H43.46V19.2Z" fill="black"/>
<path d="M43.46 22.59H42.33V24.85H43.46V22.59Z" fill="black"/>
<path d="M43.46 29.37H42.33V31.63H43.46V29.37Z" fill="black"/>
<path d="M43.46 32.77H42.33V35.03H43.46V32.77Z" fill="black"/>
<path d="M43.46 36.16H42.33V38.42H43.46V36.16Z" fill="black"/>
<path d="M43.46 40.6801H42.33V41.8101H43.46V40.6801Z" fill="black"/>
<path d="M43.46 45.2H42.33V47.46H43.46V45.2Z" fill="black"/>
<path d="M43.46 48.6H42.33V49.73H43.46V48.6Z" fill="black"/>
<path d="M43.46 51.99H42.33V53.12H43.46V51.99Z" fill="black"/>
<path d="M43.46 54.25H42.33V55.38H43.46V54.25Z" fill="black"/>
<path d="M43.46 56.51H42.33V58.77H43.46V56.51Z" fill="black"/>
<path d="M43.46 59.91H42.33V64.4301H43.46V59.91Z" fill="black"/>
<path d="M43.46 70.08H42.33V71.21H43.46V70.08Z" fill="black"/>
<path d="M43.46 74.61H42.33V75.74H43.46V74.61Z" fill="black"/>
<path d="M43.46 76.87H42.33V80.26H43.46V76.87Z" fill="black"/>
<path d="M44.6 10.15H43.47V12.41H44.6V10.15Z" fill="black"/>
<path d="M44.6 13.54H43.47V14.67H44.6V13.54Z" fill="black"/>
<path d="M44.6 15.8H43.47V18.0601H44.6V15.8Z" fill="black"/>
<path d="M44.6 20.33H43.47V21.46H44.6V20.33Z" fill="black"/>
<path d="M44.6 23.72H43.47V27.11H44.6V23.72Z" fill="black"/>
<path d="M44.6 28.24H43.47V29.37H44.6V28.24Z" fill="black"/>
<path d="M44.6 33.9H43.47V39.55H44.6V33.9Z" fill="black"/>
<path d="M44.6 40.6801H43.47V41.8101H44.6V40.6801Z" fill="black"/>
<path d="M44.6 42.9401H43.47V44.0701H44.6V42.9401Z" fill="black"/>
<path d="M44.6 45.2H43.47V46.33H44.6V45.2Z" fill="black"/>
<path d="M44.6 49.73H43.47V51.99H44.6V49.73Z" fill="black"/>
<path d="M44.6 53.12H43.47V55.38H44.6V53.12Z" fill="black"/>
<path d="M44.6 58.77H43.47V62.16H44.6V58.77Z" fill="black"/>
<path d="M44.6 64.4301H43.47V67.8201H44.6V64.4301Z" fill="black"/>
<path d="M44.6 70.08H43.47V71.21H44.6V70.08Z" fill="black"/>
<path d="M44.6 72.34H43.47V73.47H44.6V72.34Z" fill="black"/>
<path d="M44.6 74.61H43.47V75.74H44.6V74.61Z" fill="black"/>
<path d="M44.6 78H43.47V80.26H44.6V78Z" fill="black"/>
<path d="M45.73 9.02002H44.6V12.41H45.73V9.02002Z" fill="black"/>
<path d="M45.73 15.8H44.6V16.9301H45.73V15.8Z" fill="black"/>
<path d="M45.73 19.2H44.6V21.46H45.73V19.2Z" fill="black"/>
<path d="M45.73 24.85H44.6V29.37H45.73V24.85Z" fill="black"/>
<path d="M45.73 32.77H44.6V33.9H45.73V32.77Z" fill="black"/>
<path d="M45.73 35.03H44.6V37.29H45.73V35.03Z" fill="black"/>
<path d="M45.73 38.42H44.6V41.8101H45.73V38.42Z" fill="black"/>
<path d="M45.73 45.2H44.6V46.33H45.73V45.2Z" fill="black"/>
<path d="M45.73 47.47H44.6V48.6H45.73V47.47Z" fill="black"/>
<path d="M45.73 49.73H44.6V57.65H45.73V49.73Z" fill="black"/>
<path d="M45.73 58.77H44.6V61.03H45.73V58.77Z" fill="black"/>
<path d="M45.73 63.3H44.6V65.5601H45.73V63.3Z" fill="black"/>
<path d="M45.73 66.6901H44.6V71.21H45.73V66.6901Z" fill="black"/>
<path d="M45.73 74.61H44.6V76.87H45.73V74.61Z" fill="black"/>
<path d="M46.86 6.76001H45.73V9.02002H46.86V6.76001Z" fill="black"/>
<path d="M46.86 10.15H45.73V16.9301H46.86V10.15Z" fill="black"/>
<path d="M46.86 18.0701H45.73V20.33H46.86V18.0701Z" fill="black"/>
<path d="M46.86 21.46H45.73V23.72H46.86V21.46Z" fill="black"/>
<path d="M46.86 31.64H45.73V33.9H46.86V31.64Z" fill="black"/>
<path d="M46.86 35.03H45.73V36.16H46.86V35.03Z" fill="black"/>
<path d="M46.86 38.42H45.73V39.55H46.86V38.42Z" fill="black"/>
<path d="M46.86 40.6801H45.73V47.46H46.86V40.6801Z" fill="black"/>
<path d="M46.86 48.6H45.73V50.86H46.86V48.6Z" fill="black"/>
<path d="M46.86 51.99H45.73V54.25H46.86V51.99Z" fill="black"/>
<path d="M46.86 55.38H45.73V58.77H46.86V55.38Z" fill="black"/>
<path d="M46.86 59.91H45.73V61.04H46.86V59.91Z" fill="black"/>
<path d="M46.86 62.17H45.73V64.4301H46.86V62.17Z" fill="black"/>
<path d="M46.86 66.6901H45.73V75.74H46.86V66.6901Z" fill="black"/>
<path d="M46.86 76.87H45.73V78H46.86V76.87Z" fill="black"/>
<path d="M47.99 6.76001H46.86V10.15H47.99V6.76001Z" fill="black"/>
<path d="M47.99 14.67H46.86V15.8H47.99V14.67Z" fill="black"/>
<path d="M47.99 18.0701H46.86V21.46H47.99V18.0701Z" fill="black"/>
<path d="M47.99 22.59H46.86V23.72H47.99V22.59Z" fill="black"/>
<path d="M47.99 24.85H46.86V25.98H47.99V24.85Z" fill="black"/>
<path d="M47.99 28.24H46.86V29.37H47.99V28.24Z" fill="black"/>
<path d="M47.99 31.64H46.86V32.77H47.99V31.64Z" fill="black"/>
<path d="M47.99 33.9H46.86V35.03H47.99V33.9Z" fill="black"/>
<path d="M47.99 37.29H46.86V42.9401H47.99V37.29Z" fill="black"/>
<path d="M47.99 44.0701H46.86V48.59H47.99V44.0701Z" fill="black"/>
<path d="M47.99 50.86H46.86V54.25H47.99V50.86Z" fill="black"/>
<path d="M47.99 55.38H46.86V56.51H47.99V55.38Z" fill="black"/>
<path d="M47.99 57.64H46.86V62.16H47.99V57.64Z" fill="black"/>
<path d="M47.99 63.3H46.86V67.8201H47.99V63.3Z" fill="black"/>
<path d="M47.99 68.95H46.86V70.08H47.99V68.95Z" fill="black"/>
<path d="M47.99 71.21H46.86V73.47H47.99V71.21Z" fill="black"/>
<path d="M47.99 74.61H46.86V75.74H47.99V74.61Z" fill="black"/>
<path d="M49.12 6.76001H47.99V7.89001H49.12V6.76001Z" fill="black"/>
<path d="M49.12 13.54H47.99V18.0601H49.12V13.54Z" fill="black"/>
<path d="M49.12 19.2H47.99V21.46H49.12V19.2Z" fill="black"/>
<path d="M49.12 24.85H47.99V25.98H49.12V24.85Z" fill="black"/>
<path d="M49.12 29.37H47.99V30.5H49.12V29.37Z" fill="black"/>
<path d="M49.12 33.9H47.99V35.03H49.12V33.9Z" fill="black"/>
<path d="M49.12 37.29H47.99V39.55H49.12V37.29Z" fill="black"/>
<path d="M49.12 40.6801H47.99V41.8101H49.12V40.6801Z" fill="black"/>
<path d="M49.12 44.0701H47.99V45.2H49.12V44.0701Z" fill="black"/>
<path d="M49.12 47.47H47.99V53.12H49.12V47.47Z" fill="black"/>
<path d="M49.12 55.38H47.99V58.77H49.12V55.38Z" fill="black"/>
<path d="M49.12 61.04H47.99V62.17H49.12V61.04Z" fill="black"/>
<path d="M49.12 64.4301H47.99V66.6901H49.12V64.4301Z" fill="black"/>
<path d="M49.12 68.95H47.99V71.21H49.12V68.95Z" fill="black"/>
<path d="M49.12 72.34H47.99V76.86H49.12V72.34Z" fill="black"/>
<path d="M49.12 79.13H47.99V80.26H49.12V79.13Z" fill="black"/>
<path d="M50.25 7.89001H49.12V10.15H50.25V7.89001Z" fill="black"/>
<path d="M50.25 12.41H49.12V13.54H50.25V12.41Z" fill="black"/>
<path d="M50.25 18.0701H49.12V23.72H50.25V18.0701Z" fill="black"/>
<path d="M50.25 24.85H49.12V28.24H50.25V24.85Z" fill="black"/>
<path d="M50.25 31.64H49.12V33.9H50.25V31.64Z" fill="black"/>
<path d="M50.25 36.16H49.12V37.29H50.25V36.16Z" fill="black"/>
<path d="M50.25 41.8101H49.12V42.9401H50.25V41.8101Z" fill="black"/>
<path d="M50.25 45.2H49.12V46.33H50.25V45.2Z" fill="black"/>
<path d="M50.25 47.47H49.12V48.6H50.25V47.47Z" fill="black"/>
<path d="M50.25 54.25H49.12V55.38H50.25V54.25Z" fill="black"/>
<path d="M50.25 57.64H49.12V58.77H50.25V57.64Z" fill="black"/>
<path d="M50.25 59.91H49.12V61.04H50.25V59.91Z" fill="black"/>
<path d="M50.25 62.17H49.12V66.6901H50.25V62.17Z" fill="black"/>
<path d="M50.25 73.47H49.12V76.86H50.25V73.47Z" fill="black"/>
<path d="M50.25 78H49.12V79.13H50.25V78Z" fill="black"/>
<path d="M51.38 6.76001H50.25V7.89001H51.38V6.76001Z" fill="black"/>
<path d="M51.38 9.02002H50.25V12.41H51.38V9.02002Z" fill="black"/>
<path d="M51.38 13.54H50.25V16.9301H51.38V13.54Z" fill="black"/>
<path d="M51.38 20.33H50.25V21.46H51.38V20.33Z" fill="black"/>
<path d="M51.38 22.59H50.25V23.72H51.38V22.59Z" fill="black"/>
<path d="M51.38 25.98H50.25V27.11H51.38V25.98Z" fill="black"/>
<path d="M51.38 28.24H50.25V30.5H51.38V28.24Z" fill="black"/>
<path d="M51.38 32.77H50.25V33.9H51.38V32.77Z" fill="black"/>
<path d="M51.38 36.16H50.25V37.29H51.38V36.16Z" fill="black"/>
<path d="M51.38 38.42H50.25V40.6801H51.38V38.42Z" fill="black"/>
<path d="M51.38 41.8101H50.25V46.33H51.38V41.8101Z" fill="black"/>
<path d="M51.38 47.47H50.25V48.6H51.38V47.47Z" fill="black"/>
<path d="M51.38 49.73H50.25V50.86H51.38V49.73Z" fill="black"/>
<path d="M51.38 53.12H50.25V54.25H51.38V53.12Z" fill="black"/>
<path d="M51.38 59.91H50.25V61.04H51.38V59.91Z" fill="black"/>
<path d="M51.38 64.4301H50.25V68.95H51.38V64.4301Z" fill="black"/>
<path d="M51.38 70.08H50.25V71.21H51.38V70.08Z" fill="black"/>
<path d="M51.38 72.34H50.25V74.6H51.38V72.34Z" fill="black"/>
<path d="M51.38 79.13H50.25V80.26H51.38V79.13Z" fill="black"/>
<path d="M52.51 6.76001H51.38V10.15H52.51V6.76001Z" fill="black"/>
<path d="M52.51 11.28H51.38V13.54H52.51V11.28Z" fill="black"/>
<path d="M52.51 14.67H51.38V16.9301H52.51V14.67Z" fill="black"/>
<path d="M52.51 18.0701H51.38V19.2H52.51V18.0701Z" fill="black"/>
<path d="M52.51 20.33H51.38V25.98H52.51V20.33Z" fill="black"/>
<path d="M52.51 27.11H51.38V28.24H52.51V27.11Z" fill="black"/>
<path d="M52.51 29.37H51.38V32.76H52.51V29.37Z" fill="black"/>
<path d="M52.51 33.9H51.38V39.55H52.51V33.9Z" fill="black"/>
<path d="M52.51 41.8101H51.38V48.59H52.51V41.8101Z" fill="black"/>
<path d="M52.51 50.86H51.38V57.64H52.51V50.86Z" fill="black"/>
<path d="M52.51 59.91H51.38V66.6901H52.51V59.91Z" fill="black"/>
<path d="M52.51 70.08H51.38V71.21H52.51V70.08Z" fill="black"/>
<path d="M52.51 73.47H51.38V77.99H52.51V73.47Z" fill="black"/>
<path d="M53.64 6.76001H52.51V9.02002H53.64V6.76001Z" fill="black"/>
<path d="M53.64 11.28H52.51V16.9301H53.64V11.28Z" fill="black"/>
<path d="M53.64 18.0701H52.51V19.2H53.64V18.0701Z" fill="black"/>
<path d="M53.64 20.33H52.51V21.46H53.64V20.33Z" fill="black"/>
<path d="M53.64 22.59H52.51V23.72H53.64V22.59Z" fill="black"/>
<path d="M53.64 28.24H52.51V30.5H53.64V28.24Z" fill="black"/>
<path d="M53.64 33.9H52.51V38.42H53.64V33.9Z" fill="black"/>
<path d="M53.64 39.55H52.51V42.9401H53.64V39.55Z" fill="black"/>
<path d="M53.64 44.0701H52.51V48.59H53.64V44.0701Z" fill="black"/>
<path d="M53.64 50.86H52.51V51.99H53.64V50.86Z" fill="black"/>
<path d="M53.64 53.12H52.51V54.25H53.64V53.12Z" fill="black"/>
<path d="M53.64 56.51H52.51V62.16H53.64V56.51Z" fill="black"/>
<path d="M53.64 66.6901H52.51V71.21H53.64V66.6901Z" fill="black"/>
<path d="M53.64 72.34H52.51V75.73H53.64V72.34Z" fill="black"/>
<path d="M54.77 10.15H53.64V12.41H54.77V10.15Z" fill="black"/>
<path d="M54.77 14.67H53.64V15.8H54.77V14.67Z" fill="black"/>
<path d="M54.77 16.9401H53.64V19.2H54.77V16.9401Z" fill="black"/>
<path d="M54.77 20.33H53.64V21.46H54.77V20.33Z" fill="black"/>
<path d="M54.77 23.72H53.64V24.85H54.77V23.72Z" fill="black"/>
<path d="M54.77 25.98H53.64V27.11H54.77V25.98Z" fill="black"/>
<path d="M54.77 30.5H53.64V32.76H54.77V30.5Z" fill="black"/>
<path d="M54.77 36.16H53.64V38.42H54.77V36.16Z" fill="black"/>
<path d="M54.77 40.6801H53.64V41.8101H54.77V40.6801Z" fill="black"/>
<path d="M54.77 42.9401H53.64V44.0701H54.77V42.9401Z" fill="black"/>
<path d="M54.77 47.47H53.64V51.99H54.77V47.47Z" fill="black"/>
<path d="M54.77 53.12H53.64V55.38H54.77V53.12Z" fill="black"/>
<path d="M54.77 56.51H53.64V57.64H54.77V56.51Z" fill="black"/>
<path d="M54.77 58.77H53.64V59.9H54.77V58.77Z" fill="black"/>
<path d="M54.77 63.3H53.64V65.5601H54.77V63.3Z" fill="black"/>
<path d="M54.77 66.6901H53.64V67.8201H54.77V66.6901Z" fill="black"/>
<path d="M54.77 68.95H53.64V70.08H54.77V68.95Z" fill="black"/>
<path d="M54.77 76.87H53.64V80.26H54.77V76.87Z" fill="black"/>
<path d="M55.9 6.76001H54.77V7.89001H55.9V6.76001Z" fill="black"/>
<path d="M55.9 9.02002H54.77V10.15H55.9V9.02002Z" fill="black"/>
<path d="M55.9 11.28H54.77V14.67H55.9V11.28Z" fill="black"/>
<path d="M55.9 15.8H54.77V16.9301H55.9V15.8Z" fill="black"/>
<path d="M55.9 19.2H54.77V21.46H55.9V19.2Z" fill="black"/>
<path d="M55.9 23.72H54.77V24.85H55.9V23.72Z" fill="black"/>
<path d="M55.9 33.9H54.77V35.03H55.9V33.9Z" fill="black"/>
<path d="M55.9 36.16H54.77V39.55H55.9V36.16Z" fill="black"/>
<path d="M55.9 41.8101H54.77V42.9401H55.9V41.8101Z" fill="black"/>
<path d="M55.9 44.0701H54.77V48.59H55.9V44.0701Z" fill="black"/>
<path d="M55.9 54.25H54.77V55.38H55.9V54.25Z" fill="black"/>
<path d="M55.9 56.51H54.77V57.64H55.9V56.51Z" fill="black"/>
<path d="M55.9 58.77H54.77V62.16H55.9V58.77Z" fill="black"/>
<path d="M55.9 63.3H54.77V64.4301H55.9V63.3Z" fill="black"/>
<path d="M55.9 67.8201H54.77V71.21H55.9V67.8201Z" fill="black"/>
<path d="M55.9 72.34H54.77V73.47H55.9V72.34Z" fill="black"/>
<path d="M55.9 76.87H54.77V78H55.9V76.87Z" fill="black"/>
<path d="M55.9 79.13H54.77V80.26H55.9V79.13Z" fill="black"/>
<path d="M57.03 6.76001H55.9V7.89001H57.03V6.76001Z" fill="black"/>
<path d="M57.03 9.02002H55.9V10.15H57.03V9.02002Z" fill="black"/>
<path d="M57.03 12.41H55.9V13.54H57.03V12.41Z" fill="black"/>
<path d="M57.03 14.67H55.9V16.9301H57.03V14.67Z" fill="black"/>
<path d="M57.03 18.0701H55.9V22.59H57.03V18.0701Z" fill="black"/>
<path d="M57.03 25.98H55.9V32.76H57.03V25.98Z" fill="black"/>
<path d="M57.03 33.9H55.9V36.16H57.03V33.9Z" fill="black"/>
<path d="M57.03 37.29H55.9V38.42H57.03V37.29Z" fill="black"/>
<path d="M57.03 40.6801H55.9V41.8101H57.03V40.6801Z" fill="black"/>
<path d="M57.03 42.9401H55.9V45.2H57.03V42.9401Z" fill="black"/>
<path d="M57.03 46.34H55.9V49.73H57.03V46.34Z" fill="black"/>
<path d="M57.03 50.86H55.9V51.99H57.03V50.86Z" fill="black"/>
<path d="M57.03 56.51H55.9V57.64H57.03V56.51Z" fill="black"/>
<path d="M57.03 58.77H55.9V63.29H57.03V58.77Z" fill="black"/>
<path d="M57.03 66.6901H55.9V68.95H57.03V66.6901Z" fill="black"/>
<path d="M57.03 70.08H55.9V72.34H57.03V70.08Z" fill="black"/>
<path d="M57.03 74.61H55.9V76.87H57.03V74.61Z" fill="black"/>
<path d="M57.03 79.13H55.9V80.26H57.03V79.13Z" fill="black"/>
<path d="M58.16 6.76001H57.03V7.89001H58.16V6.76001Z" fill="black"/>
<path d="M58.16 9.02002H57.03V10.15H58.16V9.02002Z" fill="black"/>
<path d="M58.16 11.28H57.03V12.41H58.16V11.28Z" fill="black"/>
<path d="M58.16 13.54H57.03V15.8H58.16V13.54Z" fill="black"/>
<path d="M58.16 20.33H57.03V23.72H58.16V20.33Z" fill="black"/>
<path d="M58.16 24.85H57.03V25.98H58.16V24.85Z" fill="black"/>
<path d="M58.16 27.11H57.03V28.24H58.16V27.11Z" fill="black"/>
<path d="M58.16 33.9H57.03V35.03H58.16V33.9Z" fill="black"/>
<path d="M58.16 36.16H57.03V41.8101H58.16V36.16Z" fill="black"/>
<path d="M58.16 42.9401H57.03V45.2H58.16V42.9401Z" fill="black"/>
<path d="M58.16 47.47H57.03V48.6H58.16V47.47Z" fill="black"/>
<path d="M58.16 49.73H57.03V54.25H58.16V49.73Z" fill="black"/>
<path d="M58.16 55.38H57.03V56.51H58.16V55.38Z" fill="black"/>
<path d="M58.16 57.64H57.03V58.77H58.16V57.64Z" fill="black"/>
<path d="M58.16 61.04H57.03V64.4301H58.16V61.04Z" fill="black"/>
<path d="M58.16 65.5601H57.03V67.8201H58.16V65.5601Z" fill="black"/>
<path d="M58.16 68.95H57.03V70.08H58.16V68.95Z" fill="black"/>
<path d="M58.16 71.21H57.03V72.34H58.16V71.21Z" fill="black"/>
<path d="M58.16 74.61H57.03V75.74H58.16V74.61Z" fill="black"/>
<path d="M58.16 79.13H57.03V80.26H58.16V79.13Z" fill="black"/>
<path d="M59.3 7.89001H58.17V9.02002H59.3V7.89001Z" fill="black"/>
<path d="M59.3 10.15H58.17V12.41H59.3V10.15Z" fill="black"/>
<path d="M59.3 14.67H58.17V15.8H59.3V14.67Z" fill="black"/>
<path d="M59.3 19.2H58.17V23.72H59.3V19.2Z" fill="black"/>
<path d="M59.3 24.85H58.17V35.03H59.3V24.85Z" fill="black"/>
<path d="M59.3 36.16H58.17V39.55H59.3V36.16Z" fill="black"/>
<path d="M59.3 40.6801H58.17V41.8101H59.3V40.6801Z" fill="black"/>
<path d="M59.3 46.34H58.17V48.6H59.3V46.34Z" fill="black"/>
<path d="M59.3 50.86H58.17V51.99H59.3V50.86Z" fill="black"/>
<path d="M59.3 55.38H58.17V56.51H59.3V55.38Z" fill="black"/>
<path d="M59.3 59.91H58.17V61.04H59.3V59.91Z" fill="black"/>
<path d="M59.3 64.4301H58.17V65.5601H59.3V64.4301Z" fill="black"/>
<path d="M59.3 68.95H58.17V74.6H59.3V68.95Z" fill="black"/>
<path d="M59.3 75.74H58.17V80.26H59.3V75.74Z" fill="black"/>
<path d="M60.43 6.76001H59.3V9.02002H60.43V6.76001Z" fill="black"/>
<path d="M60.43 12.41H59.3V14.67H60.43V12.41Z" fill="black"/>
<path d="M60.43 18.0701H59.3V19.2H60.43V18.0701Z" fill="black"/>
<path d="M60.43 21.46H59.3V22.59H60.43V21.46Z" fill="black"/>
<path d="M60.43 24.85H59.3V25.98H60.43V24.85Z" fill="black"/>
<path d="M60.43 31.64H59.3V36.16H60.43V31.64Z" fill="black"/>
<path d="M60.43 37.29H59.3V38.42H60.43V37.29Z" fill="black"/>
<path d="M60.43 44.0701H59.3V45.2H60.43V44.0701Z" fill="black"/>
<path d="M60.43 48.6H59.3V49.73H60.43V48.6Z" fill="black"/>
<path d="M60.43 50.86H59.3V51.99H60.43V50.86Z" fill="black"/>
<path d="M60.43 54.25H59.3V56.51H60.43V54.25Z" fill="black"/>
<path d="M60.43 62.17H59.3V64.4301H60.43V62.17Z" fill="black"/>
<path d="M60.43 65.5601H59.3V66.6901H60.43V65.5601Z" fill="black"/>
<path d="M60.43 67.8201H59.3V70.08H60.43V67.8201Z" fill="black"/>
<path d="M60.43 72.34H59.3V73.47H60.43V72.34Z" fill="black"/>
<path d="M60.43 74.61H59.3V76.87H60.43V74.61Z" fill="black"/>
<path d="M61.56 16.9401H60.43V19.2H61.56V16.9401Z" fill="black"/>
<path d="M61.56 20.33H60.43V21.46H61.56V20.33Z" fill="black"/>
<path d="M61.56 23.72H60.43V29.37H61.56V23.72Z" fill="black"/>
<path d="M61.56 31.64H60.43V36.16H61.56V31.64Z" fill="black"/>
<path d="M61.56 37.29H60.43V40.6801H61.56V37.29Z" fill="black"/>
<path d="M61.56 41.8101H60.43V42.9401H61.56V41.8101Z" fill="black"/>
<path d="M61.56 44.0701H60.43V48.59H61.56V44.0701Z" fill="black"/>
<path d="M61.56 49.73H60.43V54.25H61.56V49.73Z" fill="black"/>
<path d="M61.56 55.38H60.43V56.51H61.56V55.38Z" fill="black"/>
<path d="M61.56 57.64H60.43V59.9H61.56V57.64Z" fill="black"/>
<path d="M61.56 61.04H60.43V62.17H61.56V61.04Z" fill="black"/>
<path d="M61.56 63.3H60.43V66.6901H61.56V63.3Z" fill="black"/>
<path d="M61.56 67.8201H60.43V70.08H61.56V67.8201Z" fill="black"/>
<path d="M61.56 74.61H60.43V76.87H61.56V74.61Z" fill="black"/>
<path d="M61.56 78H60.43V80.26H61.56V78Z" fill="black"/>
<path d="M62.69 9.02002H61.56V10.15H62.69V9.02002Z" fill="black"/>
<path d="M62.69 13.54H61.56V14.67H62.69V13.54Z" fill="black"/>
<path d="M62.69 15.8H61.56V19.1901H62.69V15.8Z" fill="black"/>
<path d="M62.69 20.33H61.56V21.46H62.69V20.33Z" fill="black"/>
<path d="M62.69 23.72H61.56V27.11H62.69V23.72Z" fill="black"/>
<path d="M62.69 29.37H61.56V30.5H62.69V29.37Z" fill="black"/>
<path d="M62.69 33.9H61.56V39.55H62.69V33.9Z" fill="black"/>
<path d="M62.69 41.8101H61.56V44.0701H62.69V41.8101Z" fill="black"/>
<path d="M62.69 45.2H61.56V49.72H62.69V45.2Z" fill="black"/>
<path d="M62.69 50.86H61.56V54.25H62.69V50.86Z" fill="black"/>
<path d="M62.69 55.38H61.56V58.77H62.69V55.38Z" fill="black"/>
<path d="M62.69 59.91H61.56V62.17H62.69V59.91Z" fill="black"/>
<path d="M62.69 64.4301H61.56V67.8201H62.69V64.4301Z" fill="black"/>
<path d="M62.69 68.95H61.56V72.34H62.69V68.95Z" fill="black"/>
<path d="M62.69 73.47H61.56V76.86H62.69V73.47Z" fill="black"/>
<path d="M62.69 78H61.56V80.26H62.69V78Z" fill="black"/>
<path d="M63.82 9.02002H62.69V11.28H63.82V9.02002Z" fill="black"/>
<path d="M63.82 12.41H62.69V13.54H63.82V12.41Z" fill="black"/>
<path d="M63.82 14.67H62.69V18.0601H63.82V14.67Z" fill="black"/>
<path d="M63.82 19.2H62.69V20.33H63.82V19.2Z" fill="black"/>
<path d="M63.82 21.46H62.69V22.59H63.82V21.46Z" fill="black"/>
<path d="M63.82 23.72H62.69V28.24H63.82V23.72Z" fill="black"/>
<path d="M63.82 29.37H62.69V30.5H63.82V29.37Z" fill="black"/>
<path d="M63.82 32.77H62.69V33.9H63.82V32.77Z" fill="black"/>
<path d="M63.82 36.16H62.69V37.29H63.82V36.16Z" fill="black"/>
<path d="M63.82 39.55H62.69V42.9401H63.82V39.55Z" fill="black"/>
<path d="M63.82 50.86H62.69V53.12H63.82V50.86Z" fill="black"/>
<path d="M63.82 58.77H62.69V61.03H63.82V58.77Z" fill="black"/>
<path d="M63.82 62.17H62.69V65.5601H63.82V62.17Z" fill="black"/>
<path d="M63.82 72.34H62.69V74.6H63.82V72.34Z" fill="black"/>
<path d="M63.82 75.74H62.69V76.87H63.82V75.74Z" fill="black"/>
<path d="M63.82 78H62.69V80.26H63.82V78Z" fill="black"/>
<path d="M64.95 6.76001H63.82V9.02002H64.95V6.76001Z" fill="black"/>
<path d="M64.95 11.28H63.82V12.41H64.95V11.28Z" fill="black"/>
<path d="M64.95 13.54H63.82V16.9301H64.95V13.54Z" fill="black"/>
<path d="M64.95 22.59H63.82V23.72H64.95V22.59Z" fill="black"/>
<path d="M64.95 25.98H63.82V27.11H64.95V25.98Z" fill="black"/>
<path d="M64.95 28.24H63.82V29.37H64.95V28.24Z" fill="black"/>
<path d="M64.95 33.9H63.82V35.03H64.95V33.9Z" fill="black"/>
<path d="M64.95 36.16H63.82V37.29H64.95V36.16Z" fill="black"/>
<path d="M64.95 38.42H63.82V40.6801H64.95V38.42Z" fill="black"/>
<path d="M64.95 41.8101H63.82V44.0701H64.95V41.8101Z" fill="black"/>
<path d="M64.95 49.73H63.82V50.86H64.95V49.73Z" fill="black"/>
<path d="M64.95 53.12H63.82V56.51H64.95V53.12Z" fill="black"/>
<path d="M64.95 58.77H63.82V61.03H64.95V58.77Z" fill="black"/>
<path d="M64.95 65.5601H63.82V68.95H64.95V65.5601Z" fill="black"/>
<path d="M64.95 70.08H63.82V71.21H64.95V70.08Z" fill="black"/>
<path d="M64.95 72.34H63.82V74.6H64.95V72.34Z" fill="black"/>
<path d="M64.95 79.13H63.82V80.26H64.95V79.13Z" fill="black"/>
<path d="M66.08 6.76001H64.95V7.89001H66.08V6.76001Z" fill="black"/>
<path d="M66.08 9.02002H64.95V10.15H66.08V9.02002Z" fill="black"/>
<path d="M66.08 11.28H64.95V13.54H66.08V11.28Z" fill="black"/>
<path d="M66.08 15.8H64.95V16.9301H66.08V15.8Z" fill="black"/>
<path d="M66.08 20.33H64.95V22.59H66.08V20.33Z" fill="black"/>
<path d="M66.08 23.72H64.95V25.98H66.08V23.72Z" fill="black"/>
<path d="M66.08 27.11H64.95V28.24H66.08V27.11Z" fill="black"/>
<path d="M66.08 29.37H64.95V33.89H66.08V29.37Z" fill="black"/>
<path d="M66.08 37.29H64.95V39.55H66.08V37.29Z" fill="black"/>
<path d="M66.08 45.2H64.95V53.12H66.08V45.2Z" fill="black"/>
<path d="M66.08 55.38H64.95V66.6901H66.08V55.38Z" fill="black"/>
<path d="M66.08 70.08H64.95V75.73H66.08V70.08Z" fill="black"/>
<path d="M66.08 76.87H64.95V78H66.08V76.87Z" fill="black"/>
<path d="M67.21 6.76001H66.08V7.89001H67.21V6.76001Z" fill="black"/>
<path d="M67.21 12.41H66.08V14.67H67.21V12.41Z" fill="black"/>
<path d="M67.21 15.8H66.08V16.9301H67.21V15.8Z" fill="black"/>
<path d="M67.21 18.0701H66.08V19.2H67.21V18.0701Z" fill="black"/>
<path d="M67.21 20.33H66.08V22.59H67.21V20.33Z" fill="black"/>
<path d="M67.21 28.24H66.08V30.5H67.21V28.24Z" fill="black"/>
<path d="M67.21 32.77H66.08V35.03H67.21V32.77Z" fill="black"/>
<path d="M67.21 36.16H66.08V38.42H67.21V36.16Z" fill="black"/>
<path d="M67.21 39.55H66.08V41.8101H67.21V39.55Z" fill="black"/>
<path d="M67.21 42.9401H66.08V44.0701H67.21V42.9401Z" fill="black"/>
<path d="M67.21 45.2H66.08V51.98H67.21V45.2Z" fill="black"/>
<path d="M67.21 55.38H66.08V57.64H67.21V55.38Z" fill="black"/>
<path d="M67.21 58.77H66.08V62.16H67.21V58.77Z" fill="black"/>
<path d="M67.21 70.08H66.08V71.21H67.21V70.08Z" fill="black"/>
<path d="M67.21 73.47H66.08V75.73H67.21V73.47Z" fill="black"/>
<path d="M67.21 78H66.08V79.13H67.21V78Z" fill="black"/>
<path d="M68.34 6.76001H67.21V12.41H68.34V6.76001Z" fill="black"/>
<path d="M68.34 22.59H67.21V23.72H68.34V22.59Z" fill="black"/>
<path d="M68.34 24.85H67.21V27.11H68.34V24.85Z" fill="black"/>
<path d="M68.34 30.5H67.21V32.76H68.34V30.5Z" fill="black"/>
<path d="M68.34 33.9H67.21V35.03H68.34V33.9Z" fill="black"/>
<path d="M68.34 37.29H67.21V38.42H68.34V37.29Z" fill="black"/>
<path d="M68.34 39.55H67.21V40.6801H68.34V39.55Z" fill="black"/>
<path d="M68.34 46.34H67.21V54.26H68.34V46.34Z" fill="black"/>
<path d="M68.34 55.38H67.21V56.51H68.34V55.38Z" fill="black"/>
<path d="M68.34 61.04H67.21V62.17H68.34V61.04Z" fill="black"/>
<path d="M68.34 63.3H67.21V65.5601H68.34V63.3Z" fill="black"/>
<path d="M68.34 66.6901H67.21V67.8201H68.34V66.6901Z" fill="black"/>
<path d="M68.34 68.95H67.21V73.47H68.34V68.95Z" fill="black"/>
<path d="M68.34 76.87H67.21V80.26H68.34V76.87Z" fill="black"/>
<path d="M69.47 9.02002H68.34V11.28H69.47V9.02002Z" fill="black"/>
<path d="M69.47 12.41H68.34V15.8H69.47V12.41Z" fill="black"/>
<path d="M69.47 19.2H68.34V20.33H69.47V19.2Z" fill="black"/>
<path d="M69.47 24.85H68.34V25.98H69.47V24.85Z" fill="black"/>
<path d="M69.47 27.11H68.34V28.24H69.47V27.11Z" fill="black"/>
<path d="M69.47 29.37H68.34V30.5H69.47V29.37Z" fill="black"/>
<path d="M69.47 32.77H68.34V35.03H69.47V32.77Z" fill="black"/>
<path d="M69.47 37.29H68.34V38.42H69.47V37.29Z" fill="black"/>
<path d="M69.47 41.8101H68.34V42.9401H69.47V41.8101Z" fill="black"/>
<path d="M69.47 45.2H68.34V47.46H69.47V45.2Z" fill="black"/>
<path d="M69.47 51.99H68.34V53.12H69.47V51.99Z" fill="black"/>
<path d="M69.47 55.38H68.34V57.64H69.47V55.38Z" fill="black"/>
<path d="M69.47 59.91H68.34V62.17H69.47V59.91Z" fill="black"/>
<path d="M69.47 63.3H68.34V64.4301H69.47V63.3Z" fill="black"/>
<path d="M69.47 67.8201H68.34V68.95H69.47V67.8201Z" fill="black"/>
<path d="M69.47 73.47H68.34V75.73H69.47V73.47Z" fill="black"/>
<path d="M69.47 79.13H68.34V80.26H69.47V79.13Z" fill="black"/>
<path d="M70.6 6.76001H69.47V7.89001H70.6V6.76001Z" fill="black"/>
<path d="M70.6 10.15H69.47V11.28H70.6V10.15Z" fill="black"/>
<path d="M70.6 19.2H69.47V22.59H70.6V19.2Z" fill="black"/>
<path d="M70.6 28.24H69.47V31.63H70.6V28.24Z" fill="black"/>
<path d="M70.6 32.77H69.47V33.9H70.6V32.77Z" fill="black"/>
<path d="M70.6 35.03H69.47V37.29H70.6V35.03Z" fill="black"/>
<path d="M70.6 40.6801H69.47V44.0701H70.6V40.6801Z" fill="black"/>
<path d="M70.6 45.2H69.47V46.33H70.6V45.2Z" fill="black"/>
<path d="M70.6 49.73H69.47V50.86H70.6V49.73Z" fill="black"/>
<path d="M70.6 51.99H69.47V53.12H70.6V51.99Z" fill="black"/>
<path d="M70.6 55.38H69.47V56.51H70.6V55.38Z" fill="black"/>
<path d="M70.6 57.64H69.47V61.03H70.6V57.64Z" fill="black"/>
<path d="M70.6 62.17H69.47V63.3H70.6V62.17Z" fill="black"/>
<path d="M70.6 64.4301H69.47V66.6901H70.6V64.4301Z" fill="black"/>
<path d="M70.6 68.95H69.47V70.08H70.6V68.95Z" fill="black"/>
<path d="M70.6 71.21H69.47V72.34H70.6V71.21Z" fill="black"/>
<path d="M70.6 74.61H69.47V75.74H70.6V74.61Z" fill="black"/>
<path d="M70.6 76.87H69.47V78H70.6V76.87Z" fill="black"/>
<path d="M70.6 79.13H69.47V80.26H70.6V79.13Z" fill="black"/>
<path d="M71.73 7.89001H70.6V10.15H71.73V7.89001Z" fill="black"/>
<path d="M71.73 11.28H70.6V12.41H71.73V11.28Z" fill="black"/>
<path d="M71.73 13.54H70.6V15.8H71.73V13.54Z" fill="black"/>
<path d="M71.73 18.0701H70.6V21.46H71.73V18.0701Z" fill="black"/>
<path d="M71.73 24.85H70.6V28.24H71.73V24.85Z" fill="black"/>
<path d="M71.73 29.37H70.6V30.5H71.73V29.37Z" fill="black"/>
<path d="M71.73 31.64H70.6V32.77H71.73V31.64Z" fill="black"/>
<path d="M71.73 33.9H70.6V35.03H71.73V33.9Z" fill="black"/>
<path d="M71.73 37.29H70.6V46.34H71.73V37.29Z" fill="black"/>
<path d="M71.73 47.47H70.6V50.86H71.73V47.47Z" fill="black"/>
<path d="M71.73 53.12H70.6V54.25H71.73V53.12Z" fill="black"/>
<path d="M71.73 56.51H70.6V59.9H71.73V56.51Z" fill="black"/>
<path d="M71.73 64.4301H70.6V65.5601H71.73V64.4301Z" fill="black"/>
<path d="M71.73 66.6901H70.6V76.87H71.73V66.6901Z" fill="black"/>
<path d="M72.87 15.8H71.74V16.9301H72.87V15.8Z" fill="black"/>
<path d="M72.87 22.59H71.74V23.72H72.87V22.59Z" fill="black"/>
<path d="M72.87 24.85H71.74V25.98H72.87V24.85Z" fill="black"/>
<path d="M72.87 27.11H71.74V29.37H72.87V27.11Z" fill="black"/>
<path d="M72.87 32.77H71.74V33.9H72.87V32.77Z" fill="black"/>
<path d="M72.87 35.03H71.74V38.42H72.87V35.03Z" fill="black"/>
<path d="M72.87 40.6801H71.74V41.8101H72.87V40.6801Z" fill="black"/>
<path d="M72.87 45.2H71.74V47.46H72.87V45.2Z" fill="black"/>
<path d="M72.87 49.73H71.74V50.86H72.87V49.73Z" fill="black"/>
<path d="M72.87 53.12H71.74V59.9H72.87V53.12Z" fill="black"/>
<path d="M72.87 62.17H71.74V64.4301H72.87V62.17Z" fill="black"/>
<path d="M72.87 66.6901H71.74V71.21H72.87V66.6901Z" fill="black"/>
<path d="M72.87 74.61H71.74V79.13H72.87V74.61Z" fill="black"/>
<path d="M74 6.76001H72.87V14.6801H74V6.76001Z" fill="black"/>
<path d="M74 20.33H72.87V22.59H74V20.33Z" fill="black"/>
<path d="M74 28.24H72.87V29.37H74V28.24Z" fill="black"/>
<path d="M74 33.9H72.87V36.16H74V33.9Z" fill="black"/>
<path d="M74 37.29H72.87V38.42H74V37.29Z" fill="black"/>
<path d="M74 40.6801H72.87V41.8101H74V40.6801Z" fill="black"/>
<path d="M74 42.9401H72.87V44.0701H74V42.9401Z" fill="black"/>
<path d="M74 45.2H72.87V46.33H74V45.2Z" fill="black"/>
<path d="M74 47.47H72.87V50.86H74V47.47Z" fill="black"/>
<path d="M74 53.12H72.87V57.64H74V53.12Z" fill="black"/>
<path d="M74 61.04H72.87V65.5601H74V61.04Z" fill="black"/>
<path d="M74 67.8201H72.87V68.95H74V67.8201Z" fill="black"/>
<path d="M74 70.08H72.87V71.21H74V70.08Z" fill="black"/>
<path d="M74 72.34H72.87V73.47H74V72.34Z" fill="black"/>
<path d="M74 74.61H72.87V75.74H74V74.61Z" fill="black"/>
<path d="M74 79.13H72.87V80.26H74V79.13Z" fill="black"/>
<path d="M75.13 6.76001H74V7.89001H75.13V6.76001Z" fill="black"/>
<path d="M75.13 13.54H74V14.67H75.13V13.54Z" fill="black"/>
<path d="M75.13 15.8H74V16.9301H75.13V15.8Z" fill="black"/>
<path d="M75.13 18.0701H74V21.46H75.13V18.0701Z" fill="black"/>
<path d="M75.13 22.59H74V23.72H75.13V22.59Z" fill="black"/>
<path d="M75.13 24.85H74V27.11H75.13V24.85Z" fill="black"/>
<path d="M75.13 28.24H74V29.37H75.13V28.24Z" fill="black"/>
<path d="M75.13 30.5H74V31.63H75.13V30.5Z" fill="black"/>
<path d="M75.13 32.77H74V35.03H75.13V32.77Z" fill="black"/>
<path d="M75.13 36.16H74V37.29H75.13V36.16Z" fill="black"/>
<path d="M75.13 39.55H74V41.8101H75.13V39.55Z" fill="black"/>
<path d="M75.13 45.2H74V46.33H75.13V45.2Z" fill="black"/>
<path d="M75.13 47.47H74V48.6H75.13V47.47Z" fill="black"/>
<path d="M75.13 51.99H74V54.25H75.13V51.99Z" fill="black"/>
<path d="M75.13 56.51H74V57.64H75.13V56.51Z" fill="black"/>
<path d="M75.13 58.77H74V59.9H75.13V58.77Z" fill="black"/>
<path d="M75.13 61.04H74V62.17H75.13V61.04Z" fill="black"/>
<path d="M75.13 63.3H74V64.4301H75.13V63.3Z" fill="black"/>
<path d="M75.13 65.5601H74V67.8201H75.13V65.5601Z" fill="black"/>
<path d="M75.13 68.95H74V71.21H75.13V68.95Z" fill="black"/>
<path d="M75.13 74.61H74V75.74H75.13V74.61Z" fill="black"/>
<path d="M75.13 78H74V80.26H75.13V78Z" fill="black"/>
<path d="M76.26 6.76001H75.13V7.89001H76.26V6.76001Z" fill="black"/>
<path d="M76.26 9.02002H75.13V12.41H76.26V9.02002Z" fill="black"/>
<path d="M76.26 13.54H75.13V14.67H76.26V13.54Z" fill="black"/>
<path d="M76.26 19.2H75.13V21.46H76.26V19.2Z" fill="black"/>
<path d="M76.26 23.72H75.13V25.98H76.26V23.72Z" fill="black"/>
<path d="M76.26 28.24H75.13V31.63H76.26V28.24Z" fill="black"/>
<path d="M76.26 32.77H75.13V35.03H76.26V32.77Z" fill="black"/>
<path d="M76.26 37.29H75.13V46.34H76.26V37.29Z" fill="black"/>
<path d="M76.26 50.86H75.13V51.99H76.26V50.86Z" fill="black"/>
<path d="M76.26 54.25H75.13V55.38H76.26V54.25Z" fill="black"/>
<path d="M76.26 56.51H75.13V57.64H76.26V56.51Z" fill="black"/>
<path d="M76.26 58.77H75.13V59.9H76.26V58.77Z" fill="black"/>
<path d="M76.26 61.04H75.13V62.17H76.26V61.04Z" fill="black"/>
<path d="M76.26 63.3H75.13V64.4301H76.26V63.3Z" fill="black"/>
<path d="M76.26 65.5601H75.13V66.6901H76.26V65.5601Z" fill="black"/>
<path d="M76.26 70.08H75.13V75.73H76.26V70.08Z" fill="black"/>
<path d="M76.26 76.87H75.13V80.26H76.26V76.87Z" fill="black"/>
<path d="M77.39 6.76001H76.26V7.89001H77.39V6.76001Z" fill="black"/>
<path d="M77.39 9.02002H76.26V12.41H77.39V9.02002Z" fill="black"/>
<path d="M77.39 13.54H76.26V14.67H77.39V13.54Z" fill="black"/>
<path d="M77.39 16.9401H76.26V19.2H77.39V16.9401Z" fill="black"/>
<path d="M77.39 21.46H76.26V22.59H77.39V21.46Z" fill="black"/>
<path d="M77.39 25.98H76.26V27.11H77.39V25.98Z" fill="black"/>
<path d="M77.39 28.24H76.26V29.37H77.39V28.24Z" fill="black"/>
<path d="M77.39 35.03H76.26V36.16H77.39V35.03Z" fill="black"/>
<path d="M77.39 38.42H76.26V42.9401H77.39V38.42Z" fill="black"/>
<path d="M77.39 44.0701H76.26V45.2H77.39V44.0701Z" fill="black"/>
<path d="M77.39 49.73H76.26V50.86H77.39V49.73Z" fill="black"/>
<path d="M77.39 55.38H76.26V56.51H77.39V55.38Z" fill="black"/>
<path d="M77.39 57.64H76.26V58.77H77.39V57.64Z" fill="black"/>
<path d="M77.39 59.91H76.26V62.17H77.39V59.91Z" fill="black"/>
<path d="M77.39 67.8201H76.26V71.21H77.39V67.8201Z" fill="black"/>
<path d="M78.52 6.76001H77.39V7.89001H78.52V6.76001Z" fill="black"/>
<path d="M78.52 9.02002H77.39V12.41H78.52V9.02002Z" fill="black"/>
<path d="M78.52 13.54H77.39V14.67H78.52V13.54Z" fill="black"/>
<path d="M78.52 19.2H77.39V21.46H78.52V19.2Z" fill="black"/>
<path d="M78.52 24.85H77.39V25.98H78.52V24.85Z" fill="black"/>
<path d="M78.52 29.37H77.39V31.63H78.52V29.37Z" fill="black"/>
<path d="M78.52 32.77H77.39V33.9H78.52V32.77Z" fill="black"/>
<path d="M78.52 40.6801H77.39V41.8101H78.52V40.6801Z" fill="black"/>
<path d="M78.52 44.0701H77.39V45.2H78.52V44.0701Z" fill="black"/>
<path d="M78.52 46.34H77.39V47.47H78.52V46.34Z" fill="black"/>
<path d="M78.52 48.6H77.39V49.73H78.52V48.6Z" fill="black"/>
<path d="M78.52 54.25H77.39V55.38H78.52V54.25Z" fill="black"/>
<path d="M78.52 57.64H77.39V61.03H78.52V57.64Z" fill="black"/>
<path d="M78.52 62.17H77.39V63.3H78.52V62.17Z" fill="black"/>
<path d="M78.52 67.8201H77.39V68.95H78.52V67.8201Z" fill="black"/>
<path d="M78.52 71.21H77.39V76.86H78.52V71.21Z" fill="black"/>
<path d="M78.52 79.13H77.39V80.26H78.52V79.13Z" fill="black"/>
<path d="M79.65 6.76001H78.52V7.89001H79.65V6.76001Z" fill="black"/>
<path d="M79.65 13.54H78.52V14.67H79.65V13.54Z" fill="black"/>
<path d="M79.65 18.0701H78.52V20.33H79.65V18.0701Z" fill="black"/>
<path d="M79.65 21.46H78.52V24.85H79.65V21.46Z" fill="black"/>
<path d="M79.65 27.11H78.52V29.37H79.65V27.11Z" fill="black"/>
<path d="M79.65 31.64H78.52V33.9H79.65V31.64Z" fill="black"/>
<path d="M79.65 35.03H78.52V40.6801H79.65V35.03Z" fill="black"/>
<path d="M79.65 45.2H78.52V48.59H79.65V45.2Z" fill="black"/>
<path d="M79.65 50.86H78.52V53.12H79.65V50.86Z" fill="black"/>
<path d="M79.65 55.38H78.52V57.64H79.65V55.38Z" fill="black"/>
<path d="M79.65 61.04H78.52V62.17H79.65V61.04Z" fill="black"/>
<path d="M79.65 66.6901H78.52V70.08H79.65V66.6901Z" fill="black"/>
<path d="M79.65 72.34H78.52V73.47H79.65V72.34Z" fill="black"/>
<path d="M79.65 75.74H78.52V76.87H79.65V75.74Z" fill="black"/>
<path d="M79.65 78H78.52V80.26H79.65V78Z" fill="black"/>
<path d="M80.78 6.76001H79.65V14.6801H80.78V6.76001Z" fill="black"/>
<path d="M80.78 19.2H79.65V24.85H80.78V19.2Z" fill="black"/>
<path d="M80.78 27.11H79.65V28.24H80.78V27.11Z" fill="black"/>
<path d="M80.78 29.37H79.65V31.63H80.78V29.37Z" fill="black"/>
<path d="M80.78 36.16H79.65V37.29H80.78V36.16Z" fill="black"/>
<path d="M80.78 40.6801H79.65V44.0701H80.78V40.6801Z" fill="black"/>
<path d="M80.78 46.34H79.65V47.47H80.78V46.34Z" fill="black"/>
<path d="M80.78 49.73H79.65V55.38H80.78V49.73Z" fill="black"/>
<path d="M80.78 56.51H79.65V58.77H80.78V56.51Z" fill="black"/>
<path d="M80.78 59.91H79.65V62.17H80.78V59.91Z" fill="black"/>
<path d="M80.78 63.3H79.65V65.5601H80.78V63.3Z" fill="black"/>
<path d="M80.78 66.6901H79.65V68.95H80.78V66.6901Z" fill="black"/>
<path d="M80.78 71.21H79.65V72.34H80.78V71.21Z" fill="black"/>
<path d="M80.78 73.47H79.65V77.99H80.78V73.47Z" fill="black"/>
</svg>
