<svg width="88" height="87" viewBox="0 0 88 87" fill="none" xmlns="http://www.w3.org/2000/svg">
<path d="M87.47 0H0.579956V86.86H87.47V0Z" fill="white"/>
<path d="M8.60995 7.25H7.31995V16.27H8.60995V7.25Z" fill="black"/>
<path d="M8.60995 17.55H7.31995V18.84H8.60995V17.55Z" fill="black"/>
<path d="M8.60995 20.13H7.31995V21.42H8.60995V20.13Z" fill="black"/>
<path d="M8.60995 23.99H7.31995V26.5701H8.60995V23.99Z" fill="black"/>
<path d="M8.60995 29.15H7.31995V36.88H8.60995V29.15Z" fill="black"/>
<path d="M8.60995 38.17H7.31995V39.46H8.60995V38.17Z" fill="black"/>
<path d="M8.60995 40.74H7.31995V42.03H8.60995V40.74Z" fill="black"/>
<path d="M8.60995 43.3201H7.31995V45.9H8.60995V43.3201Z" fill="black"/>
<path d="M8.60995 47.1801H7.31995V53.62H8.60995V47.1801Z" fill="black"/>
<path d="M8.60995 54.91H7.31995V56.2H8.60995V54.91Z" fill="black"/>
<path d="M8.60995 61.35H7.31995V63.9301H8.60995V61.35Z" fill="black"/>
<path d="M8.60995 66.51H7.31995V69.09H8.60995V66.51Z" fill="black"/>
<path d="M8.60995 71.66H7.31995V80.6801H8.60995V71.66Z" fill="black"/>
<path d="M9.88995 7.25H8.59995V8.54004H9.88995V7.25Z" fill="black"/>
<path d="M9.88995 14.98H8.59995V16.27H9.88995V14.98Z" fill="black"/>
<path d="M9.88995 18.84H8.59995V23.99H9.88995V18.84Z" fill="black"/>
<path d="M9.88995 25.28H8.59995V26.5701H9.88995V25.28Z" fill="black"/>
<path d="M9.88995 29.15H8.59995V35.59H9.88995V29.15Z" fill="black"/>
<path d="M9.88995 38.17H8.59995V40.75H9.88995V38.17Z" fill="black"/>
<path d="M9.88995 44.61H8.59995V45.9H9.88995V44.61Z" fill="black"/>
<path d="M9.88995 47.1801H8.59995V49.76H9.88995V47.1801Z" fill="black"/>
<path d="M9.88995 51.05H8.59995V52.34H9.88995V51.05Z" fill="black"/>
<path d="M9.88995 53.62H8.59995V54.91H9.88995V53.62Z" fill="black"/>
<path d="M9.88995 58.78H8.59995V62.64H9.88995V58.78Z" fill="black"/>
<path d="M9.88995 63.9301H8.59995V65.22H9.88995V63.9301Z" fill="black"/>
<path d="M9.88995 67.79H8.59995V69.08H9.88995V67.79Z" fill="black"/>
<path d="M9.88995 71.66H8.59995V72.95H9.88995V71.66Z" fill="black"/>
<path d="M9.88995 79.39H8.59995V80.6801H9.88995V79.39Z" fill="black"/>
<path d="M11.18 7.25H9.88995V8.54004H11.18V7.25Z" fill="black"/>
<path d="M11.18 9.82007H9.88995V13.6801H11.18V9.82007Z" fill="black"/>
<path d="M11.18 14.98H9.88995V16.27H11.18V14.98Z" fill="black"/>
<path d="M11.18 17.55H9.88995V18.84H11.18V17.55Z" fill="black"/>
<path d="M11.18 20.13H9.88995V21.42H11.18V20.13Z" fill="black"/>
<path d="M11.18 22.71H9.88995V25.29H11.18V22.71Z" fill="black"/>
<path d="M11.18 29.15H9.88995V30.4401H11.18V29.15Z" fill="black"/>
<path d="M11.18 31.72H9.88995V33.01H11.18V31.72Z" fill="black"/>
<path d="M11.18 34.3H9.88995V38.16H11.18V34.3Z" fill="black"/>
<path d="M11.18 39.45H9.88995V40.74H11.18V39.45Z" fill="black"/>
<path d="M11.18 43.3201H9.88995V47.1801H11.18V43.3201Z" fill="black"/>
<path d="M11.18 48.47H9.88995V49.76H11.18V48.47Z" fill="black"/>
<path d="M11.18 52.34H9.88995V56.2H11.18V52.34Z" fill="black"/>
<path d="M11.18 60.0701H9.88995V63.9301H11.18V60.0701Z" fill="black"/>
<path d="M11.18 66.51H9.88995V69.09H11.18V66.51Z" fill="black"/>
<path d="M11.18 71.66H9.88995V72.95H11.18V71.66Z" fill="black"/>
<path d="M11.18 74.24H9.88995V78.1H11.18V74.24Z" fill="black"/>
<path d="M11.18 79.39H9.88995V80.6801H11.18V79.39Z" fill="black"/>
<path d="M12.4699 7.25H11.1799V8.54004H12.4699V7.25Z" fill="black"/>
<path d="M12.4699 9.82007H11.1799V13.6801H12.4699V9.82007Z" fill="black"/>
<path d="M12.4699 14.98H11.1799V16.27H12.4699V14.98Z" fill="black"/>
<path d="M12.4699 17.55H11.1799V21.41H12.4699V17.55Z" fill="black"/>
<path d="M12.4699 25.28H11.1799V26.5701H12.4699V25.28Z" fill="black"/>
<path d="M12.4699 27.86H11.1799V33.01H12.4699V27.86Z" fill="black"/>
<path d="M12.4699 36.88H11.1799V39.46H12.4699V36.88Z" fill="black"/>
<path d="M12.4699 40.74H11.1799V42.03H12.4699V40.74Z" fill="black"/>
<path d="M12.4699 48.47H11.1799V49.76H12.4699V48.47Z" fill="black"/>
<path d="M12.4699 51.05H11.1799V52.34H12.4699V51.05Z" fill="black"/>
<path d="M12.4699 54.91H11.1799V56.2H12.4699V54.91Z" fill="black"/>
<path d="M12.4699 57.49H11.1799V58.78H12.4699V57.49Z" fill="black"/>
<path d="M12.4699 62.64H11.1799V66.5H12.4699V62.64Z" fill="black"/>
<path d="M12.4699 67.79H11.1799V69.08H12.4699V67.79Z" fill="black"/>
<path d="M12.4699 71.66H11.1799V72.95H12.4699V71.66Z" fill="black"/>
<path d="M12.4699 74.24H11.1799V78.1H12.4699V74.24Z" fill="black"/>
<path d="M12.4699 79.39H11.1799V80.6801H12.4699V79.39Z" fill="black"/>
<path d="M13.7599 7.25H12.4699V8.54004H13.7599V7.25Z" fill="black"/>
<path d="M13.7599 9.82007H12.4699V13.6801H13.7599V9.82007Z" fill="black"/>
<path d="M13.7599 14.98H12.4699V16.27H13.7599V14.98Z" fill="black"/>
<path d="M13.7599 18.84H12.4699V21.42H13.7599V18.84Z" fill="black"/>
<path d="M13.7599 22.71H12.4699V25.29H13.7599V22.71Z" fill="black"/>
<path d="M13.7599 26.5701H12.4699V27.86H13.7599V26.5701Z" fill="black"/>
<path d="M13.7599 29.15H12.4699V31.73H13.7599V29.15Z" fill="black"/>
<path d="M13.7599 35.59H12.4699V38.17H13.7599V35.59Z" fill="black"/>
<path d="M13.7599 40.74H12.4699V48.47H13.7599V40.74Z" fill="black"/>
<path d="M13.7599 49.76H12.4699V53.62H13.7599V49.76Z" fill="black"/>
<path d="M13.7599 54.91H12.4699V56.2H13.7599V54.91Z" fill="black"/>
<path d="M13.7599 62.64H12.4699V63.9301H13.7599V62.64Z" fill="black"/>
<path d="M13.7599 65.22H12.4699V66.51H13.7599V65.22Z" fill="black"/>
<path d="M13.7599 67.79H12.4699V69.08H13.7599V67.79Z" fill="black"/>
<path d="M13.7599 71.66H12.4699V72.95H13.7599V71.66Z" fill="black"/>
<path d="M13.7599 74.24H12.4699V78.1H13.7599V74.24Z" fill="black"/>
<path d="M13.7599 79.39H12.4699V80.6801H13.7599V79.39Z" fill="black"/>
<path d="M15.0499 7.25H13.7599V8.54004H15.0499V7.25Z" fill="black"/>
<path d="M15.0499 14.98H13.7599V16.27H15.0499V14.98Z" fill="black"/>
<path d="M15.0499 17.55H13.7599V20.13H15.0499V17.55Z" fill="black"/>
<path d="M15.0499 21.42H13.7599V29.15H15.0499V21.42Z" fill="black"/>
<path d="M15.0499 30.4401H13.7599V31.73H15.0499V30.4401Z" fill="black"/>
<path d="M15.0499 38.17H13.7599V39.46H15.0499V38.17Z" fill="black"/>
<path d="M15.0499 40.74H13.7599V42.03H15.0499V40.74Z" fill="black"/>
<path d="M15.0499 45.89H13.7599V48.47H15.0499V45.89Z" fill="black"/>
<path d="M15.0499 49.76H13.7599V51.05H15.0499V49.76Z" fill="black"/>
<path d="M15.0499 54.91H13.7599V56.2H15.0499V54.91Z" fill="black"/>
<path d="M15.0499 57.49H13.7599V61.35H15.0499V57.49Z" fill="black"/>
<path d="M15.0499 62.64H13.7599V63.9301H15.0499V62.64Z" fill="black"/>
<path d="M15.0499 66.51H13.7599V67.8H15.0499V66.51Z" fill="black"/>
<path d="M15.0499 71.66H13.7599V72.95H15.0499V71.66Z" fill="black"/>
<path d="M15.0499 79.39H13.7599V80.6801H15.0499V79.39Z" fill="black"/>
<path d="M16.34 7.25H15.05V16.27H16.34V7.25Z" fill="black"/>
<path d="M16.34 17.55H15.05V18.84H16.34V17.55Z" fill="black"/>
<path d="M16.34 20.13H15.05V21.42H16.34V20.13Z" fill="black"/>
<path d="M16.34 22.71H15.05V24H16.34V22.71Z" fill="black"/>
<path d="M16.34 25.28H15.05V26.5701H16.34V25.28Z" fill="black"/>
<path d="M16.34 27.86H15.05V29.15H16.34V27.86Z" fill="black"/>
<path d="M16.34 30.4401H15.05V31.73H16.34V30.4401Z" fill="black"/>
<path d="M16.34 33.01H15.05V34.3H16.34V33.01Z" fill="black"/>
<path d="M16.34 35.59H15.05V36.88H16.34V35.59Z" fill="black"/>
<path d="M16.34 38.17H15.05V39.46H16.34V38.17Z" fill="black"/>
<path d="M16.34 40.74H15.05V42.03H16.34V40.74Z" fill="black"/>
<path d="M16.34 43.3201H15.05V44.61H16.34V43.3201Z" fill="black"/>
<path d="M16.34 45.89H15.05V47.1801H16.34V45.89Z" fill="black"/>
<path d="M16.34 48.47H15.05V49.76H16.34V48.47Z" fill="black"/>
<path d="M16.34 51.05H15.05V52.34H16.34V51.05Z" fill="black"/>
<path d="M16.34 53.62H15.05V54.91H16.34V53.62Z" fill="black"/>
<path d="M16.34 56.2H15.05V57.49H16.34V56.2Z" fill="black"/>
<path d="M16.34 58.78H15.05V60.0701H16.34V58.78Z" fill="black"/>
<path d="M16.34 61.35H15.05V62.64H16.34V61.35Z" fill="black"/>
<path d="M16.34 63.9301H15.05V65.22H16.34V63.9301Z" fill="black"/>
<path d="M16.34 66.51H15.05V67.8H16.34V66.51Z" fill="black"/>
<path d="M16.34 69.08H15.05V70.37H16.34V69.08Z" fill="black"/>
<path d="M16.34 71.66H15.05V80.6801H16.34V71.66Z" fill="black"/>
<path d="M17.62 17.55H16.33V20.13H17.62V17.55Z" fill="black"/>
<path d="M17.62 21.42H16.33V22.71H17.62V21.42Z" fill="black"/>
<path d="M17.62 27.86H16.33V29.15H17.62V27.86Z" fill="black"/>
<path d="M17.62 30.4401H16.33V35.59H17.62V30.4401Z" fill="black"/>
<path d="M17.62 38.17H16.33V39.46H17.62V38.17Z" fill="black"/>
<path d="M17.62 40.74H16.33V42.03H17.62V40.74Z" fill="black"/>
<path d="M17.62 45.89H16.33V47.1801H17.62V45.89Z" fill="black"/>
<path d="M17.62 51.05H16.33V52.34H17.62V51.05Z" fill="black"/>
<path d="M17.62 53.62H16.33V56.2H17.62V53.62Z" fill="black"/>
<path d="M17.62 58.78H16.33V60.0701H17.62V58.78Z" fill="black"/>
<path d="M17.62 65.22H16.33V67.8H17.62V65.22Z" fill="black"/>
<path d="M18.91 7.25H17.6199V9.82996H18.91V7.25Z" fill="black"/>
<path d="M18.91 11.11H17.6199V12.4H18.91V11.11Z" fill="black"/>
<path d="M18.91 14.98H17.6199V17.5601H18.91V14.98Z" fill="black"/>
<path d="M18.91 18.84H17.6199V20.13H18.91V18.84Z" fill="black"/>
<path d="M18.91 21.42H17.6199V25.28H18.91V21.42Z" fill="black"/>
<path d="M18.91 26.5701H17.6199V29.15H18.91V26.5701Z" fill="black"/>
<path d="M18.91 30.4401H17.6199V31.73H18.91V30.4401Z" fill="black"/>
<path d="M18.91 34.3H17.6199V35.59H18.91V34.3Z" fill="black"/>
<path d="M18.91 36.88H17.6199V38.17H18.91V36.88Z" fill="black"/>
<path d="M18.91 40.74H17.6199V53.62H18.91V40.74Z" fill="black"/>
<path d="M18.91 54.91H17.6199V56.2H18.91V54.91Z" fill="black"/>
<path d="M18.91 58.78H17.6199V61.36H18.91V58.78Z" fill="black"/>
<path d="M18.91 67.79H17.6199V74.23H18.91V67.79Z" fill="black"/>
<path d="M18.91 75.52H17.6199V78.1H18.91V75.52Z" fill="black"/>
<path d="M18.91 79.39H17.6199V80.6801H18.91V79.39Z" fill="black"/>
<path d="M20.1999 12.4H18.9099V13.6901H20.1999V12.4Z" fill="black"/>
<path d="M20.1999 18.84H18.9099V20.13H20.1999V18.84Z" fill="black"/>
<path d="M20.1999 21.42H18.9099V22.71H20.1999V21.42Z" fill="black"/>
<path d="M20.1999 23.99H18.9099V25.28H20.1999V23.99Z" fill="black"/>
<path d="M20.1999 26.5701H18.9099V27.86H20.1999V26.5701Z" fill="black"/>
<path d="M20.1999 31.72H18.9099V33.01H20.1999V31.72Z" fill="black"/>
<path d="M20.1999 34.3H18.9099V35.59H20.1999V34.3Z" fill="black"/>
<path d="M20.1999 36.88H18.9099V40.74H20.1999V36.88Z" fill="black"/>
<path d="M20.1999 42.03H18.9099V45.89H20.1999V42.03Z" fill="black"/>
<path d="M20.1999 49.76H18.9099V51.05H20.1999V49.76Z" fill="black"/>
<path d="M20.1999 52.34H18.9099V53.63H20.1999V52.34Z" fill="black"/>
<path d="M20.1999 54.91H18.9099V58.77H20.1999V54.91Z" fill="black"/>
<path d="M20.1999 61.35H18.9099V62.64H20.1999V61.35Z" fill="black"/>
<path d="M20.1999 69.08H18.9099V70.37H20.1999V69.08Z" fill="black"/>
<path d="M20.1999 79.39H18.9099V80.6801H20.1999V79.39Z" fill="black"/>
<path d="M21.49 8.54004H20.2V11.12H21.49V8.54004Z" fill="black"/>
<path d="M21.49 12.4H20.2V18.84H21.49V12.4Z" fill="black"/>
<path d="M21.49 20.13H20.2V21.42H21.49V20.13Z" fill="black"/>
<path d="M21.49 22.71H20.2V25.29H21.49V22.71Z" fill="black"/>
<path d="M21.49 27.86H20.2V30.4401H21.49V27.86Z" fill="black"/>
<path d="M21.49 35.59H20.2V38.17H21.49V35.59Z" fill="black"/>
<path d="M21.49 39.45H20.2V44.6H21.49V39.45Z" fill="black"/>
<path d="M21.49 47.1801H20.2V49.76H21.49V47.1801Z" fill="black"/>
<path d="M21.49 57.49H20.2V58.78H21.49V57.49Z" fill="black"/>
<path d="M21.49 60.0701H20.2V65.22H21.49V60.0701Z" fill="black"/>
<path d="M21.49 66.51H20.2V69.09H21.49V66.51Z" fill="black"/>
<path d="M21.49 72.95H20.2V75.53H21.49V72.95Z" fill="black"/>
<path d="M22.7799 7.25H21.4899V8.54004H22.7799V7.25Z" fill="black"/>
<path d="M22.7799 9.82007H21.4899V12.4H22.7799V9.82007Z" fill="black"/>
<path d="M22.7799 18.84H21.4899V20.13H22.7799V18.84Z" fill="black"/>
<path d="M22.7799 22.71H21.4899V31.73H22.7799V22.71Z" fill="black"/>
<path d="M22.7799 33.01H21.4899V34.3H22.7799V33.01Z" fill="black"/>
<path d="M22.7799 36.88H21.4899V38.17H22.7799V36.88Z" fill="black"/>
<path d="M22.7799 39.45H21.4899V40.74H22.7799V39.45Z" fill="black"/>
<path d="M22.7799 42.03H21.4899V44.61H22.7799V42.03Z" fill="black"/>
<path d="M22.7799 47.1801H21.4899V48.47H22.7799V47.1801Z" fill="black"/>
<path d="M22.7799 49.76H21.4899V51.05H22.7799V49.76Z" fill="black"/>
<path d="M22.7799 52.34H21.4899V60.0701H22.7799V52.34Z" fill="black"/>
<path d="M22.7799 62.64H21.4899V63.9301H22.7799V62.64Z" fill="black"/>
<path d="M22.7799 66.51H21.4899V67.8H22.7799V66.51Z" fill="black"/>
<path d="M22.7799 70.37H21.4899V71.66H22.7799V70.37Z" fill="black"/>
<path d="M22.7799 79.39H21.4899V80.6801H22.7799V79.39Z" fill="black"/>
<path d="M24.0599 8.54004H22.7699V12.4H24.0599V8.54004Z" fill="black"/>
<path d="M24.0599 14.98H22.7699V16.27H24.0599V14.98Z" fill="black"/>
<path d="M24.0599 17.55H22.7699V18.84H24.0599V17.55Z" fill="black"/>
<path d="M24.0599 20.13H22.7699V22.71H24.0599V20.13Z" fill="black"/>
<path d="M24.0599 23.99H22.7699V27.85H24.0599V23.99Z" fill="black"/>
<path d="M24.0599 35.59H22.7699V36.88H24.0599V35.59Z" fill="black"/>
<path d="M24.0599 38.17H22.7699V39.46H24.0599V38.17Z" fill="black"/>
<path d="M24.0599 45.89H22.7699V48.47H24.0599V45.89Z" fill="black"/>
<path d="M24.0599 49.76H22.7699V52.34H24.0599V49.76Z" fill="black"/>
<path d="M24.0599 53.62H22.7699V54.91H24.0599V53.62Z" fill="black"/>
<path d="M24.0599 60.0701H22.7699V61.36H24.0599V60.0701Z" fill="black"/>
<path d="M24.0599 62.64H22.7699V66.5H24.0599V62.64Z" fill="black"/>
<path d="M24.0599 71.66H22.7699V74.24H24.0599V71.66Z" fill="black"/>
<path d="M24.0599 76.8101H22.7699V78.1H24.0599V76.8101Z" fill="black"/>
<path d="M24.0599 79.39H22.7699V80.6801H24.0599V79.39Z" fill="black"/>
<path d="M25.3499 7.25H24.0599V8.54004H25.3499V7.25Z" fill="black"/>
<path d="M25.3499 12.4H24.0599V14.98H25.3499V12.4Z" fill="black"/>
<path d="M25.3499 16.26H24.0599V17.55H25.3499V16.26Z" fill="black"/>
<path d="M25.3499 18.84H24.0599V22.7H25.3499V18.84Z" fill="black"/>
<path d="M25.3499 23.99H24.0599V25.28H25.3499V23.99Z" fill="black"/>
<path d="M25.3499 27.86H24.0599V30.4401H25.3499V27.86Z" fill="black"/>
<path d="M25.3499 38.17H24.0599V39.46H25.3499V38.17Z" fill="black"/>
<path d="M25.3499 40.74H24.0599V43.3201H25.3499V40.74Z" fill="black"/>
<path d="M25.3499 48.47H24.0599V51.05H25.3499V48.47Z" fill="black"/>
<path d="M25.3499 53.62H24.0599V54.91H25.3499V53.62Z" fill="black"/>
<path d="M25.3499 58.78H24.0599V63.9301H25.3499V58.78Z" fill="black"/>
<path d="M25.3499 69.08H24.0599V75.52H25.3499V69.08Z" fill="black"/>
<path d="M25.3499 76.8101H24.0599V79.39H25.3499V76.8101Z" fill="black"/>
<path d="M26.6399 8.54004H25.3499V9.82996H26.6399V8.54004Z" fill="black"/>
<path d="M26.6399 11.11H25.3499V12.4H26.6399V11.11Z" fill="black"/>
<path d="M26.6399 13.6901H25.3499V17.55H26.6399V13.6901Z" fill="black"/>
<path d="M26.6399 18.84H25.3499V20.13H26.6399V18.84Z" fill="black"/>
<path d="M26.6399 23.99H25.3499V26.5701H26.6399V23.99Z" fill="black"/>
<path d="M26.6399 27.86H25.3499V29.15H26.6399V27.86Z" fill="black"/>
<path d="M26.6399 30.4401H25.3499V39.46H26.6399V30.4401Z" fill="black"/>
<path d="M26.6399 40.74H25.3499V42.03H26.6399V40.74Z" fill="black"/>
<path d="M26.6399 43.3201H25.3499V45.9H26.6399V43.3201Z" fill="black"/>
<path d="M26.6399 49.76H25.3499V51.05H26.6399V49.76Z" fill="black"/>
<path d="M26.6399 53.62H25.3499V58.77H26.6399V53.62Z" fill="black"/>
<path d="M26.6399 62.64H25.3499V63.9301H26.6399V62.64Z" fill="black"/>
<path d="M26.6399 66.51H25.3499V67.8H26.6399V66.51Z" fill="black"/>
<path d="M26.6399 70.37H25.3499V71.66H26.6399V70.37Z" fill="black"/>
<path d="M26.6399 74.24H25.3499V75.53H26.6399V74.24Z" fill="black"/>
<path d="M26.6399 76.8101H25.3499V78.1H26.6399V76.8101Z" fill="black"/>
<path d="M27.9299 8.54004H26.64V14.98H27.9299V8.54004Z" fill="black"/>
<path d="M27.9299 16.26H26.64V18.84H27.9299V16.26Z" fill="black"/>
<path d="M27.9299 20.13H26.64V25.28H27.9299V20.13Z" fill="black"/>
<path d="M27.9299 29.15H26.64V30.4401H27.9299V29.15Z" fill="black"/>
<path d="M27.9299 31.72H26.64V34.3H27.9299V31.72Z" fill="black"/>
<path d="M27.9299 35.59H26.64V39.45H27.9299V35.59Z" fill="black"/>
<path d="M27.9299 40.74H26.64V43.3201H27.9299V40.74Z" fill="black"/>
<path d="M27.9299 47.1801H26.64V48.47H27.9299V47.1801Z" fill="black"/>
<path d="M27.9299 51.05H26.64V56.2H27.9299V51.05Z" fill="black"/>
<path d="M27.9299 57.49H26.64V60.0701H27.9299V57.49Z" fill="black"/>
<path d="M27.9299 62.64H26.64V63.9301H27.9299V62.64Z" fill="black"/>
<path d="M27.9299 67.79H26.64V69.08H27.9299V67.79Z" fill="black"/>
<path d="M27.9299 74.24H26.64V75.53H27.9299V74.24Z" fill="black"/>
<path d="M27.9299 76.8101H26.64V78.1H27.9299V76.8101Z" fill="black"/>
<path d="M29.2199 7.25H27.9299V11.11H29.2199V7.25Z" fill="black"/>
<path d="M29.2199 12.4H27.9299V13.6901H29.2199V12.4Z" fill="black"/>
<path d="M29.2199 14.98H27.9299V22.71H29.2199V14.98Z" fill="black"/>
<path d="M29.2199 25.28H27.9299V27.86H29.2199V25.28Z" fill="black"/>
<path d="M29.2199 29.15H27.9299V34.3H29.2199V29.15Z" fill="black"/>
<path d="M29.2199 35.59H27.9299V36.88H29.2199V35.59Z" fill="black"/>
<path d="M29.2199 38.17H27.9299V39.46H29.2199V38.17Z" fill="black"/>
<path d="M29.2199 40.74H27.9299V42.03H29.2199V40.74Z" fill="black"/>
<path d="M29.2199 43.3201H27.9299V44.61H29.2199V43.3201Z" fill="black"/>
<path d="M29.2199 45.89H27.9299V48.47H29.2199V45.89Z" fill="black"/>
<path d="M29.2199 49.76H27.9299V51.05H29.2199V49.76Z" fill="black"/>
<path d="M29.2199 56.2H27.9299V60.0601H29.2199V56.2Z" fill="black"/>
<path d="M29.2199 67.79H27.9299V72.9401H29.2199V67.79Z" fill="black"/>
<path d="M29.2199 74.24H27.9299V75.53H29.2199V74.24Z" fill="black"/>
<path d="M30.5099 7.25H29.2199V9.82996H30.5099V7.25Z" fill="black"/>
<path d="M30.5099 11.11H29.2199V13.6901H30.5099V11.11Z" fill="black"/>
<path d="M30.5099 18.84H29.2199V21.42H30.5099V18.84Z" fill="black"/>
<path d="M30.5099 25.28H29.2199V26.5701H30.5099V25.28Z" fill="black"/>
<path d="M30.5099 27.86H29.2199V30.4401H30.5099V27.86Z" fill="black"/>
<path d="M30.5099 33.01H29.2199V34.3H30.5099V33.01Z" fill="black"/>
<path d="M30.5099 35.59H29.2199V38.17H30.5099V35.59Z" fill="black"/>
<path d="M30.5099 39.45H29.2199V42.03H30.5099V39.45Z" fill="black"/>
<path d="M30.5099 47.1801H29.2199V48.47H30.5099V47.1801Z" fill="black"/>
<path d="M30.5099 53.62H29.2199V57.48H30.5099V53.62Z" fill="black"/>
<path d="M30.5099 58.78H29.2199V63.9301H30.5099V58.78Z" fill="black"/>
<path d="M30.5099 66.51H29.2199V67.8H30.5099V66.51Z" fill="black"/>
<path d="M30.5099 69.08H29.2199V70.37H30.5099V69.08Z" fill="black"/>
<path d="M30.5099 71.66H29.2199V74.24H30.5099V71.66Z" fill="black"/>
<path d="M30.5099 75.52H29.2199V78.1H30.5099V75.52Z" fill="black"/>
<path d="M31.7899 7.25H30.4999V18.84H31.7899V7.25Z" fill="black"/>
<path d="M31.7899 20.13H30.4999V21.42H31.7899V20.13Z" fill="black"/>
<path d="M31.7899 23.99H30.4999V27.85H31.7899V23.99Z" fill="black"/>
<path d="M31.7899 29.15H30.4999V30.4401H31.7899V29.15Z" fill="black"/>
<path d="M31.7899 31.72H30.4999V33.01H31.7899V31.72Z" fill="black"/>
<path d="M31.7899 34.3H30.4999V35.59H31.7899V34.3Z" fill="black"/>
<path d="M31.7899 39.45H30.4999V48.47H31.7899V39.45Z" fill="black"/>
<path d="M31.7899 49.76H30.4999V52.34H31.7899V49.76Z" fill="black"/>
<path d="M31.7899 53.62H30.4999V54.91H31.7899V53.62Z" fill="black"/>
<path d="M31.7899 57.49H30.4999V58.78H31.7899V57.49Z" fill="black"/>
<path d="M31.7899 60.0701H30.4999V66.51H31.7899V60.0701Z" fill="black"/>
<path d="M31.7899 67.79H30.4999V69.08H31.7899V67.79Z" fill="black"/>
<path d="M31.7899 72.95H30.4999V74.24H31.7899V72.95Z" fill="black"/>
<path d="M31.7899 75.52H30.4999V76.8101H31.7899V75.52Z" fill="black"/>
<path d="M33.08 11.11H31.7899V13.6901H33.08V11.11Z" fill="black"/>
<path d="M33.08 18.84H31.7899V21.42H33.08V18.84Z" fill="black"/>
<path d="M33.08 26.5701H31.7899V27.86H33.08V26.5701Z" fill="black"/>
<path d="M33.08 29.15H31.7899V33.01H33.08V29.15Z" fill="black"/>
<path d="M33.08 35.59H31.7899V36.88H33.08V35.59Z" fill="black"/>
<path d="M33.08 38.17H31.7899V42.03H33.08V38.17Z" fill="black"/>
<path d="M33.08 44.61H31.7899V47.1901H33.08V44.61Z" fill="black"/>
<path d="M33.08 48.47H31.7899V51.05H33.08V48.47Z" fill="black"/>
<path d="M33.08 53.62H31.7899V54.91H33.08V53.62Z" fill="black"/>
<path d="M33.08 61.35H31.7899V62.64H33.08V61.35Z" fill="black"/>
<path d="M33.08 66.51H31.7899V67.8H33.08V66.51Z" fill="black"/>
<path d="M33.08 69.08H31.7899V71.66H33.08V69.08Z" fill="black"/>
<path d="M33.08 74.24H31.7899V75.53H33.08V74.24Z" fill="black"/>
<path d="M33.08 79.39H31.7899V80.6801H33.08V79.39Z" fill="black"/>
<path d="M34.3699 11.11H33.08V12.4H34.3699V11.11Z" fill="black"/>
<path d="M34.3699 13.6901H33.08V20.13H34.3699V13.6901Z" fill="black"/>
<path d="M34.3699 21.42H33.08V22.71H34.3699V21.42Z" fill="black"/>
<path d="M34.3699 23.99H33.08V29.14H34.3699V23.99Z" fill="black"/>
<path d="M34.3699 30.4401H33.08V31.73H34.3699V30.4401Z" fill="black"/>
<path d="M34.3699 34.3H33.08V35.59H34.3699V34.3Z" fill="black"/>
<path d="M34.3699 38.17H33.08V40.75H34.3699V38.17Z" fill="black"/>
<path d="M34.3699 42.03H33.08V45.89H34.3699V42.03Z" fill="black"/>
<path d="M34.3699 49.76H33.08V51.05H34.3699V49.76Z" fill="black"/>
<path d="M34.3699 52.34H33.08V53.63H34.3699V52.34Z" fill="black"/>
<path d="M34.3699 56.2H33.08V57.49H34.3699V56.2Z" fill="black"/>
<path d="M34.3699 60.0701H33.08V62.65H34.3699V60.0701Z" fill="black"/>
<path d="M34.3699 67.79H33.08V69.08H34.3699V67.79Z" fill="black"/>
<path d="M34.3699 76.8101H33.08V78.1H34.3699V76.8101Z" fill="black"/>
<path d="M34.3699 79.39H33.08V80.6801H34.3699V79.39Z" fill="black"/>
<path d="M35.6599 7.25H34.3699V8.54004H35.6599V7.25Z" fill="black"/>
<path d="M35.6599 9.82007H34.3699V11.11H35.6599V9.82007Z" fill="black"/>
<path d="M35.6599 12.4H34.3699V13.6901H35.6599V12.4Z" fill="black"/>
<path d="M35.6599 16.26H34.3699V17.55H35.6599V16.26Z" fill="black"/>
<path d="M35.6599 20.13H34.3699V21.42H35.6599V20.13Z" fill="black"/>
<path d="M35.6599 26.5701H34.3699V29.15H35.6599V26.5701Z" fill="black"/>
<path d="M35.6599 30.4401H34.3699V31.73H35.6599V30.4401Z" fill="black"/>
<path d="M35.6599 33.01H34.3699V35.59H35.6599V33.01Z" fill="black"/>
<path d="M35.6599 38.17H34.3699V42.03H35.6599V38.17Z" fill="black"/>
<path d="M35.6599 43.3201H34.3699V45.9H35.6599V43.3201Z" fill="black"/>
<path d="M35.6599 47.1801H34.3699V48.47H35.6599V47.1801Z" fill="black"/>
<path d="M35.6599 51.05H34.3699V53.63H35.6599V51.05Z" fill="black"/>
<path d="M35.6599 56.2H34.3699V57.49H35.6599V56.2Z" fill="black"/>
<path d="M35.6599 58.78H34.3699V69.09H35.6599V58.78Z" fill="black"/>
<path d="M35.6599 70.37H34.3699V74.23H35.6599V70.37Z" fill="black"/>
<path d="M35.6599 76.8101H34.3699V80.67H35.6599V76.8101Z" fill="black"/>
<path d="M36.9499 12.4H35.6599V16.26H36.9499V12.4Z" fill="black"/>
<path d="M36.9499 17.55H35.6599V18.84H36.9499V17.55Z" fill="black"/>
<path d="M36.9499 20.13H35.6599V21.42H36.9499V20.13Z" fill="black"/>
<path d="M36.9499 22.71H35.6599V24H36.9499V22.71Z" fill="black"/>
<path d="M36.9499 25.28H35.6599V26.5701H36.9499V25.28Z" fill="black"/>
<path d="M36.9499 29.15H35.6599V30.4401H36.9499V29.15Z" fill="black"/>
<path d="M36.9499 34.3H35.6599V35.59H36.9499V34.3Z" fill="black"/>
<path d="M36.9499 36.88H35.6599V40.74H36.9499V36.88Z" fill="black"/>
<path d="M36.9499 42.03H35.6599V44.61H36.9499V42.03Z" fill="black"/>
<path d="M36.9499 48.47H35.6599V49.76H36.9499V48.47Z" fill="black"/>
<path d="M36.9499 51.05H35.6599V52.34H36.9499V51.05Z" fill="black"/>
<path d="M36.9499 53.62H35.6599V54.91H36.9499V53.62Z" fill="black"/>
<path d="M36.9499 57.49H35.6599V61.35H36.9499V57.49Z" fill="black"/>
<path d="M36.9499 66.51H35.6599V71.66H36.9499V66.51Z" fill="black"/>
<path d="M36.9499 75.52H35.6599V78.1H36.9499V75.52Z" fill="black"/>
<path d="M36.9499 79.39H35.6599V80.6801H36.9499V79.39Z" fill="black"/>
<path d="M38.24 7.25H36.95V8.54004H38.24V7.25Z" fill="black"/>
<path d="M38.24 11.11H36.95V13.6901H38.24V11.11Z" fill="black"/>
<path d="M38.24 16.26H36.95V17.55H38.24V16.26Z" fill="black"/>
<path d="M38.24 18.84H36.95V21.42H38.24V18.84Z" fill="black"/>
<path d="M38.24 26.5701H36.95V30.4301H38.24V26.5701Z" fill="black"/>
<path d="M38.24 34.3H36.95V35.59H38.24V34.3Z" fill="black"/>
<path d="M38.24 36.88H36.95V39.46H38.24V36.88Z" fill="black"/>
<path d="M38.24 40.74H36.95V42.03H38.24V40.74Z" fill="black"/>
<path d="M38.24 44.61H36.95V47.1901H38.24V44.61Z" fill="black"/>
<path d="M38.24 48.47H36.95V49.76H38.24V48.47Z" fill="black"/>
<path d="M38.24 53.62H36.95V54.91H38.24V53.62Z" fill="black"/>
<path d="M38.24 56.2H36.95V61.35H38.24V56.2Z" fill="black"/>
<path d="M38.24 63.9301H36.95V70.37H38.24V63.9301Z" fill="black"/>
<path d="M38.24 71.66H36.95V76.8101H38.24V71.66Z" fill="black"/>
<path d="M39.52 7.25H38.2299V11.11H39.52V7.25Z" fill="black"/>
<path d="M39.52 14.98H38.2299V16.27H39.52V14.98Z" fill="black"/>
<path d="M39.52 17.55H38.2299V20.13H39.52V17.55Z" fill="black"/>
<path d="M39.52 22.71H38.2299V26.5701H39.52V22.71Z" fill="black"/>
<path d="M39.52 27.86H38.2299V29.15H39.52V27.86Z" fill="black"/>
<path d="M39.52 30.4401H38.2299V31.73H39.52V30.4401Z" fill="black"/>
<path d="M39.52 34.3H38.2299V35.59H39.52V34.3Z" fill="black"/>
<path d="M39.52 36.88H38.2299V38.17H39.52V36.88Z" fill="black"/>
<path d="M39.52 43.3201H38.2299V44.61H39.52V43.3201Z" fill="black"/>
<path d="M39.52 45.89H38.2299V47.1801H39.52V45.89Z" fill="black"/>
<path d="M39.52 49.76H38.2299V51.05H39.52V49.76Z" fill="black"/>
<path d="M39.52 53.62H38.2299V54.91H39.52V53.62Z" fill="black"/>
<path d="M39.52 58.78H38.2299V60.0701H39.52V58.78Z" fill="black"/>
<path d="M39.52 61.35H38.2299V62.64H39.52V61.35Z" fill="black"/>
<path d="M39.52 65.22H38.2299V66.51H39.52V65.22Z" fill="black"/>
<path d="M39.52 71.66H38.2299V72.95H39.52V71.66Z" fill="black"/>
<path d="M39.52 75.52H38.2299V76.8101H39.52V75.52Z" fill="black"/>
<path d="M39.52 78.1H38.2299V79.39H39.52V78.1Z" fill="black"/>
<path d="M40.81 7.25H39.52V9.82996H40.81V7.25Z" fill="black"/>
<path d="M40.81 18.84H39.52V21.42H40.81V18.84Z" fill="black"/>
<path d="M40.81 22.71H39.52V27.86H40.81V22.71Z" fill="black"/>
<path d="M40.81 30.4401H39.52V34.3H40.81V30.4401Z" fill="black"/>
<path d="M40.81 35.59H39.52V36.88H40.81V35.59Z" fill="black"/>
<path d="M40.81 38.17H39.52V39.46H40.81V38.17Z" fill="black"/>
<path d="M40.81 45.89H39.52V47.1801H40.81V45.89Z" fill="black"/>
<path d="M40.81 51.05H39.52V53.63H40.81V51.05Z" fill="black"/>
<path d="M40.81 56.2H39.52V58.78H40.81V56.2Z" fill="black"/>
<path d="M40.81 60.0701H39.52V61.36H40.81V60.0701Z" fill="black"/>
<path d="M40.81 62.64H39.52V65.22H40.81V62.64Z" fill="black"/>
<path d="M40.81 67.79H39.52V71.65H40.81V67.79Z" fill="black"/>
<path d="M40.81 74.24H39.52V79.39H40.81V74.24Z" fill="black"/>
<path d="M42.0999 12.4H40.8099V18.84H42.0999V12.4Z" fill="black"/>
<path d="M42.0999 25.28H40.8099V34.3H42.0999V25.28Z" fill="black"/>
<path d="M42.0999 35.59H40.8099V36.88H42.0999V35.59Z" fill="black"/>
<path d="M42.0999 38.17H40.8099V39.46H42.0999V38.17Z" fill="black"/>
<path d="M42.0999 40.74H40.8099V48.47H42.0999V40.74Z" fill="black"/>
<path d="M42.0999 57.49H40.8099V58.78H42.0999V57.49Z" fill="black"/>
<path d="M42.0999 60.0701H40.8099V62.65H42.0999V60.0701Z" fill="black"/>
<path d="M42.0999 65.22H40.8099V66.51H42.0999V65.22Z" fill="black"/>
<path d="M42.0999 69.08H40.8099V79.39H42.0999V69.08Z" fill="black"/>
<path d="M43.3899 12.4H42.0999V13.6901H43.3899V12.4Z" fill="black"/>
<path d="M43.3899 17.55H42.0999V25.28H43.3899V17.55Z" fill="black"/>
<path d="M43.3899 26.5701H42.0999V31.72H43.3899V26.5701Z" fill="black"/>
<path d="M43.3899 33.01H42.0999V34.3H43.3899V33.01Z" fill="black"/>
<path d="M43.3899 36.88H42.0999V38.17H43.3899V36.88Z" fill="black"/>
<path d="M43.3899 40.74H42.0999V42.03H43.3899V40.74Z" fill="black"/>
<path d="M43.3899 45.89H42.0999V47.1801H43.3899V45.89Z" fill="black"/>
<path d="M43.3899 48.47H42.0999V49.76H43.3899V48.47Z" fill="black"/>
<path d="M43.3899 51.05H42.0999V52.34H43.3899V51.05Z" fill="black"/>
<path d="M43.3899 53.62H42.0999V56.2H43.3899V53.62Z" fill="black"/>
<path d="M43.3899 60.0701H42.0999V61.36H43.3899V60.0701Z" fill="black"/>
<path d="M43.3899 62.64H42.0999V65.22H43.3899V62.64Z" fill="black"/>
<path d="M43.3899 66.51H42.0999V67.8H43.3899V66.51Z" fill="black"/>
<path d="M43.3899 69.08H42.0999V70.37H43.3899V69.08Z" fill="black"/>
<path d="M43.3899 74.24H42.0999V75.53H43.3899V74.24Z" fill="black"/>
<path d="M43.3899 78.1H42.0999V79.39H43.3899V78.1Z" fill="black"/>
<path d="M44.6799 8.54004H43.39V9.82996H44.6799V8.54004Z" fill="black"/>
<path d="M44.6799 12.4H43.39V13.6901H44.6799V12.4Z" fill="black"/>
<path d="M44.6799 14.98H43.39V16.27H44.6799V14.98Z" fill="black"/>
<path d="M44.6799 17.55H43.39V18.84H44.6799V17.55Z" fill="black"/>
<path d="M44.6799 21.42H43.39V22.71H44.6799V21.42Z" fill="black"/>
<path d="M44.6799 25.28H43.39V26.5701H44.6799V25.28Z" fill="black"/>
<path d="M44.6799 33.01H43.39V35.59H44.6799V33.01Z" fill="black"/>
<path d="M44.6799 36.88H43.39V38.17H44.6799V36.88Z" fill="black"/>
<path d="M44.6799 39.45H43.39V42.03H44.6799V39.45Z" fill="black"/>
<path d="M44.6799 43.3201H43.39V44.61H44.6799V43.3201Z" fill="black"/>
<path d="M44.6799 45.89H43.39V48.47H44.6799V45.89Z" fill="black"/>
<path d="M44.6799 51.05H43.39V53.63H44.6799V51.05Z" fill="black"/>
<path d="M44.6799 54.91H43.39V56.2H44.6799V54.91Z" fill="black"/>
<path d="M44.6799 57.49H43.39V61.35H44.6799V57.49Z" fill="black"/>
<path d="M44.6799 63.9301H43.39V65.22H44.6799V63.9301Z" fill="black"/>
<path d="M44.6799 66.51H43.39V67.8H44.6799V66.51Z" fill="black"/>
<path d="M44.6799 69.08H43.39V70.37H44.6799V69.08Z" fill="black"/>
<path d="M44.6799 71.66H43.39V72.95H44.6799V71.66Z" fill="black"/>
<path d="M44.6799 74.24H43.39V75.53H44.6799V74.24Z" fill="black"/>
<path d="M45.96 7.25H44.67V9.82996H45.96V7.25Z" fill="black"/>
<path d="M45.96 12.4H44.67V13.6901H45.96V12.4Z" fill="black"/>
<path d="M45.96 17.55H44.67V18.84H45.96V17.55Z" fill="black"/>
<path d="M45.96 25.28H44.67V26.5701H45.96V25.28Z" fill="black"/>
<path d="M45.96 29.15H44.67V31.73H45.96V29.15Z" fill="black"/>
<path d="M45.96 34.3H44.67V36.88H45.96V34.3Z" fill="black"/>
<path d="M45.96 38.17H44.67V39.46H45.96V38.17Z" fill="black"/>
<path d="M45.96 40.74H44.67V42.03H45.96V40.74Z" fill="black"/>
<path d="M45.96 45.89H44.67V47.1801H45.96V45.89Z" fill="black"/>
<path d="M45.96 52.34H44.67V53.63H45.96V52.34Z" fill="black"/>
<path d="M45.96 54.91H44.67V57.49H45.96V54.91Z" fill="black"/>
<path d="M45.96 58.78H44.67V62.64H45.96V58.78Z" fill="black"/>
<path d="M45.96 65.22H44.67V70.37H45.96V65.22Z" fill="black"/>
<path d="M45.96 74.24H44.67V78.1H45.96V74.24Z" fill="black"/>
<path d="M45.96 79.39H44.67V80.6801H45.96V79.39Z" fill="black"/>
<path d="M47.25 7.25H45.96V21.42H47.25V7.25Z" fill="black"/>
<path d="M47.25 30.4401H45.96V34.3H47.25V30.4401Z" fill="black"/>
<path d="M47.25 40.74H45.96V48.47H47.25V40.74Z" fill="black"/>
<path d="M47.25 54.91H45.96V56.2H47.25V54.91Z" fill="black"/>
<path d="M47.25 61.35H45.96V63.9301H47.25V61.35Z" fill="black"/>
<path d="M47.25 65.22H45.96V66.51H47.25V65.22Z" fill="black"/>
<path d="M47.25 69.08H45.96V75.52H47.25V69.08Z" fill="black"/>
<path d="M47.25 76.8101H45.96V78.1H47.25V76.8101Z" fill="black"/>
<path d="M47.25 79.39H45.96V80.6801H47.25V79.39Z" fill="black"/>
<path d="M48.5399 7.25H47.2499V9.82996H48.5399V7.25Z" fill="black"/>
<path d="M48.5399 12.4H47.2499V14.98H48.5399V12.4Z" fill="black"/>
<path d="M48.5399 16.26H47.2499V17.55H48.5399V16.26Z" fill="black"/>
<path d="M48.5399 22.71H47.2499V29.15H48.5399V22.71Z" fill="black"/>
<path d="M48.5399 33.01H47.2499V39.45H48.5399V33.01Z" fill="black"/>
<path d="M48.5399 42.03H47.2499V43.3201H48.5399V42.03Z" fill="black"/>
<path d="M48.5399 44.61H47.2499V48.47H48.5399V44.61Z" fill="black"/>
<path d="M48.5399 52.34H47.2499V54.92H48.5399V52.34Z" fill="black"/>
<path d="M48.5399 58.78H47.2499V60.0701H48.5399V58.78Z" fill="black"/>
<path d="M48.5399 61.35H47.2499V66.5H48.5399V61.35Z" fill="black"/>
<path d="M48.5399 67.79H47.2499V74.23H48.5399V67.79Z" fill="black"/>
<path d="M48.5399 75.52H47.2499V78.1H48.5399V75.52Z" fill="black"/>
<path d="M49.83 7.25H48.5399V8.54004H49.83V7.25Z" fill="black"/>
<path d="M49.83 12.4H48.5399V13.6901H49.83V12.4Z" fill="black"/>
<path d="M49.83 14.98H48.5399V17.5601H49.83V14.98Z" fill="black"/>
<path d="M49.83 18.84H48.5399V22.7H49.83V18.84Z" fill="black"/>
<path d="M49.83 23.99H48.5399V29.14H49.83V23.99Z" fill="black"/>
<path d="M49.83 30.4401H48.5399V31.73H49.83V30.4401Z" fill="black"/>
<path d="M49.83 35.59H48.5399V36.88H49.83V35.59Z" fill="black"/>
<path d="M49.83 38.17H48.5399V39.46H49.83V38.17Z" fill="black"/>
<path d="M49.83 40.74H48.5399V48.47H49.83V40.74Z" fill="black"/>
<path d="M49.83 49.76H48.5399V53.62H49.83V49.76Z" fill="black"/>
<path d="M49.83 56.2H48.5399V61.35H49.83V56.2Z" fill="black"/>
<path d="M49.83 62.64H48.5399V63.9301H49.83V62.64Z" fill="black"/>
<path d="M49.83 66.51H48.5399V69.09H49.83V66.51Z" fill="black"/>
<path d="M49.83 70.37H48.5399V76.8101H49.83V70.37Z" fill="black"/>
<path d="M49.83 78.1H48.5399V79.39H49.83V78.1Z" fill="black"/>
<path d="M51.1199 11.11H49.83V13.6901H51.1199V11.11Z" fill="black"/>
<path d="M51.1199 16.26H49.83V17.55H51.1199V16.26Z" fill="black"/>
<path d="M51.1199 21.42H49.83V25.28H51.1199V21.42Z" fill="black"/>
<path d="M51.1199 26.5701H49.83V27.86H51.1199V26.5701Z" fill="black"/>
<path d="M51.1199 29.15H49.83V30.4401H51.1199V29.15Z" fill="black"/>
<path d="M51.1199 31.72H49.83V33.01H51.1199V31.72Z" fill="black"/>
<path d="M51.1199 36.88H49.83V38.17H51.1199V36.88Z" fill="black"/>
<path d="M51.1199 39.45H49.83V40.74H51.1199V39.45Z" fill="black"/>
<path d="M51.1199 42.03H49.83V44.61H51.1199V42.03Z" fill="black"/>
<path d="M51.1199 47.1801H49.83V49.76H51.1199V47.1801Z" fill="black"/>
<path d="M51.1199 53.62H49.83V56.2H51.1199V53.62Z" fill="black"/>
<path d="M51.1199 57.49H49.83V61.35H51.1199V57.49Z" fill="black"/>
<path d="M51.1199 62.64H49.83V63.9301H51.1199V62.64Z" fill="black"/>
<path d="M51.1199 67.79H49.83V71.65H51.1199V67.79Z" fill="black"/>
<path d="M51.1199 72.95H49.83V78.1H51.1199V72.95Z" fill="black"/>
<path d="M51.1199 79.39H49.83V80.6801H51.1199V79.39Z" fill="black"/>
<path d="M52.4099 11.11H51.1199V12.4H52.4099V11.11Z" fill="black"/>
<path d="M52.4099 14.98H51.1199V17.5601H52.4099V14.98Z" fill="black"/>
<path d="M52.4099 18.84H51.1199V20.13H52.4099V18.84Z" fill="black"/>
<path d="M52.4099 22.71H51.1199V24H52.4099V22.71Z" fill="black"/>
<path d="M52.4099 26.5701H51.1199V27.86H52.4099V26.5701Z" fill="black"/>
<path d="M52.4099 29.15H51.1199V30.4401H52.4099V29.15Z" fill="black"/>
<path d="M52.4099 31.72H51.1199V33.01H52.4099V31.72Z" fill="black"/>
<path d="M52.4099 35.59H51.1199V39.45H52.4099V35.59Z" fill="black"/>
<path d="M52.4099 44.61H51.1199V45.9H52.4099V44.61Z" fill="black"/>
<path d="M52.4099 51.05H51.1199V52.34H52.4099V51.05Z" fill="black"/>
<path d="M52.4099 53.62H51.1199V54.91H52.4099V53.62Z" fill="black"/>
<path d="M52.4099 57.49H51.1199V58.78H52.4099V57.49Z" fill="black"/>
<path d="M52.4099 60.0701H51.1199V62.65H52.4099V60.0701Z" fill="black"/>
<path d="M52.4099 63.9301H51.1199V65.22H52.4099V63.9301Z" fill="black"/>
<path d="M52.4099 66.51H51.1199V67.8H52.4099V66.51Z" fill="black"/>
<path d="M52.4099 69.08H51.1199V72.9401H52.4099V69.08Z" fill="black"/>
<path d="M52.4099 75.52H51.1199V80.67H52.4099V75.52Z" fill="black"/>
<path d="M53.6899 7.25H52.3999V12.4H53.6899V7.25Z" fill="black"/>
<path d="M53.6899 16.26H52.3999V20.12H53.6899V16.26Z" fill="black"/>
<path d="M53.6899 21.42H52.3999V22.71H53.6899V21.42Z" fill="black"/>
<path d="M53.6899 26.5701H52.3999V27.86H53.6899V26.5701Z" fill="black"/>
<path d="M53.6899 30.4401H52.3999V34.3H53.6899V30.4401Z" fill="black"/>
<path d="M53.6899 35.59H52.3999V40.74H53.6899V35.59Z" fill="black"/>
<path d="M53.6899 44.61H52.3999V49.76H53.6899V44.61Z" fill="black"/>
<path d="M53.6899 53.62H52.3999V58.77H53.6899V53.62Z" fill="black"/>
<path d="M53.6899 61.35H52.3999V62.64H53.6899V61.35Z" fill="black"/>
<path d="M53.6899 65.22H52.3999V66.51H53.6899V65.22Z" fill="black"/>
<path d="M53.6899 71.66H52.3999V76.8101H53.6899V71.66Z" fill="black"/>
<path d="M53.6899 78.1H52.3999V80.6801H53.6899V78.1Z" fill="black"/>
<path d="M54.9799 7.25H53.6899V9.82996H54.9799V7.25Z" fill="black"/>
<path d="M54.9799 11.11H53.6899V12.4H54.9799V11.11Z" fill="black"/>
<path d="M54.9799 13.6901H53.6899V17.55H54.9799V13.6901Z" fill="black"/>
<path d="M54.9799 18.84H53.6899V20.13H54.9799V18.84Z" fill="black"/>
<path d="M54.9799 22.71H53.6899V24H54.9799V22.71Z" fill="black"/>
<path d="M54.9799 26.5701H53.6899V27.86H54.9799V26.5701Z" fill="black"/>
<path d="M54.9799 29.15H53.6899V33.01H54.9799V29.15Z" fill="black"/>
<path d="M54.9799 35.59H53.6899V36.88H54.9799V35.59Z" fill="black"/>
<path d="M54.9799 38.17H53.6899V40.75H54.9799V38.17Z" fill="black"/>
<path d="M54.9799 44.61H53.6899V45.9H54.9799V44.61Z" fill="black"/>
<path d="M54.9799 48.47H53.6899V49.76H54.9799V48.47Z" fill="black"/>
<path d="M54.9799 51.05H53.6899V54.91H54.9799V51.05Z" fill="black"/>
<path d="M54.9799 56.2H53.6899V58.78H54.9799V56.2Z" fill="black"/>
<path d="M54.9799 60.0701H53.6899V61.36H54.9799V60.0701Z" fill="black"/>
<path d="M54.9799 62.64H53.6899V63.9301H54.9799V62.64Z" fill="black"/>
<path d="M54.9799 65.22H53.6899V66.51H54.9799V65.22Z" fill="black"/>
<path d="M54.9799 67.79H53.6899V70.37H54.9799V67.79Z" fill="black"/>
<path d="M54.9799 71.66H53.6899V74.24H54.9799V71.66Z" fill="black"/>
<path d="M54.9799 76.8101H53.6899V78.1H54.9799V76.8101Z" fill="black"/>
<path d="M56.27 7.25H54.9799V8.54004H56.27V7.25Z" fill="black"/>
<path d="M56.27 12.4H54.9799V14.98H56.27V12.4Z" fill="black"/>
<path d="M56.27 17.55H54.9799V18.84H56.27V17.55Z" fill="black"/>
<path d="M56.27 20.13H54.9799V22.71H56.27V20.13Z" fill="black"/>
<path d="M56.27 26.5701H54.9799V29.15H56.27V26.5701Z" fill="black"/>
<path d="M56.27 30.4401H54.9799V31.73H56.27V30.4401Z" fill="black"/>
<path d="M56.27 35.59H54.9799V42.03H56.27V35.59Z" fill="black"/>
<path d="M56.27 43.3201H54.9799V44.61H56.27V43.3201Z" fill="black"/>
<path d="M56.27 48.47H54.9799V51.05H56.27V48.47Z" fill="black"/>
<path d="M56.27 53.62H54.9799V54.91H56.27V53.62Z" fill="black"/>
<path d="M56.27 57.49H54.9799V58.78H56.27V57.49Z" fill="black"/>
<path d="M56.27 62.64H54.9799V63.9301H56.27V62.64Z" fill="black"/>
<path d="M56.27 65.22H54.9799V66.51H56.27V65.22Z" fill="black"/>
<path d="M56.27 69.08H54.9799V74.23H56.27V69.08Z" fill="black"/>
<path d="M56.27 79.39H54.9799V80.6801H56.27V79.39Z" fill="black"/>
<path d="M57.56 7.25H56.27V17.5601H57.56V7.25Z" fill="black"/>
<path d="M57.56 21.42H56.27V29.15H57.56V21.42Z" fill="black"/>
<path d="M57.56 31.72H56.27V33.01H57.56V31.72Z" fill="black"/>
<path d="M57.56 35.59H56.27V36.88H57.56V35.59Z" fill="black"/>
<path d="M57.56 38.17H56.27V44.61H57.56V38.17Z" fill="black"/>
<path d="M57.56 45.89H56.27V49.75H57.56V45.89Z" fill="black"/>
<path d="M57.56 51.05H56.27V52.34H57.56V51.05Z" fill="black"/>
<path d="M57.56 54.91H56.27V58.77H57.56V54.91Z" fill="black"/>
<path d="M57.56 60.0701H56.27V61.36H57.56V60.0701Z" fill="black"/>
<path d="M57.56 63.9301H56.27V65.22H57.56V63.9301Z" fill="black"/>
<path d="M57.56 67.79H56.27V69.08H57.56V67.79Z" fill="black"/>
<path d="M57.56 70.37H56.27V71.66H57.56V70.37Z" fill="black"/>
<path d="M57.56 72.95H56.27V75.53H57.56V72.95Z" fill="black"/>
<path d="M57.56 76.8101H56.27V80.67H57.56V76.8101Z" fill="black"/>
<path d="M58.8499 7.25H57.5599V9.82996H58.8499V7.25Z" fill="black"/>
<path d="M58.8499 12.4H57.5599V13.6901H58.8499V12.4Z" fill="black"/>
<path d="M58.8499 16.26H57.5599V18.84H58.8499V16.26Z" fill="black"/>
<path d="M58.8499 21.42H57.5599V22.71H58.8499V21.42Z" fill="black"/>
<path d="M58.8499 23.99H57.5599V25.28H58.8499V23.99Z" fill="black"/>
<path d="M58.8499 26.5701H57.5599V27.86H58.8499V26.5701Z" fill="black"/>
<path d="M58.8499 29.15H57.5599V31.73H58.8499V29.15Z" fill="black"/>
<path d="M58.8499 34.3H57.5599V39.45H58.8499V34.3Z" fill="black"/>
<path d="M58.8499 42.03H57.5599V44.61H58.8499V42.03Z" fill="black"/>
<path d="M58.8499 47.1801H57.5599V52.33H58.8499V47.1801Z" fill="black"/>
<path d="M58.8499 56.2H57.5599V60.0601H58.8499V56.2Z" fill="black"/>
<path d="M58.8499 62.64H57.5599V65.22H58.8499V62.64Z" fill="black"/>
<path d="M58.8499 72.95H57.5599V78.1H58.8499V72.95Z" fill="black"/>
<path d="M58.8499 79.39H57.5599V80.6801H58.8499V79.39Z" fill="black"/>
<path d="M60.1399 7.25H58.8499V9.82996H60.1399V7.25Z" fill="black"/>
<path d="M60.1399 14.98H58.8499V18.84H60.1399V14.98Z" fill="black"/>
<path d="M60.1399 20.13H58.8499V21.42H60.1399V20.13Z" fill="black"/>
<path d="M60.1399 26.5701H58.8499V27.86H60.1399V26.5701Z" fill="black"/>
<path d="M60.1399 29.15H58.8499V31.73H60.1399V29.15Z" fill="black"/>
<path d="M60.1399 33.01H58.8499V35.59H60.1399V33.01Z" fill="black"/>
<path d="M60.1399 40.74H58.8499V43.3201H60.1399V40.74Z" fill="black"/>
<path d="M60.1399 45.89H58.8499V47.1801H60.1399V45.89Z" fill="black"/>
<path d="M60.1399 48.47H58.8499V49.76H60.1399V48.47Z" fill="black"/>
<path d="M60.1399 56.2H58.8499V58.78H60.1399V56.2Z" fill="black"/>
<path d="M60.1399 60.0701H58.8499V61.36H60.1399V60.0701Z" fill="black"/>
<path d="M60.1399 62.64H58.8499V65.22H60.1399V62.64Z" fill="black"/>
<path d="M60.1399 66.51H58.8499V69.09H60.1399V66.51Z" fill="black"/>
<path d="M60.1399 78.1H58.8499V80.6801H60.1399V78.1Z" fill="black"/>
<path d="M61.4199 7.25H60.1299V8.54004H61.4199V7.25Z" fill="black"/>
<path d="M61.4199 11.11H60.1299V12.4H61.4199V11.11Z" fill="black"/>
<path d="M61.4199 16.26H60.1299V17.55H61.4199V16.26Z" fill="black"/>
<path d="M61.4199 18.84H60.1299V20.13H61.4199V18.84Z" fill="black"/>
<path d="M61.4199 21.42H60.1299V25.28H61.4199V21.42Z" fill="black"/>
<path d="M61.4199 29.15H60.1299V30.4401H61.4199V29.15Z" fill="black"/>
<path d="M61.4199 31.72H60.1299V33.01H61.4199V31.72Z" fill="black"/>
<path d="M61.4199 34.3H60.1299V38.16H61.4199V34.3Z" fill="black"/>
<path d="M61.4199 40.74H60.1299V42.03H61.4199V40.74Z" fill="black"/>
<path d="M61.4199 44.61H60.1299V47.1901H61.4199V44.61Z" fill="black"/>
<path d="M61.4199 49.76H60.1299V51.05H61.4199V49.76Z" fill="black"/>
<path d="M61.4199 53.62H60.1299V54.91H61.4199V53.62Z" fill="black"/>
<path d="M61.4199 56.2H60.1299V58.78H61.4199V56.2Z" fill="black"/>
<path d="M61.4199 60.0701H60.1299V63.9301H61.4199V60.0701Z" fill="black"/>
<path d="M61.4199 65.22H60.1299V69.08H61.4199V65.22Z" fill="black"/>
<path d="M61.4199 71.66H60.1299V72.95H61.4199V71.66Z" fill="black"/>
<path d="M61.4199 74.24H60.1299V76.8201H61.4199V74.24Z" fill="black"/>
<path d="M61.4199 79.39H60.1299V80.6801H61.4199V79.39Z" fill="black"/>
<path d="M62.71 7.25H61.42V8.54004H62.71V7.25Z" fill="black"/>
<path d="M62.71 9.82007H61.42V11.11H62.71V9.82007Z" fill="black"/>
<path d="M62.71 13.6901H61.42V16.27H62.71V13.6901Z" fill="black"/>
<path d="M62.71 17.55H61.42V20.13H62.71V17.55Z" fill="black"/>
<path d="M62.71 21.42H61.42V24H62.71V21.42Z" fill="black"/>
<path d="M62.71 25.28H61.42V29.14H62.71V25.28Z" fill="black"/>
<path d="M62.71 31.72H61.42V36.87H62.71V31.72Z" fill="black"/>
<path d="M62.71 45.89H61.42V52.33H62.71V45.89Z" fill="black"/>
<path d="M62.71 53.62H61.42V54.91H62.71V53.62Z" fill="black"/>
<path d="M62.71 56.2H61.42V60.0601H62.71V56.2Z" fill="black"/>
<path d="M62.71 61.35H61.42V67.79H62.71V61.35Z" fill="black"/>
<path d="M62.71 69.08H61.42V70.37H62.71V69.08Z" fill="black"/>
<path d="M62.71 72.95H61.42V74.24H62.71V72.95Z" fill="black"/>
<path d="M64 11.11H62.71V12.4H64V11.11Z" fill="black"/>
<path d="M64 13.6901H62.71V14.98H64V13.6901Z" fill="black"/>
<path d="M64 16.26H62.71V21.41H64V16.26Z" fill="black"/>
<path d="M64 27.86H62.71V30.4401H64V27.86Z" fill="black"/>
<path d="M64 31.72H62.71V33.01H64V31.72Z" fill="black"/>
<path d="M64 34.3H62.71V35.59H64V34.3Z" fill="black"/>
<path d="M64 36.88H62.71V43.3201H64V36.88Z" fill="black"/>
<path d="M64 49.76H62.71V51.05H64V49.76Z" fill="black"/>
<path d="M64 54.91H62.71V56.2H64V54.91Z" fill="black"/>
<path d="M64 57.49H62.71V61.35H64V57.49Z" fill="black"/>
<path d="M64 66.51H62.71V67.8H64V66.51Z" fill="black"/>
<path d="M64 69.08H62.71V71.66H64V69.08Z" fill="black"/>
<path d="M64 74.24H62.71V78.1H64V74.24Z" fill="black"/>
<path d="M65.2899 7.25H63.9999V11.11H65.2899V7.25Z" fill="black"/>
<path d="M65.2899 12.4H63.9999V16.26H65.2899V12.4Z" fill="black"/>
<path d="M65.2899 21.42H63.9999V22.71H65.2899V21.42Z" fill="black"/>
<path d="M65.2899 25.28H63.9999V26.5701H65.2899V25.28Z" fill="black"/>
<path d="M65.2899 27.86H63.9999V30.4401H65.2899V27.86Z" fill="black"/>
<path d="M65.2899 36.88H63.9999V38.17H65.2899V36.88Z" fill="black"/>
<path d="M65.2899 39.45H63.9999V44.6H65.2899V39.45Z" fill="black"/>
<path d="M65.2899 52.34H63.9999V53.63H65.2899V52.34Z" fill="black"/>
<path d="M65.2899 58.78H63.9999V61.36H65.2899V58.78Z" fill="black"/>
<path d="M65.2899 65.22H63.9999V66.51H65.2899V65.22Z" fill="black"/>
<path d="M65.2899 71.66H63.9999V78.1H65.2899V71.66Z" fill="black"/>
<path d="M66.58 7.25H65.2899V8.54004H66.58V7.25Z" fill="black"/>
<path d="M66.58 17.55H65.2899V18.84H66.58V17.55Z" fill="black"/>
<path d="M66.58 21.42H65.2899V25.28H66.58V21.42Z" fill="black"/>
<path d="M66.58 26.5701H65.2899V27.86H66.58V26.5701Z" fill="black"/>
<path d="M66.58 29.15H65.2899V30.4401H66.58V29.15Z" fill="black"/>
<path d="M66.58 31.72H65.2899V34.3H66.58V31.72Z" fill="black"/>
<path d="M66.58 36.88H65.2899V38.17H66.58V36.88Z" fill="black"/>
<path d="M66.58 40.74H65.2899V42.03H66.58V40.74Z" fill="black"/>
<path d="M66.58 44.61H65.2899V47.1901H66.58V44.61Z" fill="black"/>
<path d="M66.58 48.47H65.2899V52.33H66.58V48.47Z" fill="black"/>
<path d="M66.58 54.91H65.2899V56.2H66.58V54.91Z" fill="black"/>
<path d="M66.58 57.49H65.2899V62.64H66.58V57.49Z" fill="black"/>
<path d="M66.58 67.79H65.2899V70.37H66.58V67.79Z" fill="black"/>
<path d="M66.58 78.1H65.2899V80.6801H66.58V78.1Z" fill="black"/>
<path d="M67.8599 7.25H66.5699V8.54004H67.8599V7.25Z" fill="black"/>
<path d="M67.8599 9.82007H66.5699V11.11H67.8599V9.82007Z" fill="black"/>
<path d="M67.8599 13.6901H66.5699V16.27H67.8599V13.6901Z" fill="black"/>
<path d="M67.8599 20.13H66.5699V21.42H67.8599V20.13Z" fill="black"/>
<path d="M67.8599 22.71H66.5699V24H67.8599V22.71Z" fill="black"/>
<path d="M67.8599 27.86H66.5699V30.4401H67.8599V27.86Z" fill="black"/>
<path d="M67.8599 31.72H66.5699V33.01H67.8599V31.72Z" fill="black"/>
<path d="M67.8599 44.61H66.5699V49.76H67.8599V44.61Z" fill="black"/>
<path d="M67.8599 51.05H66.5699V52.34H67.8599V51.05Z" fill="black"/>
<path d="M67.8599 57.49H66.5699V58.78H67.8599V57.49Z" fill="black"/>
<path d="M67.8599 60.0701H66.5699V61.36H67.8599V60.0701Z" fill="black"/>
<path d="M67.8599 69.08H66.5699V70.37H67.8599V69.08Z" fill="black"/>
<path d="M67.8599 75.52H66.5699V79.38H67.8599V75.52Z" fill="black"/>
<path d="M69.1499 7.25H67.86V13.6901H69.1499V7.25Z" fill="black"/>
<path d="M69.1499 18.84H67.86V20.13H69.1499V18.84Z" fill="black"/>
<path d="M69.1499 22.71H67.86V33.02H69.1499V22.71Z" fill="black"/>
<path d="M69.1499 34.3H67.86V35.59H69.1499V34.3Z" fill="black"/>
<path d="M69.1499 36.88H67.86V39.46H69.1499V36.88Z" fill="black"/>
<path d="M69.1499 42.03H67.86V43.3201H69.1499V42.03Z" fill="black"/>
<path d="M69.1499 44.61H67.86V45.9H69.1499V44.61Z" fill="black"/>
<path d="M69.1499 52.34H67.86V53.63H69.1499V52.34Z" fill="black"/>
<path d="M69.1499 54.91H67.86V62.64H69.1499V54.91Z" fill="black"/>
<path d="M69.1499 65.22H67.86V66.51H69.1499V65.22Z" fill="black"/>
<path d="M69.1499 70.37H67.86V71.66H69.1499V70.37Z" fill="black"/>
<path d="M69.1499 72.95H67.86V76.8101H69.1499V72.95Z" fill="black"/>
<path d="M69.1499 78.1H67.86V79.39H69.1499V78.1Z" fill="black"/>
<path d="M70.4399 14.98H69.1499V16.27H70.4399V14.98Z" fill="black"/>
<path d="M70.4399 17.55H69.1499V20.13H70.4399V17.55Z" fill="black"/>
<path d="M70.4399 21.42H69.1499V22.71H70.4399V21.42Z" fill="black"/>
<path d="M70.4399 25.28H69.1499V26.5701H70.4399V25.28Z" fill="black"/>
<path d="M70.4399 30.4401H69.1499V39.46H70.4399V30.4401Z" fill="black"/>
<path d="M70.4399 40.74H69.1499V51.05H70.4399V40.74Z" fill="black"/>
<path d="M70.4399 52.34H69.1499V53.63H70.4399V52.34Z" fill="black"/>
<path d="M70.4399 61.35H69.1499V62.64H70.4399V61.35Z" fill="black"/>
<path d="M70.4399 63.9301H69.1499V65.22H70.4399V63.9301Z" fill="black"/>
<path d="M70.4399 67.79H69.1499V79.38H70.4399V67.79Z" fill="black"/>
<path d="M71.7299 18.84H70.4399V21.42H71.7299V18.84Z" fill="black"/>
<path d="M71.7299 23.99H70.4399V25.28H71.7299V23.99Z" fill="black"/>
<path d="M71.7299 27.86H70.4399V31.72H71.7299V27.86Z" fill="black"/>
<path d="M71.7299 34.3H70.4399V36.88H71.7299V34.3Z" fill="black"/>
<path d="M71.7299 38.17H70.4399V42.03H71.7299V38.17Z" fill="black"/>
<path d="M71.7299 45.89H70.4399V47.1801H71.7299V45.89Z" fill="black"/>
<path d="M71.7299 48.47H70.4399V52.33H71.7299V48.47Z" fill="black"/>
<path d="M71.7299 54.91H70.4399V58.77H71.7299V54.91Z" fill="black"/>
<path d="M71.7299 60.0701H70.4399V61.36H71.7299V60.0701Z" fill="black"/>
<path d="M71.7299 63.9301H70.4399V65.22H71.7299V63.9301Z" fill="black"/>
<path d="M71.7299 66.51H70.4399V67.8H71.7299V66.51Z" fill="black"/>
<path d="M71.7299 69.08H70.4399V70.37H71.7299V69.08Z" fill="black"/>
<path d="M71.7299 74.24H70.4399V75.53H71.7299V74.24Z" fill="black"/>
<path d="M71.7299 78.1H70.4399V80.6801H71.7299V78.1Z" fill="black"/>
<path d="M73.02 7.25H71.7299V16.27H73.02V7.25Z" fill="black"/>
<path d="M73.02 17.55H71.7299V18.84H73.02V17.55Z" fill="black"/>
<path d="M73.02 20.13H71.7299V21.42H73.02V20.13Z" fill="black"/>
<path d="M73.02 23.99H71.7299V25.28H73.02V23.99Z" fill="black"/>
<path d="M73.02 30.4401H71.7299V31.73H73.02V30.4401Z" fill="black"/>
<path d="M73.02 33.01H71.7299V34.3H73.02V33.01Z" fill="black"/>
<path d="M73.02 39.45H71.7299V42.03H73.02V39.45Z" fill="black"/>
<path d="M73.02 43.3201H71.7299V44.61H73.02V43.3201Z" fill="black"/>
<path d="M73.02 45.89H71.7299V47.1801H73.02V45.89Z" fill="black"/>
<path d="M73.02 48.47H71.7299V49.76H73.02V48.47Z" fill="black"/>
<path d="M73.02 51.05H71.7299V53.63H73.02V51.05Z" fill="black"/>
<path d="M73.02 54.91H71.7299V56.2H73.02V54.91Z" fill="black"/>
<path d="M73.02 57.49H71.7299V58.78H73.02V57.49Z" fill="black"/>
<path d="M73.02 60.0701H71.7299V61.36H73.02V60.0701Z" fill="black"/>
<path d="M73.02 65.22H71.7299V67.8H73.02V65.22Z" fill="black"/>
<path d="M73.02 69.08H71.7299V70.37H73.02V69.08Z" fill="black"/>
<path d="M73.02 71.66H71.7299V72.95H73.02V71.66Z" fill="black"/>
<path d="M73.02 74.24H71.7299V75.53H73.02V74.24Z" fill="black"/>
<path d="M73.02 78.1H71.7299V80.6801H73.02V78.1Z" fill="black"/>
<path d="M74.31 7.25H73.02V8.54004H74.31V7.25Z" fill="black"/>
<path d="M74.31 14.98H73.02V16.27H74.31V14.98Z" fill="black"/>
<path d="M74.31 18.84H73.02V22.7H74.31V18.84Z" fill="black"/>
<path d="M74.31 23.99H73.02V25.28H74.31V23.99Z" fill="black"/>
<path d="M74.31 26.5701H73.02V29.15H74.31V26.5701Z" fill="black"/>
<path d="M74.31 30.4401H73.02V35.59H74.31V30.4401Z" fill="black"/>
<path d="M74.31 36.88H73.02V38.17H74.31V36.88Z" fill="black"/>
<path d="M74.31 40.74H73.02V42.03H74.31V40.74Z" fill="black"/>
<path d="M74.31 45.89H73.02V49.75H74.31V45.89Z" fill="black"/>
<path d="M74.31 54.91H73.02V56.2H74.31V54.91Z" fill="black"/>
<path d="M74.31 58.78H73.02V60.0701H74.31V58.78Z" fill="black"/>
<path d="M74.31 62.64H73.02V65.22H74.31V62.64Z" fill="black"/>
<path d="M74.31 67.79H73.02V70.37H74.31V67.79Z" fill="black"/>
<path d="M74.31 74.24H73.02V75.53H74.31V74.24Z" fill="black"/>
<path d="M74.31 78.1H73.02V79.39H74.31V78.1Z" fill="black"/>
<path d="M75.59 7.25H74.3V8.54004H75.59V7.25Z" fill="black"/>
<path d="M75.59 9.82007H74.3V13.6801H75.59V9.82007Z" fill="black"/>
<path d="M75.59 14.98H74.3V16.27H75.59V14.98Z" fill="black"/>
<path d="M75.59 31.72H74.3V34.3H75.59V31.72Z" fill="black"/>
<path d="M75.59 36.88H74.3V38.17H75.59V36.88Z" fill="black"/>
<path d="M75.59 39.45H74.3V49.76H75.59V39.45Z" fill="black"/>
<path d="M75.59 51.05H74.3V52.34H75.59V51.05Z" fill="black"/>
<path d="M75.59 56.2H74.3V57.49H75.59V56.2Z" fill="black"/>
<path d="M75.59 58.78H74.3V63.9301H75.59V58.78Z" fill="black"/>
<path d="M75.59 67.79H74.3V76.8101H75.59V67.79Z" fill="black"/>
<path d="M75.59 78.1H74.3V80.6801H75.59V78.1Z" fill="black"/>
<path d="M76.8799 7.25H75.5899V8.54004H76.8799V7.25Z" fill="black"/>
<path d="M76.8799 9.82007H75.5899V13.6801H76.8799V9.82007Z" fill="black"/>
<path d="M76.8799 14.98H75.5899V16.27H76.8799V14.98Z" fill="black"/>
<path d="M76.8799 17.55H75.5899V20.13H76.8799V17.55Z" fill="black"/>
<path d="M76.8799 22.71H75.5899V29.15H76.8799V22.71Z" fill="black"/>
<path d="M76.8799 33.01H75.5899V34.3H76.8799V33.01Z" fill="black"/>
<path d="M76.8799 35.59H75.5899V39.45H76.8799V35.59Z" fill="black"/>
<path d="M76.8799 42.03H75.5899V43.3201H76.8799V42.03Z" fill="black"/>
<path d="M76.8799 49.76H75.5899V52.34H76.8799V49.76Z" fill="black"/>
<path d="M76.8799 53.62H75.5899V57.48H76.8799V53.62Z" fill="black"/>
<path d="M76.8799 60.0701H75.5899V61.36H76.8799V60.0701Z" fill="black"/>
<path d="M76.8799 63.9301H75.5899V65.22H76.8799V63.9301Z" fill="black"/>
<path d="M76.8799 72.95H75.5899V74.24H76.8799V72.95Z" fill="black"/>
<path d="M76.8799 79.39H75.5899V80.6801H76.8799V79.39Z" fill="black"/>
<path d="M78.1699 7.25H76.8799V8.54004H78.1699V7.25Z" fill="black"/>
<path d="M78.1699 9.82007H76.8799V13.6801H78.1699V9.82007Z" fill="black"/>
<path d="M78.1699 14.98H76.8799V16.27H78.1699V14.98Z" fill="black"/>
<path d="M78.1699 18.84H76.8799V20.13H78.1699V18.84Z" fill="black"/>
<path d="M78.1699 23.99H76.8799V25.28H78.1699V23.99Z" fill="black"/>
<path d="M78.1699 26.5701H76.8799V30.4301H78.1699V26.5701Z" fill="black"/>
<path d="M78.1699 42.03H76.8799V44.61H78.1699V42.03Z" fill="black"/>
<path d="M78.1699 51.05H76.8799V52.34H78.1699V51.05Z" fill="black"/>
<path d="M78.1699 57.49H76.8799V60.0701H78.1699V57.49Z" fill="black"/>
<path d="M78.1699 61.35H76.8799V62.64H78.1699V61.35Z" fill="black"/>
<path d="M78.1699 63.9301H76.8799V67.79H78.1699V63.9301Z" fill="black"/>
<path d="M78.1699 70.37H76.8799V71.66H78.1699V70.37Z" fill="black"/>
<path d="M78.1699 72.95H76.8799V74.24H78.1699V72.95Z" fill="black"/>
<path d="M79.46 7.25H78.17V8.54004H79.46V7.25Z" fill="black"/>
<path d="M79.46 14.98H78.17V16.27H79.46V14.98Z" fill="black"/>
<path d="M79.46 17.55H78.17V18.84H79.46V17.55Z" fill="black"/>
<path d="M79.46 20.13H78.17V21.42H79.46V20.13Z" fill="black"/>
<path d="M79.46 27.86H78.17V29.15H79.46V27.86Z" fill="black"/>
<path d="M79.46 30.4401H78.17V33.02H79.46V30.4401Z" fill="black"/>
<path d="M79.46 35.59H78.17V39.45H79.46V35.59Z" fill="black"/>
<path d="M79.46 42.03H78.17V48.47H79.46V42.03Z" fill="black"/>
<path d="M79.46 49.76H78.17V51.05H79.46V49.76Z" fill="black"/>
<path d="M79.46 52.34H78.17V53.63H79.46V52.34Z" fill="black"/>
<path d="M79.46 57.49H78.17V58.78H79.46V57.49Z" fill="black"/>
<path d="M79.46 60.0701H78.17V65.22H79.46V60.0701Z" fill="black"/>
<path d="M79.46 66.51H78.17V67.8H79.46V66.51Z" fill="black"/>
<path d="M79.46 74.24H78.17V76.8201H79.46V74.24Z" fill="black"/>
<path d="M80.75 7.25H79.46V16.27H80.75V7.25Z" fill="black"/>
<path d="M80.75 17.55H79.46V21.41H80.75V17.55Z" fill="black"/>
<path d="M80.75 26.5701H79.46V27.86H80.75V26.5701Z" fill="black"/>
<path d="M80.75 29.15H79.46V30.4401H80.75V29.15Z" fill="black"/>
<path d="M80.75 31.72H79.46V40.74H80.75V31.72Z" fill="black"/>
<path d="M80.75 44.61H79.46V45.9H80.75V44.61Z" fill="black"/>
<path d="M80.75 48.47H79.46V51.05H80.75V48.47Z" fill="black"/>
<path d="M80.75 54.91H79.46V56.2H80.75V54.91Z" fill="black"/>
<path d="M80.75 62.64H79.46V67.79H80.75V62.64Z" fill="black"/>
<path d="M80.75 69.08H79.46V70.37H80.75V69.08Z" fill="black"/>
<path d="M80.75 78.1H79.46V79.39H80.75V78.1Z" fill="black"/>
</svg>
