<svg width="88" height="87" viewBox="0 0 88 87" fill="none" xmlns="http://www.w3.org/2000/svg">
<path d="M87.47 0H0.579956V86.86H87.47V0Z" fill="white"/>
<path d="M9.98997 8.01001H8.83997V16.09H9.98997V8.01001Z" fill="black"/>
<path d="M9.98997 17.24H8.83997V20.7H9.98997V17.24Z" fill="black"/>
<path d="M9.98997 24.17H8.83997V25.32H9.98997V24.17Z" fill="black"/>
<path d="M9.98997 26.47H8.83997V27.62H9.98997V26.47Z" fill="black"/>
<path d="M9.98997 28.78H8.83997V29.93H9.98997V28.78Z" fill="black"/>
<path d="M9.98997 31.09H8.83997V32.24H9.98997V31.09Z" fill="black"/>
<path d="M9.98997 34.55H8.83997V35.7H9.98997V34.55Z" fill="black"/>
<path d="M9.98997 36.86H8.83997V46.09H9.98997V36.86Z" fill="black"/>
<path d="M9.98997 47.24H8.83997V49.55H9.98997V47.24Z" fill="black"/>
<path d="M9.98997 50.7H8.83997V53.01H9.98997V50.7Z" fill="black"/>
<path d="M9.98997 54.16H8.83997V56.47H9.98997V54.16Z" fill="black"/>
<path d="M9.98997 58.78H8.83997V59.93H9.98997V58.78Z" fill="black"/>
<path d="M9.98997 61.08H8.83997V63.39H9.98997V61.08Z" fill="black"/>
<path d="M9.98997 66.85H8.83997V69.16H9.98997V66.85Z" fill="black"/>
<path d="M9.98997 70.31H8.83997V78.39H9.98997V70.31Z" fill="black"/>
<path d="M11.15 8.01001H9.99997V9.16003H11.15V8.01001Z" fill="black"/>
<path d="M11.15 14.94H9.99997V16.09H11.15V14.94Z" fill="black"/>
<path d="M11.15 18.4H9.99997V20.71H11.15V18.4Z" fill="black"/>
<path d="M11.15 21.86H9.99997V25.32H11.15V21.86Z" fill="black"/>
<path d="M11.15 29.93H9.99997V31.08H11.15V29.93Z" fill="black"/>
<path d="M11.15 32.24H9.99997V35.7H11.15V32.24Z" fill="black"/>
<path d="M11.15 39.16H9.99997V41.47H11.15V39.16Z" fill="black"/>
<path d="M11.15 44.93H9.99997V46.08H11.15V44.93Z" fill="black"/>
<path d="M11.15 47.24H9.99997V48.39H11.15V47.24Z" fill="black"/>
<path d="M11.15 49.55H9.99997V50.7H11.15V49.55Z" fill="black"/>
<path d="M11.15 51.85H9.99997V53H11.15V51.85Z" fill="black"/>
<path d="M11.15 54.16H9.99997V56.47H11.15V54.16Z" fill="black"/>
<path d="M11.15 59.93H9.99997V62.24H11.15V59.93Z" fill="black"/>
<path d="M11.15 63.39H9.99997V64.54H11.15V63.39Z" fill="black"/>
<path d="M11.15 66.85H9.99997V69.16H11.15V66.85Z" fill="black"/>
<path d="M11.15 70.31H9.99997V71.46H11.15V70.31Z" fill="black"/>
<path d="M11.15 77.23H9.99997V78.38H11.15V77.23Z" fill="black"/>
<path d="M12.3 8.01001H11.15V9.16003H12.3V8.01001Z" fill="black"/>
<path d="M12.3 10.32H11.15V13.78H12.3V10.32Z" fill="black"/>
<path d="M12.3 14.94H11.15V16.09H12.3V14.94Z" fill="black"/>
<path d="M12.3 17.24H11.15V21.85H12.3V17.24Z" fill="black"/>
<path d="M12.3 24.17H11.15V28.78H12.3V24.17Z" fill="black"/>
<path d="M12.3 32.24H11.15V33.39H12.3V32.24Z" fill="black"/>
<path d="M12.3 35.7H11.15V38.01H12.3V35.7Z" fill="black"/>
<path d="M12.3 40.32H11.15V41.47H12.3V40.32Z" fill="black"/>
<path d="M12.3 44.93H11.15V47.24H12.3V44.93Z" fill="black"/>
<path d="M12.3 48.39H11.15V50.7H12.3V48.39Z" fill="black"/>
<path d="M12.3 51.85H11.15V53H12.3V51.85Z" fill="black"/>
<path d="M12.3 54.16H11.15V56.47H12.3V54.16Z" fill="black"/>
<path d="M12.3 57.62H11.15V58.77H12.3V57.62Z" fill="black"/>
<path d="M12.3 59.93H11.15V63.39H12.3V59.93Z" fill="black"/>
<path d="M12.3 65.7H11.15V69.16H12.3V65.7Z" fill="black"/>
<path d="M12.3 70.31H11.15V71.46H12.3V70.31Z" fill="black"/>
<path d="M12.3 72.62H11.15V76.08H12.3V72.62Z" fill="black"/>
<path d="M12.3 77.23H11.15V78.38H12.3V77.23Z" fill="black"/>
<path d="M13.45 8.01001H12.3V9.16003H13.45V8.01001Z" fill="black"/>
<path d="M13.45 10.32H12.3V13.78H13.45V10.32Z" fill="black"/>
<path d="M13.45 14.94H12.3V16.09H13.45V14.94Z" fill="black"/>
<path d="M13.45 17.24H12.3V18.39H13.45V17.24Z" fill="black"/>
<path d="M13.45 19.55H12.3V20.7H13.45V19.55Z" fill="black"/>
<path d="M13.45 21.86H12.3V25.32H13.45V21.86Z" fill="black"/>
<path d="M13.45 27.63H12.3V28.78H13.45V27.63Z" fill="black"/>
<path d="M13.45 29.93H12.3V31.08H13.45V29.93Z" fill="black"/>
<path d="M13.45 33.39H12.3V35.7H13.45V33.39Z" fill="black"/>
<path d="M13.45 36.86H12.3V38.01H13.45V36.86Z" fill="black"/>
<path d="M13.45 40.32H12.3V41.47H13.45V40.32Z" fill="black"/>
<path d="M13.45 46.09H12.3V47.24H13.45V46.09Z" fill="black"/>
<path d="M13.45 49.55H12.3V51.86H13.45V49.55Z" fill="black"/>
<path d="M13.45 54.16H12.3V55.31H13.45V54.16Z" fill="black"/>
<path d="M13.45 56.47H12.3V57.62H13.45V56.47Z" fill="black"/>
<path d="M13.45 59.93H12.3V63.39H13.45V59.93Z" fill="black"/>
<path d="M13.45 64.54H12.3V66.85H13.45V64.54Z" fill="black"/>
<path d="M13.45 68H12.3V69.15H13.45V68Z" fill="black"/>
<path d="M13.45 70.31H12.3V71.46H13.45V70.31Z" fill="black"/>
<path d="M13.45 72.62H12.3V76.08H13.45V72.62Z" fill="black"/>
<path d="M13.45 77.23H12.3V78.38H13.45V77.23Z" fill="black"/>
<path d="M14.61 8.01001H13.46V9.16003H14.61V8.01001Z" fill="black"/>
<path d="M14.61 10.32H13.46V13.78H14.61V10.32Z" fill="black"/>
<path d="M14.61 14.94H13.46V16.09H14.61V14.94Z" fill="black"/>
<path d="M14.61 17.24H13.46V21.85H14.61V17.24Z" fill="black"/>
<path d="M14.61 24.17H13.46V27.63H14.61V24.17Z" fill="black"/>
<path d="M14.61 28.78H13.46V29.93H14.61V28.78Z" fill="black"/>
<path d="M14.61 31.09H13.46V32.24H14.61V31.09Z" fill="black"/>
<path d="M14.61 34.55H13.46V39.16H14.61V34.55Z" fill="black"/>
<path d="M14.61 40.32H13.46V49.55H14.61V40.32Z" fill="black"/>
<path d="M14.61 53.01H13.46V55.32H14.61V53.01Z" fill="black"/>
<path d="M14.61 61.08H13.46V68H14.61V61.08Z" fill="black"/>
<path d="M14.61 70.31H13.46V71.46H14.61V70.31Z" fill="black"/>
<path d="M14.61 72.62H13.46V76.08H14.61V72.62Z" fill="black"/>
<path d="M14.61 77.23H13.46V78.38H14.61V77.23Z" fill="black"/>
<path d="M15.76 8.01001H14.61V9.16003H15.76V8.01001Z" fill="black"/>
<path d="M15.76 14.94H14.61V16.09H15.76V14.94Z" fill="black"/>
<path d="M15.76 17.24H14.61V19.55H15.76V17.24Z" fill="black"/>
<path d="M15.76 20.7H14.61V25.31H15.76V20.7Z" fill="black"/>
<path d="M15.76 26.47H14.61V27.62H15.76V26.47Z" fill="black"/>
<path d="M15.76 28.78H14.61V29.93H15.76V28.78Z" fill="black"/>
<path d="M15.76 31.09H14.61V32.24H15.76V31.09Z" fill="black"/>
<path d="M15.76 33.39H14.61V34.54H15.76V33.39Z" fill="black"/>
<path d="M15.76 38.01H14.61V39.16H15.76V38.01Z" fill="black"/>
<path d="M15.76 40.32H14.61V41.47H15.76V40.32Z" fill="black"/>
<path d="M15.76 44.93H14.61V49.54H15.76V44.93Z" fill="black"/>
<path d="M15.76 50.7H14.61V53.01H15.76V50.7Z" fill="black"/>
<path d="M15.76 56.47H14.61V58.78H15.76V56.47Z" fill="black"/>
<path d="M15.76 62.24H14.61V63.39H15.76V62.24Z" fill="black"/>
<path d="M15.76 64.54H14.61V66.85H15.76V64.54Z" fill="black"/>
<path d="M15.76 70.31H14.61V71.46H15.76V70.31Z" fill="black"/>
<path d="M15.76 77.23H14.61V78.38H15.76V77.23Z" fill="black"/>
<path d="M16.92 8.01001H15.77V16.09H16.92V8.01001Z" fill="black"/>
<path d="M16.92 17.24H15.77V18.39H16.92V17.24Z" fill="black"/>
<path d="M16.92 19.55H15.77V20.7H16.92V19.55Z" fill="black"/>
<path d="M16.92 21.86H15.77V23.01H16.92V21.86Z" fill="black"/>
<path d="M16.92 24.17H15.77V25.32H16.92V24.17Z" fill="black"/>
<path d="M16.92 26.47H15.77V27.62H16.92V26.47Z" fill="black"/>
<path d="M16.92 28.78H15.77V29.93H16.92V28.78Z" fill="black"/>
<path d="M16.92 31.09H15.77V32.24H16.92V31.09Z" fill="black"/>
<path d="M16.92 33.39H15.77V34.54H16.92V33.39Z" fill="black"/>
<path d="M16.92 35.7H15.77V36.85H16.92V35.7Z" fill="black"/>
<path d="M16.92 38.01H15.77V39.16H16.92V38.01Z" fill="black"/>
<path d="M16.92 40.32H15.77V41.47H16.92V40.32Z" fill="black"/>
<path d="M16.92 42.62H15.77V43.77H16.92V42.62Z" fill="black"/>
<path d="M16.92 44.93H15.77V46.08H16.92V44.93Z" fill="black"/>
<path d="M16.92 47.24H15.77V48.39H16.92V47.24Z" fill="black"/>
<path d="M16.92 49.55H15.77V50.7H16.92V49.55Z" fill="black"/>
<path d="M16.92 51.85H15.77V53H16.92V51.85Z" fill="black"/>
<path d="M16.92 54.16H15.77V55.31H16.92V54.16Z" fill="black"/>
<path d="M16.92 56.47H15.77V57.62H16.92V56.47Z" fill="black"/>
<path d="M16.92 58.78H15.77V59.93H16.92V58.78Z" fill="black"/>
<path d="M16.92 61.08H15.77V62.23H16.92V61.08Z" fill="black"/>
<path d="M16.92 63.39H15.77V64.54H16.92V63.39Z" fill="black"/>
<path d="M16.92 65.7H15.77V66.85H16.92V65.7Z" fill="black"/>
<path d="M16.92 68H15.77V69.15H16.92V68Z" fill="black"/>
<path d="M16.92 70.31H15.77V78.39H16.92V70.31Z" fill="black"/>
<path d="M18.07 19.55H16.92V20.7H18.07V19.55Z" fill="black"/>
<path d="M18.07 21.86H16.92V25.32H18.07V21.86Z" fill="black"/>
<path d="M18.07 26.47H16.92V28.78H18.07V26.47Z" fill="black"/>
<path d="M18.07 33.39H16.92V34.54H18.07V33.39Z" fill="black"/>
<path d="M18.07 36.86H16.92V41.47H18.07V36.86Z" fill="black"/>
<path d="M18.07 44.93H16.92V50.7H18.07V44.93Z" fill="black"/>
<path d="M18.07 51.85H16.92V57.62H18.07V51.85Z" fill="black"/>
<path d="M18.07 61.08H16.92V62.23H18.07V61.08Z" fill="black"/>
<path d="M18.07 63.39H16.92V64.54H18.07V63.39Z" fill="black"/>
<path d="M18.07 65.7H16.92V68.01H18.07V65.7Z" fill="black"/>
<path d="M19.22 10.32H18.07V17.24H19.22V10.32Z" fill="black"/>
<path d="M19.22 18.4H18.07V26.48H19.22V18.4Z" fill="black"/>
<path d="M19.22 27.63H18.07V28.78H19.22V27.63Z" fill="black"/>
<path d="M19.22 31.09H18.07V32.24H19.22V31.09Z" fill="black"/>
<path d="M19.22 35.7H18.07V36.85H19.22V35.7Z" fill="black"/>
<path d="M19.22 40.32H18.07V47.24H19.22V40.32Z" fill="black"/>
<path d="M19.22 49.55H18.07V50.7H19.22V49.55Z" fill="black"/>
<path d="M19.22 51.85H18.07V53H19.22V51.85Z" fill="black"/>
<path d="M19.22 54.16H18.07V55.31H19.22V54.16Z" fill="black"/>
<path d="M19.22 57.62H18.07V58.77H19.22V57.62Z" fill="black"/>
<path d="M19.22 59.93H18.07V61.08H19.22V59.93Z" fill="black"/>
<path d="M19.22 63.39H18.07V64.54H19.22V63.39Z" fill="black"/>
<path d="M19.22 66.85H18.07V70.31H19.22V66.85Z" fill="black"/>
<path d="M19.22 71.47H18.07V76.08H19.22V71.47Z" fill="black"/>
<path d="M19.22 77.23H18.07V78.38H19.22V77.23Z" fill="black"/>
<path d="M20.38 10.32H19.23V11.47H20.38V10.32Z" fill="black"/>
<path d="M20.38 12.63H19.23V13.78H20.38V12.63Z" fill="black"/>
<path d="M20.38 17.24H19.23V20.7H20.38V17.24Z" fill="black"/>
<path d="M20.38 21.86H19.23V23.01H20.38V21.86Z" fill="black"/>
<path d="M20.38 24.17H19.23V25.32H20.38V24.17Z" fill="black"/>
<path d="M20.38 34.55H19.23V35.7H20.38V34.55Z" fill="black"/>
<path d="M20.38 40.32H19.23V42.63H20.38V40.32Z" fill="black"/>
<path d="M20.38 46.09H19.23V47.24H20.38V46.09Z" fill="black"/>
<path d="M20.38 51.85H19.23V55.31H20.38V51.85Z" fill="black"/>
<path d="M20.38 57.62H19.23V61.08H20.38V57.62Z" fill="black"/>
<path d="M20.38 62.24H19.23V66.85H20.38V62.24Z" fill="black"/>
<path d="M20.38 68H19.23V70.31H20.38V68Z" fill="black"/>
<path d="M20.38 74.93H19.23V76.08H20.38V74.93Z" fill="black"/>
<path d="M20.38 77.23H19.23V78.38H20.38V77.23Z" fill="black"/>
<path d="M21.53 8.01001H20.38V12.62H21.53V8.01001Z" fill="black"/>
<path d="M21.53 13.78H20.38V18.39H21.53V13.78Z" fill="black"/>
<path d="M21.53 20.7H20.38V23.01H21.53V20.7Z" fill="black"/>
<path d="M21.53 25.32H20.38V27.63H21.53V25.32Z" fill="black"/>
<path d="M21.53 28.78H20.38V29.93H21.53V28.78Z" fill="black"/>
<path d="M21.53 31.09H20.38V32.24H21.53V31.09Z" fill="black"/>
<path d="M21.53 34.55H20.38V36.86H21.53V34.55Z" fill="black"/>
<path d="M21.53 42.62H20.38V43.77H21.53V42.62Z" fill="black"/>
<path d="M21.53 44.93H20.38V48.39H21.53V44.93Z" fill="black"/>
<path d="M21.53 49.55H20.38V50.7H21.53V49.55Z" fill="black"/>
<path d="M21.53 54.16H20.38V56.47H21.53V54.16Z" fill="black"/>
<path d="M21.53 58.78H20.38V63.39H21.53V58.78Z" fill="black"/>
<path d="M21.53 64.54H20.38V65.69H21.53V64.54Z" fill="black"/>
<path d="M21.53 66.85H20.38V69.16H21.53V66.85Z" fill="black"/>
<path d="M21.53 70.31H20.38V72.62H21.53V70.31Z" fill="black"/>
<path d="M21.53 77.23H20.38V78.38H21.53V77.23Z" fill="black"/>
<path d="M22.68 10.32H21.53V11.47H22.68V10.32Z" fill="black"/>
<path d="M22.68 12.63H21.53V13.78H22.68V12.63Z" fill="black"/>
<path d="M22.68 16.09H21.53V19.55H22.68V16.09Z" fill="black"/>
<path d="M22.68 21.86H21.53V23.01H22.68V21.86Z" fill="black"/>
<path d="M22.68 24.17H21.53V26.48H22.68V24.17Z" fill="black"/>
<path d="M22.68 27.63H21.53V29.94H22.68V27.63Z" fill="black"/>
<path d="M22.68 31.09H21.53V32.24H22.68V31.09Z" fill="black"/>
<path d="M22.68 34.55H21.53V35.7H22.68V34.55Z" fill="black"/>
<path d="M22.68 36.86H21.53V39.17H22.68V36.86Z" fill="black"/>
<path d="M22.68 41.47H21.53V42.62H22.68V41.47Z" fill="black"/>
<path d="M22.68 43.78H21.53V46.09H22.68V43.78Z" fill="black"/>
<path d="M22.68 48.39H21.53V51.85H22.68V48.39Z" fill="black"/>
<path d="M22.68 54.16H21.53V56.47H22.68V54.16Z" fill="black"/>
<path d="M22.68 57.62H21.53V59.93H22.68V57.62Z" fill="black"/>
<path d="M22.68 64.54H21.53V66.85H22.68V64.54Z" fill="black"/>
<path d="M22.68 69.16H21.53V72.62H22.68V69.16Z" fill="black"/>
<path d="M22.68 73.77H21.53V78.38H22.68V73.77Z" fill="black"/>
<path d="M23.84 8.01001H22.69V12.62H23.84V8.01001Z" fill="black"/>
<path d="M23.84 13.78H22.69V16.09H23.84V13.78Z" fill="black"/>
<path d="M23.84 17.24H22.69V19.55H23.84V17.24Z" fill="black"/>
<path d="M23.84 20.7H22.69V25.31H23.84V20.7Z" fill="black"/>
<path d="M23.84 27.63H22.69V28.78H23.84V27.63Z" fill="black"/>
<path d="M23.84 29.93H22.69V31.08H23.84V29.93Z" fill="black"/>
<path d="M23.84 32.24H22.69V35.7H23.84V32.24Z" fill="black"/>
<path d="M23.84 41.47H22.69V43.78H23.84V41.47Z" fill="black"/>
<path d="M23.84 44.93H22.69V51.85H23.84V44.93Z" fill="black"/>
<path d="M23.84 58.78H22.69V59.93H23.84V58.78Z" fill="black"/>
<path d="M23.84 61.08H22.69V62.23H23.84V61.08Z" fill="black"/>
<path d="M23.84 63.39H22.69V68H23.84V63.39Z" fill="black"/>
<path d="M23.84 69.16H22.69V71.47H23.84V69.16Z" fill="black"/>
<path d="M23.84 72.62H22.69V73.77H23.84V72.62Z" fill="black"/>
<path d="M23.84 77.23H22.69V78.38H23.84V77.23Z" fill="black"/>
<path d="M24.99 9.16998H23.84V11.48H24.99V9.16998Z" fill="black"/>
<path d="M24.99 12.63H23.84V13.78H24.99V12.63Z" fill="black"/>
<path d="M24.99 18.4H23.84V19.55H24.99V18.4Z" fill="black"/>
<path d="M24.99 20.7H23.84V25.31H24.99V20.7Z" fill="black"/>
<path d="M24.99 26.47H23.84V28.78H24.99V26.47Z" fill="black"/>
<path d="M24.99 29.93H23.84V31.08H24.99V29.93Z" fill="black"/>
<path d="M24.99 33.39H23.84V34.54H24.99V33.39Z" fill="black"/>
<path d="M24.99 35.7H23.84V38.01H24.99V35.7Z" fill="black"/>
<path d="M24.99 40.32H23.84V41.47H24.99V40.32Z" fill="black"/>
<path d="M24.99 43.78H23.84V46.09H24.99V43.78Z" fill="black"/>
<path d="M24.99 48.39H23.84V50.7H24.99V48.39Z" fill="black"/>
<path d="M24.99 51.85H23.84V56.46H24.99V51.85Z" fill="black"/>
<path d="M24.99 57.62H23.84V58.77H24.99V57.62Z" fill="black"/>
<path d="M24.99 59.93H23.84V62.24H24.99V59.93Z" fill="black"/>
<path d="M24.99 63.39H23.84V65.7H24.99V63.39Z" fill="black"/>
<path d="M24.99 66.85H23.84V69.16H24.99V66.85Z" fill="black"/>
<path d="M24.99 70.31H23.84V72.62H24.99V70.31Z" fill="black"/>
<path d="M24.99 73.77H23.84V74.92H24.99V73.77Z" fill="black"/>
<path d="M24.99 76.08H23.84V78.39H24.99V76.08Z" fill="black"/>
<path d="M26.14 8.01001H24.99V11.47H26.14V8.01001Z" fill="black"/>
<path d="M26.14 12.63H24.99V13.78H26.14V12.63Z" fill="black"/>
<path d="M26.14 14.94H24.99V17.25H26.14V14.94Z" fill="black"/>
<path d="M26.14 18.4H24.99V20.71H26.14V18.4Z" fill="black"/>
<path d="M26.14 23.01H24.99V24.16H26.14V23.01Z" fill="black"/>
<path d="M26.14 25.32H24.99V26.47H26.14V25.32Z" fill="black"/>
<path d="M26.14 33.39H24.99V34.54H26.14V33.39Z" fill="black"/>
<path d="M26.14 39.16H24.99V40.31H26.14V39.16Z" fill="black"/>
<path d="M26.14 41.47H24.99V47.24H26.14V41.47Z" fill="black"/>
<path d="M26.14 49.55H24.99V55.32H26.14V49.55Z" fill="black"/>
<path d="M26.14 56.47H24.99V61.08H26.14V56.47Z" fill="black"/>
<path d="M26.14 63.39H24.99V65.7H26.14V63.39Z" fill="black"/>
<path d="M26.14 69.16H24.99V70.31H26.14V69.16Z" fill="black"/>
<path d="M26.14 73.77H24.99V78.38H26.14V73.77Z" fill="black"/>
<path d="M27.3 8.01001H26.15V9.16003H27.3V8.01001Z" fill="black"/>
<path d="M27.3 11.48H26.15V12.63H27.3V11.48Z" fill="black"/>
<path d="M27.3 18.4H26.15V20.71H27.3V18.4Z" fill="black"/>
<path d="M27.3 21.86H26.15V24.17H27.3V21.86Z" fill="black"/>
<path d="M27.3 25.32H26.15V26.47H27.3V25.32Z" fill="black"/>
<path d="M27.3 28.78H26.15V31.09H27.3V28.78Z" fill="black"/>
<path d="M27.3 32.24H26.15V33.39H27.3V32.24Z" fill="black"/>
<path d="M27.3 34.55H26.15V38.01H27.3V34.55Z" fill="black"/>
<path d="M27.3 39.16H26.15V40.31H27.3V39.16Z" fill="black"/>
<path d="M27.3 43.78H26.15V49.55H27.3V43.78Z" fill="black"/>
<path d="M27.3 54.16H26.15V55.31H27.3V54.16Z" fill="black"/>
<path d="M27.3 56.47H26.15V61.08H27.3V56.47Z" fill="black"/>
<path d="M27.3 62.24H26.15V63.39H27.3V62.24Z" fill="black"/>
<path d="M27.3 68H26.15V69.15H27.3V68Z" fill="black"/>
<path d="M27.3 72.62H26.15V73.77H27.3V72.62Z" fill="black"/>
<path d="M27.3 74.93H26.15V76.08H27.3V74.93Z" fill="black"/>
<path d="M28.45 8.01001H27.3V9.16003H28.45V8.01001Z" fill="black"/>
<path d="M28.45 10.32H27.3V13.78H28.45V10.32Z" fill="black"/>
<path d="M28.45 14.94H27.3V16.09H28.45V14.94Z" fill="black"/>
<path d="M28.45 21.86H27.3V23.01H28.45V21.86Z" fill="black"/>
<path d="M28.45 25.32H27.3V27.63H28.45V25.32Z" fill="black"/>
<path d="M28.45 28.78H27.3V32.24H28.45V28.78Z" fill="black"/>
<path d="M28.45 34.55H27.3V35.7H28.45V34.55Z" fill="black"/>
<path d="M28.45 38.01H27.3V39.16H28.45V38.01Z" fill="black"/>
<path d="M28.45 40.32H27.3V43.78H28.45V40.32Z" fill="black"/>
<path d="M28.45 46.09H27.3V48.4H28.45V46.09Z" fill="black"/>
<path d="M28.45 49.55H27.3V50.7H28.45V49.55Z" fill="black"/>
<path d="M28.45 55.31H27.3V56.46H28.45V55.31Z" fill="black"/>
<path d="M28.45 59.93H27.3V61.08H28.45V59.93Z" fill="black"/>
<path d="M28.45 68H27.3V69.15H28.45V68Z" fill="black"/>
<path d="M28.45 70.31H27.3V72.62H28.45V70.31Z" fill="black"/>
<path d="M28.45 76.08H27.3V77.23H28.45V76.08Z" fill="black"/>
<path d="M29.61 8.01001H28.46V9.16003H29.61V8.01001Z" fill="black"/>
<path d="M29.61 10.32H28.46V11.47H29.61V10.32Z" fill="black"/>
<path d="M29.61 12.63H28.46V14.94H29.61V12.63Z" fill="black"/>
<path d="M29.61 16.09H28.46V17.24H29.61V16.09Z" fill="black"/>
<path d="M29.61 18.4H28.46V21.86H29.61V18.4Z" fill="black"/>
<path d="M29.61 23.01H28.46V26.47H29.61V23.01Z" fill="black"/>
<path d="M29.61 29.93H28.46V31.08H29.61V29.93Z" fill="black"/>
<path d="M29.61 32.24H28.46V33.39H29.61V32.24Z" fill="black"/>
<path d="M29.61 35.7H28.46V42.62H29.61V35.7Z" fill="black"/>
<path d="M29.61 46.09H28.46V48.4H29.61V46.09Z" fill="black"/>
<path d="M29.61 51.85H28.46V54.16H29.61V51.85Z" fill="black"/>
<path d="M29.61 56.47H28.46V57.62H29.61V56.47Z" fill="black"/>
<path d="M29.61 61.08H28.46V64.54H29.61V61.08Z" fill="black"/>
<path d="M29.61 68H28.46V74.92H29.61V68Z" fill="black"/>
<path d="M29.61 77.23H28.46V78.38H29.61V77.23Z" fill="black"/>
<path d="M30.76 8.01001H29.61V11.47H30.76V8.01001Z" fill="black"/>
<path d="M30.76 14.94H29.61V16.09H30.76V14.94Z" fill="black"/>
<path d="M30.76 17.24H29.61V24.16H30.76V17.24Z" fill="black"/>
<path d="M30.76 29.93H29.61V33.39H30.76V29.93Z" fill="black"/>
<path d="M30.76 36.86H29.61V39.17H30.76V36.86Z" fill="black"/>
<path d="M30.76 42.62H29.61V43.77H30.76V42.62Z" fill="black"/>
<path d="M30.76 44.93H29.61V47.24H30.76V44.93Z" fill="black"/>
<path d="M30.76 48.39H29.61V54.16H30.76V48.39Z" fill="black"/>
<path d="M30.76 55.31H29.61V57.62H30.76V55.31Z" fill="black"/>
<path d="M30.76 58.78H29.61V61.09H30.76V58.78Z" fill="black"/>
<path d="M30.76 62.24H29.61V63.39H30.76V62.24Z" fill="black"/>
<path d="M30.76 65.7H29.61V66.85H30.76V65.7Z" fill="black"/>
<path d="M30.76 68H29.61V70.31H30.76V68Z" fill="black"/>
<path d="M30.76 77.23H29.61V78.38H30.76V77.23Z" fill="black"/>
<path d="M31.91 8.01001H30.76V10.32H31.91V8.01001Z" fill="black"/>
<path d="M31.91 11.48H30.76V12.63H31.91V11.48Z" fill="black"/>
<path d="M31.91 13.78H30.76V14.93H31.91V13.78Z" fill="black"/>
<path d="M31.91 16.09H30.76V17.24H31.91V16.09Z" fill="black"/>
<path d="M31.91 19.55H30.76V20.7H31.91V19.55Z" fill="black"/>
<path d="M31.91 24.17H30.76V25.32H31.91V24.17Z" fill="black"/>
<path d="M31.91 26.47H30.76V29.93H31.91V26.47Z" fill="black"/>
<path d="M31.91 31.09H30.76V32.24H31.91V31.09Z" fill="black"/>
<path d="M31.91 33.39H30.76V35.7H31.91V33.39Z" fill="black"/>
<path d="M31.91 36.86H30.76V39.17H31.91V36.86Z" fill="black"/>
<path d="M31.91 41.47H30.76V46.08H31.91V41.47Z" fill="black"/>
<path d="M31.91 53.01H30.76V55.32H31.91V53.01Z" fill="black"/>
<path d="M31.91 56.47H30.76V62.24H31.91V56.47Z" fill="black"/>
<path d="M31.91 65.7H30.76V66.85H31.91V65.7Z" fill="black"/>
<path d="M31.91 69.16H30.76V70.31H31.91V69.16Z" fill="black"/>
<path d="M31.91 74.93H30.76V76.08H31.91V74.93Z" fill="black"/>
<path d="M31.91 77.23H30.76V78.38H31.91V77.23Z" fill="black"/>
<path d="M33.07 12.63H31.92V17.24H33.07V12.63Z" fill="black"/>
<path d="M33.07 19.55H31.92V23.01H33.07V19.55Z" fill="black"/>
<path d="M33.07 25.32H31.92V26.47H33.07V25.32Z" fill="black"/>
<path d="M33.07 27.63H31.92V28.78H33.07V27.63Z" fill="black"/>
<path d="M33.07 31.09H31.92V32.24H33.07V31.09Z" fill="black"/>
<path d="M33.07 38.01H31.92V39.16H33.07V38.01Z" fill="black"/>
<path d="M33.07 48.39H31.92V50.7H33.07V48.39Z" fill="black"/>
<path d="M33.07 54.16H31.92V55.31H33.07V54.16Z" fill="black"/>
<path d="M33.07 56.47H31.92V59.93H33.07V56.47Z" fill="black"/>
<path d="M33.07 62.24H31.92V63.39H33.07V62.24Z" fill="black"/>
<path d="M33.07 65.7H31.92V68.01H33.07V65.7Z" fill="black"/>
<path d="M33.07 71.47H31.92V72.62H33.07V71.47Z" fill="black"/>
<path d="M33.07 74.93H31.92V76.08H33.07V74.93Z" fill="black"/>
<path d="M33.07 77.23H31.92V78.38H33.07V77.23Z" fill="black"/>
<path d="M34.22 8.01001H33.07V9.16003H34.22V8.01001Z" fill="black"/>
<path d="M34.22 10.32H33.07V11.47H34.22V10.32Z" fill="black"/>
<path d="M34.22 13.78H33.07V14.93H34.22V13.78Z" fill="black"/>
<path d="M34.22 18.4H33.07V21.86H34.22V18.4Z" fill="black"/>
<path d="M34.22 23.01H33.07V27.62H34.22V23.01Z" fill="black"/>
<path d="M34.22 28.78H33.07V31.09H34.22V28.78Z" fill="black"/>
<path d="M34.22 32.24H33.07V35.7H34.22V32.24Z" fill="black"/>
<path d="M34.22 36.86H33.07V38.01H34.22V36.86Z" fill="black"/>
<path d="M34.22 41.47H33.07V43.78H34.22V41.47Z" fill="black"/>
<path d="M34.22 44.93H33.07V49.54H34.22V44.93Z" fill="black"/>
<path d="M34.22 50.7H33.07V54.16H34.22V50.7Z" fill="black"/>
<path d="M34.22 55.31H33.07V56.46H34.22V55.31Z" fill="black"/>
<path d="M34.22 58.78H33.07V59.93H34.22V58.78Z" fill="black"/>
<path d="M34.22 62.24H33.07V63.39H34.22V62.24Z" fill="black"/>
<path d="M34.22 64.54H33.07V65.69H34.22V64.54Z" fill="black"/>
<path d="M34.22 66.85H33.07V69.16H34.22V66.85Z" fill="black"/>
<path d="M34.22 70.31H33.07V72.62H34.22V70.31Z" fill="black"/>
<path d="M34.22 73.77H33.07V74.92H34.22V73.77Z" fill="black"/>
<path d="M34.22 76.08H33.07V77.23H34.22V76.08Z" fill="black"/>
<path d="M35.37 10.32H34.22V11.47H35.37V10.32Z" fill="black"/>
<path d="M35.37 12.63H34.22V13.78H35.37V12.63Z" fill="black"/>
<path d="M35.37 14.94H34.22V21.86H35.37V14.94Z" fill="black"/>
<path d="M35.37 23.01H34.22V24.16H35.37V23.01Z" fill="black"/>
<path d="M35.37 25.32H34.22V27.63H35.37V25.32Z" fill="black"/>
<path d="M35.37 28.78H34.22V29.93H35.37V28.78Z" fill="black"/>
<path d="M35.37 31.09H34.22V39.17H35.37V31.09Z" fill="black"/>
<path d="M35.37 40.32H34.22V42.63H35.37V40.32Z" fill="black"/>
<path d="M35.37 43.78H34.22V44.93H35.37V43.78Z" fill="black"/>
<path d="M35.37 47.24H34.22V51.85H35.37V47.24Z" fill="black"/>
<path d="M35.37 53.01H34.22V54.16H35.37V53.01Z" fill="black"/>
<path d="M35.37 57.62H34.22V61.08H35.37V57.62Z" fill="black"/>
<path d="M35.37 62.24H34.22V64.55H35.37V62.24Z" fill="black"/>
<path d="M35.37 65.7H34.22V68.01H35.37V65.7Z" fill="black"/>
<path d="M35.37 70.31H34.22V72.62H35.37V70.31Z" fill="black"/>
<path d="M35.37 73.77H34.22V77.23H35.37V73.77Z" fill="black"/>
<path d="M36.53 9.16998H35.38V12.63H36.53V9.16998Z" fill="black"/>
<path d="M36.53 13.78H35.38V14.93H36.53V13.78Z" fill="black"/>
<path d="M36.53 16.09H35.38V18.4H36.53V16.09Z" fill="black"/>
<path d="M36.53 20.7H35.38V23.01H36.53V20.7Z" fill="black"/>
<path d="M36.53 24.17H35.38V27.63H36.53V24.17Z" fill="black"/>
<path d="M36.53 28.78H35.38V29.93H36.53V28.78Z" fill="black"/>
<path d="M36.53 31.09H35.38V32.24H36.53V31.09Z" fill="black"/>
<path d="M36.53 33.39H35.38V34.54H36.53V33.39Z" fill="black"/>
<path d="M36.53 36.86H35.38V38.01H36.53V36.86Z" fill="black"/>
<path d="M36.53 39.16H35.38V40.31H36.53V39.16Z" fill="black"/>
<path d="M36.53 41.47H35.38V42.62H36.53V41.47Z" fill="black"/>
<path d="M36.53 43.78H35.38V48.39H36.53V43.78Z" fill="black"/>
<path d="M36.53 50.7H35.38V51.85H36.53V50.7Z" fill="black"/>
<path d="M36.53 54.16H35.38V55.31H36.53V54.16Z" fill="black"/>
<path d="M36.53 56.47H35.38V57.62H36.53V56.47Z" fill="black"/>
<path d="M36.53 59.93H35.38V61.08H36.53V59.93Z" fill="black"/>
<path d="M36.53 64.54H35.38V65.69H36.53V64.54Z" fill="black"/>
<path d="M36.53 66.85H35.38V70.31H36.53V66.85Z" fill="black"/>
<path d="M36.53 71.47H35.38V72.62H36.53V71.47Z" fill="black"/>
<path d="M36.53 73.77H35.38V74.92H36.53V73.77Z" fill="black"/>
<path d="M37.68 8.01001H36.53V11.47H37.68V8.01001Z" fill="black"/>
<path d="M37.68 13.78H36.53V17.24H37.68V13.78Z" fill="black"/>
<path d="M37.68 19.55H36.53V20.7H37.68V19.55Z" fill="black"/>
<path d="M37.68 21.86H36.53V24.17H37.68V21.86Z" fill="black"/>
<path d="M37.68 25.32H36.53V28.78H37.68V25.32Z" fill="black"/>
<path d="M37.68 31.09H36.53V33.4H37.68V31.09Z" fill="black"/>
<path d="M37.68 34.55H36.53V36.86H37.68V34.55Z" fill="black"/>
<path d="M37.68 41.47H36.53V42.62H37.68V41.47Z" fill="black"/>
<path d="M37.68 46.09H36.53V48.4H37.68V46.09Z" fill="black"/>
<path d="M37.68 50.7H36.53V51.85H37.68V50.7Z" fill="black"/>
<path d="M37.68 54.16H36.53V61.08H37.68V54.16Z" fill="black"/>
<path d="M37.68 62.24H36.53V63.39H37.68V62.24Z" fill="black"/>
<path d="M37.68 64.54H36.53V70.31H37.68V64.54Z" fill="black"/>
<path d="M37.68 72.62H36.53V74.93H37.68V72.62Z" fill="black"/>
<path d="M37.68 76.08H36.53V78.39H37.68V76.08Z" fill="black"/>
<path d="M38.84 8.01001H37.69V10.32H38.84V8.01001Z" fill="black"/>
<path d="M38.84 11.48H37.69V14.94H38.84V11.48Z" fill="black"/>
<path d="M38.84 16.09H37.69V17.24H38.84V16.09Z" fill="black"/>
<path d="M38.84 18.4H37.69V20.71H38.84V18.4Z" fill="black"/>
<path d="M38.84 21.86H37.69V25.32H38.84V21.86Z" fill="black"/>
<path d="M38.84 26.47H37.69V27.62H38.84V26.47Z" fill="black"/>
<path d="M38.84 28.78H37.69V29.93H38.84V28.78Z" fill="black"/>
<path d="M38.84 31.09H37.69V32.24H38.84V31.09Z" fill="black"/>
<path d="M38.84 34.55H37.69V35.7H38.84V34.55Z" fill="black"/>
<path d="M38.84 40.32H37.69V41.47H38.84V40.32Z" fill="black"/>
<path d="M38.84 43.78H37.69V48.39H38.84V43.78Z" fill="black"/>
<path d="M38.84 49.55H37.69V51.86H38.84V49.55Z" fill="black"/>
<path d="M38.84 53.01H37.69V54.16H38.84V53.01Z" fill="black"/>
<path d="M38.84 55.31H37.69V58.77H38.84V55.31Z" fill="black"/>
<path d="M38.84 59.93H37.69V62.24H38.84V59.93Z" fill="black"/>
<path d="M38.84 63.39H37.69V64.54H38.84V63.39Z" fill="black"/>
<path d="M38.84 66.85H37.69V69.16H38.84V66.85Z" fill="black"/>
<path d="M38.84 71.47H37.69V76.08H38.84V71.47Z" fill="black"/>
<path d="M38.84 77.23H37.69V78.38H38.84V77.23Z" fill="black"/>
<path d="M39.99 12.63H38.84V13.78H39.99V12.63Z" fill="black"/>
<path d="M39.99 14.94H38.84V16.09H39.99V14.94Z" fill="black"/>
<path d="M39.99 18.4H38.84V19.55H39.99V18.4Z" fill="black"/>
<path d="M39.99 20.7H38.84V21.85H39.99V20.7Z" fill="black"/>
<path d="M39.99 24.17H38.84V25.32H39.99V24.17Z" fill="black"/>
<path d="M39.99 28.78H38.84V32.24H39.99V28.78Z" fill="black"/>
<path d="M39.99 34.55H38.84V35.7H39.99V34.55Z" fill="black"/>
<path d="M39.99 36.86H38.84V38.01H39.99V36.86Z" fill="black"/>
<path d="M39.99 39.16H38.84V40.31H39.99V39.16Z" fill="black"/>
<path d="M39.99 42.62H38.84V43.77H39.99V42.62Z" fill="black"/>
<path d="M39.99 46.09H38.84V47.24H39.99V46.09Z" fill="black"/>
<path d="M39.99 56.47H38.84V58.78H39.99V56.47Z" fill="black"/>
<path d="M39.99 59.93H38.84V62.24H39.99V59.93Z" fill="black"/>
<path d="M39.99 64.54H38.84V65.69H39.99V64.54Z" fill="black"/>
<path d="M39.99 66.85H38.84V68H39.99V66.85Z" fill="black"/>
<path d="M39.99 69.16H38.84V71.47H39.99V69.16Z" fill="black"/>
<path d="M39.99 73.77H38.84V78.38H39.99V73.77Z" fill="black"/>
<path d="M41.14 8.01001H39.99V9.16003H41.14V8.01001Z" fill="black"/>
<path d="M41.14 10.32H39.99V12.63H41.14V10.32Z" fill="black"/>
<path d="M41.14 13.78H39.99V14.93H41.14V13.78Z" fill="black"/>
<path d="M41.14 16.09H39.99V17.24H41.14V16.09Z" fill="black"/>
<path d="M41.14 18.4H39.99V20.71H41.14V18.4Z" fill="black"/>
<path d="M41.14 23.01H39.99V25.32H41.14V23.01Z" fill="black"/>
<path d="M41.14 28.78H39.99V29.93H41.14V28.78Z" fill="black"/>
<path d="M41.14 32.24H39.99V34.55H41.14V32.24Z" fill="black"/>
<path d="M41.14 35.7H39.99V36.85H41.14V35.7Z" fill="black"/>
<path d="M41.14 39.16H39.99V40.31H41.14V39.16Z" fill="black"/>
<path d="M41.14 41.47H39.99V43.78H41.14V41.47Z" fill="black"/>
<path d="M41.14 44.93H39.99V48.39H41.14V44.93Z" fill="black"/>
<path d="M41.14 49.55H39.99V50.7H41.14V49.55Z" fill="black"/>
<path d="M41.14 51.85H39.99V54.16H41.14V51.85Z" fill="black"/>
<path d="M41.14 56.47H39.99V57.62H41.14V56.47Z" fill="black"/>
<path d="M41.14 59.93H39.99V68.01H41.14V59.93Z" fill="black"/>
<path d="M41.14 71.47H39.99V74.93H41.14V71.47Z" fill="black"/>
<path d="M41.14 77.23H39.99V78.38H41.14V77.23Z" fill="black"/>
<path d="M42.3 12.63H41.15V18.4H42.3V12.63Z" fill="black"/>
<path d="M42.3 19.55H41.15V20.7H42.3V19.55Z" fill="black"/>
<path d="M42.3 21.86H41.15V24.17H42.3V21.86Z" fill="black"/>
<path d="M42.3 27.63H41.15V29.94H42.3V27.63Z" fill="black"/>
<path d="M42.3 34.55H41.15V39.16H42.3V34.55Z" fill="black"/>
<path d="M42.3 40.32H41.15V47.24H42.3V40.32Z" fill="black"/>
<path d="M42.3 50.7H41.15V53.01H42.3V50.7Z" fill="black"/>
<path d="M42.3 55.31H41.15V59.92H42.3V55.31Z" fill="black"/>
<path d="M42.3 61.08H41.15V62.23H42.3V61.08Z" fill="black"/>
<path d="M42.3 64.54H41.15V73.77H42.3V64.54Z" fill="black"/>
<path d="M42.3 76.08H41.15V77.23H42.3V76.08Z" fill="black"/>
<path d="M43.45 8.01001H42.3V13.78H43.45V8.01001Z" fill="black"/>
<path d="M43.45 17.24H42.3V19.55H43.45V17.24Z" fill="black"/>
<path d="M43.45 20.7H42.3V24.16H43.45V20.7Z" fill="black"/>
<path d="M43.45 25.32H42.3V26.47H43.45V25.32Z" fill="black"/>
<path d="M43.45 29.93H42.3V31.08H43.45V29.93Z" fill="black"/>
<path d="M43.45 33.39H42.3V34.54H43.45V33.39Z" fill="black"/>
<path d="M43.45 35.7H42.3V36.85H43.45V35.7Z" fill="black"/>
<path d="M43.45 39.16H42.3V41.47H43.45V39.16Z" fill="black"/>
<path d="M43.45 44.93H42.3V46.08H43.45V44.93Z" fill="black"/>
<path d="M43.45 48.39H42.3V51.85H43.45V48.39Z" fill="black"/>
<path d="M43.45 53.01H42.3V57.62H43.45V53.01Z" fill="black"/>
<path d="M43.45 58.78H42.3V59.93H43.45V58.78Z" fill="black"/>
<path d="M43.45 61.08H42.3V62.23H43.45V61.08Z" fill="black"/>
<path d="M43.45 63.39H42.3V64.54H43.45V63.39Z" fill="black"/>
<path d="M43.45 65.7H42.3V66.85H43.45V65.7Z" fill="black"/>
<path d="M43.45 68H42.3V69.15H43.45V68Z" fill="black"/>
<path d="M43.45 72.62H42.3V74.93H43.45V72.62Z" fill="black"/>
<path d="M44.6 8.01001H43.45V11.47H44.6V8.01001Z" fill="black"/>
<path d="M44.6 12.63H43.45V13.78H44.6V12.63Z" fill="black"/>
<path d="M44.6 14.94H43.45V16.09H44.6V14.94Z" fill="black"/>
<path d="M44.6 17.24H43.45V23.01H44.6V17.24Z" fill="black"/>
<path d="M44.6 25.32H43.45V26.47H44.6V25.32Z" fill="black"/>
<path d="M44.6 28.78H43.45V31.09H44.6V28.78Z" fill="black"/>
<path d="M44.6 32.24H43.45V41.47H44.6V32.24Z" fill="black"/>
<path d="M44.6 42.62H43.45V43.77H44.6V42.62Z" fill="black"/>
<path d="M44.6 44.93H43.45V46.08H44.6V44.93Z" fill="black"/>
<path d="M44.6 48.39H43.45V50.7H44.6V48.39Z" fill="black"/>
<path d="M44.6 53.01H43.45V55.32H44.6V53.01Z" fill="black"/>
<path d="M44.6 56.47H43.45V59.93H44.6V56.47Z" fill="black"/>
<path d="M44.6 64.54H43.45V65.69H44.6V64.54Z" fill="black"/>
<path d="M44.6 66.85H43.45V69.16H44.6V66.85Z" fill="black"/>
<path d="M44.6 70.31H43.45V71.46H44.6V70.31Z" fill="black"/>
<path d="M44.6 72.62H43.45V74.93H44.6V72.62Z" fill="black"/>
<path d="M44.6 76.08H43.45V78.39H44.6V76.08Z" fill="black"/>
<path d="M45.76 9.16998H44.61V10.32H45.76V9.16998Z" fill="black"/>
<path d="M45.76 11.48H44.61V13.79H45.76V11.48Z" fill="black"/>
<path d="M45.76 17.24H44.61V18.39H45.76V17.24Z" fill="black"/>
<path d="M45.76 19.55H44.61V20.7H45.76V19.55Z" fill="black"/>
<path d="M45.76 24.17H44.61V25.32H45.76V24.17Z" fill="black"/>
<path d="M45.76 28.78H44.61V31.09H45.76V28.78Z" fill="black"/>
<path d="M45.76 32.24H44.61V38.01H45.76V32.24Z" fill="black"/>
<path d="M45.76 39.16H44.61V41.47H45.76V39.16Z" fill="black"/>
<path d="M45.76 44.93H44.61V46.08H45.76V44.93Z" fill="black"/>
<path d="M45.76 47.24H44.61V49.55H45.76V47.24Z" fill="black"/>
<path d="M45.76 53.01H44.61V54.16H45.76V53.01Z" fill="black"/>
<path d="M45.76 57.62H44.61V58.77H45.76V57.62Z" fill="black"/>
<path d="M45.76 61.08H44.61V65.69H45.76V61.08Z" fill="black"/>
<path d="M45.76 66.85H44.61V69.16H45.76V66.85Z" fill="black"/>
<path d="M45.76 72.62H44.61V73.77H45.76V72.62Z" fill="black"/>
<path d="M45.76 74.93H44.61V76.08H45.76V74.93Z" fill="black"/>
<path d="M45.76 77.23H44.61V78.38H45.76V77.23Z" fill="black"/>
<path d="M46.91 9.16998H45.76V19.55H46.91V9.16998Z" fill="black"/>
<path d="M46.91 20.7H45.76V23.01H46.91V20.7Z" fill="black"/>
<path d="M46.91 26.47H45.76V27.62H46.91V26.47Z" fill="black"/>
<path d="M46.91 29.93H45.76V31.08H46.91V29.93Z" fill="black"/>
<path d="M46.91 32.24H45.76V33.39H46.91V32.24Z" fill="black"/>
<path d="M46.91 34.55H45.76V36.86H46.91V34.55Z" fill="black"/>
<path d="M46.91 40.32H45.76V46.09H46.91V40.32Z" fill="black"/>
<path d="M46.91 49.55H45.76V50.7H46.91V49.55Z" fill="black"/>
<path d="M46.91 51.85H45.76V53H46.91V51.85Z" fill="black"/>
<path d="M46.91 54.16H45.76V56.47H46.91V54.16Z" fill="black"/>
<path d="M46.91 59.93H45.76V61.08H46.91V59.93Z" fill="black"/>
<path d="M46.91 64.54H45.76V65.69H46.91V64.54Z" fill="black"/>
<path d="M46.91 66.85H45.76V77.23H46.91V66.85Z" fill="black"/>
<path d="M48.06 10.32H46.91V11.47H48.06V10.32Z" fill="black"/>
<path d="M48.06 12.63H46.91V13.78H48.06V12.63Z" fill="black"/>
<path d="M48.06 16.09H46.91V17.24H48.06V16.09Z" fill="black"/>
<path d="M48.06 20.7H46.91V21.85H48.06V20.7Z" fill="black"/>
<path d="M48.06 24.17H46.91V27.63H48.06V24.17Z" fill="black"/>
<path d="M48.06 28.78H46.91V29.93H48.06V28.78Z" fill="black"/>
<path d="M48.06 32.24H46.91V33.39H48.06V32.24Z" fill="black"/>
<path d="M48.06 35.7H46.91V36.85H48.06V35.7Z" fill="black"/>
<path d="M48.06 38.01H46.91V39.16H48.06V38.01Z" fill="black"/>
<path d="M48.06 40.32H46.91V41.47H48.06V40.32Z" fill="black"/>
<path d="M48.06 42.62H46.91V43.77H48.06V42.62Z" fill="black"/>
<path d="M48.06 44.93H46.91V46.08H48.06V44.93Z" fill="black"/>
<path d="M48.06 48.39H46.91V49.54H48.06V48.39Z" fill="black"/>
<path d="M48.06 51.85H46.91V55.31H48.06V51.85Z" fill="black"/>
<path d="M48.06 57.62H46.91V58.77H48.06V57.62Z" fill="black"/>
<path d="M48.06 59.93H46.91V61.08H48.06V59.93Z" fill="black"/>
<path d="M48.06 65.7H46.91V69.16H48.06V65.7Z" fill="black"/>
<path d="M48.06 70.31H46.91V71.46H48.06V70.31Z" fill="black"/>
<path d="M48.06 72.62H46.91V73.77H48.06V72.62Z" fill="black"/>
<path d="M48.06 76.08H46.91V77.23H48.06V76.08Z" fill="black"/>
<path d="M49.22 14.94H48.07V16.09H49.22V14.94Z" fill="black"/>
<path d="M49.22 17.24H48.07V18.39H49.22V17.24Z" fill="black"/>
<path d="M49.22 19.55H48.07V23.01H49.22V19.55Z" fill="black"/>
<path d="M49.22 24.17H48.07V25.32H49.22V24.17Z" fill="black"/>
<path d="M49.22 26.47H48.07V27.62H49.22V26.47Z" fill="black"/>
<path d="M49.22 33.39H48.07V38H49.22V33.39Z" fill="black"/>
<path d="M49.22 42.62H48.07V43.77H49.22V42.62Z" fill="black"/>
<path d="M49.22 44.93H48.07V46.08H49.22V44.93Z" fill="black"/>
<path d="M49.22 48.39H48.07V50.7H49.22V48.39Z" fill="black"/>
<path d="M49.22 51.85H48.07V53H49.22V51.85Z" fill="black"/>
<path d="M49.22 54.16H48.07V55.31H49.22V54.16Z" fill="black"/>
<path d="M49.22 62.24H48.07V64.55H49.22V62.24Z" fill="black"/>
<path d="M49.22 65.7H48.07V69.16H49.22V65.7Z" fill="black"/>
<path d="M49.22 70.31H48.07V71.46H49.22V70.31Z" fill="black"/>
<path d="M49.22 72.62H48.07V73.77H49.22V72.62Z" fill="black"/>
<path d="M49.22 76.08H48.07V77.23H49.22V76.08Z" fill="black"/>
<path d="M50.37 8.01001H49.22V11.47H50.37V8.01001Z" fill="black"/>
<path d="M50.37 12.63H49.22V14.94H50.37V12.63Z" fill="black"/>
<path d="M50.37 17.24H49.22V18.39H50.37V17.24Z" fill="black"/>
<path d="M50.37 20.7H49.22V25.31H50.37V20.7Z" fill="black"/>
<path d="M50.37 26.47H49.22V27.62H50.37V26.47Z" fill="black"/>
<path d="M50.37 28.78H49.22V29.93H50.37V28.78Z" fill="black"/>
<path d="M50.37 31.09H49.22V33.4H50.37V31.09Z" fill="black"/>
<path d="M50.37 35.7H49.22V38.01H50.37V35.7Z" fill="black"/>
<path d="M50.37 39.16H49.22V40.31H50.37V39.16Z" fill="black"/>
<path d="M50.37 41.47H49.22V42.62H50.37V41.47Z" fill="black"/>
<path d="M50.37 43.78H49.22V47.24H50.37V43.78Z" fill="black"/>
<path d="M50.37 51.85H49.22V54.16H50.37V51.85Z" fill="black"/>
<path d="M50.37 58.78H49.22V61.09H50.37V58.78Z" fill="black"/>
<path d="M50.37 63.39H49.22V66.85H50.37V63.39Z" fill="black"/>
<path d="M50.37 68H49.22V71.46H50.37V68Z" fill="black"/>
<path d="M50.37 72.62H49.22V73.77H50.37V72.62Z" fill="black"/>
<path d="M50.37 74.93H49.22V78.39H50.37V74.93Z" fill="black"/>
<path d="M51.53 8.01001H50.38V9.16003H51.53V8.01001Z" fill="black"/>
<path d="M51.53 11.48H50.38V12.63H51.53V11.48Z" fill="black"/>
<path d="M51.53 13.78H50.38V18.39H51.53V13.78Z" fill="black"/>
<path d="M51.53 19.55H50.38V20.7H51.53V19.55Z" fill="black"/>
<path d="M51.53 21.86H50.38V26.47H51.53V21.86Z" fill="black"/>
<path d="M51.53 31.09H50.38V33.4H51.53V31.09Z" fill="black"/>
<path d="M51.53 35.7H50.38V36.85H51.53V35.7Z" fill="black"/>
<path d="M51.53 40.32H50.38V41.47H51.53V40.32Z" fill="black"/>
<path d="M51.53 44.93H50.38V46.08H51.53V44.93Z" fill="black"/>
<path d="M51.53 47.24H50.38V50.7H51.53V47.24Z" fill="black"/>
<path d="M51.53 51.85H50.38V53H51.53V51.85Z" fill="black"/>
<path d="M51.53 54.16H50.38V57.62H51.53V54.16Z" fill="black"/>
<path d="M51.53 58.78H50.38V59.93H51.53V58.78Z" fill="black"/>
<path d="M51.53 62.24H50.38V65.7H51.53V62.24Z" fill="black"/>
<path d="M51.53 68H50.38V69.15H51.53V68Z" fill="black"/>
<path d="M51.53 72.62H50.38V76.08H51.53V72.62Z" fill="black"/>
<path d="M51.53 77.23H50.38V78.38H51.53V77.23Z" fill="black"/>
<path d="M52.68 8.01001H51.53V9.16003H52.68V8.01001Z" fill="black"/>
<path d="M52.68 10.32H51.53V12.63H52.68V10.32Z" fill="black"/>
<path d="M52.68 17.24H51.53V19.55H52.68V17.24Z" fill="black"/>
<path d="M52.68 21.86H51.53V25.32H52.68V21.86Z" fill="black"/>
<path d="M52.68 26.47H51.53V29.93H52.68V26.47Z" fill="black"/>
<path d="M52.68 31.09H51.53V32.24H52.68V31.09Z" fill="black"/>
<path d="M52.68 33.39H51.53V35.7H52.68V33.39Z" fill="black"/>
<path d="M52.68 36.86H51.53V42.63H52.68V36.86Z" fill="black"/>
<path d="M52.68 46.09H51.53V49.55H52.68V46.09Z" fill="black"/>
<path d="M52.68 51.85H51.53V53H52.68V51.85Z" fill="black"/>
<path d="M52.68 54.16H51.53V57.62H52.68V54.16Z" fill="black"/>
<path d="M52.68 59.93H51.53V61.08H52.68V59.93Z" fill="black"/>
<path d="M52.68 62.24H51.53V64.55H52.68V62.24Z" fill="black"/>
<path d="M52.68 66.85H51.53V68H52.68V66.85Z" fill="black"/>
<path d="M52.68 69.16H51.53V70.31H52.68V69.16Z" fill="black"/>
<path d="M52.68 73.77H51.53V74.92H52.68V73.77Z" fill="black"/>
<path d="M52.68 77.23H51.53V78.38H52.68V77.23Z" fill="black"/>
<path d="M53.83 10.32H52.68V11.47H53.83V10.32Z" fill="black"/>
<path d="M53.83 13.78H52.68V16.09H53.83V13.78Z" fill="black"/>
<path d="M53.83 19.55H52.68V21.86H53.83V19.55Z" fill="black"/>
<path d="M53.83 24.17H52.68V26.48H53.83V24.17Z" fill="black"/>
<path d="M53.83 28.78H52.68V29.93H53.83V28.78Z" fill="black"/>
<path d="M53.83 31.09H52.68V32.24H53.83V31.09Z" fill="black"/>
<path d="M53.83 33.39H52.68V36.85H53.83V33.39Z" fill="black"/>
<path d="M53.83 38.01H52.68V39.16H53.83V38.01Z" fill="black"/>
<path d="M53.83 40.32H52.68V41.47H53.83V40.32Z" fill="black"/>
<path d="M53.83 42.62H52.68V43.77H53.83V42.62Z" fill="black"/>
<path d="M53.83 44.93H52.68V46.08H53.83V44.93Z" fill="black"/>
<path d="M53.83 47.24H52.68V48.39H53.83V47.24Z" fill="black"/>
<path d="M53.83 49.55H52.68V50.7H53.83V49.55Z" fill="black"/>
<path d="M53.83 51.85H52.68V53H53.83V51.85Z" fill="black"/>
<path d="M53.83 54.16H52.68V55.31H53.83V54.16Z" fill="black"/>
<path d="M53.83 61.08H52.68V62.23H53.83V61.08Z" fill="black"/>
<path d="M53.83 65.7H52.68V66.85H53.83V65.7Z" fill="black"/>
<path d="M53.83 70.31H52.68V71.46H53.83V70.31Z" fill="black"/>
<path d="M53.83 72.62H52.68V73.77H53.83V72.62Z" fill="black"/>
<path d="M53.83 76.08H52.68V77.23H53.83V76.08Z" fill="black"/>
<path d="M54.99 8.01001H53.84V11.47H54.99V8.01001Z" fill="black"/>
<path d="M54.99 12.63H53.84V13.78H54.99V12.63Z" fill="black"/>
<path d="M54.99 18.4H53.84V19.55H54.99V18.4Z" fill="black"/>
<path d="M54.99 20.7H53.84V21.85H54.99V20.7Z" fill="black"/>
<path d="M54.99 26.47H53.84V27.62H54.99V26.47Z" fill="black"/>
<path d="M54.99 29.93H53.84V31.08H54.99V29.93Z" fill="black"/>
<path d="M54.99 32.24H53.84V35.7H54.99V32.24Z" fill="black"/>
<path d="M54.99 38.01H53.84V39.16H54.99V38.01Z" fill="black"/>
<path d="M54.99 42.62H53.84V44.93H54.99V42.62Z" fill="black"/>
<path d="M54.99 46.09H53.84V47.24H54.99V46.09Z" fill="black"/>
<path d="M54.99 49.55H53.84V50.7H54.99V49.55Z" fill="black"/>
<path d="M54.99 51.85H53.84V53H54.99V51.85Z" fill="black"/>
<path d="M54.99 55.31H53.84V57.62H54.99V55.31Z" fill="black"/>
<path d="M54.99 61.08H53.84V62.23H54.99V61.08Z" fill="black"/>
<path d="M54.99 64.54H53.84V68H54.99V64.54Z" fill="black"/>
<path d="M54.99 71.47H53.84V72.62H54.99V71.47Z" fill="black"/>
<path d="M54.99 73.77H53.84V74.92H54.99V73.77Z" fill="black"/>
<path d="M54.99 76.08H53.84V77.23H54.99V76.08Z" fill="black"/>
<path d="M56.14 9.16998H54.99V11.48H56.14V9.16998Z" fill="black"/>
<path d="M56.14 14.94H54.99V16.09H56.14V14.94Z" fill="black"/>
<path d="M56.14 20.7H54.99V21.85H56.14V20.7Z" fill="black"/>
<path d="M56.14 23.01H54.99V24.16H56.14V23.01Z" fill="black"/>
<path d="M56.14 25.32H54.99V26.47H56.14V25.32Z" fill="black"/>
<path d="M56.14 28.78H54.99V31.09H56.14V28.78Z" fill="black"/>
<path d="M56.14 32.24H54.99V35.7H56.14V32.24Z" fill="black"/>
<path d="M56.14 36.86H54.99V38.01H56.14V36.86Z" fill="black"/>
<path d="M56.14 42.62H54.99V44.93H56.14V42.62Z" fill="black"/>
<path d="M56.14 46.09H54.99V49.55H56.14V46.09Z" fill="black"/>
<path d="M56.14 56.47H54.99V58.78H56.14V56.47Z" fill="black"/>
<path d="M56.14 61.08H54.99V62.23H56.14V61.08Z" fill="black"/>
<path d="M56.14 64.54H54.99V65.69H56.14V64.54Z" fill="black"/>
<path d="M56.14 66.85H54.99V68H56.14V66.85Z" fill="black"/>
<path d="M56.14 73.77H54.99V76.08H56.14V73.77Z" fill="black"/>
<path d="M57.29 9.16998H56.14V11.48H57.29V9.16998Z" fill="black"/>
<path d="M57.29 12.63H56.14V13.78H57.29V12.63Z" fill="black"/>
<path d="M57.29 16.09H56.14V19.55H57.29V16.09Z" fill="black"/>
<path d="M57.29 20.7H56.14V21.85H57.29V20.7Z" fill="black"/>
<path d="M57.29 23.01H56.14V24.16H57.29V23.01Z" fill="black"/>
<path d="M57.29 27.63H56.14V29.94H57.29V27.63Z" fill="black"/>
<path d="M57.29 31.09H56.14V32.24H57.29V31.09Z" fill="black"/>
<path d="M57.29 33.39H56.14V36.85H57.29V33.39Z" fill="black"/>
<path d="M57.29 38.01H56.14V41.47H57.29V38.01Z" fill="black"/>
<path d="M57.29 44.93H56.14V47.24H57.29V44.93Z" fill="black"/>
<path d="M57.29 49.55H56.14V51.86H57.29V49.55Z" fill="black"/>
<path d="M57.29 55.31H56.14V57.62H57.29V55.31Z" fill="black"/>
<path d="M57.29 58.78H56.14V61.09H57.29V58.78Z" fill="black"/>
<path d="M57.29 62.24H56.14V65.7H57.29V62.24Z" fill="black"/>
<path d="M57.29 66.85H56.14V68H57.29V66.85Z" fill="black"/>
<path d="M57.29 70.31H56.14V72.62H57.29V70.31Z" fill="black"/>
<path d="M57.29 73.77H56.14V76.08H57.29V73.77Z" fill="black"/>
<path d="M57.29 77.23H56.14V78.38H57.29V77.23Z" fill="black"/>
<path d="M58.45 8.01001H57.3V9.16003H58.45V8.01001Z" fill="black"/>
<path d="M58.45 10.32H57.3V16.09H58.45V10.32Z" fill="black"/>
<path d="M58.45 18.4H57.3V19.55H58.45V18.4Z" fill="black"/>
<path d="M58.45 23.01H57.3V24.16H58.45V23.01Z" fill="black"/>
<path d="M58.45 25.32H57.3V26.47H58.45V25.32Z" fill="black"/>
<path d="M58.45 27.63H57.3V28.78H58.45V27.63Z" fill="black"/>
<path d="M58.45 29.93H57.3V31.08H58.45V29.93Z" fill="black"/>
<path d="M58.45 32.24H57.3V33.39H58.45V32.24Z" fill="black"/>
<path d="M58.45 34.55H57.3V38.01H58.45V34.55Z" fill="black"/>
<path d="M58.45 40.32H57.3V42.63H58.45V40.32Z" fill="black"/>
<path d="M58.45 44.93H57.3V47.24H58.45V44.93Z" fill="black"/>
<path d="M58.45 49.55H57.3V54.16H58.45V49.55Z" fill="black"/>
<path d="M58.45 55.31H57.3V58.77H58.45V55.31Z" fill="black"/>
<path d="M58.45 59.93H57.3V62.24H58.45V59.93Z" fill="black"/>
<path d="M58.45 64.54H57.3V65.69H58.45V64.54Z" fill="black"/>
<path d="M58.45 69.16H57.3V70.31H58.45V69.16Z" fill="black"/>
<path d="M58.45 71.47H57.3V76.08H58.45V71.47Z" fill="black"/>
<path d="M58.45 77.23H57.3V78.38H58.45V77.23Z" fill="black"/>
<path d="M59.6 8.01001H58.45V9.16003H59.6V8.01001Z" fill="black"/>
<path d="M59.6 10.32H58.45V13.78H59.6V10.32Z" fill="black"/>
<path d="M59.6 17.24H58.45V19.55H59.6V17.24Z" fill="black"/>
<path d="M59.6 21.86H58.45V24.17H59.6V21.86Z" fill="black"/>
<path d="M59.6 25.32H58.45V29.93H59.6V25.32Z" fill="black"/>
<path d="M59.6 31.09H58.45V32.24H59.6V31.09Z" fill="black"/>
<path d="M59.6 33.39H58.45V36.85H59.6V33.39Z" fill="black"/>
<path d="M59.6 38.01H58.45V39.16H59.6V38.01Z" fill="black"/>
<path d="M59.6 40.32H58.45V41.47H59.6V40.32Z" fill="black"/>
<path d="M59.6 44.93H58.45V46.08H59.6V44.93Z" fill="black"/>
<path d="M59.6 47.24H58.45V48.39H59.6V47.24Z" fill="black"/>
<path d="M59.6 49.55H58.45V50.7H59.6V49.55Z" fill="black"/>
<path d="M59.6 51.85H58.45V53H59.6V51.85Z" fill="black"/>
<path d="M59.6 54.16H58.45V55.31H59.6V54.16Z" fill="black"/>
<path d="M59.6 58.78H58.45V61.09H59.6V58.78Z" fill="black"/>
<path d="M59.6 62.24H58.45V65.7H59.6V62.24Z" fill="black"/>
<path d="M59.6 69.16H58.45V70.31H59.6V69.16Z" fill="black"/>
<path d="M59.6 71.47H58.45V72.62H59.6V71.47Z" fill="black"/>
<path d="M59.6 73.77H58.45V76.08H59.6V73.77Z" fill="black"/>
<path d="M59.6 77.23H58.45V78.38H59.6V77.23Z" fill="black"/>
<path d="M60.75 9.16998H59.6V11.48H60.75V9.16998Z" fill="black"/>
<path d="M60.75 13.78H59.6V16.09H60.75V13.78Z" fill="black"/>
<path d="M60.75 19.55H59.6V21.86H60.75V19.55Z" fill="black"/>
<path d="M60.75 23.01H59.6V24.16H60.75V23.01Z" fill="black"/>
<path d="M60.75 28.78H59.6V31.09H60.75V28.78Z" fill="black"/>
<path d="M60.75 32.24H59.6V34.55H60.75V32.24Z" fill="black"/>
<path d="M60.75 36.86H59.6V38.01H60.75V36.86Z" fill="black"/>
<path d="M60.75 43.78H59.6V44.93H60.75V43.78Z" fill="black"/>
<path d="M60.75 46.09H59.6V48.4H60.75V46.09Z" fill="black"/>
<path d="M60.75 56.47H59.6V58.78H60.75V56.47Z" fill="black"/>
<path d="M60.75 61.08H59.6V63.39H60.75V61.08Z" fill="black"/>
<path d="M60.75 65.7H59.6V68.01H60.75V65.7Z" fill="black"/>
<path d="M60.75 70.31H59.6V72.62H60.75V70.31Z" fill="black"/>
<path d="M60.75 74.93H59.6V77.24H60.75V74.93Z" fill="black"/>
<path d="M61.91 9.16998H60.76V11.48H61.91V9.16998Z" fill="black"/>
<path d="M61.91 13.78H60.76V14.93H61.91V13.78Z" fill="black"/>
<path d="M61.91 16.09H60.76V17.24H61.91V16.09Z" fill="black"/>
<path d="M61.91 20.7H60.76V23.01H61.91V20.7Z" fill="black"/>
<path d="M61.91 24.17H60.76V25.32H61.91V24.17Z" fill="black"/>
<path d="M61.91 28.78H60.76V31.09H61.91V28.78Z" fill="black"/>
<path d="M61.91 33.39H60.76V34.54H61.91V33.39Z" fill="black"/>
<path d="M61.91 35.7H60.76V36.85H61.91V35.7Z" fill="black"/>
<path d="M61.91 42.62H60.76V44.93H61.91V42.62Z" fill="black"/>
<path d="M61.91 48.39H60.76V51.85H61.91V48.39Z" fill="black"/>
<path d="M61.91 54.16H60.76V55.31H61.91V54.16Z" fill="black"/>
<path d="M61.91 58.78H60.76V59.93H61.91V58.78Z" fill="black"/>
<path d="M61.91 61.08H60.76V62.23H61.91V61.08Z" fill="black"/>
<path d="M61.91 63.39H60.76V64.54H61.91V63.39Z" fill="black"/>
<path d="M61.91 65.7H60.76V66.85H61.91V65.7Z" fill="black"/>
<path d="M61.91 68H60.76V69.15H61.91V68Z" fill="black"/>
<path d="M61.91 70.31H60.76V73.77H61.91V70.31Z" fill="black"/>
<path d="M61.91 76.08H60.76V78.39H61.91V76.08Z" fill="black"/>
<path d="M63.06 11.48H61.91V12.63H63.06V11.48Z" fill="black"/>
<path d="M63.06 14.94H61.91V16.09H63.06V14.94Z" fill="black"/>
<path d="M63.06 19.55H61.91V23.01H63.06V19.55Z" fill="black"/>
<path d="M63.06 24.17H61.91V26.48H63.06V24.17Z" fill="black"/>
<path d="M63.06 29.93H61.91V32.24H63.06V29.93Z" fill="black"/>
<path d="M63.06 33.39H61.91V36.85H63.06V33.39Z" fill="black"/>
<path d="M63.06 42.62H61.91V44.93H63.06V42.62Z" fill="black"/>
<path d="M63.06 47.24H61.91V48.39H63.06V47.24Z" fill="black"/>
<path d="M63.06 49.55H61.91V50.7H63.06V49.55Z" fill="black"/>
<path d="M63.06 51.85H61.91V53H63.06V51.85Z" fill="black"/>
<path d="M63.06 54.16H61.91V55.31H63.06V54.16Z" fill="black"/>
<path d="M63.06 65.7H61.91V66.85H63.06V65.7Z" fill="black"/>
<path d="M63.06 70.31H61.91V71.46H63.06V70.31Z" fill="black"/>
<path d="M63.06 72.62H61.91V73.77H63.06V72.62Z" fill="black"/>
<path d="M63.06 76.08H61.91V78.39H63.06V76.08Z" fill="black"/>
<path d="M64.22 11.48H63.07V12.63H64.22V11.48Z" fill="black"/>
<path d="M64.22 13.78H63.07V14.93H64.22V13.78Z" fill="black"/>
<path d="M64.22 16.09H63.07V18.4H64.22V16.09Z" fill="black"/>
<path d="M64.22 19.55H63.07V20.7H64.22V19.55Z" fill="black"/>
<path d="M64.22 21.86H63.07V24.17H64.22V21.86Z" fill="black"/>
<path d="M64.22 25.32H63.07V26.47H64.22V25.32Z" fill="black"/>
<path d="M64.22 27.63H63.07V28.78H64.22V27.63Z" fill="black"/>
<path d="M64.22 29.93H63.07V31.08H64.22V29.93Z" fill="black"/>
<path d="M64.22 32.24H63.07V34.55H64.22V32.24Z" fill="black"/>
<path d="M64.22 35.7H63.07V38.01H64.22V35.7Z" fill="black"/>
<path d="M64.22 39.16H63.07V41.47H64.22V39.16Z" fill="black"/>
<path d="M64.22 43.78H63.07V46.09H64.22V43.78Z" fill="black"/>
<path d="M64.22 48.39H63.07V50.7H64.22V48.39Z" fill="black"/>
<path d="M64.22 54.16H63.07V55.31H64.22V54.16Z" fill="black"/>
<path d="M64.22 58.78H63.07V59.93H64.22V58.78Z" fill="black"/>
<path d="M64.22 61.08H63.07V64.54H64.22V61.08Z" fill="black"/>
<path d="M64.22 68H63.07V70.31H64.22V68Z" fill="black"/>
<path d="M64.22 71.47H63.07V77.24H64.22V71.47Z" fill="black"/>
<path d="M65.37 9.16998H64.22V10.32H65.37V9.16998Z" fill="black"/>
<path d="M65.37 11.48H64.22V12.63H65.37V11.48Z" fill="black"/>
<path d="M65.37 14.94H64.22V20.71H65.37V14.94Z" fill="black"/>
<path d="M65.37 21.86H64.22V23.01H65.37V21.86Z" fill="black"/>
<path d="M65.37 24.17H64.22V25.32H65.37V24.17Z" fill="black"/>
<path d="M65.37 26.47H64.22V29.93H65.37V26.47Z" fill="black"/>
<path d="M65.37 31.09H64.22V32.24H65.37V31.09Z" fill="black"/>
<path d="M65.37 33.39H64.22V38H65.37V33.39Z" fill="black"/>
<path d="M65.37 39.16H64.22V41.47H65.37V39.16Z" fill="black"/>
<path d="M65.37 44.93H64.22V47.24H65.37V44.93Z" fill="black"/>
<path d="M65.37 48.39H64.22V50.7H65.37V48.39Z" fill="black"/>
<path d="M65.37 54.16H64.22V59.93H65.37V54.16Z" fill="black"/>
<path d="M65.37 61.08H64.22V64.54H65.37V61.08Z" fill="black"/>
<path d="M65.37 65.7H64.22V66.85H65.37V65.7Z" fill="black"/>
<path d="M65.37 68H64.22V70.31H65.37V68Z" fill="black"/>
<path d="M65.37 72.62H64.22V74.93H65.37V72.62Z" fill="black"/>
<path d="M65.37 77.23H64.22V78.38H65.37V77.23Z" fill="black"/>
<path d="M66.52 11.48H65.37V13.79H66.52V11.48Z" fill="black"/>
<path d="M66.52 16.09H65.37V17.24H66.52V16.09Z" fill="black"/>
<path d="M66.52 18.4H65.37V19.55H66.52V18.4Z" fill="black"/>
<path d="M66.52 21.86H65.37V24.17H66.52V21.86Z" fill="black"/>
<path d="M66.52 27.63H65.37V29.94H66.52V27.63Z" fill="black"/>
<path d="M66.52 33.39H65.37V34.54H66.52V33.39Z" fill="black"/>
<path d="M66.52 35.7H65.37V40.31H66.52V35.7Z" fill="black"/>
<path d="M66.52 43.78H65.37V47.24H66.52V43.78Z" fill="black"/>
<path d="M66.52 48.39H65.37V49.54H66.52V48.39Z" fill="black"/>
<path d="M66.52 50.7H65.37V51.85H66.52V50.7Z" fill="black"/>
<path d="M66.52 55.31H65.37V56.46H66.52V55.31Z" fill="black"/>
<path d="M66.52 58.78H65.37V61.09H66.52V58.78Z" fill="black"/>
<path d="M66.52 62.24H65.37V63.39H66.52V62.24Z" fill="black"/>
<path d="M66.52 64.54H65.37V65.69H66.52V64.54Z" fill="black"/>
<path d="M66.52 68H65.37V69.15H66.52V68Z" fill="black"/>
<path d="M66.52 70.31H65.37V71.46H66.52V70.31Z" fill="black"/>
<path d="M66.52 72.62H65.37V76.08H66.52V72.62Z" fill="black"/>
<path d="M66.52 77.23H65.37V78.38H66.52V77.23Z" fill="black"/>
<path d="M67.68 10.32H66.53V16.09H67.68V10.32Z" fill="black"/>
<path d="M67.68 19.55H66.53V21.86H67.68V19.55Z" fill="black"/>
<path d="M67.68 24.17H66.53V26.48H67.68V24.17Z" fill="black"/>
<path d="M67.68 28.78H66.53V31.09H67.68V28.78Z" fill="black"/>
<path d="M67.68 33.39H66.53V34.54H67.68V33.39Z" fill="black"/>
<path d="M67.68 35.7H66.53V36.85H67.68V35.7Z" fill="black"/>
<path d="M67.68 38.01H66.53V41.47H67.68V38.01Z" fill="black"/>
<path d="M67.68 42.62H66.53V44.93H67.68V42.62Z" fill="black"/>
<path d="M67.68 51.85H66.53V53H67.68V51.85Z" fill="black"/>
<path d="M67.68 54.16H66.53V55.31H67.68V54.16Z" fill="black"/>
<path d="M67.68 57.62H66.53V58.77H67.68V57.62Z" fill="black"/>
<path d="M67.68 62.24H66.53V64.55H67.68V62.24Z" fill="black"/>
<path d="M67.68 65.7H66.53V69.16H67.68V65.7Z" fill="black"/>
<path d="M67.68 70.31H66.53V72.62H67.68V70.31Z" fill="black"/>
<path d="M67.68 74.93H66.53V78.39H67.68V74.93Z" fill="black"/>
<path d="M68.83 8.01001H67.68V11.47H68.83V8.01001Z" fill="black"/>
<path d="M68.83 12.63H67.68V13.78H68.83V12.63Z" fill="black"/>
<path d="M68.83 20.7H67.68V23.01H68.83V20.7Z" fill="black"/>
<path d="M68.83 24.17H67.68V26.48H68.83V24.17Z" fill="black"/>
<path d="M68.83 27.63H67.68V32.24H68.83V27.63Z" fill="black"/>
<path d="M68.83 34.55H67.68V35.7H68.83V34.55Z" fill="black"/>
<path d="M68.83 40.32H67.68V41.47H68.83V40.32Z" fill="black"/>
<path d="M68.83 43.78H67.68V44.93H68.83V43.78Z" fill="black"/>
<path d="M68.83 46.09H67.68V47.24H68.83V46.09Z" fill="black"/>
<path d="M68.83 48.39H67.68V50.7H68.83V48.39Z" fill="black"/>
<path d="M68.83 54.16H67.68V56.47H68.83V54.16Z" fill="black"/>
<path d="M68.83 58.78H67.68V59.93H68.83V58.78Z" fill="black"/>
<path d="M68.83 62.24H67.68V65.7H68.83V62.24Z" fill="black"/>
<path d="M68.83 68H67.68V69.15H68.83V68Z" fill="black"/>
<path d="M68.83 71.47H67.68V74.93H68.83V71.47Z" fill="black"/>
<path d="M68.83 76.08H67.68V77.23H68.83V76.08Z" fill="black"/>
<path d="M69.98 8.01001H68.83V12.62H69.98V8.01001Z" fill="black"/>
<path d="M69.98 14.94H68.83V16.09H69.98V14.94Z" fill="black"/>
<path d="M69.98 17.24H68.83V18.39H69.98V17.24Z" fill="black"/>
<path d="M69.98 20.7H68.83V23.01H69.98V20.7Z" fill="black"/>
<path d="M69.98 24.17H68.83V27.63H69.98V24.17Z" fill="black"/>
<path d="M69.98 31.09H68.83V32.24H69.98V31.09Z" fill="black"/>
<path d="M69.98 33.39H68.83V34.54H69.98V33.39Z" fill="black"/>
<path d="M69.98 39.16H68.83V46.08H69.98V39.16Z" fill="black"/>
<path d="M69.98 47.24H68.83V49.55H69.98V47.24Z" fill="black"/>
<path d="M69.98 50.7H68.83V55.31H69.98V50.7Z" fill="black"/>
<path d="M69.98 57.62H68.83V61.08H69.98V57.62Z" fill="black"/>
<path d="M69.98 62.24H68.83V66.85H69.98V62.24Z" fill="black"/>
<path d="M69.98 68H68.83V74.92H69.98V68Z" fill="black"/>
<path d="M69.98 77.23H68.83V78.38H69.98V77.23Z" fill="black"/>
<path d="M71.14 18.4H69.99V23.01H71.14V18.4Z" fill="black"/>
<path d="M71.14 24.17H69.99V25.32H71.14V24.17Z" fill="black"/>
<path d="M71.14 27.63H69.99V34.55H71.14V27.63Z" fill="black"/>
<path d="M71.14 40.32H69.99V41.47H71.14V40.32Z" fill="black"/>
<path d="M71.14 44.93H69.99V49.54H71.14V44.93Z" fill="black"/>
<path d="M71.14 51.85H69.99V53H71.14V51.85Z" fill="black"/>
<path d="M71.14 55.31H69.99V58.77H71.14V55.31Z" fill="black"/>
<path d="M71.14 61.08H69.99V62.23H71.14V61.08Z" fill="black"/>
<path d="M71.14 63.39H69.99V65.7H71.14V63.39Z" fill="black"/>
<path d="M71.14 68H69.99V69.15H71.14V68Z" fill="black"/>
<path d="M71.14 72.62H69.99V73.77H71.14V72.62Z" fill="black"/>
<path d="M71.14 76.08H69.99V78.39H71.14V76.08Z" fill="black"/>
<path d="M72.29 8.01001H71.14V16.09H72.29V8.01001Z" fill="black"/>
<path d="M72.29 17.24H71.14V21.85H72.29V17.24Z" fill="black"/>
<path d="M72.29 23.01H71.14V24.16H72.29V23.01Z" fill="black"/>
<path d="M72.29 26.47H71.14V31.08H72.29V26.47Z" fill="black"/>
<path d="M72.29 32.24H71.14V34.55H72.29V32.24Z" fill="black"/>
<path d="M72.29 36.86H71.14V38.01H72.29V36.86Z" fill="black"/>
<path d="M72.29 40.32H71.14V41.47H72.29V40.32Z" fill="black"/>
<path d="M72.29 42.62H71.14V43.77H72.29V42.62Z" fill="black"/>
<path d="M72.29 44.93H71.14V48.39H72.29V44.93Z" fill="black"/>
<path d="M72.29 49.55H71.14V50.7H72.29V49.55Z" fill="black"/>
<path d="M72.29 51.85H71.14V54.16H72.29V51.85Z" fill="black"/>
<path d="M72.29 55.31H71.14V57.62H72.29V55.31Z" fill="black"/>
<path d="M72.29 58.78H71.14V59.93H72.29V58.78Z" fill="black"/>
<path d="M72.29 61.08H71.14V62.23H72.29V61.08Z" fill="black"/>
<path d="M72.29 65.7H71.14V66.85H72.29V65.7Z" fill="black"/>
<path d="M72.29 68H71.14V69.15H72.29V68Z" fill="black"/>
<path d="M72.29 70.31H71.14V71.46H72.29V70.31Z" fill="black"/>
<path d="M72.29 72.62H71.14V74.93H72.29V72.62Z" fill="black"/>
<path d="M72.29 76.08H71.14V78.39H72.29V76.08Z" fill="black"/>
<path d="M73.45 8.01001H72.3V9.16003H73.45V8.01001Z" fill="black"/>
<path d="M73.45 14.94H72.3V16.09H73.45V14.94Z" fill="black"/>
<path d="M73.45 17.24H72.3V18.39H73.45V17.24Z" fill="black"/>
<path d="M73.45 20.7H72.3V21.85H73.45V20.7Z" fill="black"/>
<path d="M73.45 23.01H72.3V24.16H73.45V23.01Z" fill="black"/>
<path d="M73.45 26.47H72.3V28.78H73.45V26.47Z" fill="black"/>
<path d="M73.45 29.93H72.3V33.39H73.45V29.93Z" fill="black"/>
<path d="M73.45 35.7H72.3V41.47H73.45V35.7Z" fill="black"/>
<path d="M73.45 44.93H72.3V46.08H73.45V44.93Z" fill="black"/>
<path d="M73.45 48.39H72.3V51.85H73.45V48.39Z" fill="black"/>
<path d="M73.45 55.31H72.3V61.08H73.45V55.31Z" fill="black"/>
<path d="M73.45 64.54H72.3V66.85H73.45V64.54Z" fill="black"/>
<path d="M73.45 68H72.3V69.15H73.45V68Z" fill="black"/>
<path d="M73.45 72.62H72.3V73.77H73.45V72.62Z" fill="black"/>
<path d="M73.45 74.93H72.3V78.39H73.45V74.93Z" fill="black"/>
<path d="M74.6 8.01001H73.45V9.16003H74.6V8.01001Z" fill="black"/>
<path d="M74.6 10.32H73.45V13.78H74.6V10.32Z" fill="black"/>
<path d="M74.6 14.94H73.45V16.09H74.6V14.94Z" fill="black"/>
<path d="M74.6 17.24H73.45V19.55H74.6V17.24Z" fill="black"/>
<path d="M74.6 20.7H73.45V21.85H74.6V20.7Z" fill="black"/>
<path d="M74.6 23.01H73.45V24.16H74.6V23.01Z" fill="black"/>
<path d="M74.6 27.63H73.45V28.78H74.6V27.63Z" fill="black"/>
<path d="M74.6 33.39H73.45V35.7H74.6V33.39Z" fill="black"/>
<path d="M74.6 36.86H73.45V46.09H74.6V36.86Z" fill="black"/>
<path d="M74.6 47.24H73.45V48.39H74.6V47.24Z" fill="black"/>
<path d="M74.6 49.55H73.45V50.7H74.6V49.55Z" fill="black"/>
<path d="M74.6 54.16H73.45V55.31H74.6V54.16Z" fill="black"/>
<path d="M74.6 61.08H73.45V62.23H74.6V61.08Z" fill="black"/>
<path d="M74.6 63.39H73.45V64.54H74.6V63.39Z" fill="black"/>
<path d="M74.6 66.85H73.45V73.77H74.6V66.85Z" fill="black"/>
<path d="M74.6 77.23H73.45V78.38H74.6V77.23Z" fill="black"/>
<path d="M75.75 8.01001H74.6V9.16003H75.75V8.01001Z" fill="black"/>
<path d="M75.75 10.32H74.6V13.78H75.75V10.32Z" fill="black"/>
<path d="M75.75 14.94H74.6V16.09H75.75V14.94Z" fill="black"/>
<path d="M75.75 17.24H74.6V19.55H75.75V17.24Z" fill="black"/>
<path d="M75.75 21.86H74.6V25.32H75.75V21.86Z" fill="black"/>
<path d="M75.75 26.47H74.6V29.93H75.75V26.47Z" fill="black"/>
<path d="M75.75 32.24H74.6V33.39H75.75V32.24Z" fill="black"/>
<path d="M75.75 38.01H74.6V40.32H75.75V38.01Z" fill="black"/>
<path d="M75.75 46.09H74.6V47.24H75.75V46.09Z" fill="black"/>
<path d="M75.75 49.55H74.6V50.7H75.75V49.55Z" fill="black"/>
<path d="M75.75 51.85H74.6V53H75.75V51.85Z" fill="black"/>
<path d="M75.75 56.47H74.6V57.62H75.75V56.47Z" fill="black"/>
<path d="M75.75 58.78H74.6V62.24H75.75V58.78Z" fill="black"/>
<path d="M75.75 65.7H74.6V68.01H75.75V65.7Z" fill="black"/>
<path d="M75.75 69.16H74.6V70.31H75.75V69.16Z" fill="black"/>
<path d="M75.75 74.93H74.6V76.08H75.75V74.93Z" fill="black"/>
<path d="M76.91 8.01001H75.76V9.16003H76.91V8.01001Z" fill="black"/>
<path d="M76.91 10.32H75.76V13.78H76.91V10.32Z" fill="black"/>
<path d="M76.91 14.94H75.76V16.09H76.91V14.94Z" fill="black"/>
<path d="M76.91 17.24H75.76V19.55H76.91V17.24Z" fill="black"/>
<path d="M76.91 21.86H75.76V23.01H76.91V21.86Z" fill="black"/>
<path d="M76.91 24.17H75.76V25.32H76.91V24.17Z" fill="black"/>
<path d="M76.91 27.63H75.76V28.78H76.91V27.63Z" fill="black"/>
<path d="M76.91 31.09H75.76V33.4H76.91V31.09Z" fill="black"/>
<path d="M76.91 35.7H75.76V36.85H76.91V35.7Z" fill="black"/>
<path d="M76.91 38.01H75.76V39.16H76.91V38.01Z" fill="black"/>
<path d="M76.91 40.32H75.76V43.78H76.91V40.32Z" fill="black"/>
<path d="M76.91 44.93H75.76V48.39H76.91V44.93Z" fill="black"/>
<path d="M76.91 49.55H75.76V50.7H76.91V49.55Z" fill="black"/>
<path d="M76.91 54.16H75.76V55.31H76.91V54.16Z" fill="black"/>
<path d="M76.91 58.78H75.76V59.93H76.91V58.78Z" fill="black"/>
<path d="M76.91 61.08H75.76V62.23H76.91V61.08Z" fill="black"/>
<path d="M76.91 68H75.76V69.15H76.91V68Z" fill="black"/>
<path d="M76.91 70.31H75.76V71.46H76.91V70.31Z" fill="black"/>
<path d="M76.91 72.62H75.76V73.77H76.91V72.62Z" fill="black"/>
<path d="M76.91 77.23H75.76V78.38H76.91V77.23Z" fill="black"/>
<path d="M78.06 8.01001H76.91V9.16003H78.06V8.01001Z" fill="black"/>
<path d="M78.06 14.94H76.91V16.09H78.06V14.94Z" fill="black"/>
<path d="M78.06 19.55H76.91V23.01H78.06V19.55Z" fill="black"/>
<path d="M78.06 24.17H76.91V25.32H78.06V24.17Z" fill="black"/>
<path d="M78.06 28.78H76.91V29.93H78.06V28.78Z" fill="black"/>
<path d="M78.06 32.24H76.91V33.39H78.06V32.24Z" fill="black"/>
<path d="M78.06 35.7H76.91V39.16H78.06V35.7Z" fill="black"/>
<path d="M78.06 42.62H76.91V43.77H78.06V42.62Z" fill="black"/>
<path d="M78.06 44.93H76.91V48.39H78.06V44.93Z" fill="black"/>
<path d="M78.06 51.85H76.91V53H78.06V51.85Z" fill="black"/>
<path d="M78.06 56.47H76.91V61.08H78.06V56.47Z" fill="black"/>
<path d="M78.06 65.7H76.91V66.85H78.06V65.7Z" fill="black"/>
<path d="M78.06 69.16H76.91V71.47H78.06V69.16Z" fill="black"/>
<path d="M78.06 72.62H76.91V73.77H78.06V72.62Z" fill="black"/>
<path d="M78.06 77.23H76.91V78.38H78.06V77.23Z" fill="black"/>
<path d="M79.21 8.01001H78.06V16.09H79.21V8.01001Z" fill="black"/>
<path d="M79.21 18.4H78.06V21.86H79.21V18.4Z" fill="black"/>
<path d="M79.21 24.17H78.06V25.32H79.21V24.17Z" fill="black"/>
<path d="M79.21 28.78H78.06V29.93H79.21V28.78Z" fill="black"/>
<path d="M79.21 33.39H78.06V35.7H79.21V33.39Z" fill="black"/>
<path d="M79.21 36.86H78.06V39.17H79.21V36.86Z" fill="black"/>
<path d="M79.21 40.32H78.06V41.47H79.21V40.32Z" fill="black"/>
<path d="M79.21 42.62H78.06V43.77H79.21V42.62Z" fill="black"/>
<path d="M79.21 46.09H78.06V50.7H79.21V46.09Z" fill="black"/>
<path d="M79.21 53.01H78.06V58.78H79.21V53.01Z" fill="black"/>
<path d="M79.21 61.08H78.06V62.23H79.21V61.08Z" fill="black"/>
<path d="M79.21 63.39H78.06V68H79.21V63.39Z" fill="black"/>
<path d="M79.21 69.16H78.06V72.62H79.21V69.16Z" fill="black"/>
<path d="M79.21 73.77H78.06V78.38H79.21V73.77Z" fill="black"/>
</svg>
