<svg width="88" height="87" viewBox="0 0 88 87" fill="none" xmlns="http://www.w3.org/2000/svg">
<path d="M87.47 0H0.579956V86.86H87.47V0Z" fill="white"/>
<path d="M8.38004 6.54004H7.17004V15H8.38004V6.54004Z" fill="black"/>
<path d="M8.38004 16.21H7.17004V19.84H8.38004V16.21Z" fill="black"/>
<path d="M8.38004 23.46H7.17004V24.67H8.38004V23.46Z" fill="black"/>
<path d="M8.38004 28.29H7.17004V29.5H8.38004V28.29Z" fill="black"/>
<path d="M8.38004 30.71H7.17004V34.34H8.38004V30.71Z" fill="black"/>
<path d="M8.38004 36.75H7.17004V39.17H8.38004V36.75Z" fill="black"/>
<path d="M8.38004 41.59H7.17004V46.42H8.38004V41.59Z" fill="black"/>
<path d="M8.38004 51.26H7.17004V52.47H8.38004V51.26Z" fill="black"/>
<path d="M8.38004 54.88H7.17004V60.92H8.38004V54.88Z" fill="black"/>
<path d="M8.38004 62.13H7.17004V64.55H8.38004V62.13Z" fill="black"/>
<path d="M8.38004 65.76H7.17004V66.97H8.38004V65.76Z" fill="black"/>
<path d="M8.38004 68.17H7.17004V70.59H8.38004V68.17Z" fill="black"/>
<path d="M8.38004 71.8H7.17004V80.26H8.38004V71.8Z" fill="black"/>
<path d="M9.59003 6.54004H8.38004V7.75H9.59003V6.54004Z" fill="black"/>
<path d="M9.59003 13.79H8.38004V15H9.59003V13.79Z" fill="black"/>
<path d="M9.59003 18.63H8.38004V19.84H9.59003V18.63Z" fill="black"/>
<path d="M9.59003 21.04H8.38004V25.87H9.59003V21.04Z" fill="black"/>
<path d="M9.59003 35.54H8.38004V40.37H9.59003V35.54Z" fill="black"/>
<path d="M9.59003 45.21H8.38004V46.42H9.59003V45.21Z" fill="black"/>
<path d="M9.59003 51.26H8.38004V52.47H9.59003V51.26Z" fill="black"/>
<path d="M9.59003 54.88H8.38004V57.3H9.59003V54.88Z" fill="black"/>
<path d="M9.59003 62.13H8.38004V65.76H9.59003V62.13Z" fill="black"/>
<path d="M9.59003 68.17H8.38004V70.59H9.59003V68.17Z" fill="black"/>
<path d="M9.59003 71.8H8.38004V73.01H9.59003V71.8Z" fill="black"/>
<path d="M9.59003 79.05H8.38004V80.26H9.59003V79.05Z" fill="black"/>
<path d="M10.8 6.54004H9.59004V7.75H10.8V6.54004Z" fill="black"/>
<path d="M10.8 8.95996H9.59004V12.59H10.8V8.95996Z" fill="black"/>
<path d="M10.8 13.79H9.59004V15H10.8V13.79Z" fill="black"/>
<path d="M10.8 16.21H9.59004V18.63H10.8V16.21Z" fill="black"/>
<path d="M10.8 23.46H9.59004V24.67H10.8V23.46Z" fill="black"/>
<path d="M10.8 25.88H9.59004V28.3H10.8V25.88Z" fill="black"/>
<path d="M10.8 30.71H9.59004V31.92H10.8V30.71Z" fill="black"/>
<path d="M10.8 34.34H9.59004V37.97H10.8V34.34Z" fill="black"/>
<path d="M10.8 40.38H9.59004V41.59H10.8V40.38Z" fill="black"/>
<path d="M10.8 44H9.59004V46.42H10.8V44Z" fill="black"/>
<path d="M10.8 47.63H9.59004V50.05H10.8V47.63Z" fill="black"/>
<path d="M10.8 54.88H9.59004V56.09H10.8V54.88Z" fill="black"/>
<path d="M10.8 58.51H9.59004V59.72H10.8V58.51Z" fill="black"/>
<path d="M10.8 60.92H9.59004V70.59H10.8V60.92Z" fill="black"/>
<path d="M10.8 71.8H9.59004V73.01H10.8V71.8Z" fill="black"/>
<path d="M10.8 74.22H9.59004V77.85H10.8V74.22Z" fill="black"/>
<path d="M10.8 79.05H9.59004V80.26H10.8V79.05Z" fill="black"/>
<path d="M12.01 6.54004H10.8V7.75H12.01V6.54004Z" fill="black"/>
<path d="M12.01 8.95996H10.8V12.59H12.01V8.95996Z" fill="black"/>
<path d="M12.01 13.79H10.8V15H12.01V13.79Z" fill="black"/>
<path d="M12.01 16.21H10.8V18.63H12.01V16.21Z" fill="black"/>
<path d="M12.01 19.83H10.8V22.25H12.01V19.83Z" fill="black"/>
<path d="M12.01 28.29H10.8V31.92H12.01V28.29Z" fill="black"/>
<path d="M12.01 34.34H10.8V35.55H12.01V34.34Z" fill="black"/>
<path d="M12.01 36.75H10.8V37.96H12.01V36.75Z" fill="black"/>
<path d="M12.01 41.59H10.8V42.8H12.01V41.59Z" fill="black"/>
<path d="M12.01 44H10.8V46.42H12.01V44Z" fill="black"/>
<path d="M12.01 48.84H10.8V50.05H12.01V48.84Z" fill="black"/>
<path d="M12.01 51.26H10.8V52.47H12.01V51.26Z" fill="black"/>
<path d="M12.01 60.92H10.8V64.55H12.01V60.92Z" fill="black"/>
<path d="M12.01 65.76H10.8V68.1801H12.01V65.76Z" fill="black"/>
<path d="M12.01 69.38H10.8V70.59H12.01V69.38Z" fill="black"/>
<path d="M12.01 71.8H10.8V73.01H12.01V71.8Z" fill="black"/>
<path d="M12.01 74.22H10.8V77.85H12.01V74.22Z" fill="black"/>
<path d="M12.01 79.05H10.8V80.26H12.01V79.05Z" fill="black"/>
<path d="M13.21 6.54004H12V7.75H13.21V6.54004Z" fill="black"/>
<path d="M13.21 8.95996H12V12.59H13.21V8.95996Z" fill="black"/>
<path d="M13.21 13.79H12V15H13.21V13.79Z" fill="black"/>
<path d="M13.21 16.21H12V19.84H13.21V16.21Z" fill="black"/>
<path d="M13.21 27.09H12V34.34H13.21V27.09Z" fill="black"/>
<path d="M13.21 35.54H12V37.96H13.21V35.54Z" fill="black"/>
<path d="M13.21 40.38H12V51.26H13.21V40.38Z" fill="black"/>
<path d="M13.21 53.67H12V59.71H13.21V53.67Z" fill="black"/>
<path d="M13.21 60.92H12V62.13H13.21V60.92Z" fill="black"/>
<path d="M13.21 64.55H12V65.76H13.21V64.55Z" fill="black"/>
<path d="M13.21 66.97H12V69.39H13.21V66.97Z" fill="black"/>
<path d="M13.21 71.8H12V73.01H13.21V71.8Z" fill="black"/>
<path d="M13.21 74.22H12V77.85H13.21V74.22Z" fill="black"/>
<path d="M13.21 79.05H12V80.26H13.21V79.05Z" fill="black"/>
<path d="M14.4201 6.54004H13.2101V7.75H14.4201V6.54004Z" fill="black"/>
<path d="M14.4201 13.79H13.2101V15H14.4201V13.79Z" fill="black"/>
<path d="M14.4201 16.21H13.2101V18.63H14.4201V16.21Z" fill="black"/>
<path d="M14.4201 19.83H13.2101V22.25H14.4201V19.83Z" fill="black"/>
<path d="M14.4201 23.46H13.2101V27.09H14.4201V23.46Z" fill="black"/>
<path d="M14.4201 28.29H13.2101V31.92H14.4201V28.29Z" fill="black"/>
<path d="M14.4201 34.34H13.2101V35.55H14.4201V34.34Z" fill="black"/>
<path d="M14.4201 36.75H13.2101V37.96H14.4201V36.75Z" fill="black"/>
<path d="M14.4201 40.38H13.2101V41.59H14.4201V40.38Z" fill="black"/>
<path d="M14.4201 45.21H13.2101V50.04H14.4201V45.21Z" fill="black"/>
<path d="M14.4201 52.46H13.2101V57.29H14.4201V52.46Z" fill="black"/>
<path d="M14.4201 58.51H13.2101V59.72H14.4201V58.51Z" fill="black"/>
<path d="M14.4201 60.92H13.2101V63.34H14.4201V60.92Z" fill="black"/>
<path d="M14.4201 64.55H13.2101V68.1801H14.4201V64.55Z" fill="black"/>
<path d="M14.4201 71.8H13.2101V73.01H14.4201V71.8Z" fill="black"/>
<path d="M14.4201 79.05H13.2101V80.26H14.4201V79.05Z" fill="black"/>
<path d="M15.63 6.54004H14.42V15H15.63V6.54004Z" fill="black"/>
<path d="M15.63 16.21H14.42V17.42H15.63V16.21Z" fill="black"/>
<path d="M15.63 18.63H14.42V19.84H15.63V18.63Z" fill="black"/>
<path d="M15.63 21.04H14.42V22.25H15.63V21.04Z" fill="black"/>
<path d="M15.63 23.46H14.42V24.67H15.63V23.46Z" fill="black"/>
<path d="M15.63 25.88H14.42V27.09H15.63V25.88Z" fill="black"/>
<path d="M15.63 28.29H14.42V29.5H15.63V28.29Z" fill="black"/>
<path d="M15.63 30.71H14.42V31.92H15.63V30.71Z" fill="black"/>
<path d="M15.63 33.13H14.42V34.34H15.63V33.13Z" fill="black"/>
<path d="M15.63 35.54H14.42V36.75H15.63V35.54Z" fill="black"/>
<path d="M15.63 37.96H14.42V39.17H15.63V37.96Z" fill="black"/>
<path d="M15.63 40.38H14.42V41.59H15.63V40.38Z" fill="black"/>
<path d="M15.63 42.8H14.42V44.01H15.63V42.8Z" fill="black"/>
<path d="M15.63 45.21H14.42V46.42H15.63V45.21Z" fill="black"/>
<path d="M15.63 47.63H14.42V48.84H15.63V47.63Z" fill="black"/>
<path d="M15.63 50.05H14.42V51.26H15.63V50.05Z" fill="black"/>
<path d="M15.63 52.46H14.42V53.67H15.63V52.46Z" fill="black"/>
<path d="M15.63 54.88H14.42V56.09H15.63V54.88Z" fill="black"/>
<path d="M15.63 57.3H14.42V58.51H15.63V57.3Z" fill="black"/>
<path d="M15.63 59.71H14.42V60.92H15.63V59.71Z" fill="black"/>
<path d="M15.63 62.13H14.42V63.34H15.63V62.13Z" fill="black"/>
<path d="M15.63 64.55H14.42V65.76H15.63V64.55Z" fill="black"/>
<path d="M15.63 66.97H14.42V68.1801H15.63V66.97Z" fill="black"/>
<path d="M15.63 69.38H14.42V70.59H15.63V69.38Z" fill="black"/>
<path d="M15.63 71.8H14.42V80.26H15.63V71.8Z" fill="black"/>
<path d="M16.84 18.63H15.63V23.46H16.84V18.63Z" fill="black"/>
<path d="M16.84 25.88H15.63V27.09H16.84V25.88Z" fill="black"/>
<path d="M16.84 28.29H15.63V30.71H16.84V28.29Z" fill="black"/>
<path d="M16.84 31.92H15.63V35.55H16.84V31.92Z" fill="black"/>
<path d="M16.84 37.96H15.63V41.59H16.84V37.96Z" fill="black"/>
<path d="M16.84 45.21H15.63V50.04H16.84V45.21Z" fill="black"/>
<path d="M16.84 51.26H15.63V54.89H16.84V51.26Z" fill="black"/>
<path d="M16.84 57.3H15.63V58.51H16.84V57.3Z" fill="black"/>
<path d="M16.84 60.92H15.63V65.75H16.84V60.92Z" fill="black"/>
<path d="M16.84 68.17H15.63V69.38H16.84V68.17Z" fill="black"/>
<path d="M18.05 8.95996H16.84V16.21H18.05V8.95996Z" fill="black"/>
<path d="M18.05 17.42H16.84V19.84H18.05V17.42Z" fill="black"/>
<path d="M18.05 22.25H16.84V28.29H18.05V22.25Z" fill="black"/>
<path d="M18.05 30.71H16.84V36.75H18.05V30.71Z" fill="black"/>
<path d="M18.05 37.96H16.84V39.17H18.05V37.96Z" fill="black"/>
<path d="M18.05 40.38H16.84V47.63H18.05V40.38Z" fill="black"/>
<path d="M18.05 51.26H16.84V52.47H18.05V51.26Z" fill="black"/>
<path d="M18.05 54.88H16.84V64.55H18.05V54.88Z" fill="black"/>
<path d="M18.05 66.97H16.84V68.1801H18.05V66.97Z" fill="black"/>
<path d="M18.05 69.38H16.84V71.8H18.05V69.38Z" fill="black"/>
<path d="M18.05 73.01H16.84V77.84H18.05V73.01Z" fill="black"/>
<path d="M18.05 79.05H16.84V80.26H18.05V79.05Z" fill="black"/>
<path d="M19.26 7.75H18.05V12.58H19.26V7.75Z" fill="black"/>
<path d="M19.26 17.42H18.05V18.63H19.26V17.42Z" fill="black"/>
<path d="M19.26 19.83H18.05V22.25H19.26V19.83Z" fill="black"/>
<path d="M19.26 24.67H18.05V25.88H19.26V24.67Z" fill="black"/>
<path d="M19.26 33.13H18.05V35.55H19.26V33.13Z" fill="black"/>
<path d="M19.26 36.75H18.05V37.96H19.26V36.75Z" fill="black"/>
<path d="M19.26 40.38H18.05V41.59H19.26V40.38Z" fill="black"/>
<path d="M19.26 45.21H18.05V46.42H19.26V45.21Z" fill="black"/>
<path d="M19.26 47.63H18.05V48.84H19.26V47.63Z" fill="black"/>
<path d="M19.26 50.05H18.05V56.09H19.26V50.05Z" fill="black"/>
<path d="M19.26 57.3H18.05V64.55H19.26V57.3Z" fill="black"/>
<path d="M19.26 69.38H18.05V70.59H19.26V69.38Z" fill="black"/>
<path d="M19.26 71.8H18.05V75.4301H19.26V71.8Z" fill="black"/>
<path d="M19.26 76.63H18.05V77.84H19.26V76.63Z" fill="black"/>
<path d="M19.26 79.05H18.05V80.26H19.26V79.05Z" fill="black"/>
<path d="M20.47 6.54004H19.26V7.75H20.47V6.54004Z" fill="black"/>
<path d="M20.47 10.17H19.26V12.59H20.47V10.17Z" fill="black"/>
<path d="M20.47 13.79H19.26V19.83H20.47V13.79Z" fill="black"/>
<path d="M20.47 22.25H19.26V25.88H20.47V22.25Z" fill="black"/>
<path d="M20.47 27.09H19.26V29.51H20.47V27.09Z" fill="black"/>
<path d="M20.47 30.71H19.26V31.92H20.47V30.71Z" fill="black"/>
<path d="M20.47 34.34H19.26V35.55H20.47V34.34Z" fill="black"/>
<path d="M20.47 37.96H19.26V40.38H20.47V37.96Z" fill="black"/>
<path d="M20.47 42.8H19.26V46.4301H20.47V42.8Z" fill="black"/>
<path d="M20.47 47.63H19.26V48.84H20.47V47.63Z" fill="black"/>
<path d="M20.47 51.26H19.26V52.47H20.47V51.26Z" fill="black"/>
<path d="M20.47 54.88H19.26V57.3H20.47V54.88Z" fill="black"/>
<path d="M20.47 59.71H19.26V62.13H20.47V59.71Z" fill="black"/>
<path d="M20.47 63.34H19.26V64.55H20.47V63.34Z" fill="black"/>
<path d="M20.47 68.17H19.26V70.59H20.47V68.17Z" fill="black"/>
<path d="M20.47 73.01H19.26V74.22H20.47V73.01Z" fill="black"/>
<path d="M20.47 75.4301H19.26V76.64H20.47V75.4301Z" fill="black"/>
<path d="M20.47 79.05H19.26V80.26H20.47V79.05Z" fill="black"/>
<path d="M21.6701 8.95996H20.4601V12.59H21.6701V8.95996Z" fill="black"/>
<path d="M21.6701 16.21H20.4601V17.42H21.6701V16.21Z" fill="black"/>
<path d="M21.6701 19.83H20.4601V22.25H21.6701V19.83Z" fill="black"/>
<path d="M21.6701 23.46H20.4601V27.09H21.6701V23.46Z" fill="black"/>
<path d="M21.6701 30.71H20.4601V31.92H21.6701V30.71Z" fill="black"/>
<path d="M21.6701 34.34H20.4601V36.76H21.6701V34.34Z" fill="black"/>
<path d="M21.6701 37.96H20.4601V40.38H21.6701V37.96Z" fill="black"/>
<path d="M21.6701 42.8H20.4601V45.22H21.6701V42.8Z" fill="black"/>
<path d="M21.6701 47.63H20.4601V48.84H21.6701V47.63Z" fill="black"/>
<path d="M21.6701 50.05H20.4601V51.26H21.6701V50.05Z" fill="black"/>
<path d="M21.6701 53.67H20.4601V57.3H21.6701V53.67Z" fill="black"/>
<path d="M21.6701 58.51H20.4601V59.72H21.6701V58.51Z" fill="black"/>
<path d="M21.6701 63.34H20.4601V66.97H21.6701V63.34Z" fill="black"/>
<path d="M21.6701 68.17H20.4601V71.8H21.6701V68.17Z" fill="black"/>
<path d="M21.6701 74.22H20.4601V77.85H21.6701V74.22Z" fill="black"/>
<path d="M21.6701 79.05H20.4601V80.26H21.6701V79.05Z" fill="black"/>
<path d="M22.88 6.54004H21.67V12.58H22.88V6.54004Z" fill="black"/>
<path d="M22.88 13.79H21.67V15H22.88V13.79Z" fill="black"/>
<path d="M22.88 22.25H21.67V23.46H22.88V22.25Z" fill="black"/>
<path d="M22.88 28.29H21.67V30.71H22.88V28.29Z" fill="black"/>
<path d="M22.88 31.92H21.67V35.55H22.88V31.92Z" fill="black"/>
<path d="M22.88 36.75H21.67V37.96H22.88V36.75Z" fill="black"/>
<path d="M22.88 39.17H21.67V41.59H22.88V39.17Z" fill="black"/>
<path d="M22.88 42.8H21.67V44.01H22.88V42.8Z" fill="black"/>
<path d="M22.88 45.21H21.67V47.63H22.88V45.21Z" fill="black"/>
<path d="M22.88 48.84H21.67V50.05H22.88V48.84Z" fill="black"/>
<path d="M22.88 52.46H21.67V54.88H22.88V52.46Z" fill="black"/>
<path d="M22.88 59.71H21.67V60.92H22.88V59.71Z" fill="black"/>
<path d="M22.88 62.13H21.67V70.59H22.88V62.13Z" fill="black"/>
<path d="M22.88 75.4301H21.67V80.26H22.88V75.4301Z" fill="black"/>
<path d="M24.09 7.75H22.88V8.95996H24.09V7.75Z" fill="black"/>
<path d="M24.09 10.17H22.88V11.38H24.09V10.17Z" fill="black"/>
<path d="M24.09 12.58H22.88V13.79H24.09V12.58Z" fill="black"/>
<path d="M24.09 15H22.88V19.83H24.09V15Z" fill="black"/>
<path d="M24.09 21.04H22.88V24.67H24.09V21.04Z" fill="black"/>
<path d="M24.09 27.09H22.88V28.3H24.09V27.09Z" fill="black"/>
<path d="M24.09 29.5H22.88V30.71H24.09V29.5Z" fill="black"/>
<path d="M24.09 33.13H22.88V34.34H24.09V33.13Z" fill="black"/>
<path d="M24.09 35.54H22.88V36.75H24.09V35.54Z" fill="black"/>
<path d="M24.09 41.59H22.88V42.8H24.09V41.59Z" fill="black"/>
<path d="M24.09 44H22.88V48.83H24.09V44Z" fill="black"/>
<path d="M24.09 50.05H22.88V57.3H24.09V50.05Z" fill="black"/>
<path d="M24.09 58.51H22.88V59.72H24.09V58.51Z" fill="black"/>
<path d="M24.09 60.92H22.88V63.34H24.09V60.92Z" fill="black"/>
<path d="M24.09 68.17H22.88V69.38H24.09V68.17Z" fill="black"/>
<path d="M24.09 70.59H22.88V71.8H24.09V70.59Z" fill="black"/>
<path d="M24.09 75.4301H22.88V76.64H24.09V75.4301Z" fill="black"/>
<path d="M24.09 77.84H22.88V80.26H24.09V77.84Z" fill="black"/>
<path d="M25.3 6.54004H24.09V8.95996H25.3V6.54004Z" fill="black"/>
<path d="M25.3 10.17H24.09V11.38H25.3V10.17Z" fill="black"/>
<path d="M25.3 12.58H24.09V17.41H25.3V12.58Z" fill="black"/>
<path d="M25.3 18.63H24.09V23.46H25.3V18.63Z" fill="black"/>
<path d="M25.3 27.09H24.09V28.3H25.3V27.09Z" fill="black"/>
<path d="M25.3 33.13H24.09V35.55H25.3V33.13Z" fill="black"/>
<path d="M25.3 36.75H24.09V37.96H25.3V36.75Z" fill="black"/>
<path d="M25.3 41.59H24.09V44.01H25.3V41.59Z" fill="black"/>
<path d="M25.3 45.21H24.09V46.42H25.3V45.21Z" fill="black"/>
<path d="M25.3 47.63H24.09V48.84H25.3V47.63Z" fill="black"/>
<path d="M25.3 50.05H24.09V51.26H25.3V50.05Z" fill="black"/>
<path d="M25.3 52.46H24.09V56.09H25.3V52.46Z" fill="black"/>
<path d="M25.3 57.3H24.09V58.51H25.3V57.3Z" fill="black"/>
<path d="M25.3 62.13H24.09V64.55H25.3V62.13Z" fill="black"/>
<path d="M25.3 68.17H24.09V69.38H25.3V68.17Z" fill="black"/>
<path d="M25.3 70.59H24.09V80.26H25.3V70.59Z" fill="black"/>
<path d="M26.51 6.54004H25.3V7.75H26.51V6.54004Z" fill="black"/>
<path d="M26.51 10.17H25.3V11.38H26.51V10.17Z" fill="black"/>
<path d="M26.51 16.21H25.3V17.42H26.51V16.21Z" fill="black"/>
<path d="M26.51 19.83H25.3V22.25H26.51V19.83Z" fill="black"/>
<path d="M26.51 23.46H25.3V25.88H26.51V23.46Z" fill="black"/>
<path d="M26.51 28.29H25.3V29.5H26.51V28.29Z" fill="black"/>
<path d="M26.51 31.92H25.3V33.13H26.51V31.92Z" fill="black"/>
<path d="M26.51 34.34H25.3V35.55H26.51V34.34Z" fill="black"/>
<path d="M26.51 39.17H25.3V41.59H26.51V39.17Z" fill="black"/>
<path d="M26.51 42.8H25.3V45.22H26.51V42.8Z" fill="black"/>
<path d="M26.51 51.26H25.3V53.6801H26.51V51.26Z" fill="black"/>
<path d="M26.51 54.88H25.3V56.09H26.51V54.88Z" fill="black"/>
<path d="M26.51 57.3H25.3V60.9301H26.51V57.3Z" fill="black"/>
<path d="M26.51 62.13H25.3V63.34H26.51V62.13Z" fill="black"/>
<path d="M26.51 65.76H25.3V66.97H26.51V65.76Z" fill="black"/>
<path d="M26.51 68.17H25.3V69.38H26.51V68.17Z" fill="black"/>
<path d="M26.51 71.8H25.3V73.01H26.51V71.8Z" fill="black"/>
<path d="M26.51 75.4301H25.3V76.64H26.51V75.4301Z" fill="black"/>
<path d="M27.72 6.54004H26.51V7.75H27.72V6.54004Z" fill="black"/>
<path d="M27.72 8.95996H26.51V10.17H27.72V8.95996Z" fill="black"/>
<path d="M27.72 12.58H26.51V15H27.72V12.58Z" fill="black"/>
<path d="M27.72 16.21H26.51V21.04H27.72V16.21Z" fill="black"/>
<path d="M27.72 24.67H26.51V25.88H27.72V24.67Z" fill="black"/>
<path d="M27.72 27.09H26.51V28.3H27.72V27.09Z" fill="black"/>
<path d="M27.72 29.5H26.51V31.92H27.72V29.5Z" fill="black"/>
<path d="M27.72 34.34H26.51V35.55H27.72V34.34Z" fill="black"/>
<path d="M27.72 36.75H26.51V37.96H27.72V36.75Z" fill="black"/>
<path d="M27.72 40.38H26.51V46.42H27.72V40.38Z" fill="black"/>
<path d="M27.72 47.63H26.51V48.84H27.72V47.63Z" fill="black"/>
<path d="M27.72 50.05H26.51V51.26H27.72V50.05Z" fill="black"/>
<path d="M27.72 53.67H26.51V54.88H27.72V53.67Z" fill="black"/>
<path d="M27.72 56.09H26.51V57.3H27.72V56.09Z" fill="black"/>
<path d="M27.72 59.71H26.51V62.13H27.72V59.71Z" fill="black"/>
<path d="M27.72 64.55H26.51V68.1801H27.72V64.55Z" fill="black"/>
<path d="M27.72 70.59H26.51V76.63H27.72V70.59Z" fill="black"/>
<path d="M28.93 6.54004H27.72V13.79H28.93V6.54004Z" fill="black"/>
<path d="M28.93 15H27.72V16.21H28.93V15Z" fill="black"/>
<path d="M28.93 18.63H27.72V24.67H28.93V18.63Z" fill="black"/>
<path d="M28.93 25.88H27.72V28.3H28.93V25.88Z" fill="black"/>
<path d="M28.93 29.5H27.72V30.71H28.93V29.5Z" fill="black"/>
<path d="M28.93 31.92H27.72V33.13H28.93V31.92Z" fill="black"/>
<path d="M28.93 34.34H27.72V35.55H28.93V34.34Z" fill="black"/>
<path d="M28.93 36.75H27.72V42.79H28.93V36.75Z" fill="black"/>
<path d="M28.93 45.21H27.72V48.84H28.93V45.21Z" fill="black"/>
<path d="M28.93 51.26H27.72V54.89H28.93V51.26Z" fill="black"/>
<path d="M28.93 58.51H27.72V60.9301H28.93V58.51Z" fill="black"/>
<path d="M28.93 68.17H27.72V69.38H28.93V68.17Z" fill="black"/>
<path d="M28.93 75.4301H27.72V76.64H28.93V75.4301Z" fill="black"/>
<path d="M28.93 79.05H27.72V80.26H28.93V79.05Z" fill="black"/>
<path d="M30.1301 6.54004H28.92V7.75H30.1301V6.54004Z" fill="black"/>
<path d="M30.1301 13.79H28.92V15H30.1301V13.79Z" fill="black"/>
<path d="M30.1301 16.21H28.92V18.63H30.1301V16.21Z" fill="black"/>
<path d="M30.1301 19.83H28.92V21.04H30.1301V19.83Z" fill="black"/>
<path d="M30.1301 22.25H28.92V27.08H30.1301V22.25Z" fill="black"/>
<path d="M30.1301 29.5H28.92V33.13H30.1301V29.5Z" fill="black"/>
<path d="M30.1301 34.34H28.92V36.76H30.1301V34.34Z" fill="black"/>
<path d="M30.1301 42.8H28.92V45.22H30.1301V42.8Z" fill="black"/>
<path d="M30.1301 46.42H28.92V47.63H30.1301V46.42Z" fill="black"/>
<path d="M30.1301 48.84H28.92V54.88H30.1301V48.84Z" fill="black"/>
<path d="M30.1301 56.09H28.92V60.92H30.1301V56.09Z" fill="black"/>
<path d="M30.1301 62.13H28.92V63.34H30.1301V62.13Z" fill="black"/>
<path d="M30.1301 64.55H28.92V69.38H30.1301V64.55Z" fill="black"/>
<path d="M30.1301 70.59H28.92V71.8H30.1301V70.59Z" fill="black"/>
<path d="M30.1301 73.01H28.92V76.64H30.1301V73.01Z" fill="black"/>
<path d="M30.1301 79.05H28.92V80.26H30.1301V79.05Z" fill="black"/>
<path d="M31.34 6.54004H30.1301V8.95996H31.34V6.54004Z" fill="black"/>
<path d="M31.34 10.17H30.1301V12.59H31.34V10.17Z" fill="black"/>
<path d="M31.34 17.42H30.1301V19.84H31.34V17.42Z" fill="black"/>
<path d="M31.34 21.04H30.1301V24.67H31.34V21.04Z" fill="black"/>
<path d="M31.34 25.88H30.1301V27.09H31.34V25.88Z" fill="black"/>
<path d="M31.34 28.29H30.1301V29.5H31.34V28.29Z" fill="black"/>
<path d="M31.34 30.71H30.1301V31.92H31.34V30.71Z" fill="black"/>
<path d="M31.34 33.13H30.1301V39.17H31.34V33.13Z" fill="black"/>
<path d="M31.34 41.59H30.1301V45.22H31.34V41.59Z" fill="black"/>
<path d="M31.34 46.42H30.1301V47.63H31.34V46.42Z" fill="black"/>
<path d="M31.34 48.84H30.1301V51.26H31.34V48.84Z" fill="black"/>
<path d="M31.34 52.46H30.1301V53.67H31.34V52.46Z" fill="black"/>
<path d="M31.34 54.88H30.1301V56.09H31.34V54.88Z" fill="black"/>
<path d="M31.34 57.3H30.1301V60.9301H31.34V57.3Z" fill="black"/>
<path d="M31.34 64.55H30.1301V65.76H31.34V64.55Z" fill="black"/>
<path d="M31.34 66.97H30.1301V68.1801H31.34V66.97Z" fill="black"/>
<path d="M31.34 69.38H30.1301V70.59H31.34V69.38Z" fill="black"/>
<path d="M31.34 71.8H30.1301V77.84H31.34V71.8Z" fill="black"/>
<path d="M31.34 79.05H30.1301V80.26H31.34V79.05Z" fill="black"/>
<path d="M32.55 10.17H31.34V12.59H32.55V10.17Z" fill="black"/>
<path d="M32.55 13.79H31.34V15H32.55V13.79Z" fill="black"/>
<path d="M32.55 18.63H31.34V19.84H32.55V18.63Z" fill="black"/>
<path d="M32.55 22.25H31.34V23.46H32.55V22.25Z" fill="black"/>
<path d="M32.55 24.67H31.34V27.09H32.55V24.67Z" fill="black"/>
<path d="M32.55 29.5H31.34V31.92H32.55V29.5Z" fill="black"/>
<path d="M32.55 35.54H31.34V36.75H32.55V35.54Z" fill="black"/>
<path d="M32.55 39.17H31.34V40.38H32.55V39.17Z" fill="black"/>
<path d="M32.55 41.59H31.34V42.8H32.55V41.59Z" fill="black"/>
<path d="M32.55 44H31.34V46.42H32.55V44Z" fill="black"/>
<path d="M32.55 51.26H31.34V52.47H32.55V51.26Z" fill="black"/>
<path d="M32.55 53.67H31.34V56.09H32.55V53.67Z" fill="black"/>
<path d="M32.55 57.3H31.34V59.72H32.55V57.3Z" fill="black"/>
<path d="M32.55 62.13H31.34V63.34H32.55V62.13Z" fill="black"/>
<path d="M32.55 64.55H31.34V65.76H32.55V64.55Z" fill="black"/>
<path d="M32.55 66.97H31.34V70.6H32.55V66.97Z" fill="black"/>
<path d="M32.55 79.05H31.34V80.26H32.55V79.05Z" fill="black"/>
<path d="M33.76 6.54004H32.55V8.95996H33.76V6.54004Z" fill="black"/>
<path d="M33.76 11.37H32.55V13.79H33.76V11.37Z" fill="black"/>
<path d="M33.76 16.21H32.55V21.04H33.76V16.21Z" fill="black"/>
<path d="M33.76 23.46H32.55V24.67H33.76V23.46Z" fill="black"/>
<path d="M33.76 27.09H32.55V30.72H33.76V27.09Z" fill="black"/>
<path d="M33.76 31.92H32.55V34.34H33.76V31.92Z" fill="black"/>
<path d="M33.76 37.96H32.55V44H33.76V37.96Z" fill="black"/>
<path d="M33.76 48.84H32.55V50.05H33.76V48.84Z" fill="black"/>
<path d="M33.76 52.46H32.55V54.88H33.76V52.46Z" fill="black"/>
<path d="M33.76 56.09H32.55V57.3H33.76V56.09Z" fill="black"/>
<path d="M33.76 58.51H32.55V63.34H33.76V58.51Z" fill="black"/>
<path d="M33.76 66.97H32.55V68.1801H33.76V66.97Z" fill="black"/>
<path d="M33.76 69.38H32.55V71.8H33.76V69.38Z" fill="black"/>
<path d="M33.76 77.84H32.55V79.05H33.76V77.84Z" fill="black"/>
<path d="M34.97 8.95996H33.76V12.59H34.97V8.95996Z" fill="black"/>
<path d="M34.97 13.79H33.76V15H34.97V13.79Z" fill="black"/>
<path d="M34.97 16.21H33.76V17.42H34.97V16.21Z" fill="black"/>
<path d="M34.97 18.63H33.76V19.84H34.97V18.63Z" fill="black"/>
<path d="M34.97 22.25H33.76V23.46H34.97V22.25Z" fill="black"/>
<path d="M34.97 25.88H33.76V27.09H34.97V25.88Z" fill="black"/>
<path d="M34.97 28.29H33.76V29.5H34.97V28.29Z" fill="black"/>
<path d="M34.97 30.71H33.76V33.13H34.97V30.71Z" fill="black"/>
<path d="M34.97 35.54H33.76V41.58H34.97V35.54Z" fill="black"/>
<path d="M34.97 45.21H33.76V46.42H34.97V45.21Z" fill="black"/>
<path d="M34.97 47.63H33.76V50.05H34.97V47.63Z" fill="black"/>
<path d="M34.97 51.26H33.76V52.47H34.97V51.26Z" fill="black"/>
<path d="M34.97 53.67H33.76V54.88H34.97V53.67Z" fill="black"/>
<path d="M34.97 58.51H33.76V59.72H34.97V58.51Z" fill="black"/>
<path d="M34.97 64.55H33.76V66.97H34.97V64.55Z" fill="black"/>
<path d="M34.97 70.59H33.76V75.42H34.97V70.59Z" fill="black"/>
<path d="M34.97 76.63H33.76V79.05H34.97V76.63Z" fill="black"/>
<path d="M36.18 7.75H34.97V10.17H36.18V7.75Z" fill="black"/>
<path d="M36.18 11.37H34.97V13.79H36.18V11.37Z" fill="black"/>
<path d="M36.18 15H34.97V16.21H36.18V15Z" fill="black"/>
<path d="M36.18 18.63H34.97V22.26H36.18V18.63Z" fill="black"/>
<path d="M36.18 29.5H34.97V31.92H36.18V29.5Z" fill="black"/>
<path d="M36.18 33.13H34.97V34.34H36.18V33.13Z" fill="black"/>
<path d="M36.18 36.75H34.97V37.96H36.18V36.75Z" fill="black"/>
<path d="M36.18 39.17H34.97V40.38H36.18V39.17Z" fill="black"/>
<path d="M36.18 41.59H34.97V42.8H36.18V41.59Z" fill="black"/>
<path d="M36.18 44H34.97V45.21H36.18V44Z" fill="black"/>
<path d="M36.18 46.42H34.97V51.25H36.18V46.42Z" fill="black"/>
<path d="M36.18 52.46H34.97V56.09H36.18V52.46Z" fill="black"/>
<path d="M36.18 57.3H34.97V58.51H36.18V57.3Z" fill="black"/>
<path d="M36.18 60.92H34.97V62.13H36.18V60.92Z" fill="black"/>
<path d="M36.18 65.76H34.97V68.1801H36.18V65.76Z" fill="black"/>
<path d="M36.18 69.38H34.97V70.59H36.18V69.38Z" fill="black"/>
<path d="M36.18 71.8H34.97V73.01H36.18V71.8Z" fill="black"/>
<path d="M36.18 75.4301H34.97V76.64H36.18V75.4301Z" fill="black"/>
<path d="M37.3801 6.54004H36.17V10.17H37.3801V6.54004Z" fill="black"/>
<path d="M37.3801 11.37H36.17V16.2H37.3801V11.37Z" fill="black"/>
<path d="M37.3801 17.42H36.17V18.63H37.3801V17.42Z" fill="black"/>
<path d="M37.3801 19.83H36.17V22.25H37.3801V19.83Z" fill="black"/>
<path d="M37.3801 23.46H36.17V25.88H37.3801V23.46Z" fill="black"/>
<path d="M37.3801 28.29H36.17V29.5H37.3801V28.29Z" fill="black"/>
<path d="M37.3801 30.71H36.17V33.13H37.3801V30.71Z" fill="black"/>
<path d="M37.3801 34.34H36.17V36.76H37.3801V34.34Z" fill="black"/>
<path d="M37.3801 40.38H36.17V44.01H37.3801V40.38Z" fill="black"/>
<path d="M37.3801 45.21H36.17V48.84H37.3801V45.21Z" fill="black"/>
<path d="M37.3801 51.26H36.17V62.14H37.3801V51.26Z" fill="black"/>
<path d="M37.3801 63.34H36.17V64.55H37.3801V63.34Z" fill="black"/>
<path d="M37.3801 65.76H36.17V68.1801H37.3801V65.76Z" fill="black"/>
<path d="M37.3801 70.59H36.17V73.01H37.3801V70.59Z" fill="black"/>
<path d="M37.3801 74.22H36.17V76.64H37.3801V74.22Z" fill="black"/>
<path d="M37.3801 77.84H36.17V80.26H37.3801V77.84Z" fill="black"/>
<path d="M38.59 6.54004H37.3801V8.95996H38.59V6.54004Z" fill="black"/>
<path d="M38.59 10.17H37.3801V12.59H38.59V10.17Z" fill="black"/>
<path d="M38.59 15H37.3801V18.63H38.59V15Z" fill="black"/>
<path d="M38.59 21.04H37.3801V24.67H38.59V21.04Z" fill="black"/>
<path d="M38.59 25.88H37.3801V27.09H38.59V25.88Z" fill="black"/>
<path d="M38.59 28.29H37.3801V29.5H38.59V28.29Z" fill="black"/>
<path d="M38.59 30.71H37.3801V31.92H38.59V30.71Z" fill="black"/>
<path d="M38.59 34.34H37.3801V35.55H38.59V34.34Z" fill="black"/>
<path d="M38.59 39.17H37.3801V40.38H38.59V39.17Z" fill="black"/>
<path d="M38.59 41.59H37.3801V42.8H38.59V41.59Z" fill="black"/>
<path d="M38.59 44H37.3801V51.25H38.59V44Z" fill="black"/>
<path d="M38.59 53.67H37.3801V54.88H38.59V53.67Z" fill="black"/>
<path d="M38.59 56.09H37.3801V59.72H38.59V56.09Z" fill="black"/>
<path d="M38.59 60.92H37.3801V62.13H38.59V60.92Z" fill="black"/>
<path d="M38.59 63.34H37.3801V65.76H38.59V63.34Z" fill="black"/>
<path d="M38.59 70.59H37.3801V71.8H38.59V70.59Z" fill="black"/>
<path d="M38.59 73.01H37.3801V74.22H38.59V73.01Z" fill="black"/>
<path d="M38.59 75.4301H37.3801V77.85H38.59V75.4301Z" fill="black"/>
<path d="M38.59 79.05H37.3801V80.26H38.59V79.05Z" fill="black"/>
<path d="M39.8 11.37H38.59V15H39.8V11.37Z" fill="black"/>
<path d="M39.8 17.42H38.59V21.05H39.8V17.42Z" fill="black"/>
<path d="M39.8 27.09H38.59V31.92H39.8V27.09Z" fill="black"/>
<path d="M39.8 34.34H38.59V35.55H39.8V34.34Z" fill="black"/>
<path d="M39.8 36.75H38.59V37.96H39.8V36.75Z" fill="black"/>
<path d="M39.8 39.17H38.59V40.38H39.8V39.17Z" fill="black"/>
<path d="M39.8 41.59H38.59V44.01H39.8V41.59Z" fill="black"/>
<path d="M39.8 46.42H38.59V48.84H39.8V46.42Z" fill="black"/>
<path d="M39.8 57.3H38.59V59.72H39.8V57.3Z" fill="black"/>
<path d="M39.8 60.92H38.59V63.34H39.8V60.92Z" fill="black"/>
<path d="M39.8 65.76H38.59V66.97H39.8V65.76Z" fill="black"/>
<path d="M39.8 70.59H38.59V73.01H39.8V70.59Z" fill="black"/>
<path d="M39.8 75.4301H38.59V80.26H39.8V75.4301Z" fill="black"/>
<path d="M41.01 6.54004H39.8V7.75H41.01V6.54004Z" fill="black"/>
<path d="M41.01 8.95996H39.8V11.38H41.01V8.95996Z" fill="black"/>
<path d="M41.01 12.58H39.8V13.79H41.01V12.58Z" fill="black"/>
<path d="M41.01 15H39.8V19.83H41.01V15Z" fill="black"/>
<path d="M41.01 22.25H39.8V23.46H41.01V22.25Z" fill="black"/>
<path d="M41.01 25.88H39.8V27.09H41.01V25.88Z" fill="black"/>
<path d="M41.01 28.29H39.8V29.5H41.01V28.29Z" fill="black"/>
<path d="M41.01 31.92H39.8V34.34H41.01V31.92Z" fill="black"/>
<path d="M41.01 35.54H39.8V36.75H41.01V35.54Z" fill="black"/>
<path d="M41.01 37.96H39.8V39.17H41.01V37.96Z" fill="black"/>
<path d="M41.01 40.38H39.8V41.59H41.01V40.38Z" fill="black"/>
<path d="M41.01 42.8H39.8V44.01H41.01V42.8Z" fill="black"/>
<path d="M41.01 46.42H39.8V48.84H41.01V46.42Z" fill="black"/>
<path d="M41.01 50.05H39.8V54.88H41.01V50.05Z" fill="black"/>
<path d="M41.01 57.3H39.8V58.51H41.01V57.3Z" fill="black"/>
<path d="M41.01 60.92H39.8V68.17H41.01V60.92Z" fill="black"/>
<path d="M41.01 69.38H39.8V70.59H41.01V69.38Z" fill="black"/>
<path d="M41.01 73.01H39.8V75.4301H41.01V73.01Z" fill="black"/>
<path d="M42.22 10.17H41.01V19.84H42.22V10.17Z" fill="black"/>
<path d="M42.22 22.25H41.01V23.46H42.22V22.25Z" fill="black"/>
<path d="M42.22 28.29H41.01V29.5H42.22V28.29Z" fill="black"/>
<path d="M42.22 34.34H41.01V39.17H42.22V34.34Z" fill="black"/>
<path d="M42.22 40.38H41.01V47.63H42.22V40.38Z" fill="black"/>
<path d="M42.22 50.05H41.01V53.6801H42.22V50.05Z" fill="black"/>
<path d="M42.22 56.09H41.01V60.92H42.22V56.09Z" fill="black"/>
<path d="M42.22 62.13H41.01V63.34H42.22V62.13Z" fill="black"/>
<path d="M42.22 64.55H41.01V66.97H42.22V64.55Z" fill="black"/>
<path d="M42.22 69.38H41.01V76.63H42.22V69.38Z" fill="black"/>
<path d="M43.43 6.54004H42.22V12.58H43.43V6.54004Z" fill="black"/>
<path d="M43.43 16.21H42.22V17.42H43.43V16.21Z" fill="black"/>
<path d="M43.43 18.63H42.22V21.05H43.43V18.63Z" fill="black"/>
<path d="M43.43 23.46H42.22V25.88H43.43V23.46Z" fill="black"/>
<path d="M43.43 29.5H42.22V31.92H43.43V29.5Z" fill="black"/>
<path d="M43.43 33.13H42.22V34.34H43.43V33.13Z" fill="black"/>
<path d="M43.43 35.54H42.22V36.75H43.43V35.54Z" fill="black"/>
<path d="M43.43 39.17H42.22V41.59H43.43V39.17Z" fill="black"/>
<path d="M43.43 45.21H42.22V46.42H43.43V45.21Z" fill="black"/>
<path d="M43.43 47.63H42.22V48.84H43.43V47.63Z" fill="black"/>
<path d="M43.43 51.26H42.22V52.47H43.43V51.26Z" fill="black"/>
<path d="M43.43 53.67H42.22V56.09H43.43V53.67Z" fill="black"/>
<path d="M43.43 58.51H42.22V60.9301H43.43V58.51Z" fill="black"/>
<path d="M43.43 62.13H42.22V63.34H43.43V62.13Z" fill="black"/>
<path d="M43.43 64.55H42.22V65.76H43.43V64.55Z" fill="black"/>
<path d="M43.43 66.97H42.22V68.1801H43.43V66.97Z" fill="black"/>
<path d="M43.43 69.38H42.22V70.59H43.43V69.38Z" fill="black"/>
<path d="M43.43 74.22H42.22V76.64H43.43V74.22Z" fill="black"/>
<path d="M44.64 6.54004H43.43V10.17H44.64V6.54004Z" fill="black"/>
<path d="M44.64 11.37H43.43V12.58H44.64V11.37Z" fill="black"/>
<path d="M44.64 13.79H43.43V15H44.64V13.79Z" fill="black"/>
<path d="M44.64 16.21H43.43V17.42H44.64V16.21Z" fill="black"/>
<path d="M44.64 18.63H43.43V21.05H44.64V18.63Z" fill="black"/>
<path d="M44.64 24.67H43.43V25.88H44.64V24.67Z" fill="black"/>
<path d="M44.64 27.09H43.43V28.3H44.64V27.09Z" fill="black"/>
<path d="M44.64 29.5H43.43V41.59H44.64V29.5Z" fill="black"/>
<path d="M44.64 42.8H43.43V44.01H44.64V42.8Z" fill="black"/>
<path d="M44.64 45.21H43.43V46.42H44.64V45.21Z" fill="black"/>
<path d="M44.64 50.05H43.43V51.26H44.64V50.05Z" fill="black"/>
<path d="M44.64 54.88H43.43V56.09H44.64V54.88Z" fill="black"/>
<path d="M44.64 58.51H43.43V60.9301H44.64V58.51Z" fill="black"/>
<path d="M44.64 65.76H43.43V66.97H44.64V65.76Z" fill="black"/>
<path d="M44.64 68.17H43.43V70.59H44.64V68.17Z" fill="black"/>
<path d="M44.64 71.8H43.43V73.01H44.64V71.8Z" fill="black"/>
<path d="M44.64 74.22H43.43V76.64H44.64V74.22Z" fill="black"/>
<path d="M44.64 77.84H43.43V79.05H44.64V77.84Z" fill="black"/>
<path d="M45.84 7.75H44.6301V8.95996H45.84V7.75Z" fill="black"/>
<path d="M45.84 10.17H44.6301V12.59H45.84V10.17Z" fill="black"/>
<path d="M45.84 16.21H44.6301V18.63H45.84V16.21Z" fill="black"/>
<path d="M45.84 19.83H44.6301V22.25H45.84V19.83Z" fill="black"/>
<path d="M45.84 23.46H44.6301V24.67H45.84V23.46Z" fill="black"/>
<path d="M45.84 28.29H44.6301V29.5H45.84V28.29Z" fill="black"/>
<path d="M45.84 30.71H44.6301V37.96H45.84V30.71Z" fill="black"/>
<path d="M45.84 39.17H44.6301V41.59H45.84V39.17Z" fill="black"/>
<path d="M45.84 45.21H44.6301V46.42H45.84V45.21Z" fill="black"/>
<path d="M45.84 47.63H44.6301V53.67H45.84V47.63Z" fill="black"/>
<path d="M45.84 54.88H44.6301V56.09H45.84V54.88Z" fill="black"/>
<path d="M45.84 58.51H44.6301V60.9301H45.84V58.51Z" fill="black"/>
<path d="M45.84 62.13H44.6301V66.96H45.84V62.13Z" fill="black"/>
<path d="M45.84 68.17H44.6301V70.59H45.84V68.17Z" fill="black"/>
<path d="M45.84 74.22H44.6301V75.4301H45.84V74.22Z" fill="black"/>
<path d="M45.84 76.63H44.6301V77.84H45.84V76.63Z" fill="black"/>
<path d="M45.84 79.05H44.6301V80.26H45.84V79.05Z" fill="black"/>
<path d="M47.05 7.75H45.84V18.63H47.05V7.75Z" fill="black"/>
<path d="M47.05 24.67H45.84V25.88H47.05V24.67Z" fill="black"/>
<path d="M47.05 27.09H45.84V28.3H47.05V27.09Z" fill="black"/>
<path d="M47.05 29.5H45.84V33.13H47.05V29.5Z" fill="black"/>
<path d="M47.05 34.34H45.84V36.76H47.05V34.34Z" fill="black"/>
<path d="M47.05 40.38H45.84V46.42H47.05V40.38Z" fill="black"/>
<path d="M47.05 51.26H45.84V53.6801H47.05V51.26Z" fill="black"/>
<path d="M47.05 54.88H45.84V57.3H47.05V54.88Z" fill="black"/>
<path d="M47.05 60.92H45.84V62.13H47.05V60.92Z" fill="black"/>
<path d="M47.05 65.76H45.84V66.97H47.05V65.76Z" fill="black"/>
<path d="M47.05 68.17H45.84V79.05H47.05V68.17Z" fill="black"/>
<path d="M48.26 8.95996H47.05V10.17H48.26V8.95996Z" fill="black"/>
<path d="M48.26 11.37H47.05V12.58H48.26V11.37Z" fill="black"/>
<path d="M48.26 15H47.05V16.21H48.26V15Z" fill="black"/>
<path d="M48.26 21.04H47.05V22.25H48.26V21.04Z" fill="black"/>
<path d="M48.26 23.46H47.05V24.67H48.26V23.46Z" fill="black"/>
<path d="M48.26 25.88H47.05V27.09H48.26V25.88Z" fill="black"/>
<path d="M48.26 28.29H47.05V30.71H48.26V28.29Z" fill="black"/>
<path d="M48.26 35.54H47.05V36.75H48.26V35.54Z" fill="black"/>
<path d="M48.26 37.96H47.05V39.17H48.26V37.96Z" fill="black"/>
<path d="M48.26 40.38H47.05V41.59H48.26V40.38Z" fill="black"/>
<path d="M48.26 42.8H47.05V44.01H48.26V42.8Z" fill="black"/>
<path d="M48.26 47.63H47.05V48.84H48.26V47.63Z" fill="black"/>
<path d="M48.26 50.05H47.05V51.26H48.26V50.05Z" fill="black"/>
<path d="M48.26 52.46H47.05V57.29H48.26V52.46Z" fill="black"/>
<path d="M48.26 58.51H47.05V59.72H48.26V58.51Z" fill="black"/>
<path d="M48.26 60.92H47.05V62.13H48.26V60.92Z" fill="black"/>
<path d="M48.26 66.97H47.05V69.39H48.26V66.97Z" fill="black"/>
<path d="M48.26 71.8H47.05V73.01H48.26V71.8Z" fill="black"/>
<path d="M48.26 76.63H47.05V79.05H48.26V76.63Z" fill="black"/>
<path d="M49.47 13.79H48.26V15H49.47V13.79Z" fill="black"/>
<path d="M49.47 16.21H48.26V17.42H49.47V16.21Z" fill="black"/>
<path d="M49.47 18.63H48.26V19.84H49.47V18.63Z" fill="black"/>
<path d="M49.47 23.46H48.26V25.88H49.47V23.46Z" fill="black"/>
<path d="M49.47 29.5H48.26V30.71H49.47V29.5Z" fill="black"/>
<path d="M49.47 33.13H48.26V37.96H49.47V33.13Z" fill="black"/>
<path d="M49.47 42.8H48.26V45.22H49.47V42.8Z" fill="black"/>
<path d="M49.47 48.84H48.26V51.26H49.47V48.84Z" fill="black"/>
<path d="M49.47 52.46H48.26V53.67H49.47V52.46Z" fill="black"/>
<path d="M49.47 57.3H48.26V58.51H49.47V57.3Z" fill="black"/>
<path d="M49.47 63.34H48.26V65.76H49.47V63.34Z" fill="black"/>
<path d="M49.47 66.97H48.26V70.6H49.47V66.97Z" fill="black"/>
<path d="M49.47 73.01H48.26V74.22H49.47V73.01Z" fill="black"/>
<path d="M49.47 77.84H48.26V79.05H49.47V77.84Z" fill="black"/>
<path d="M50.68 7.75H49.47V8.95996H50.68V7.75Z" fill="black"/>
<path d="M50.68 10.17H49.47V11.38H50.68V10.17Z" fill="black"/>
<path d="M50.68 16.21H49.47V24.67H50.68V16.21Z" fill="black"/>
<path d="M50.68 25.88H49.47V27.09H50.68V25.88Z" fill="black"/>
<path d="M50.68 28.29H49.47V29.5H50.68V28.29Z" fill="black"/>
<path d="M50.68 30.71H49.47V33.13H50.68V30.71Z" fill="black"/>
<path d="M50.68 34.34H49.47V36.76H50.68V34.34Z" fill="black"/>
<path d="M50.68 40.38H49.47V41.59H50.68V40.38Z" fill="black"/>
<path d="M50.68 44H49.47V47.63H50.68V44Z" fill="black"/>
<path d="M50.68 52.46H49.47V57.29H50.68V52.46Z" fill="black"/>
<path d="M50.68 59.71H49.47V62.13H50.68V59.71Z" fill="black"/>
<path d="M50.68 63.34H49.47V65.76H50.68V63.34Z" fill="black"/>
<path d="M50.68 66.97H49.47V68.1801H50.68V66.97Z" fill="black"/>
<path d="M50.68 69.38H49.47V73.01H50.68V69.38Z" fill="black"/>
<path d="M50.68 74.22H49.47V75.4301H50.68V74.22Z" fill="black"/>
<path d="M50.68 76.63H49.47V80.26H50.68V76.63Z" fill="black"/>
<path d="M51.89 6.54004H50.68V8.95996H51.89V6.54004Z" fill="black"/>
<path d="M51.89 10.17H50.68V11.38H51.89V10.17Z" fill="black"/>
<path d="M51.89 13.79H50.68V15H51.89V13.79Z" fill="black"/>
<path d="M51.89 16.21H50.68V17.42H51.89V16.21Z" fill="black"/>
<path d="M51.89 18.63H50.68V19.84H51.89V18.63Z" fill="black"/>
<path d="M51.89 21.04H50.68V25.87H51.89V21.04Z" fill="black"/>
<path d="M51.89 29.5H50.68V33.13H51.89V29.5Z" fill="black"/>
<path d="M51.89 34.34H50.68V36.76H51.89V34.34Z" fill="black"/>
<path d="M51.89 40.38H50.68V41.59H51.89V40.38Z" fill="black"/>
<path d="M51.89 45.21H50.68V46.42H51.89V45.21Z" fill="black"/>
<path d="M51.89 47.63H50.68V51.26H51.89V47.63Z" fill="black"/>
<path d="M51.89 52.46H50.68V53.67H51.89V52.46Z" fill="black"/>
<path d="M51.89 54.88H50.68V56.09H51.89V54.88Z" fill="black"/>
<path d="M51.89 57.3H50.68V58.51H51.89V57.3Z" fill="black"/>
<path d="M51.89 59.71H50.68V62.13H51.89V59.71Z" fill="black"/>
<path d="M51.89 63.34H50.68V68.17H51.89V63.34Z" fill="black"/>
<path d="M51.89 69.38H50.68V70.59H51.89V69.38Z" fill="black"/>
<path d="M51.89 74.22H50.68V77.85H51.89V74.22Z" fill="black"/>
<path d="M51.89 79.05H50.68V80.26H51.89V79.05Z" fill="black"/>
<path d="M53.1001 6.54004H51.89V11.37H53.1001V6.54004Z" fill="black"/>
<path d="M53.1001 16.21H51.89V18.63H53.1001V16.21Z" fill="black"/>
<path d="M53.1001 22.25H51.89V23.46H53.1001V22.25Z" fill="black"/>
<path d="M53.1001 25.88H51.89V29.51H53.1001V25.88Z" fill="black"/>
<path d="M53.1001 30.71H51.89V35.54H53.1001V30.71Z" fill="black"/>
<path d="M53.1001 36.75H51.89V42.79H53.1001V36.75Z" fill="black"/>
<path d="M53.1001 46.42H51.89V47.63H53.1001V46.42Z" fill="black"/>
<path d="M53.1001 52.46H51.89V53.67H53.1001V52.46Z" fill="black"/>
<path d="M53.1001 56.09H51.89V58.51H53.1001V56.09Z" fill="black"/>
<path d="M53.1001 60.92H51.89V62.13H53.1001V60.92Z" fill="black"/>
<path d="M53.1001 63.34H51.89V65.76H53.1001V63.34Z" fill="black"/>
<path d="M53.1001 69.38H51.89V71.8H53.1001V69.38Z" fill="black"/>
<path d="M53.1001 75.4301H51.89V77.85H53.1001V75.4301Z" fill="black"/>
<path d="M53.1001 79.05H51.89V80.26H53.1001V79.05Z" fill="black"/>
<path d="M54.3 8.95996H53.09V10.17H54.3V8.95996Z" fill="black"/>
<path d="M54.3 12.58H53.09V15H54.3V12.58Z" fill="black"/>
<path d="M54.3 18.63H53.09V22.26H54.3V18.63Z" fill="black"/>
<path d="M54.3 23.46H53.09V25.88H54.3V23.46Z" fill="black"/>
<path d="M54.3 28.29H53.09V30.71H54.3V28.29Z" fill="black"/>
<path d="M54.3 33.13H53.09V36.76H54.3V33.13Z" fill="black"/>
<path d="M54.3 37.96H53.09V39.17H54.3V37.96Z" fill="black"/>
<path d="M54.3 40.38H53.09V41.59H54.3V40.38Z" fill="black"/>
<path d="M54.3 42.8H53.09V45.22H54.3V42.8Z" fill="black"/>
<path d="M54.3 47.63H53.09V50.05H54.3V47.63Z" fill="black"/>
<path d="M54.3 52.46H53.09V53.67H54.3V52.46Z" fill="black"/>
<path d="M54.3 54.88H53.09V56.09H54.3V54.88Z" fill="black"/>
<path d="M54.3 62.13H53.09V63.34H54.3V62.13Z" fill="black"/>
<path d="M54.3 66.97H53.09V69.39H54.3V66.97Z" fill="black"/>
<path d="M54.3 74.22H53.09V75.4301H54.3V74.22Z" fill="black"/>
<path d="M54.3 77.84H53.09V79.05H54.3V77.84Z" fill="black"/>
<path d="M55.51 6.54004H54.3V10.17H55.51V6.54004Z" fill="black"/>
<path d="M55.51 11.37H54.3V12.58H55.51V11.37Z" fill="black"/>
<path d="M55.51 17.42H54.3V21.05H55.51V17.42Z" fill="black"/>
<path d="M55.51 25.88H54.3V27.09H55.51V25.88Z" fill="black"/>
<path d="M55.51 28.29H54.3V29.5H55.51V28.29Z" fill="black"/>
<path d="M55.51 30.71H54.3V33.13H55.51V30.71Z" fill="black"/>
<path d="M55.51 34.34H54.3V35.55H55.51V34.34Z" fill="black"/>
<path d="M55.51 36.75H54.3V39.17H55.51V36.75Z" fill="black"/>
<path d="M55.51 42.8H54.3V45.22H55.51V42.8Z" fill="black"/>
<path d="M55.51 46.42H54.3V47.63H55.51V46.42Z" fill="black"/>
<path d="M55.51 51.26H54.3V54.89H55.51V51.26Z" fill="black"/>
<path d="M55.51 58.51H54.3V59.72H55.51V58.51Z" fill="black"/>
<path d="M55.51 60.92H54.3V63.34H55.51V60.92Z" fill="black"/>
<path d="M55.51 65.76H54.3V69.39H55.51V65.76Z" fill="black"/>
<path d="M55.51 75.4301H54.3V76.64H55.51V75.4301Z" fill="black"/>
<path d="M55.51 77.84H54.3V79.05H55.51V77.84Z" fill="black"/>
<path d="M56.72 6.54004H55.51V7.75H56.72V6.54004Z" fill="black"/>
<path d="M56.72 8.95996H55.51V10.17H56.72V8.95996Z" fill="black"/>
<path d="M56.72 11.37H55.51V15H56.72V11.37Z" fill="black"/>
<path d="M56.72 17.42H55.51V18.63H56.72V17.42Z" fill="black"/>
<path d="M56.72 19.83H55.51V21.04H56.72V19.83Z" fill="black"/>
<path d="M56.72 22.25H55.51V23.46H56.72V22.25Z" fill="black"/>
<path d="M56.72 24.67H55.51V25.88H56.72V24.67Z" fill="black"/>
<path d="M56.72 28.29H55.51V30.71H56.72V28.29Z" fill="black"/>
<path d="M56.72 31.92H55.51V33.13H56.72V31.92Z" fill="black"/>
<path d="M56.72 37.96H55.51V40.38H56.72V37.96Z" fill="black"/>
<path d="M56.72 42.8H55.51V45.22H56.72V42.8Z" fill="black"/>
<path d="M56.72 46.42H55.51V48.84H56.72V46.42Z" fill="black"/>
<path d="M56.72 51.26H55.51V53.6801H56.72V51.26Z" fill="black"/>
<path d="M56.72 57.3H55.51V59.72H56.72V57.3Z" fill="black"/>
<path d="M56.72 60.92H55.51V63.34H56.72V60.92Z" fill="black"/>
<path d="M56.72 65.76H55.51V66.97H56.72V65.76Z" fill="black"/>
<path d="M56.72 68.17H55.51V69.38H56.72V68.17Z" fill="black"/>
<path d="M56.72 73.01H55.51V74.22H56.72V73.01Z" fill="black"/>
<path d="M56.72 75.4301H55.51V79.0601H56.72V75.4301Z" fill="black"/>
<path d="M57.93 6.54004H56.72V10.17H57.93V6.54004Z" fill="black"/>
<path d="M57.93 11.37H56.72V13.79H57.93V11.37Z" fill="black"/>
<path d="M57.93 15H56.72V18.63H57.93V15Z" fill="black"/>
<path d="M57.93 19.83H56.72V21.04H57.93V19.83Z" fill="black"/>
<path d="M57.93 22.25H56.72V23.46H57.93V22.25Z" fill="black"/>
<path d="M57.93 27.09H56.72V28.3H57.93V27.09Z" fill="black"/>
<path d="M57.93 30.71H56.72V36.75H57.93V30.71Z" fill="black"/>
<path d="M57.93 37.96H56.72V41.59H57.93V37.96Z" fill="black"/>
<path d="M57.93 45.21H56.72V46.42H57.93V45.21Z" fill="black"/>
<path d="M57.93 47.63H56.72V48.84H57.93V47.63Z" fill="black"/>
<path d="M57.93 50.05H56.72V52.47H57.93V50.05Z" fill="black"/>
<path d="M57.93 56.09H56.72V58.51H57.93V56.09Z" fill="black"/>
<path d="M57.93 60.92H56.72V62.13H57.93V60.92Z" fill="black"/>
<path d="M57.93 63.34H56.72V66.97H57.93V63.34Z" fill="black"/>
<path d="M57.93 68.17H56.72V70.59H57.93V68.17Z" fill="black"/>
<path d="M57.93 71.8H56.72V74.22H57.93V71.8Z" fill="black"/>
<path d="M57.93 75.4301H56.72V79.0601H57.93V75.4301Z" fill="black"/>
<path d="M59.14 6.54004H57.93V15H59.14V6.54004Z" fill="black"/>
<path d="M59.14 17.42H57.93V18.63H59.14V17.42Z" fill="black"/>
<path d="M59.14 19.83H57.93V23.46H59.14V19.83Z" fill="black"/>
<path d="M59.14 24.67H57.93V25.88H59.14V24.67Z" fill="black"/>
<path d="M59.14 27.09H57.93V29.51H59.14V27.09Z" fill="black"/>
<path d="M59.14 30.71H57.93V33.13H59.14V30.71Z" fill="black"/>
<path d="M59.14 34.34H57.93V37.97H59.14V34.34Z" fill="black"/>
<path d="M59.14 40.38H57.93V42.8H59.14V40.38Z" fill="black"/>
<path d="M59.14 45.21H57.93V47.63H59.14V45.21Z" fill="black"/>
<path d="M59.14 51.26H57.93V52.47H59.14V51.26Z" fill="black"/>
<path d="M59.14 53.67H57.93V54.88H59.14V53.67Z" fill="black"/>
<path d="M59.14 56.09H57.93V57.3H59.14V56.09Z" fill="black"/>
<path d="M59.14 58.51H57.93V59.72H59.14V58.51Z" fill="black"/>
<path d="M59.14 60.92H57.93V63.34H59.14V60.92Z" fill="black"/>
<path d="M59.14 65.76H57.93V66.97H59.14V65.76Z" fill="black"/>
<path d="M59.14 68.17H57.93V71.8H59.14V68.17Z" fill="black"/>
<path d="M59.14 73.01H57.93V74.22H59.14V73.01Z" fill="black"/>
<path d="M59.14 75.4301H57.93V80.26H59.14V75.4301Z" fill="black"/>
<path d="M60.3501 7.75H59.14V10.17H60.3501V7.75Z" fill="black"/>
<path d="M60.3501 11.37H59.14V13.79H60.3501V11.37Z" fill="black"/>
<path d="M60.3501 16.21H59.14V19.84H60.3501V16.21Z" fill="black"/>
<path d="M60.3501 21.04H59.14V23.46H60.3501V21.04Z" fill="black"/>
<path d="M60.3501 24.67H59.14V29.5H60.3501V24.67Z" fill="black"/>
<path d="M60.3501 30.71H59.14V33.13H60.3501V30.71Z" fill="black"/>
<path d="M60.3501 35.54H59.14V37.96H60.3501V35.54Z" fill="black"/>
<path d="M60.3501 40.38H59.14V41.59H60.3501V40.38Z" fill="black"/>
<path d="M60.3501 45.21H59.14V46.42H60.3501V45.21Z" fill="black"/>
<path d="M60.3501 47.63H59.14V48.84H60.3501V47.63Z" fill="black"/>
<path d="M60.3501 50.05H59.14V51.26H60.3501V50.05Z" fill="black"/>
<path d="M60.3501 53.67H59.14V57.3H60.3501V53.67Z" fill="black"/>
<path d="M60.3501 58.51H59.14V62.14H60.3501V58.51Z" fill="black"/>
<path d="M60.3501 63.34H59.14V65.76H60.3501V63.34Z" fill="black"/>
<path d="M60.3501 66.97H59.14V68.1801H60.3501V66.97Z" fill="black"/>
<path d="M60.3501 70.59H59.14V71.8H60.3501V70.59Z" fill="black"/>
<path d="M60.3501 73.01H59.14V74.22H60.3501V73.01Z" fill="black"/>
<path d="M60.3501 75.4301H59.14V77.85H60.3501V75.4301Z" fill="black"/>
<path d="M60.3501 79.05H59.14V80.26H60.3501V79.05Z" fill="black"/>
<path d="M61.56 8.95996H60.3501V10.17H61.56V8.95996Z" fill="black"/>
<path d="M61.56 11.37H60.3501V12.58H61.56V11.37Z" fill="black"/>
<path d="M61.56 13.79H60.3501V16.21H61.56V13.79Z" fill="black"/>
<path d="M61.56 17.42H60.3501V18.63H61.56V17.42Z" fill="black"/>
<path d="M61.56 19.83H60.3501V21.04H61.56V19.83Z" fill="black"/>
<path d="M61.56 22.25H60.3501V23.46H61.56V22.25Z" fill="black"/>
<path d="M61.56 28.29H60.3501V29.5H61.56V28.29Z" fill="black"/>
<path d="M61.56 31.92H60.3501V33.13H61.56V31.92Z" fill="black"/>
<path d="M61.56 34.34H60.3501V35.55H61.56V34.34Z" fill="black"/>
<path d="M61.56 37.96H60.3501V40.38H61.56V37.96Z" fill="black"/>
<path d="M61.56 41.59H60.3501V45.22H61.56V41.59Z" fill="black"/>
<path d="M61.56 46.42H60.3501V48.84H61.56V46.42Z" fill="black"/>
<path d="M61.56 51.26H60.3501V52.47H61.56V51.26Z" fill="black"/>
<path d="M61.56 57.3H60.3501V58.51H61.56V57.3Z" fill="black"/>
<path d="M61.56 62.13H60.3501V63.34H61.56V62.13Z" fill="black"/>
<path d="M61.56 65.76H60.3501V66.97H61.56V65.76Z" fill="black"/>
<path d="M61.56 68.17H60.3501V69.38H61.56V68.17Z" fill="black"/>
<path d="M61.56 71.8H60.3501V74.22H61.56V71.8Z" fill="black"/>
<path d="M61.56 77.84H60.3501V79.05H61.56V77.84Z" fill="black"/>
<path d="M62.76 8.95996H61.55V11.38H62.76V8.95996Z" fill="black"/>
<path d="M62.76 12.58H61.55V13.79H62.76V12.58Z" fill="black"/>
<path d="M62.76 15H61.55V16.21H62.76V15Z" fill="black"/>
<path d="M62.76 19.83H61.55V21.04H62.76V19.83Z" fill="black"/>
<path d="M62.76 22.25H61.55V23.46H62.76V22.25Z" fill="black"/>
<path d="M62.76 28.29H61.55V30.71H62.76V28.29Z" fill="black"/>
<path d="M62.76 33.13H61.55V34.34H62.76V33.13Z" fill="black"/>
<path d="M62.76 35.54H61.55V36.75H62.76V35.54Z" fill="black"/>
<path d="M62.76 42.8H61.55V46.4301H62.76V42.8Z" fill="black"/>
<path d="M62.76 47.63H61.55V50.05H62.76V47.63Z" fill="black"/>
<path d="M62.76 51.26H61.55V52.47H62.76V51.26Z" fill="black"/>
<path d="M62.76 53.67H61.55V56.09H62.76V53.67Z" fill="black"/>
<path d="M62.76 58.51H61.55V60.9301H62.76V58.51Z" fill="black"/>
<path d="M62.76 64.55H61.55V65.76H62.76V64.55Z" fill="black"/>
<path d="M62.76 66.97H61.55V69.39H62.76V66.97Z" fill="black"/>
<path d="M62.76 71.8H61.55V75.4301H62.76V71.8Z" fill="black"/>
<path d="M62.76 77.84H61.55V80.26H62.76V77.84Z" fill="black"/>
<path d="M63.97 13.79H62.76V15H63.97V13.79Z" fill="black"/>
<path d="M63.97 18.63H62.76V22.26H63.97V18.63Z" fill="black"/>
<path d="M63.97 23.46H62.76V25.88H63.97V23.46Z" fill="black"/>
<path d="M63.97 29.5H62.76V30.71H63.97V29.5Z" fill="black"/>
<path d="M63.97 33.13H62.76V36.76H63.97V33.13Z" fill="black"/>
<path d="M63.97 37.96H62.76V39.17H63.97V37.96Z" fill="black"/>
<path d="M63.97 42.8H62.76V44.01H63.97V42.8Z" fill="black"/>
<path d="M63.97 45.21H62.76V46.42H63.97V45.21Z" fill="black"/>
<path d="M63.97 48.84H62.76V51.26H63.97V48.84Z" fill="black"/>
<path d="M63.97 52.46H62.76V56.09H63.97V52.46Z" fill="black"/>
<path d="M63.97 58.51H62.76V60.9301H63.97V58.51Z" fill="black"/>
<path d="M63.97 66.97H62.76V70.6H63.97V66.97Z" fill="black"/>
<path d="M63.97 71.8H62.76V73.01H63.97V71.8Z" fill="black"/>
<path d="M63.97 74.22H62.76V75.4301H63.97V74.22Z" fill="black"/>
<path d="M63.97 77.84H62.76V80.26H63.97V77.84Z" fill="black"/>
<path d="M65.18 10.17H63.97V11.38H65.18V10.17Z" fill="black"/>
<path d="M65.18 12.58H63.97V13.79H65.18V12.58Z" fill="black"/>
<path d="M65.18 16.21H63.97V19.84H65.18V16.21Z" fill="black"/>
<path d="M65.18 21.04H63.97V23.46H65.18V21.04Z" fill="black"/>
<path d="M65.18 24.67H63.97V25.88H65.18V24.67Z" fill="black"/>
<path d="M65.18 27.09H63.97V30.72H65.18V27.09Z" fill="black"/>
<path d="M65.18 35.54H63.97V37.96H65.18V35.54Z" fill="black"/>
<path d="M65.18 40.38H63.97V41.59H65.18V40.38Z" fill="black"/>
<path d="M65.18 42.8H63.97V46.4301H65.18V42.8Z" fill="black"/>
<path d="M65.18 50.05H63.97V51.26H65.18V50.05Z" fill="black"/>
<path d="M65.18 53.67H63.97V57.3H65.18V53.67Z" fill="black"/>
<path d="M65.18 58.51H63.97V62.14H65.18V58.51Z" fill="black"/>
<path d="M65.18 64.55H63.97V65.76H65.18V64.55Z" fill="black"/>
<path d="M65.18 69.38H63.97V71.8H65.18V69.38Z" fill="black"/>
<path d="M65.18 74.22H63.97V77.85H65.18V74.22Z" fill="black"/>
<path d="M65.18 79.05H63.97V80.26H65.18V79.05Z" fill="black"/>
<path d="M66.39 7.75H65.18V8.95996H66.39V7.75Z" fill="black"/>
<path d="M66.39 10.17H65.18V11.38H66.39V10.17Z" fill="black"/>
<path d="M66.39 13.79H65.18V18.62H66.39V13.79Z" fill="black"/>
<path d="M66.39 21.04H65.18V22.25H66.39V21.04Z" fill="black"/>
<path d="M66.39 23.46H65.18V24.67H66.39V23.46Z" fill="black"/>
<path d="M66.39 25.88H65.18V28.3H66.39V25.88Z" fill="black"/>
<path d="M66.39 30.71H65.18V33.13H66.39V30.71Z" fill="black"/>
<path d="M66.39 34.34H65.18V39.17H66.39V34.34Z" fill="black"/>
<path d="M66.39 40.38H65.18V41.59H66.39V40.38Z" fill="black"/>
<path d="M66.39 45.21H65.18V47.63H66.39V45.21Z" fill="black"/>
<path d="M66.39 48.84H65.18V51.26H66.39V48.84Z" fill="black"/>
<path d="M66.39 54.88H65.18V57.3H66.39V54.88Z" fill="black"/>
<path d="M66.39 59.71H65.18V62.13H66.39V59.71Z" fill="black"/>
<path d="M66.39 63.34H65.18V66.97H66.39V63.34Z" fill="black"/>
<path d="M66.39 69.38H65.18V71.8H66.39V69.38Z" fill="black"/>
<path d="M66.39 74.22H65.18V76.64H66.39V74.22Z" fill="black"/>
<path d="M66.39 79.05H65.18V80.26H66.39V79.05Z" fill="black"/>
<path d="M67.6001 6.54004H66.39V7.75H67.6001V6.54004Z" fill="black"/>
<path d="M67.6001 10.17H66.39V11.38H67.6001V10.17Z" fill="black"/>
<path d="M67.6001 15H66.39V16.21H67.6001V15Z" fill="black"/>
<path d="M67.6001 17.42H66.39V18.63H67.6001V17.42Z" fill="black"/>
<path d="M67.6001 21.04H66.39V23.46H67.6001V21.04Z" fill="black"/>
<path d="M67.6001 27.09H66.39V28.3H67.6001V27.09Z" fill="black"/>
<path d="M67.6001 31.92H66.39V33.13H67.6001V31.92Z" fill="black"/>
<path d="M67.6001 34.34H66.39V36.76H67.6001V34.34Z" fill="black"/>
<path d="M67.6001 37.96H66.39V40.38H67.6001V37.96Z" fill="black"/>
<path d="M67.6001 44H66.39V45.21H67.6001V44Z" fill="black"/>
<path d="M67.6001 46.42H66.39V48.84H67.6001V46.42Z" fill="black"/>
<path d="M67.6001 50.05H66.39V52.47H67.6001V50.05Z" fill="black"/>
<path d="M67.6001 53.67H66.39V54.88H67.6001V53.67Z" fill="black"/>
<path d="M67.6001 56.09H66.39V57.3H67.6001V56.09Z" fill="black"/>
<path d="M67.6001 59.71H66.39V62.13H67.6001V59.71Z" fill="black"/>
<path d="M67.6001 63.34H66.39V64.55H67.6001V63.34Z" fill="black"/>
<path d="M67.6001 65.76H66.39V66.97H67.6001V65.76Z" fill="black"/>
<path d="M67.6001 70.59H66.39V71.8H67.6001V70.59Z" fill="black"/>
<path d="M67.6001 73.01H66.39V74.22H67.6001V73.01Z" fill="black"/>
<path d="M67.6001 75.4301H66.39V79.0601H67.6001V75.4301Z" fill="black"/>
<path d="M68.81 8.95996H67.6001V15H68.81V8.95996Z" fill="black"/>
<path d="M68.81 18.63H67.6001V22.26H68.81V18.63Z" fill="black"/>
<path d="M68.81 23.46H67.6001V27.09H68.81V23.46Z" fill="black"/>
<path d="M68.81 29.5H67.6001V31.92H68.81V29.5Z" fill="black"/>
<path d="M68.81 33.13H67.6001V34.34H68.81V33.13Z" fill="black"/>
<path d="M68.81 37.96H67.6001V41.59H68.81V37.96Z" fill="black"/>
<path d="M68.81 42.8H67.6001V44.01H68.81V42.8Z" fill="black"/>
<path d="M68.81 45.21H67.6001V46.42H68.81V45.21Z" fill="black"/>
<path d="M68.81 50.05H67.6001V51.26H68.81V50.05Z" fill="black"/>
<path d="M68.81 53.67H67.6001V54.88H68.81V53.67Z" fill="black"/>
<path d="M68.81 59.71H67.6001V60.92H68.81V59.71Z" fill="black"/>
<path d="M68.81 63.34H67.6001V65.76H68.81V63.34Z" fill="black"/>
<path d="M68.81 66.97H67.6001V70.6H68.81V66.97Z" fill="black"/>
<path d="M68.81 71.8H67.6001V73.01H68.81V71.8Z" fill="black"/>
<path d="M68.81 77.84H67.6001V80.26H68.81V77.84Z" fill="black"/>
<path d="M70.0201 6.54004H68.81V10.17H70.0201V6.54004Z" fill="black"/>
<path d="M70.0201 11.37H68.81V12.58H70.0201V11.37Z" fill="black"/>
<path d="M70.0201 15H68.81V16.21H70.0201V15Z" fill="black"/>
<path d="M70.0201 18.63H68.81V19.84H70.0201V18.63Z" fill="black"/>
<path d="M70.0201 21.04H68.81V22.25H70.0201V21.04Z" fill="black"/>
<path d="M70.0201 24.67H68.81V27.09H70.0201V24.67Z" fill="black"/>
<path d="M70.0201 28.29H68.81V31.92H70.0201V28.29Z" fill="black"/>
<path d="M70.0201 34.34H68.81V36.76H70.0201V34.34Z" fill="black"/>
<path d="M70.0201 37.96H68.81V41.59H70.0201V37.96Z" fill="black"/>
<path d="M70.0201 44H68.81V45.21H70.0201V44Z" fill="black"/>
<path d="M70.0201 48.84H68.81V51.26H70.0201V48.84Z" fill="black"/>
<path d="M70.0201 54.88H68.81V56.09H70.0201V54.88Z" fill="black"/>
<path d="M70.0201 57.3H68.81V58.51H70.0201V57.3Z" fill="black"/>
<path d="M70.0201 59.71H68.81V60.92H70.0201V59.71Z" fill="black"/>
<path d="M70.0201 63.34H68.81V65.76H70.0201V63.34Z" fill="black"/>
<path d="M70.0201 68.17H68.81V71.8H70.0201V68.17Z" fill="black"/>
<path d="M70.0201 73.01H68.81V76.64H70.0201V73.01Z" fill="black"/>
<path d="M70.0201 79.05H68.81V80.26H70.0201V79.05Z" fill="black"/>
<path d="M71.22 6.54004H70.01V11.37H71.22V6.54004Z" fill="black"/>
<path d="M71.22 13.79H70.01V16.21H71.22V13.79Z" fill="black"/>
<path d="M71.22 18.63H70.01V19.84H71.22V18.63Z" fill="black"/>
<path d="M71.22 21.04H70.01V22.25H71.22V21.04Z" fill="black"/>
<path d="M71.22 24.67H70.01V25.88H71.22V24.67Z" fill="black"/>
<path d="M71.22 28.29H70.01V29.5H71.22V28.29Z" fill="black"/>
<path d="M71.22 30.71H70.01V31.92H71.22V30.71Z" fill="black"/>
<path d="M71.22 33.13H70.01V34.34H71.22V33.13Z" fill="black"/>
<path d="M71.22 35.54H70.01V36.75H71.22V35.54Z" fill="black"/>
<path d="M71.22 37.96H70.01V46.42H71.22V37.96Z" fill="black"/>
<path d="M71.22 47.63H70.01V50.05H71.22V47.63Z" fill="black"/>
<path d="M71.22 51.26H70.01V53.6801H71.22V51.26Z" fill="black"/>
<path d="M71.22 54.88H70.01V57.3H71.22V54.88Z" fill="black"/>
<path d="M71.22 58.51H70.01V65.76H71.22V58.51Z" fill="black"/>
<path d="M71.22 68.17H70.01V76.63H71.22V68.17Z" fill="black"/>
<path d="M71.22 77.84H70.01V80.26H71.22V77.84Z" fill="black"/>
<path d="M72.43 17.42H71.22V18.63H72.43V17.42Z" fill="black"/>
<path d="M72.43 21.04H71.22V22.25H72.43V21.04Z" fill="black"/>
<path d="M72.43 23.46H71.22V24.67H72.43V23.46Z" fill="black"/>
<path d="M72.43 25.88H71.22V28.3H72.43V25.88Z" fill="black"/>
<path d="M72.43 29.5H71.22V30.71H72.43V29.5Z" fill="black"/>
<path d="M72.43 31.92H71.22V33.13H72.43V31.92Z" fill="black"/>
<path d="M72.43 40.38H71.22V41.59H72.43V40.38Z" fill="black"/>
<path d="M72.43 45.21H71.22V48.84H72.43V45.21Z" fill="black"/>
<path d="M72.43 52.46H71.22V53.67H72.43V52.46Z" fill="black"/>
<path d="M72.43 54.88H71.22V57.3H72.43V54.88Z" fill="black"/>
<path d="M72.43 58.51H71.22V59.72H72.43V58.51Z" fill="black"/>
<path d="M72.43 62.13H71.22V63.34H72.43V62.13Z" fill="black"/>
<path d="M72.43 64.55H71.22V66.97H72.43V64.55Z" fill="black"/>
<path d="M72.43 69.38H71.22V70.59H72.43V69.38Z" fill="black"/>
<path d="M72.43 74.22H71.22V79.05H72.43V74.22Z" fill="black"/>
<path d="M73.64 6.54004H72.43V15H73.64V6.54004Z" fill="black"/>
<path d="M73.64 16.21H72.43V19.84H73.64V16.21Z" fill="black"/>
<path d="M73.64 22.25H72.43V23.46H73.64V22.25Z" fill="black"/>
<path d="M73.64 24.67H72.43V28.3H73.64V24.67Z" fill="black"/>
<path d="M73.64 31.92H72.43V34.34H73.64V31.92Z" fill="black"/>
<path d="M73.64 36.75H72.43V37.96H73.64V36.75Z" fill="black"/>
<path d="M73.64 40.38H72.43V41.59H73.64V40.38Z" fill="black"/>
<path d="M73.64 42.8H72.43V44.01H73.64V42.8Z" fill="black"/>
<path d="M73.64 45.21H72.43V46.42H73.64V45.21Z" fill="black"/>
<path d="M73.64 47.63H72.43V48.84H73.64V47.63Z" fill="black"/>
<path d="M73.64 50.05H72.43V51.26H73.64V50.05Z" fill="black"/>
<path d="M73.64 52.46H72.43V56.09H73.64V52.46Z" fill="black"/>
<path d="M73.64 57.3H72.43V58.51H73.64V57.3Z" fill="black"/>
<path d="M73.64 59.71H72.43V60.92H73.64V59.71Z" fill="black"/>
<path d="M73.64 62.13H72.43V63.34H73.64V62.13Z" fill="black"/>
<path d="M73.64 66.97H72.43V68.1801H73.64V66.97Z" fill="black"/>
<path d="M73.64 69.38H72.43V70.59H73.64V69.38Z" fill="black"/>
<path d="M73.64 71.8H72.43V73.01H73.64V71.8Z" fill="black"/>
<path d="M73.64 74.22H72.43V76.64H73.64V74.22Z" fill="black"/>
<path d="M73.64 77.84H72.43V79.05H73.64V77.84Z" fill="black"/>
<path d="M74.8501 6.54004H73.64V7.75H74.8501V6.54004Z" fill="black"/>
<path d="M74.8501 13.79H73.64V15H74.8501V13.79Z" fill="black"/>
<path d="M74.8501 16.21H73.64V17.42H74.8501V16.21Z" fill="black"/>
<path d="M74.8501 19.83H73.64V21.04H74.8501V19.83Z" fill="black"/>
<path d="M74.8501 22.25H73.64V23.46H74.8501V22.25Z" fill="black"/>
<path d="M74.8501 25.88H73.64V27.09H74.8501V25.88Z" fill="black"/>
<path d="M74.8501 28.29H73.64V29.5H74.8501V28.29Z" fill="black"/>
<path d="M74.8501 30.71H73.64V33.13H74.8501V30.71Z" fill="black"/>
<path d="M74.8501 35.54H73.64V41.58H74.8501V35.54Z" fill="black"/>
<path d="M74.8501 45.21H73.64V46.42H74.8501V45.21Z" fill="black"/>
<path d="M74.8501 48.84H73.64V52.47H74.8501V48.84Z" fill="black"/>
<path d="M74.8501 56.09H73.64V57.3H74.8501V56.09Z" fill="black"/>
<path d="M74.8501 58.51H73.64V59.72H74.8501V58.51Z" fill="black"/>
<path d="M74.8501 60.92H73.64V62.13H74.8501V60.92Z" fill="black"/>
<path d="M74.8501 65.76H73.64V68.1801H74.8501V65.76Z" fill="black"/>
<path d="M74.8501 69.38H73.64V70.59H74.8501V69.38Z" fill="black"/>
<path d="M74.8501 74.22H73.64V79.05H74.8501V74.22Z" fill="black"/>
<path d="M76.06 6.54004H74.8501V7.75H76.06V6.54004Z" fill="black"/>
<path d="M76.06 8.95996H74.8501V12.59H76.06V8.95996Z" fill="black"/>
<path d="M76.06 13.79H74.8501V15H76.06V13.79Z" fill="black"/>
<path d="M76.06 16.21H74.8501V18.63H76.06V16.21Z" fill="black"/>
<path d="M76.06 19.83H74.8501V21.04H76.06V19.83Z" fill="black"/>
<path d="M76.06 22.25H74.8501V23.46H76.06V22.25Z" fill="black"/>
<path d="M76.06 24.67H74.8501V25.88H76.06V24.67Z" fill="black"/>
<path d="M76.06 28.29H74.8501V29.5H76.06V28.29Z" fill="black"/>
<path d="M76.06 33.13H74.8501V34.34H76.06V33.13Z" fill="black"/>
<path d="M76.06 37.96H74.8501V46.42H76.06V37.96Z" fill="black"/>
<path d="M76.06 47.63H74.8501V48.84H76.06V47.63Z" fill="black"/>
<path d="M76.06 50.05H74.8501V51.26H76.06V50.05Z" fill="black"/>
<path d="M76.06 57.3H74.8501V60.9301H76.06V57.3Z" fill="black"/>
<path d="M76.06 63.34H74.8501V65.76H76.06V63.34Z" fill="black"/>
<path d="M76.06 68.17H74.8501V76.63H76.06V68.17Z" fill="black"/>
<path d="M76.06 79.05H74.8501V80.26H76.06V79.05Z" fill="black"/>
<path d="M77.2701 6.54004H76.06V7.75H77.2701V6.54004Z" fill="black"/>
<path d="M77.2701 8.95996H76.06V12.59H77.2701V8.95996Z" fill="black"/>
<path d="M77.2701 13.79H76.06V15H77.2701V13.79Z" fill="black"/>
<path d="M77.2701 16.21H76.06V18.63H77.2701V16.21Z" fill="black"/>
<path d="M77.2701 21.04H76.06V24.67H77.2701V21.04Z" fill="black"/>
<path d="M77.2701 25.88H76.06V29.51H77.2701V25.88Z" fill="black"/>
<path d="M77.2701 33.13H76.06V34.34H77.2701V33.13Z" fill="black"/>
<path d="M77.2701 35.54H76.06V37.96H77.2701V35.54Z" fill="black"/>
<path d="M77.2701 41.59H76.06V44.01H77.2701V41.59Z" fill="black"/>
<path d="M77.2701 47.63H76.06V48.84H77.2701V47.63Z" fill="black"/>
<path d="M77.2701 50.05H76.06V51.26H77.2701V50.05Z" fill="black"/>
<path d="M77.2701 52.46H76.06V53.67H77.2701V52.46Z" fill="black"/>
<path d="M77.2701 57.3H76.06V58.51H77.2701V57.3Z" fill="black"/>
<path d="M77.2701 59.71H76.06V64.54H77.2701V59.71Z" fill="black"/>
<path d="M77.2701 65.76H76.06V68.1801H77.2701V65.76Z" fill="black"/>
<path d="M77.2701 69.38H76.06V71.8H77.2701V69.38Z" fill="black"/>
<path d="M77.2701 74.22H76.06V75.4301H77.2701V74.22Z" fill="black"/>
<path d="M77.2701 76.63H76.06V77.84H77.2701V76.63Z" fill="black"/>
<path d="M78.47 6.54004H77.26V7.75H78.47V6.54004Z" fill="black"/>
<path d="M78.47 8.95996H77.26V12.59H78.47V8.95996Z" fill="black"/>
<path d="M78.47 13.79H77.26V15H78.47V13.79Z" fill="black"/>
<path d="M78.47 16.21H77.26V18.63H78.47V16.21Z" fill="black"/>
<path d="M78.47 23.46H77.26V24.67H78.47V23.46Z" fill="black"/>
<path d="M78.47 27.09H77.26V28.3H78.47V27.09Z" fill="black"/>
<path d="M78.47 30.71H77.26V33.13H78.47V30.71Z" fill="black"/>
<path d="M78.47 36.75H77.26V37.96H78.47V36.75Z" fill="black"/>
<path d="M78.47 40.38H77.26V42.8H78.47V40.38Z" fill="black"/>
<path d="M78.47 46.42H77.26V48.84H78.47V46.42Z" fill="black"/>
<path d="M78.47 50.05H77.26V51.26H78.47V50.05Z" fill="black"/>
<path d="M78.47 54.88H77.26V58.51H78.47V54.88Z" fill="black"/>
<path d="M78.47 59.71H77.26V60.92H78.47V59.71Z" fill="black"/>
<path d="M78.47 62.13H77.26V63.34H78.47V62.13Z" fill="black"/>
<path d="M78.47 64.55H77.26V68.1801H78.47V64.55Z" fill="black"/>
<path d="M78.47 69.38H77.26V71.8H78.47V69.38Z" fill="black"/>
<path d="M78.47 74.22H77.26V75.4301H78.47V74.22Z" fill="black"/>
<path d="M78.47 79.05H77.26V80.26H78.47V79.05Z" fill="black"/>
<path d="M79.68 6.54004H78.47V7.75H79.68V6.54004Z" fill="black"/>
<path d="M79.68 13.79H78.47V15H79.68V13.79Z" fill="black"/>
<path d="M79.68 17.42H78.47V19.84H79.68V17.42Z" fill="black"/>
<path d="M79.68 23.46H78.47V24.67H79.68V23.46Z" fill="black"/>
<path d="M79.68 28.29H78.47V29.5H79.68V28.29Z" fill="black"/>
<path d="M79.68 31.92H78.47V35.55H79.68V31.92Z" fill="black"/>
<path d="M79.68 36.75H78.47V39.17H79.68V36.75Z" fill="black"/>
<path d="M79.68 42.8H78.47V45.22H79.68V42.8Z" fill="black"/>
<path d="M79.68 46.42H78.47V48.84H79.68V46.42Z" fill="black"/>
<path d="M79.68 50.05H78.47V51.26H79.68V50.05Z" fill="black"/>
<path d="M79.68 52.46H78.47V53.67H79.68V52.46Z" fill="black"/>
<path d="M79.68 56.09H78.47V58.51H79.68V56.09Z" fill="black"/>
<path d="M79.68 59.71H78.47V62.13H79.68V59.71Z" fill="black"/>
<path d="M79.68 63.34H78.47V68.17H79.68V63.34Z" fill="black"/>
<path d="M79.68 71.8H78.47V74.22H79.68V71.8Z" fill="black"/>
<path d="M79.68 79.05H78.47V80.26H79.68V79.05Z" fill="black"/>
<path d="M80.89 6.54004H79.68V15H80.89V6.54004Z" fill="black"/>
<path d="M80.89 17.42H79.68V19.84H80.89V17.42Z" fill="black"/>
<path d="M80.89 23.46H79.68V24.67H80.89V23.46Z" fill="black"/>
<path d="M80.89 28.29H79.68V29.5H80.89V28.29Z" fill="black"/>
<path d="M80.89 33.13H79.68V35.55H80.89V33.13Z" fill="black"/>
<path d="M80.89 36.75H79.68V39.17H80.89V36.75Z" fill="black"/>
<path d="M80.89 40.38H79.68V41.59H80.89V40.38Z" fill="black"/>
<path d="M80.89 42.8H79.68V45.22H80.89V42.8Z" fill="black"/>
<path d="M80.89 46.42H79.68V48.84H80.89V46.42Z" fill="black"/>
<path d="M80.89 50.05H79.68V51.26H80.89V50.05Z" fill="black"/>
<path d="M80.89 53.67H79.68V60.92H80.89V53.67Z" fill="black"/>
<path d="M80.89 62.13H79.68V68.17H80.89V62.13Z" fill="black"/>
<path d="M80.89 69.38H79.68V70.59H80.89V69.38Z" fill="black"/>
<path d="M80.89 71.8H79.68V73.01H80.89V71.8Z" fill="black"/>
<path d="M80.89 75.4301H79.68V80.26H80.89V75.4301Z" fill="black"/>
</svg>
