<svg width="88" height="87" viewBox="0 0 88 87" fill="none" xmlns="http://www.w3.org/2000/svg">
<path d="M87.47 0H0.579956V86.86H87.47V0Z" fill="white"/>
<path d="M9.04005 7.41992H7.55005V17.8399H9.04005V7.41992Z" fill="black"/>
<path d="M9.04005 19.3299H7.55005V20.82H9.04005V19.3299Z" fill="black"/>
<path d="M9.04005 25.28H7.55005V26.77H9.04005V25.28Z" fill="black"/>
<path d="M9.04005 28.2599H7.55005V31.2399H9.04005V28.2599Z" fill="black"/>
<path d="M9.04005 32.7299H7.55005V34.2199H9.04005V32.7299Z" fill="black"/>
<path d="M9.04005 35.6999H7.55005V40.17H9.04005V35.6999Z" fill="black"/>
<path d="M9.04005 41.66H7.55005V44.64H9.04005V41.66Z" fill="black"/>
<path d="M9.04005 47.6199H7.55005V50.5999H9.04005V47.6199Z" fill="black"/>
<path d="M9.04005 53.57H7.55005V55.06H9.04005V53.57Z" fill="black"/>
<path d="M9.04005 56.55H7.55005V58.04H9.04005V56.55Z" fill="black"/>
<path d="M9.04005 61.02H7.55005V62.5099H9.04005V61.02Z" fill="black"/>
<path d="M9.04005 66.9699H7.55005V68.4599H9.04005V66.9699Z" fill="black"/>
<path d="M9.04005 69.9499H7.55005V80.3699H9.04005V69.9499Z" fill="black"/>
<path d="M10.53 7.41992H9.04004V8.90997H10.53V7.41992Z" fill="black"/>
<path d="M10.53 16.3499H9.04004V17.8399H10.53V16.3499Z" fill="black"/>
<path d="M10.53 20.82H9.04004V22.31H10.53V20.82Z" fill="black"/>
<path d="M10.53 23.79H9.04004V25.28H10.53V23.79Z" fill="black"/>
<path d="M10.53 26.77H9.04004V29.7499H10.53V26.77Z" fill="black"/>
<path d="M10.53 31.2399H9.04004V38.68H10.53V31.2399Z" fill="black"/>
<path d="M10.53 46.1299H9.04004V47.6199H10.53V46.1299Z" fill="black"/>
<path d="M10.53 50.5899H9.04004V53.57H10.53V50.5899Z" fill="black"/>
<path d="M10.53 56.55H9.04004V58.04H10.53V56.55Z" fill="black"/>
<path d="M10.53 61.02H9.04004V68.4599H10.53V61.02Z" fill="black"/>
<path d="M10.53 69.9499H9.04004V71.44H10.53V69.9499Z" fill="black"/>
<path d="M10.53 78.8799H9.04004V80.3699H10.53V78.8799Z" fill="black"/>
<path d="M12.02 7.41992H10.53V8.90997H12.02V7.41992Z" fill="black"/>
<path d="M12.02 10.39H10.53V14.8599H12.02V10.39Z" fill="black"/>
<path d="M12.02 16.3499H10.53V17.8399H12.02V16.3499Z" fill="black"/>
<path d="M12.02 19.3299H10.53V20.82H12.02V19.3299Z" fill="black"/>
<path d="M12.02 26.77H10.53V32.7299H12.02V26.77Z" fill="black"/>
<path d="M12.02 35.6999H10.53V37.19H12.02V35.6999Z" fill="black"/>
<path d="M12.02 41.66H10.53V47.6199H12.02V41.66Z" fill="black"/>
<path d="M12.02 50.5899H10.53V53.57H12.02V50.5899Z" fill="black"/>
<path d="M12.02 59.53H10.53V63.9999H12.02V59.53Z" fill="black"/>
<path d="M12.02 65.4799H10.53V68.4599H12.02V65.4799Z" fill="black"/>
<path d="M12.02 69.9499H10.53V71.44H12.02V69.9499Z" fill="black"/>
<path d="M12.02 72.93H10.53V77.4H12.02V72.93Z" fill="black"/>
<path d="M12.02 78.8799H10.53V80.3699H12.02V78.8799Z" fill="black"/>
<path d="M13.5101 7.41992H12.0201V8.90997H13.5101V7.41992Z" fill="black"/>
<path d="M13.5101 10.39H12.0201V14.8599H13.5101V10.39Z" fill="black"/>
<path d="M13.5101 16.3499H12.0201V17.8399H13.5101V16.3499Z" fill="black"/>
<path d="M13.5101 19.3299H12.0201V20.82H13.5101V19.3299Z" fill="black"/>
<path d="M13.5101 22.3H12.0201V25.28H13.5101V22.3Z" fill="black"/>
<path d="M13.5101 29.7499H12.0201V31.2399H13.5101V29.7499Z" fill="black"/>
<path d="M13.5101 32.7299H12.0201V34.2199H13.5101V32.7299Z" fill="black"/>
<path d="M13.5101 35.6999H12.0201V37.19H13.5101V35.6999Z" fill="black"/>
<path d="M13.5101 38.68H12.0201V43.15H13.5101V38.68Z" fill="black"/>
<path d="M13.5101 47.6199H12.0201V55.06H13.5101V47.6199Z" fill="black"/>
<path d="M13.5101 56.55H12.0201V59.53H13.5101V56.55Z" fill="black"/>
<path d="M13.5101 62.5099H12.0201V63.9999H13.5101V62.5099Z" fill="black"/>
<path d="M13.5101 65.4799H12.0201V66.9699H13.5101V65.4799Z" fill="black"/>
<path d="M13.5101 69.9499H12.0201V71.44H13.5101V69.9499Z" fill="black"/>
<path d="M13.5101 72.93H12.0201V77.4H13.5101V72.93Z" fill="black"/>
<path d="M13.5101 78.8799H12.0201V80.3699H13.5101V78.8799Z" fill="black"/>
<path d="M15 7.41992H13.51V8.90997H15V7.41992Z" fill="black"/>
<path d="M15 10.39H13.51V14.8599H15V10.39Z" fill="black"/>
<path d="M15 16.3499H13.51V17.8399H15V16.3499Z" fill="black"/>
<path d="M15 19.3299H13.51V20.82H15V19.3299Z" fill="black"/>
<path d="M15 22.3H13.51V23.79H15V22.3Z" fill="black"/>
<path d="M15 26.77H13.51V28.2599H15V26.77Z" fill="black"/>
<path d="M15 29.7499H13.51V31.2399H15V29.7499Z" fill="black"/>
<path d="M15 35.6999H13.51V37.19H15V35.6999Z" fill="black"/>
<path d="M15 40.17H13.51V50.5899H15V40.17Z" fill="black"/>
<path d="M15 53.57H13.51V55.06H15V53.57Z" fill="black"/>
<path d="M15 58.04H13.51V63.9999H15V58.04Z" fill="black"/>
<path d="M15 69.9499H13.51V71.44H15V69.9499Z" fill="black"/>
<path d="M15 72.93H13.51V77.4H15V72.93Z" fill="black"/>
<path d="M15 78.8799H13.51V80.3699H15V78.8799Z" fill="black"/>
<path d="M16.49 7.41992H15V8.90997H16.49V7.41992Z" fill="black"/>
<path d="M16.49 16.3499H15V17.8399H16.49V16.3499Z" fill="black"/>
<path d="M16.49 19.3299H15V23.8H16.49V19.3299Z" fill="black"/>
<path d="M16.49 28.2599H15V32.7299H16.49V28.2599Z" fill="black"/>
<path d="M16.49 34.2199H15V35.7099H16.49V34.2199Z" fill="black"/>
<path d="M16.49 38.68H15V41.66H16.49V38.68Z" fill="black"/>
<path d="M16.49 46.1299H15V47.6199H16.49V46.1299Z" fill="black"/>
<path d="M16.49 52.0799H15V53.57H16.49V52.0799Z" fill="black"/>
<path d="M16.49 56.55H15V62.5099H16.49V56.55Z" fill="black"/>
<path d="M16.49 63.9899H15V65.4799H16.49V63.9899Z" fill="black"/>
<path d="M16.49 69.9499H15V71.44H16.49V69.9499Z" fill="black"/>
<path d="M16.49 78.8799H15V80.3699H16.49V78.8799Z" fill="black"/>
<path d="M17.9801 7.41992H16.4901V17.8399H17.9801V7.41992Z" fill="black"/>
<path d="M17.9801 19.3299H16.4901V20.82H17.9801V19.3299Z" fill="black"/>
<path d="M17.9801 22.3H16.4901V23.79H17.9801V22.3Z" fill="black"/>
<path d="M17.9801 25.28H16.4901V26.77H17.9801V25.28Z" fill="black"/>
<path d="M17.9801 28.2599H16.4901V29.7499H17.9801V28.2599Z" fill="black"/>
<path d="M17.9801 31.2399H16.4901V32.7299H17.9801V31.2399Z" fill="black"/>
<path d="M17.9801 34.2199H16.4901V35.7099H17.9801V34.2199Z" fill="black"/>
<path d="M17.9801 37.19H16.4901V38.68H17.9801V37.19Z" fill="black"/>
<path d="M17.9801 40.17H16.4901V41.66H17.9801V40.17Z" fill="black"/>
<path d="M17.9801 43.15H16.4901V44.64H17.9801V43.15Z" fill="black"/>
<path d="M17.9801 46.1299H16.4901V47.6199H17.9801V46.1299Z" fill="black"/>
<path d="M17.9801 49.1099H16.4901V50.5999H17.9801V49.1099Z" fill="black"/>
<path d="M17.9801 52.0799H16.4901V53.57H17.9801V52.0799Z" fill="black"/>
<path d="M17.9801 55.06H16.4901V56.55H17.9801V55.06Z" fill="black"/>
<path d="M17.9801 58.04H16.4901V59.53H17.9801V58.04Z" fill="black"/>
<path d="M17.9801 61.02H16.4901V62.5099H17.9801V61.02Z" fill="black"/>
<path d="M17.9801 63.9899H16.4901V65.4799H17.9801V63.9899Z" fill="black"/>
<path d="M17.9801 66.9699H16.4901V68.4599H17.9801V66.9699Z" fill="black"/>
<path d="M17.9801 69.9499H16.4901V80.3699H17.9801V69.9499Z" fill="black"/>
<path d="M19.46 20.82H17.97V22.31H19.46V20.82Z" fill="black"/>
<path d="M19.46 23.79H17.97V28.2599H19.46V23.79Z" fill="black"/>
<path d="M19.46 31.2399H17.97V34.2199H19.46V31.2399Z" fill="black"/>
<path d="M19.46 40.17H17.97V41.66H19.46V40.17Z" fill="black"/>
<path d="M19.46 46.1299H17.97V49.1099H19.46V46.1299Z" fill="black"/>
<path d="M19.46 50.5899H17.97V52.0799H19.46V50.5899Z" fill="black"/>
<path d="M19.46 56.55H17.97V59.53H19.46V56.55Z" fill="black"/>
<path d="M19.46 61.02H17.97V62.5099H19.46V61.02Z" fill="black"/>
<path d="M19.46 63.9899H17.97V66.9699H19.46V63.9899Z" fill="black"/>
<path d="M20.9501 10.39H19.4601V19.32H20.9501V10.39Z" fill="black"/>
<path d="M20.9501 26.77H19.4601V34.2099H20.9501V26.77Z" fill="black"/>
<path d="M20.9501 35.6999H19.4601V37.19H20.9501V35.6999Z" fill="black"/>
<path d="M20.9501 38.68H19.4601V50.5899H20.9501V38.68Z" fill="black"/>
<path d="M20.9501 52.0799H19.4601V55.06H20.9501V52.0799Z" fill="black"/>
<path d="M20.9501 56.55H19.4601V58.04H20.9501V56.55Z" fill="black"/>
<path d="M20.9501 62.5099H19.4601V63.9999H20.9501V62.5099Z" fill="black"/>
<path d="M20.9501 68.4599H19.4601V69.9499H20.9501V68.4599Z" fill="black"/>
<path d="M20.9501 71.44H19.4601V77.4H20.9501V71.44Z" fill="black"/>
<path d="M20.9501 78.8799H19.4601V80.3699H20.9501V78.8799Z" fill="black"/>
<path d="M22.44 7.41992H20.95V8.90997H22.44V7.41992Z" fill="black"/>
<path d="M22.44 10.39H20.95V16.3499H22.44V10.39Z" fill="black"/>
<path d="M22.44 17.8399H20.95V22.31H22.44V17.8399Z" fill="black"/>
<path d="M22.44 23.79H20.95V29.7499H22.44V23.79Z" fill="black"/>
<path d="M22.44 35.6999H20.95V37.19H22.44V35.6999Z" fill="black"/>
<path d="M22.44 41.66H20.95V43.15H22.44V41.66Z" fill="black"/>
<path d="M22.44 50.5899H20.95V58.03H22.44V50.5899Z" fill="black"/>
<path d="M22.44 59.53H20.95V61.02H22.44V59.53Z" fill="black"/>
<path d="M22.44 66.9699H20.95V74.41H22.44V66.9699Z" fill="black"/>
<path d="M22.44 78.8799H20.95V80.3699H22.44V78.8799Z" fill="black"/>
<path d="M23.93 7.41992H22.44V11.89H23.93V7.41992Z" fill="black"/>
<path d="M23.93 14.8599H22.44V17.8399H23.93V14.8599Z" fill="black"/>
<path d="M23.93 20.82H22.44V22.31H23.93V20.82Z" fill="black"/>
<path d="M23.93 25.28H22.44V26.77H23.93V25.28Z" fill="black"/>
<path d="M23.93 34.2199H22.44V35.7099H23.93V34.2199Z" fill="black"/>
<path d="M23.93 37.19H22.44V38.68H23.93V37.19Z" fill="black"/>
<path d="M23.93 40.17H22.44V41.66H23.93V40.17Z" fill="black"/>
<path d="M23.93 43.15H22.44V44.64H23.93V43.15Z" fill="black"/>
<path d="M23.93 46.1299H22.44V52.0899H23.93V46.1299Z" fill="black"/>
<path d="M23.93 53.57H22.44V55.06H23.93V53.57Z" fill="black"/>
<path d="M23.93 58.04H22.44V59.53H23.93V58.04Z" fill="black"/>
<path d="M23.93 62.5099H22.44V68.4699H23.93V62.5099Z" fill="black"/>
<path d="M23.93 72.93H22.44V74.42H23.93V72.93Z" fill="black"/>
<path d="M23.93 75.91H22.44V78.89H23.93V75.91Z" fill="black"/>
<path d="M25.4201 7.41992H23.9301V8.90997H25.4201V7.41992Z" fill="black"/>
<path d="M25.4201 10.39H23.9301V11.8799H25.4201V10.39Z" fill="black"/>
<path d="M25.4201 13.3699H23.9301V16.3499H25.4201V13.3699Z" fill="black"/>
<path d="M25.4201 17.8399H23.9301V19.3299H25.4201V17.8399Z" fill="black"/>
<path d="M25.4201 23.79H23.9301V25.28H25.4201V23.79Z" fill="black"/>
<path d="M25.4201 26.77H23.9301V28.2599H25.4201V26.77Z" fill="black"/>
<path d="M25.4201 32.7299H23.9301V35.7099H25.4201V32.7299Z" fill="black"/>
<path d="M25.4201 40.17H23.9301V43.15H25.4201V40.17Z" fill="black"/>
<path d="M25.4201 50.5899H23.9301V52.0799H25.4201V50.5899Z" fill="black"/>
<path d="M25.4201 53.57H23.9301V55.06H25.4201V53.57Z" fill="black"/>
<path d="M25.4201 56.55H23.9301V58.04H25.4201V56.55Z" fill="black"/>
<path d="M25.4201 59.53H23.9301V61.02H25.4201V59.53Z" fill="black"/>
<path d="M25.4201 68.4599H23.9301V69.9499H25.4201V68.4599Z" fill="black"/>
<path d="M25.4201 71.44H23.9301V77.4H25.4201V71.44Z" fill="black"/>
<path d="M26.91 7.41992H25.42V13.3799H26.91V7.41992Z" fill="black"/>
<path d="M26.91 14.8599H25.42V19.3299H26.91V14.8599Z" fill="black"/>
<path d="M26.91 20.82H25.42V22.31H26.91V20.82Z" fill="black"/>
<path d="M26.91 25.28H25.42V26.77H26.91V25.28Z" fill="black"/>
<path d="M26.91 28.2599H25.42V29.7499H26.91V28.2599Z" fill="black"/>
<path d="M26.91 31.2399H25.42V35.7099H26.91V31.2399Z" fill="black"/>
<path d="M26.91 38.68H25.42V41.66H26.91V38.68Z" fill="black"/>
<path d="M26.91 44.64H25.42V49.1099H26.91V44.64Z" fill="black"/>
<path d="M26.91 50.5899H25.42V52.0799H26.91V50.5899Z" fill="black"/>
<path d="M26.91 55.06H25.42V56.55H26.91V55.06Z" fill="black"/>
<path d="M26.91 58.04H25.42V59.53H26.91V58.04Z" fill="black"/>
<path d="M26.91 61.02H25.42V63.9999H26.91V61.02Z" fill="black"/>
<path d="M26.91 66.9699H25.42V69.9499H26.91V66.9699Z" fill="black"/>
<path d="M26.91 71.44H25.42V72.93H26.91V71.44Z" fill="black"/>
<path d="M26.91 74.42H25.42V77.4H26.91V74.42Z" fill="black"/>
<path d="M28.4 7.41992H26.91V13.3799H28.4V7.41992Z" fill="black"/>
<path d="M28.4 14.8599H26.91V16.3499H28.4V14.8599Z" fill="black"/>
<path d="M28.4 19.3299H26.91V22.31H28.4V19.3299Z" fill="black"/>
<path d="M28.4 23.79H26.91V25.28H28.4V23.79Z" fill="black"/>
<path d="M28.4 26.77H26.91V28.2599H28.4V26.77Z" fill="black"/>
<path d="M28.4 29.7499H26.91V31.2399H28.4V29.7499Z" fill="black"/>
<path d="M28.4 32.7299H26.91V34.2199H28.4V32.7299Z" fill="black"/>
<path d="M28.4 35.6999H26.91V37.19H28.4V35.6999Z" fill="black"/>
<path d="M28.4 38.68H26.91V43.15H28.4V38.68Z" fill="black"/>
<path d="M28.4 46.1299H26.91V47.6199H28.4V46.1299Z" fill="black"/>
<path d="M28.4 50.5899H26.91V52.0799H28.4V50.5899Z" fill="black"/>
<path d="M28.4 53.57H26.91V56.55H28.4V53.57Z" fill="black"/>
<path d="M28.4 59.53H26.91V61.02H28.4V59.53Z" fill="black"/>
<path d="M28.4 66.9699H26.91V68.4599H28.4V66.9699Z" fill="black"/>
<path d="M28.4 69.9499H26.91V71.44H28.4V69.9499Z" fill="black"/>
<path d="M28.4 77.39H26.91V80.3699H28.4V77.39Z" fill="black"/>
<path d="M29.89 7.41992H28.4V8.90997H29.89V7.41992Z" fill="black"/>
<path d="M29.89 10.39H28.4V13.3699H29.89V10.39Z" fill="black"/>
<path d="M29.89 14.8599H28.4V17.8399H29.89V14.8599Z" fill="black"/>
<path d="M29.89 20.82H28.4V23.8H29.89V20.82Z" fill="black"/>
<path d="M29.89 29.7499H28.4V31.2399H29.89V29.7499Z" fill="black"/>
<path d="M29.89 35.6999H28.4V40.17H29.89V35.6999Z" fill="black"/>
<path d="M29.89 41.66H28.4V44.64H29.89V41.66Z" fill="black"/>
<path d="M29.89 46.1299H28.4V50.5999H29.89V46.1299Z" fill="black"/>
<path d="M29.89 55.06H28.4V59.53H29.89V55.06Z" fill="black"/>
<path d="M29.89 68.4599H28.4V69.9499H29.89V68.4599Z" fill="black"/>
<path d="M29.89 72.93H28.4V77.4H29.89V72.93Z" fill="black"/>
<path d="M31.3801 7.41992H29.89V8.90997H31.3801V7.41992Z" fill="black"/>
<path d="M31.3801 10.39H29.89V13.3699H31.3801V10.39Z" fill="black"/>
<path d="M31.3801 14.8599H29.89V16.3499H31.3801V14.8599Z" fill="black"/>
<path d="M31.3801 17.8399H29.89V22.31H31.3801V17.8399Z" fill="black"/>
<path d="M31.3801 23.79H29.89V25.28H31.3801V23.79Z" fill="black"/>
<path d="M31.3801 26.77H29.89V31.2399H31.3801V26.77Z" fill="black"/>
<path d="M31.3801 32.7299H29.89V34.2199H31.3801V32.7299Z" fill="black"/>
<path d="M31.3801 37.19H29.89V38.68H31.3801V37.19Z" fill="black"/>
<path d="M31.3801 41.66H29.89V43.15H31.3801V41.66Z" fill="black"/>
<path d="M31.3801 47.6199H29.89V49.1099H31.3801V47.6199Z" fill="black"/>
<path d="M31.3801 50.5899H29.89V53.57H31.3801V50.5899Z" fill="black"/>
<path d="M31.3801 55.06H29.89V56.55H31.3801V55.06Z" fill="black"/>
<path d="M31.3801 58.04H29.89V66.9699H31.3801V58.04Z" fill="black"/>
<path d="M31.3801 71.44H29.89V72.93H31.3801V71.44Z" fill="black"/>
<path d="M31.3801 77.39H29.89V80.3699H31.3801V77.39Z" fill="black"/>
<path d="M32.86 7.41992H31.37V11.89H32.86V7.41992Z" fill="black"/>
<path d="M32.86 13.3699H31.37V17.8399H32.86V13.3699Z" fill="black"/>
<path d="M32.86 25.28H31.37V26.77H32.86V25.28Z" fill="black"/>
<path d="M32.86 28.2599H31.37V32.7299H32.86V28.2599Z" fill="black"/>
<path d="M32.86 35.6999H31.37V37.19H32.86V35.6999Z" fill="black"/>
<path d="M32.86 40.17H31.37V43.15H32.86V40.17Z" fill="black"/>
<path d="M32.86 47.6199H31.37V49.1099H32.86V47.6199Z" fill="black"/>
<path d="M32.86 53.57H31.37V56.55H32.86V53.57Z" fill="black"/>
<path d="M32.86 58.04H31.37V62.5099H32.86V58.04Z" fill="black"/>
<path d="M32.86 63.9899H31.37V66.9699H32.86V63.9899Z" fill="black"/>
<path d="M32.86 68.4599H31.37V71.44H32.86V68.4599Z" fill="black"/>
<path d="M32.86 72.93H31.37V74.42H32.86V72.93Z" fill="black"/>
<path d="M32.86 75.91H31.37V78.89H32.86V75.91Z" fill="black"/>
<path d="M34.3501 7.41992H32.86V8.90997H34.3501V7.41992Z" fill="black"/>
<path d="M34.3501 10.39H32.86V13.3699H34.3501V10.39Z" fill="black"/>
<path d="M34.3501 17.8399H32.86V25.28H34.3501V17.8399Z" fill="black"/>
<path d="M34.3501 26.77H32.86V32.7299H34.3501V26.77Z" fill="black"/>
<path d="M34.3501 37.19H32.86V41.66H34.3501V37.19Z" fill="black"/>
<path d="M34.3501 49.1099H32.86V52.0899H34.3501V49.1099Z" fill="black"/>
<path d="M34.3501 53.57H32.86V56.55H34.3501V53.57Z" fill="black"/>
<path d="M34.3501 59.53H32.86V63.9999H34.3501V59.53Z" fill="black"/>
<path d="M34.3501 66.9699H32.86V68.4599H34.3501V66.9699Z" fill="black"/>
<path d="M34.3501 69.9499H32.86V72.93H34.3501V69.9499Z" fill="black"/>
<path d="M34.3501 77.39H32.86V80.3699H34.3501V77.39Z" fill="black"/>
<path d="M35.84 7.41992H34.3501V10.4H35.84V7.41992Z" fill="black"/>
<path d="M35.84 13.3699H34.3501V17.8399H35.84V13.3699Z" fill="black"/>
<path d="M35.84 19.3299H34.3501V20.82H35.84V19.3299Z" fill="black"/>
<path d="M35.84 22.3H34.3501V23.79H35.84V22.3Z" fill="black"/>
<path d="M35.84 26.77H34.3501V29.7499H35.84V26.77Z" fill="black"/>
<path d="M35.84 31.2399H34.3501V32.7299H35.84V31.2399Z" fill="black"/>
<path d="M35.84 37.19H34.3501V40.17H35.84V37.19Z" fill="black"/>
<path d="M35.84 43.15H34.3501V50.5899H35.84V43.15Z" fill="black"/>
<path d="M35.84 59.53H34.3501V61.02H35.84V59.53Z" fill="black"/>
<path d="M35.84 63.9899H34.3501V66.9699H35.84V63.9899Z" fill="black"/>
<path d="M35.84 69.9499H34.3501V74.42H35.84V69.9499Z" fill="black"/>
<path d="M35.84 78.8799H34.3501V80.3699H35.84V78.8799Z" fill="black"/>
<path d="M37.33 7.41992H35.84V10.4H37.33V7.41992Z" fill="black"/>
<path d="M37.33 11.8799H35.84V13.3699H37.33V11.8799Z" fill="black"/>
<path d="M37.33 14.8599H35.84V16.3499H37.33V14.8599Z" fill="black"/>
<path d="M37.33 19.3299H35.84V22.31H37.33V19.3299Z" fill="black"/>
<path d="M37.33 23.79H35.84V25.28H37.33V23.79Z" fill="black"/>
<path d="M37.33 26.77H35.84V28.2599H37.33V26.77Z" fill="black"/>
<path d="M37.33 29.7499H35.84V35.7099H37.33V29.7499Z" fill="black"/>
<path d="M37.33 38.68H35.84V40.17H37.33V38.68Z" fill="black"/>
<path d="M37.33 44.64H35.84V50.5999H37.33V44.64Z" fill="black"/>
<path d="M37.33 52.0799H35.84V53.57H37.33V52.0799Z" fill="black"/>
<path d="M37.33 55.06H35.84V58.04H37.33V55.06Z" fill="black"/>
<path d="M37.33 61.02H35.84V63.9999H37.33V61.02Z" fill="black"/>
<path d="M37.33 65.4799H35.84V66.9699H37.33V65.4799Z" fill="black"/>
<path d="M37.33 68.4599H35.84V69.9499H37.33V68.4599Z" fill="black"/>
<path d="M37.33 71.44H35.84V72.93H37.33V71.44Z" fill="black"/>
<path d="M37.33 74.42H35.84V75.91H37.33V74.42Z" fill="black"/>
<path d="M37.33 77.39H35.84V80.3699H37.33V77.39Z" fill="black"/>
<path d="M38.8201 8.89996H37.33V10.39H38.8201V8.89996Z" fill="black"/>
<path d="M38.8201 16.3499H37.33V17.8399H38.8201V16.3499Z" fill="black"/>
<path d="M38.8201 26.77H37.33V31.2399H38.8201V26.77Z" fill="black"/>
<path d="M38.8201 35.6999H37.33V38.68H38.8201V35.6999Z" fill="black"/>
<path d="M38.8201 40.17H37.33V44.64H38.8201V40.17Z" fill="black"/>
<path d="M38.8201 46.1299H37.33V49.1099H38.8201V46.1299Z" fill="black"/>
<path d="M38.8201 58.04H37.33V59.53H38.8201V58.04Z" fill="black"/>
<path d="M38.8201 63.9899H37.33V65.4799H38.8201V63.9899Z" fill="black"/>
<path d="M38.8201 66.9699H37.33V68.4599H38.8201V66.9699Z" fill="black"/>
<path d="M38.8201 74.42H37.33V80.3799H38.8201V74.42Z" fill="black"/>
<path d="M40.31 13.3699H38.8201V16.3499H40.31V13.3699Z" fill="black"/>
<path d="M40.31 22.3H38.8201V23.79H40.31V22.3Z" fill="black"/>
<path d="M40.31 25.28H38.8201V26.77H40.31V25.28Z" fill="black"/>
<path d="M40.31 28.2599H38.8201V29.7499H40.31V28.2599Z" fill="black"/>
<path d="M40.31 31.2399H38.8201V32.7299H40.31V31.2399Z" fill="black"/>
<path d="M40.31 38.68H38.8201V40.17H40.31V38.68Z" fill="black"/>
<path d="M40.31 41.66H38.8201V44.64H40.31V41.66Z" fill="black"/>
<path d="M40.31 46.1299H38.8201V47.6199H40.31V46.1299Z" fill="black"/>
<path d="M40.31 49.1099H38.8201V61.02H40.31V49.1099Z" fill="black"/>
<path d="M40.31 62.5099H38.8201V63.9999H40.31V62.5099Z" fill="black"/>
<path d="M40.31 66.9699H38.8201V68.4599H40.31V66.9699Z" fill="black"/>
<path d="M40.31 71.44H38.8201V72.93H40.31V71.44Z" fill="black"/>
<path d="M40.31 74.42H38.8201V75.91H40.31V74.42Z" fill="black"/>
<path d="M40.31 77.39H38.8201V80.3699H40.31V77.39Z" fill="black"/>
<path d="M41.8 8.89996H40.31V10.39H41.8V8.89996Z" fill="black"/>
<path d="M41.8 11.8799H40.31V20.81H41.8V11.8799Z" fill="black"/>
<path d="M41.8 25.28H40.31V31.2399H41.8V25.28Z" fill="black"/>
<path d="M41.8 37.19H40.31V38.68H41.8V37.19Z" fill="black"/>
<path d="M41.8 40.17H40.31V47.6099H41.8V40.17Z" fill="black"/>
<path d="M41.8 49.1099H40.31V53.5799H41.8V49.1099Z" fill="black"/>
<path d="M41.8 56.55H40.31V58.04H41.8V56.55Z" fill="black"/>
<path d="M41.8 59.53H40.31V61.02H41.8V59.53Z" fill="black"/>
<path d="M41.8 62.5099H40.31V75.91H41.8V62.5099Z" fill="black"/>
<path d="M41.8 77.39H40.31V78.8799H41.8V77.39Z" fill="black"/>
<path d="M43.29 7.41992H41.8V8.90997H43.29V7.41992Z" fill="black"/>
<path d="M43.29 13.3699H41.8V14.8599H43.29V13.3699Z" fill="black"/>
<path d="M43.29 19.3299H41.8V20.82H43.29V19.3299Z" fill="black"/>
<path d="M43.29 22.3H41.8V23.79H43.29V22.3Z" fill="black"/>
<path d="M43.29 25.28H41.8V26.77H43.29V25.28Z" fill="black"/>
<path d="M43.29 31.2399H41.8V34.2199H43.29V31.2399Z" fill="black"/>
<path d="M43.29 37.19H41.8V41.66H43.29V37.19Z" fill="black"/>
<path d="M43.29 46.1299H41.8V49.1099H43.29V46.1299Z" fill="black"/>
<path d="M43.29 50.5899H41.8V52.0799H43.29V50.5899Z" fill="black"/>
<path d="M43.29 53.57H41.8V55.06H43.29V53.57Z" fill="black"/>
<path d="M43.29 56.55H41.8V58.04H43.29V56.55Z" fill="black"/>
<path d="M43.29 62.5099H41.8V65.4899H43.29V62.5099Z" fill="black"/>
<path d="M43.29 66.9699H41.8V68.4599H43.29V66.9699Z" fill="black"/>
<path d="M43.29 72.93H41.8V74.42H43.29V72.93Z" fill="black"/>
<path d="M43.29 77.39H41.8V80.3699H43.29V77.39Z" fill="black"/>
<path d="M44.78 8.89996H43.29V14.8599H44.78V8.89996Z" fill="black"/>
<path d="M44.78 16.3499H43.29V17.8399H44.78V16.3499Z" fill="black"/>
<path d="M44.78 19.3299H43.29V20.82H44.78V19.3299Z" fill="black"/>
<path d="M44.78 22.3H43.29V23.79H44.78V22.3Z" fill="black"/>
<path d="M44.78 25.28H43.29V28.2599H44.78V25.28Z" fill="black"/>
<path d="M44.78 31.2399H43.29V32.7299H44.78V31.2399Z" fill="black"/>
<path d="M44.78 37.19H43.29V38.68H44.78V37.19Z" fill="black"/>
<path d="M44.78 40.17H43.29V41.66H44.78V40.17Z" fill="black"/>
<path d="M44.78 43.15H43.29V44.64H44.78V43.15Z" fill="black"/>
<path d="M44.78 46.1299H43.29V47.6199H44.78V46.1299Z" fill="black"/>
<path d="M44.78 50.5899H43.29V55.06H44.78V50.5899Z" fill="black"/>
<path d="M44.78 56.55H43.29V58.04H44.78V56.55Z" fill="black"/>
<path d="M44.78 62.5099H43.29V63.9999H44.78V62.5099Z" fill="black"/>
<path d="M44.78 66.9699H43.29V68.4599H44.78V66.9699Z" fill="black"/>
<path d="M44.78 69.9499H43.29V71.44H44.78V69.9499Z" fill="black"/>
<path d="M44.78 72.93H43.29V74.42H44.78V72.93Z" fill="black"/>
<path d="M44.78 75.91H43.29V80.3799H44.78V75.91Z" fill="black"/>
<path d="M46.26 11.8799H44.7701V14.8599H46.26V11.8799Z" fill="black"/>
<path d="M46.26 19.3299H44.7701V22.31H46.26V19.3299Z" fill="black"/>
<path d="M46.26 25.28H44.7701V26.77H46.26V25.28Z" fill="black"/>
<path d="M46.26 28.2599H44.7701V29.7499H46.26V28.2599Z" fill="black"/>
<path d="M46.26 31.2399H44.7701V37.1999H46.26V31.2399Z" fill="black"/>
<path d="M46.26 38.68H44.7701V41.66H46.26V38.68Z" fill="black"/>
<path d="M46.26 46.1299H44.7701V53.57H46.26V46.1299Z" fill="black"/>
<path d="M46.26 58.04H44.7701V59.53H46.26V58.04Z" fill="black"/>
<path d="M46.26 61.02H44.7701V62.5099H46.26V61.02Z" fill="black"/>
<path d="M46.26 63.9899H44.7701V68.4599H46.26V63.9899Z" fill="black"/>
<path d="M46.26 72.93H44.7701V74.42H46.26V72.93Z" fill="black"/>
<path d="M46.26 77.39H44.7701V78.8799H46.26V77.39Z" fill="black"/>
<path d="M47.75 8.89996H46.26V10.39H47.75V8.89996Z" fill="black"/>
<path d="M47.75 13.3699H46.26V20.81H47.75V13.3699Z" fill="black"/>
<path d="M47.75 22.3H46.26V26.77H47.75V22.3Z" fill="black"/>
<path d="M47.75 28.2599H46.26V31.2399H47.75V28.2599Z" fill="black"/>
<path d="M47.75 35.6999H46.26V38.68H47.75V35.6999Z" fill="black"/>
<path d="M47.75 40.17H46.26V49.0999H47.75V40.17Z" fill="black"/>
<path d="M47.75 50.5899H46.26V52.0799H47.75V50.5899Z" fill="black"/>
<path d="M47.75 53.57H46.26V55.06H47.75V53.57Z" fill="black"/>
<path d="M47.75 56.55H46.26V58.04H47.75V56.55Z" fill="black"/>
<path d="M47.75 66.9699H46.26V74.41H47.75V66.9699Z" fill="black"/>
<path d="M47.75 78.8799H46.26V80.3699H47.75V78.8799Z" fill="black"/>
<path d="M49.2401 13.3699H47.75V16.3499H49.2401V13.3699Z" fill="black"/>
<path d="M49.2401 17.8399H47.75V19.3299H49.2401V17.8399Z" fill="black"/>
<path d="M49.2401 23.79H47.75V25.28H49.2401V23.79Z" fill="black"/>
<path d="M49.2401 31.2399H47.75V32.7299H49.2401V31.2399Z" fill="black"/>
<path d="M49.2401 34.2199H47.75V35.7099H49.2401V34.2199Z" fill="black"/>
<path d="M49.2401 37.19H47.75V40.17H49.2401V37.19Z" fill="black"/>
<path d="M49.2401 41.66H47.75V43.15H49.2401V41.66Z" fill="black"/>
<path d="M49.2401 46.1299H47.75V49.1099H49.2401V46.1299Z" fill="black"/>
<path d="M49.2401 50.5899H47.75V52.0799H49.2401V50.5899Z" fill="black"/>
<path d="M49.2401 56.55H47.75V58.04H49.2401V56.55Z" fill="black"/>
<path d="M49.2401 59.53H47.75V61.02H49.2401V59.53Z" fill="black"/>
<path d="M49.2401 63.9899H47.75V65.4799H49.2401V63.9899Z" fill="black"/>
<path d="M49.2401 66.9699H47.75V72.93H49.2401V66.9699Z" fill="black"/>
<path d="M50.73 8.89996H49.2401V10.39H50.73V8.89996Z" fill="black"/>
<path d="M50.73 13.3699H49.2401V14.8599H50.73V13.3699Z" fill="black"/>
<path d="M50.73 16.3499H49.2401V17.8399H50.73V16.3499Z" fill="black"/>
<path d="M50.73 22.3H49.2401V25.28H50.73V22.3Z" fill="black"/>
<path d="M50.73 26.77H49.2401V28.2599H50.73V26.77Z" fill="black"/>
<path d="M50.73 29.7499H49.2401V31.2399H50.73V29.7499Z" fill="black"/>
<path d="M50.73 34.2199H49.2401V37.1999H50.73V34.2199Z" fill="black"/>
<path d="M50.73 38.68H49.2401V43.15H50.73V38.68Z" fill="black"/>
<path d="M50.73 46.1299H49.2401V49.1099H50.73V46.1299Z" fill="black"/>
<path d="M50.73 50.5899H49.2401V53.57H50.73V50.5899Z" fill="black"/>
<path d="M50.73 59.53H49.2401V61.02H50.73V59.53Z" fill="black"/>
<path d="M50.73 63.9899H49.2401V66.9699H50.73V63.9899Z" fill="black"/>
<path d="M50.73 71.44H49.2401V72.93H50.73V71.44Z" fill="black"/>
<path d="M52.22 7.41992H50.73V8.90997H52.22V7.41992Z" fill="black"/>
<path d="M52.22 10.39H50.73V14.8599H52.22V10.39Z" fill="black"/>
<path d="M52.22 19.3299H50.73V22.31H52.22V19.3299Z" fill="black"/>
<path d="M52.22 25.28H50.73V28.2599H52.22V25.28Z" fill="black"/>
<path d="M52.22 31.2399H50.73V32.7299H52.22V31.2399Z" fill="black"/>
<path d="M52.22 34.2199H50.73V38.69H52.22V34.2199Z" fill="black"/>
<path d="M52.22 44.64H50.73V47.6199H52.22V44.64Z" fill="black"/>
<path d="M52.22 49.1099H50.73V52.0899H52.22V49.1099Z" fill="black"/>
<path d="M52.22 56.55H50.73V58.04H52.22V56.55Z" fill="black"/>
<path d="M52.22 59.53H50.73V63.9999H52.22V59.53Z" fill="black"/>
<path d="M52.22 66.9699H50.73V72.93H52.22V66.9699Z" fill="black"/>
<path d="M52.22 74.42H50.73V75.91H52.22V74.42Z" fill="black"/>
<path d="M52.22 77.39H50.73V80.3699H52.22V77.39Z" fill="black"/>
<path d="M53.7101 7.41992H52.22V8.90997H53.7101V7.41992Z" fill="black"/>
<path d="M53.7101 13.3699H52.22V14.8599H53.7101V13.3699Z" fill="black"/>
<path d="M53.7101 16.3499H52.22V17.8399H53.7101V16.3499Z" fill="black"/>
<path d="M53.7101 19.3299H52.22V22.31H53.7101V19.3299Z" fill="black"/>
<path d="M53.7101 26.77H52.22V29.7499H53.7101V26.77Z" fill="black"/>
<path d="M53.7101 32.7299H52.22V34.2199H53.7101V32.7299Z" fill="black"/>
<path d="M53.7101 37.19H52.22V40.17H53.7101V37.19Z" fill="black"/>
<path d="M53.7101 44.64H52.22V47.6199H53.7101V44.64Z" fill="black"/>
<path d="M53.7101 49.1099H52.22V59.53H53.7101V49.1099Z" fill="black"/>
<path d="M53.7101 62.5099H52.22V63.9999H53.7101V62.5099Z" fill="black"/>
<path d="M53.7101 66.9699H52.22V69.9499H53.7101V66.9699Z" fill="black"/>
<path d="M53.7101 74.42H52.22V75.91H53.7101V74.42Z" fill="black"/>
<path d="M53.7101 78.8799H52.22V80.3699H53.7101V78.8799Z" fill="black"/>
<path d="M55.2 11.8799H53.7101V16.3499H55.2V11.8799Z" fill="black"/>
<path d="M55.2 17.8399H53.7101V20.82H55.2V17.8399Z" fill="black"/>
<path d="M55.2 25.28H53.7101V28.2599H55.2V25.28Z" fill="black"/>
<path d="M55.2 31.2399H53.7101V35.7099H55.2V31.2399Z" fill="black"/>
<path d="M55.2 37.19H53.7101V38.68H55.2V37.19Z" fill="black"/>
<path d="M55.2 40.17H53.7101V43.15H55.2V40.17Z" fill="black"/>
<path d="M55.2 49.1099H53.7101V50.5999H55.2V49.1099Z" fill="black"/>
<path d="M55.2 52.0799H53.7101V53.57H55.2V52.0799Z" fill="black"/>
<path d="M55.2 55.06H53.7101V56.55H55.2V55.06Z" fill="black"/>
<path d="M55.2 61.02H53.7101V69.9499H55.2V61.02Z" fill="black"/>
<path d="M55.2 74.42H53.7101V75.91H55.2V74.42Z" fill="black"/>
<path d="M55.2 77.39H53.7101V78.8799H55.2V77.39Z" fill="black"/>
<path d="M56.69 7.41992H55.2V10.4H56.69V7.41992Z" fill="black"/>
<path d="M56.69 14.8599H55.2V17.8399H56.69V14.8599Z" fill="black"/>
<path d="M56.69 20.82H55.2V22.31H56.69V20.82Z" fill="black"/>
<path d="M56.69 23.79H55.2V25.28H56.69V23.79Z" fill="black"/>
<path d="M56.69 26.77H55.2V28.2599H56.69V26.77Z" fill="black"/>
<path d="M56.69 29.7499H55.2V31.2399H56.69V29.7499Z" fill="black"/>
<path d="M56.69 34.2199H55.2V37.1999H56.69V34.2199Z" fill="black"/>
<path d="M56.69 41.66H55.2V43.15H56.69V41.66Z" fill="black"/>
<path d="M56.69 46.1299H55.2V49.1099H56.69V46.1299Z" fill="black"/>
<path d="M56.69 50.5899H55.2V53.57H56.69V50.5899Z" fill="black"/>
<path d="M56.69 59.53H55.2V61.02H56.69V59.53Z" fill="black"/>
<path d="M56.69 62.5099H55.2V63.9999H56.69V62.5099Z" fill="black"/>
<path d="M56.69 65.4799H55.2V66.9699H56.69V65.4799Z" fill="black"/>
<path d="M56.69 69.9499H55.2V72.93H56.69V69.9499Z" fill="black"/>
<path d="M56.69 75.91H55.2V78.89H56.69V75.91Z" fill="black"/>
<path d="M58.18 8.89996H56.69V11.8799H58.18V8.89996Z" fill="black"/>
<path d="M58.18 17.8399H56.69V20.82H58.18V17.8399Z" fill="black"/>
<path d="M58.18 22.3H56.69V25.28H58.18V22.3Z" fill="black"/>
<path d="M58.18 28.2599H56.69V29.7499H58.18V28.2599Z" fill="black"/>
<path d="M58.18 31.2399H56.69V32.7299H58.18V31.2399Z" fill="black"/>
<path d="M58.18 40.17H56.69V43.15H58.18V40.17Z" fill="black"/>
<path d="M58.18 46.1299H56.69V47.6199H58.18V46.1299Z" fill="black"/>
<path d="M58.18 49.1099H56.69V50.5999H58.18V49.1099Z" fill="black"/>
<path d="M58.18 53.57H56.69V56.55H58.18V53.57Z" fill="black"/>
<path d="M58.18 61.02H56.69V62.5099H58.18V61.02Z" fill="black"/>
<path d="M58.18 63.9899H56.69V65.4799H58.18V63.9899Z" fill="black"/>
<path d="M58.18 66.9699H56.69V68.4599H58.18V66.9699Z" fill="black"/>
<path d="M58.18 69.9499H56.69V74.42H58.18V69.9499Z" fill="black"/>
<path d="M58.18 75.91H56.69V77.4H58.18V75.91Z" fill="black"/>
<path d="M59.67 14.8599H58.18V17.8399H59.67V14.8599Z" fill="black"/>
<path d="M59.67 19.3299H58.18V20.82H59.67V19.3299Z" fill="black"/>
<path d="M59.67 23.79H58.18V25.28H59.67V23.79Z" fill="black"/>
<path d="M59.67 29.7499H58.18V32.7299H59.67V29.7499Z" fill="black"/>
<path d="M59.67 34.2199H58.18V35.7099H59.67V34.2199Z" fill="black"/>
<path d="M59.67 40.17H58.18V43.15H59.67V40.17Z" fill="black"/>
<path d="M59.67 53.57H58.18V56.55H59.67V53.57Z" fill="black"/>
<path d="M59.67 63.9899H58.18V68.4599H59.67V63.9899Z" fill="black"/>
<path d="M59.67 69.9499H58.18V74.42H59.67V69.9499Z" fill="black"/>
<path d="M59.67 75.91H58.18V77.4H59.67V75.91Z" fill="black"/>
<path d="M61.15 11.8799H59.66V13.3699H61.15V11.8799Z" fill="black"/>
<path d="M61.15 17.8399H59.66V22.31H61.15V17.8399Z" fill="black"/>
<path d="M61.15 25.28H59.66V28.2599H61.15V25.28Z" fill="black"/>
<path d="M61.15 29.7499H59.66V31.2399H61.15V29.7499Z" fill="black"/>
<path d="M61.15 32.7299H59.66V35.7099H61.15V32.7299Z" fill="black"/>
<path d="M61.15 37.19H59.66V38.68H61.15V37.19Z" fill="black"/>
<path d="M61.15 43.15H59.66V44.64H61.15V43.15Z" fill="black"/>
<path d="M61.15 46.1299H59.66V50.5999H61.15V46.1299Z" fill="black"/>
<path d="M61.15 55.06H59.66V56.55H61.15V55.06Z" fill="black"/>
<path d="M61.15 59.53H59.66V62.5099H61.15V59.53Z" fill="black"/>
<path d="M61.15 66.9699H59.66V68.4599H61.15V66.9699Z" fill="black"/>
<path d="M61.15 72.93H59.66V75.91H61.15V72.93Z" fill="black"/>
<path d="M61.15 78.8799H59.66V80.3699H61.15V78.8799Z" fill="black"/>
<path d="M62.64 7.41992H61.15V10.4H62.64V7.41992Z" fill="black"/>
<path d="M62.64 11.8799H61.15V14.8599H62.64V11.8799Z" fill="black"/>
<path d="M62.64 16.3499H61.15V17.8399H62.64V16.3499Z" fill="black"/>
<path d="M62.64 19.3299H61.15V22.31H62.64V19.3299Z" fill="black"/>
<path d="M62.64 25.28H61.15V26.77H62.64V25.28Z" fill="black"/>
<path d="M62.64 28.2599H61.15V29.7499H62.64V28.2599Z" fill="black"/>
<path d="M62.64 31.2399H61.15V34.2199H62.64V31.2399Z" fill="black"/>
<path d="M62.64 37.19H61.15V38.68H62.64V37.19Z" fill="black"/>
<path d="M62.64 43.15H61.15V47.6199H62.64V43.15Z" fill="black"/>
<path d="M62.64 49.1099H61.15V52.0899H62.64V49.1099Z" fill="black"/>
<path d="M62.64 53.57H61.15V56.55H62.64V53.57Z" fill="black"/>
<path d="M62.64 59.53H61.15V62.5099H62.64V59.53Z" fill="black"/>
<path d="M62.64 63.9899H61.15V65.4799H62.64V63.9899Z" fill="black"/>
<path d="M62.64 66.9699H61.15V68.4599H62.64V66.9699Z" fill="black"/>
<path d="M62.64 69.9499H61.15V71.44H62.64V69.9499Z" fill="black"/>
<path d="M62.64 72.93H61.15V75.91H62.64V72.93Z" fill="black"/>
<path d="M62.64 78.8799H61.15V80.3699H62.64V78.8799Z" fill="black"/>
<path d="M64.1301 11.8799H62.64V14.8599H64.1301V11.8799Z" fill="black"/>
<path d="M64.1301 19.3299H62.64V22.31H64.1301V19.3299Z" fill="black"/>
<path d="M64.1301 23.79H62.64V26.77H64.1301V23.79Z" fill="black"/>
<path d="M64.1301 28.2599H62.64V32.7299H64.1301V28.2599Z" fill="black"/>
<path d="M64.1301 34.2199H62.64V37.1999H64.1301V34.2199Z" fill="black"/>
<path d="M64.1301 44.64H62.64V47.6199H64.1301V44.64Z" fill="black"/>
<path d="M64.1301 50.5899H62.64V53.57H64.1301V50.5899Z" fill="black"/>
<path d="M64.1301 55.06H62.64V58.04H64.1301V55.06Z" fill="black"/>
<path d="M64.1301 59.53H62.64V61.02H64.1301V59.53Z" fill="black"/>
<path d="M64.1301 62.5099H62.64V63.9999H64.1301V62.5099Z" fill="black"/>
<path d="M64.1301 66.9699H62.64V71.44H64.1301V66.9699Z" fill="black"/>
<path d="M64.1301 72.93H62.64V80.3699H64.1301V72.93Z" fill="black"/>
<path d="M65.62 8.89996H64.1301V10.39H65.62V8.89996Z" fill="black"/>
<path d="M65.62 14.8599H64.1301V20.82H65.62V14.8599Z" fill="black"/>
<path d="M65.62 22.3H64.1301V23.79H65.62V22.3Z" fill="black"/>
<path d="M65.62 28.2599H64.1301V29.7499H65.62V28.2599Z" fill="black"/>
<path d="M65.62 34.2199H64.1301V38.69H65.62V34.2199Z" fill="black"/>
<path d="M65.62 40.17H64.1301V44.64H65.62V40.17Z" fill="black"/>
<path d="M65.62 49.1099H64.1301V50.5999H65.62V49.1099Z" fill="black"/>
<path d="M65.62 55.06H64.1301V56.55H65.62V55.06Z" fill="black"/>
<path d="M65.62 59.53H64.1301V62.5099H65.62V59.53Z" fill="black"/>
<path d="M65.62 63.9899H64.1301V66.9699H65.62V63.9899Z" fill="black"/>
<path d="M65.62 69.9499H64.1301V72.93H65.62V69.9499Z" fill="black"/>
<path d="M65.62 75.91H64.1301V78.89H65.62V75.91Z" fill="black"/>
<path d="M67.11 8.89996H65.62V13.3699H67.11V8.89996Z" fill="black"/>
<path d="M67.11 19.3299H65.62V20.82H67.11V19.3299Z" fill="black"/>
<path d="M67.11 22.3H65.62V25.28H67.11V22.3Z" fill="black"/>
<path d="M67.11 26.77H65.62V28.2599H67.11V26.77Z" fill="black"/>
<path d="M67.11 29.7499H65.62V32.7299H67.11V29.7499Z" fill="black"/>
<path d="M67.11 34.2199H65.62V38.69H67.11V34.2199Z" fill="black"/>
<path d="M67.11 43.15H65.62V47.6199H67.11V43.15Z" fill="black"/>
<path d="M67.11 49.1099H65.62V50.5999H67.11V49.1099Z" fill="black"/>
<path d="M67.11 55.06H65.62V59.53H67.11V55.06Z" fill="black"/>
<path d="M67.11 61.02H65.62V62.5099H67.11V61.02Z" fill="black"/>
<path d="M67.11 66.9699H65.62V68.4599H67.11V66.9699Z" fill="black"/>
<path d="M67.11 78.8799H65.62V80.3699H67.11V78.8799Z" fill="black"/>
<path d="M68.6001 7.41992H67.11V11.89H68.6001V7.41992Z" fill="black"/>
<path d="M68.6001 16.3499H67.11V17.8399H68.6001V16.3499Z" fill="black"/>
<path d="M68.6001 22.3H67.11V26.77H68.6001V22.3Z" fill="black"/>
<path d="M68.6001 29.7499H67.11V31.2399H68.6001V29.7499Z" fill="black"/>
<path d="M68.6001 34.2199H67.11V35.7099H68.6001V34.2199Z" fill="black"/>
<path d="M68.6001 37.19H67.11V38.68H68.6001V37.19Z" fill="black"/>
<path d="M68.6001 40.17H67.11V49.0999H68.6001V40.17Z" fill="black"/>
<path d="M68.6001 53.57H67.11V55.06H68.6001V53.57Z" fill="black"/>
<path d="M68.6001 56.55H67.11V59.53H68.6001V56.55Z" fill="black"/>
<path d="M68.6001 61.02H67.11V63.9999H68.6001V61.02Z" fill="black"/>
<path d="M68.6001 65.4799H67.11V74.41H68.6001V65.4799Z" fill="black"/>
<path d="M68.6001 77.39H67.11V80.3699H68.6001V77.39Z" fill="black"/>
<path d="M70.09 20.82H68.6001V22.31H70.09V20.82Z" fill="black"/>
<path d="M70.09 29.7499H68.6001V31.2399H70.09V29.7499Z" fill="black"/>
<path d="M70.09 32.7299H68.6001V35.7099H70.09V32.7299Z" fill="black"/>
<path d="M70.09 38.68H68.6001V41.66H70.09V38.68Z" fill="black"/>
<path d="M70.09 46.1299H68.6001V47.6199H70.09V46.1299Z" fill="black"/>
<path d="M70.09 52.0799H68.6001V53.57H70.09V52.0799Z" fill="black"/>
<path d="M70.09 55.06H68.6001V58.04H70.09V55.06Z" fill="black"/>
<path d="M70.09 62.5099H68.6001V63.9999H70.09V62.5099Z" fill="black"/>
<path d="M70.09 66.9699H68.6001V68.4599H70.09V66.9699Z" fill="black"/>
<path d="M70.09 72.93H68.6001V78.89H70.09V72.93Z" fill="black"/>
<path d="M71.58 7.41992H70.09V17.8399H71.58V7.41992Z" fill="black"/>
<path d="M71.58 19.3299H70.09V23.8H71.58V19.3299Z" fill="black"/>
<path d="M71.58 26.77H70.09V28.2599H71.58V26.77Z" fill="black"/>
<path d="M71.58 29.7499H70.09V34.2199H71.58V29.7499Z" fill="black"/>
<path d="M71.58 38.68H70.09V41.66H71.58V38.68Z" fill="black"/>
<path d="M71.58 43.15H70.09V44.64H71.58V43.15Z" fill="black"/>
<path d="M71.58 46.1299H70.09V47.6199H71.58V46.1299Z" fill="black"/>
<path d="M71.58 49.1099H70.09V50.5999H71.58V49.1099Z" fill="black"/>
<path d="M71.58 52.0799H70.09V53.57H71.58V52.0799Z" fill="black"/>
<path d="M71.58 58.04H70.09V59.53H71.58V58.04Z" fill="black"/>
<path d="M71.58 61.02H70.09V62.5099H71.58V61.02Z" fill="black"/>
<path d="M71.58 63.9899H70.09V65.4799H71.58V63.9899Z" fill="black"/>
<path d="M71.58 66.9699H70.09V68.4599H71.58V66.9699Z" fill="black"/>
<path d="M71.58 69.9499H70.09V71.44H71.58V69.9499Z" fill="black"/>
<path d="M71.58 72.93H70.09V75.91H71.58V72.93Z" fill="black"/>
<path d="M71.58 77.39H70.09V78.8799H71.58V77.39Z" fill="black"/>
<path d="M73.0701 7.41992H71.58V8.90997H73.0701V7.41992Z" fill="black"/>
<path d="M73.0701 16.3499H71.58V17.8399H73.0701V16.3499Z" fill="black"/>
<path d="M73.0701 19.3299H71.58V20.82H73.0701V19.3299Z" fill="black"/>
<path d="M73.0701 22.3H71.58V26.77H73.0701V22.3Z" fill="black"/>
<path d="M73.0701 28.2599H71.58V29.7499H73.0701V28.2599Z" fill="black"/>
<path d="M73.0701 31.2399H71.58V34.2199H73.0701V31.2399Z" fill="black"/>
<path d="M73.0701 35.6999H71.58V37.19H73.0701V35.6999Z" fill="black"/>
<path d="M73.0701 38.68H71.58V41.66H73.0701V38.68Z" fill="black"/>
<path d="M73.0701 46.1299H71.58V47.6199H73.0701V46.1299Z" fill="black"/>
<path d="M73.0701 50.5899H71.58V52.0799H73.0701V50.5899Z" fill="black"/>
<path d="M73.0701 53.57H71.58V55.06H73.0701V53.57Z" fill="black"/>
<path d="M73.0701 56.55H71.58V59.53H73.0701V56.55Z" fill="black"/>
<path d="M73.0701 62.5099H71.58V68.4699H73.0701V62.5099Z" fill="black"/>
<path d="M73.0701 72.93H71.58V77.4H73.0701V72.93Z" fill="black"/>
<path d="M74.55 7.41992H73.06V8.90997H74.55V7.41992Z" fill="black"/>
<path d="M74.55 10.39H73.06V14.8599H74.55V10.39Z" fill="black"/>
<path d="M74.55 16.3499H73.06V17.8399H74.55V16.3499Z" fill="black"/>
<path d="M74.55 19.3299H73.06V23.8H74.55V19.3299Z" fill="black"/>
<path d="M74.55 26.77H73.06V28.2599H74.55V26.77Z" fill="black"/>
<path d="M74.55 29.7499H73.06V31.2399H74.55V29.7499Z" fill="black"/>
<path d="M74.55 35.6999H73.06V37.19H74.55V35.6999Z" fill="black"/>
<path d="M74.55 38.68H73.06V47.6099H74.55V38.68Z" fill="black"/>
<path d="M74.55 49.1099H73.06V50.5999H74.55V49.1099Z" fill="black"/>
<path d="M74.55 53.57H73.06V56.55H74.55V53.57Z" fill="black"/>
<path d="M74.55 58.04H73.06V62.5099H74.55V58.04Z" fill="black"/>
<path d="M74.55 63.9899H73.06V75.9H74.55V63.9899Z" fill="black"/>
<path d="M76.04 7.41992H74.55V8.90997H76.04V7.41992Z" fill="black"/>
<path d="M76.04 10.39H74.55V14.8599H76.04V10.39Z" fill="black"/>
<path d="M76.04 16.3499H74.55V17.8399H76.04V16.3499Z" fill="black"/>
<path d="M76.04 19.3299H74.55V20.82H76.04V19.3299Z" fill="black"/>
<path d="M76.04 25.28H74.55V28.2599H76.04V25.28Z" fill="black"/>
<path d="M76.04 31.2399H74.55V32.7299H76.04V31.2399Z" fill="black"/>
<path d="M76.04 34.2199H74.55V35.7099H76.04V34.2199Z" fill="black"/>
<path d="M76.04 38.68H74.55V41.66H76.04V38.68Z" fill="black"/>
<path d="M76.04 43.15H74.55V46.1299H76.04V43.15Z" fill="black"/>
<path d="M76.04 47.6199H74.55V49.1099H76.04V47.6199Z" fill="black"/>
<path d="M76.04 50.5899H74.55V52.0799H76.04V50.5899Z" fill="black"/>
<path d="M76.04 58.04H74.55V59.53H76.04V58.04Z" fill="black"/>
<path d="M76.04 63.9899H74.55V65.4799H76.04V63.9899Z" fill="black"/>
<path d="M76.04 66.9699H74.55V71.44H76.04V66.9699Z" fill="black"/>
<path d="M76.04 72.93H74.55V77.4H76.04V72.93Z" fill="black"/>
<path d="M76.04 78.8799H74.55V80.3699H76.04V78.8799Z" fill="black"/>
<path d="M77.53 7.41992H76.04V8.90997H77.53V7.41992Z" fill="black"/>
<path d="M77.53 10.39H76.04V14.8599H77.53V10.39Z" fill="black"/>
<path d="M77.53 16.3499H76.04V17.8399H77.53V16.3499Z" fill="black"/>
<path d="M77.53 19.3299H76.04V22.31H77.53V19.3299Z" fill="black"/>
<path d="M77.53 26.77H76.04V28.2599H77.53V26.77Z" fill="black"/>
<path d="M77.53 31.2399H76.04V32.7299H77.53V31.2399Z" fill="black"/>
<path d="M77.53 37.19H76.04V38.68H77.53V37.19Z" fill="black"/>
<path d="M77.53 43.15H76.04V47.6199H77.53V43.15Z" fill="black"/>
<path d="M77.53 49.1099H76.04V52.0899H77.53V49.1099Z" fill="black"/>
<path d="M77.53 55.06H76.04V56.55H77.53V55.06Z" fill="black"/>
<path d="M77.53 61.02H76.04V63.9999H77.53V61.02Z" fill="black"/>
<path d="M77.53 66.9699H76.04V68.4599H77.53V66.9699Z" fill="black"/>
<path d="M77.53 69.9499H76.04V71.44H77.53V69.9499Z" fill="black"/>
<path d="M79.0201 7.41992H77.53V8.90997H79.0201V7.41992Z" fill="black"/>
<path d="M79.0201 16.3499H77.53V17.8399H79.0201V16.3499Z" fill="black"/>
<path d="M79.0201 20.82H77.53V29.7499H79.0201V20.82Z" fill="black"/>
<path d="M79.0201 32.7299H77.53V34.2199H79.0201V32.7299Z" fill="black"/>
<path d="M79.0201 35.6999H77.53V38.68H79.0201V35.6999Z" fill="black"/>
<path d="M79.0201 40.17H77.53V41.66H79.0201V40.17Z" fill="black"/>
<path d="M79.0201 43.15H77.53V50.5899H79.0201V43.15Z" fill="black"/>
<path d="M79.0201 52.0799H77.53V53.57H79.0201V52.0799Z" fill="black"/>
<path d="M79.0201 58.04H77.53V59.53H79.0201V58.04Z" fill="black"/>
<path d="M79.0201 63.9899H77.53V65.4799H79.0201V63.9899Z" fill="black"/>
<path d="M79.0201 68.4599H77.53V75.9H79.0201V68.4599Z" fill="black"/>
<path d="M79.0201 78.8799H77.53V80.3699H79.0201V78.8799Z" fill="black"/>
<path d="M80.51 7.41992H79.0201V17.8399H80.51V7.41992Z" fill="black"/>
<path d="M80.51 22.3H79.0201V26.77H80.51V22.3Z" fill="black"/>
<path d="M80.51 28.2599H79.0201V31.2399H80.51V28.2599Z" fill="black"/>
<path d="M80.51 34.2199H79.0201V35.7099H80.51V34.2199Z" fill="black"/>
<path d="M80.51 37.19H79.0201V38.68H80.51V37.19Z" fill="black"/>
<path d="M80.51 40.17H79.0201V41.66H80.51V40.17Z" fill="black"/>
<path d="M80.51 46.1299H79.0201V47.6199H80.51V46.1299Z" fill="black"/>
<path d="M80.51 52.0799H79.0201V53.57H80.51V52.0799Z" fill="black"/>
<path d="M80.51 55.06H79.0201V56.55H80.51V55.06Z" fill="black"/>
<path d="M80.51 58.04H79.0201V59.53H80.51V58.04Z" fill="black"/>
<path d="M80.51 62.5099H79.0201V66.9799H80.51V62.5099Z" fill="black"/>
<path d="M80.51 68.4599H79.0201V72.93H80.51V68.4599Z" fill="black"/>
<path d="M80.51 74.42H79.0201V75.91H80.51V74.42Z" fill="black"/>
<path d="M80.51 77.39H79.0201V80.3699H80.51V77.39Z" fill="black"/>
</svg>
