<svg width="88" height="87" viewBox="0 0 88 87" fill="none" xmlns="http://www.w3.org/2000/svg">
<path d="M87.5 0H0.609985V86.86H87.5V0Z" fill="white"/>
<path d="M8.81 7.41003H7V20.0701H8.81V7.41003Z" fill="black"/>
<path d="M8.81 21.87H7V23.6801H8.81V21.87Z" fill="black"/>
<path d="M8.81 25.49H7V27.3H8.81V25.49Z" fill="black"/>
<path d="M8.81 32.72H7V38.14H8.81V32.72Z" fill="black"/>
<path d="M8.81 39.95H7V41.76H8.81V39.95Z" fill="black"/>
<path d="M8.81 45.38H7V47.1901H8.81V45.38Z" fill="black"/>
<path d="M8.81 48.99H7V52.61H8.81V48.99Z" fill="black"/>
<path d="M8.81 54.42H7V58.04H8.81V54.42Z" fill="black"/>
<path d="M8.81 59.84H7V67.0701H8.81V59.84Z" fill="black"/>
<path d="M8.81 68.88H7V81.54H8.81V68.88Z" fill="black"/>
<path d="M10.62 7.41003H8.81V9.21997H10.62V7.41003Z" fill="black"/>
<path d="M10.62 18.25H8.81V20.0601H10.62V18.25Z" fill="black"/>
<path d="M10.62 23.6801H8.81V27.3H10.62V23.6801Z" fill="black"/>
<path d="M10.62 34.53H8.81V45.38H10.62V34.53Z" fill="black"/>
<path d="M10.62 47.1801H8.81V61.64H10.62V47.1801Z" fill="black"/>
<path d="M10.62 68.88H8.81V70.6901H10.62V68.88Z" fill="black"/>
<path d="M10.62 79.73H8.81V81.54H10.62V79.73Z" fill="black"/>
<path d="M12.43 7.41003H10.62V9.21997H12.43V7.41003Z" fill="black"/>
<path d="M12.43 11.02H10.62V16.4401H12.43V11.02Z" fill="black"/>
<path d="M12.43 18.25H10.62V20.0601H12.43V18.25Z" fill="black"/>
<path d="M12.43 21.87H10.62V23.6801H12.43V21.87Z" fill="black"/>
<path d="M12.43 29.1H10.62V30.91H12.43V29.1Z" fill="black"/>
<path d="M12.43 34.53H10.62V36.34H12.43V34.53Z" fill="black"/>
<path d="M12.43 38.14H10.62V43.5601H12.43V38.14Z" fill="black"/>
<path d="M12.43 47.1801H10.62V52.6H12.43V47.1801Z" fill="black"/>
<path d="M12.43 54.42H10.62V58.04H12.43V54.42Z" fill="black"/>
<path d="M12.43 59.84H10.62V67.0701H12.43V59.84Z" fill="black"/>
<path d="M12.43 68.88H10.62V70.6901H12.43V68.88Z" fill="black"/>
<path d="M12.43 72.5H10.62V77.92H12.43V72.5Z" fill="black"/>
<path d="M12.43 79.73H10.62V81.54H12.43V79.73Z" fill="black"/>
<path d="M14.23 7.41003H12.42V9.21997H14.23V7.41003Z" fill="black"/>
<path d="M14.23 11.02H12.42V16.4401H14.23V11.02Z" fill="black"/>
<path d="M14.23 18.25H12.42V20.0601H14.23V18.25Z" fill="black"/>
<path d="M14.23 21.87H12.42V23.6801H14.23V21.87Z" fill="black"/>
<path d="M14.23 30.91H12.42V34.53H14.23V30.91Z" fill="black"/>
<path d="M14.23 38.14H12.42V41.76H14.23V38.14Z" fill="black"/>
<path d="M14.23 47.1801H12.42V48.99H14.23V47.1801Z" fill="black"/>
<path d="M14.23 50.8H12.42V56.22H14.23V50.8Z" fill="black"/>
<path d="M14.23 58.03H12.42V59.84H14.23V58.03Z" fill="black"/>
<path d="M14.23 63.46H12.42V65.27H14.23V63.46Z" fill="black"/>
<path d="M14.23 68.88H12.42V70.6901H14.23V68.88Z" fill="black"/>
<path d="M14.23 72.5H12.42V77.92H14.23V72.5Z" fill="black"/>
<path d="M14.23 79.73H12.42V81.54H14.23V79.73Z" fill="black"/>
<path d="M16.04 7.41003H14.23V9.21997H16.04V7.41003Z" fill="black"/>
<path d="M16.04 11.02H14.23V16.4401H16.04V11.02Z" fill="black"/>
<path d="M16.04 18.25H14.23V20.0601H16.04V18.25Z" fill="black"/>
<path d="M16.04 21.87H14.23V23.6801H16.04V21.87Z" fill="black"/>
<path d="M16.04 27.3H14.23V30.92H16.04V27.3Z" fill="black"/>
<path d="M16.04 36.34H14.23V38.15H16.04V36.34Z" fill="black"/>
<path d="M16.04 41.76H14.23V43.5701H16.04V41.76Z" fill="black"/>
<path d="M16.04 45.38H14.23V49H16.04V45.38Z" fill="black"/>
<path d="M16.04 50.8H14.23V52.61H16.04V50.8Z" fill="black"/>
<path d="M16.04 56.23H14.23V61.65H16.04V56.23Z" fill="black"/>
<path d="M16.04 63.46H14.23V65.27H16.04V63.46Z" fill="black"/>
<path d="M16.04 68.88H14.23V70.6901H16.04V68.88Z" fill="black"/>
<path d="M16.04 72.5H14.23V77.92H16.04V72.5Z" fill="black"/>
<path d="M16.04 79.73H14.23V81.54H16.04V79.73Z" fill="black"/>
<path d="M17.85 7.41003H16.04V9.21997H17.85V7.41003Z" fill="black"/>
<path d="M17.85 18.25H16.04V20.0601H17.85V18.25Z" fill="black"/>
<path d="M17.85 21.87H16.04V27.29H17.85V21.87Z" fill="black"/>
<path d="M17.85 29.1H16.04V32.72H17.85V29.1Z" fill="black"/>
<path d="M17.85 34.53H16.04V36.34H17.85V34.53Z" fill="black"/>
<path d="M17.85 39.95H16.04V41.76H17.85V39.95Z" fill="black"/>
<path d="M17.85 45.38H16.04V49H17.85V45.38Z" fill="black"/>
<path d="M17.85 52.61H16.04V59.84H17.85V52.61Z" fill="black"/>
<path d="M17.85 63.46H16.04V65.27H17.85V63.46Z" fill="black"/>
<path d="M17.85 68.88H16.04V70.6901H17.85V68.88Z" fill="black"/>
<path d="M17.85 79.73H16.04V81.54H17.85V79.73Z" fill="black"/>
<path d="M19.66 7.41003H17.85V20.0701H19.66V7.41003Z" fill="black"/>
<path d="M19.66 21.87H17.85V23.6801H19.66V21.87Z" fill="black"/>
<path d="M19.66 25.49H17.85V27.3H19.66V25.49Z" fill="black"/>
<path d="M19.66 29.1H17.85V30.91H19.66V29.1Z" fill="black"/>
<path d="M19.66 32.72H17.85V34.53H19.66V32.72Z" fill="black"/>
<path d="M19.66 36.34H17.85V38.15H19.66V36.34Z" fill="black"/>
<path d="M19.66 39.95H17.85V41.76H19.66V39.95Z" fill="black"/>
<path d="M19.66 43.5701H17.85V45.38H19.66V43.5701Z" fill="black"/>
<path d="M19.66 47.1801H17.85V48.99H19.66V47.1801Z" fill="black"/>
<path d="M19.66 50.8H17.85V52.61H19.66V50.8Z" fill="black"/>
<path d="M19.66 54.42H17.85V56.23H19.66V54.42Z" fill="black"/>
<path d="M19.66 58.03H17.85V59.84H19.66V58.03Z" fill="black"/>
<path d="M19.66 61.65H17.85V63.46H19.66V61.65Z" fill="black"/>
<path d="M19.66 65.27H17.85V67.08H19.66V65.27Z" fill="black"/>
<path d="M19.66 68.88H17.85V81.54H19.66V68.88Z" fill="black"/>
<path d="M21.47 27.3H19.66V29.11H21.47V27.3Z" fill="black"/>
<path d="M21.47 34.53H19.66V39.95H21.47V34.53Z" fill="black"/>
<path d="M21.47 41.76H19.66V43.5701H21.47V41.76Z" fill="black"/>
<path d="M21.47 52.61H19.66V59.84H21.47V52.61Z" fill="black"/>
<path d="M21.47 65.27H19.66V67.08H21.47V65.27Z" fill="black"/>
<path d="M23.28 11.02H21.47V21.87H23.28V11.02Z" fill="black"/>
<path d="M23.28 27.3H21.47V29.11H23.28V27.3Z" fill="black"/>
<path d="M23.28 30.91H21.47V32.72H23.28V30.91Z" fill="black"/>
<path d="M23.28 34.53H21.47V38.15H23.28V34.53Z" fill="black"/>
<path d="M23.28 39.95H21.47V47.1801H23.28V39.95Z" fill="black"/>
<path d="M23.28 54.42H21.47V58.04H23.28V54.42Z" fill="black"/>
<path d="M23.28 61.65H21.47V68.88H23.28V61.65Z" fill="black"/>
<path d="M23.28 70.6901H21.47V77.92H23.28V70.6901Z" fill="black"/>
<path d="M23.28 79.73H21.47V81.54H23.28V79.73Z" fill="black"/>
<path d="M25.08 7.41003H23.27V11.03H25.08V7.41003Z" fill="black"/>
<path d="M25.08 12.83H23.27V18.25H25.08V12.83Z" fill="black"/>
<path d="M25.08 20.0601H23.27V23.6801H25.08V20.0601Z" fill="black"/>
<path d="M25.08 25.49H23.27V30.91H25.08V25.49Z" fill="black"/>
<path d="M25.08 34.53H23.27V36.34H25.08V34.53Z" fill="black"/>
<path d="M25.08 38.14H23.27V39.95H25.08V38.14Z" fill="black"/>
<path d="M25.08 45.38H23.27V49H25.08V45.38Z" fill="black"/>
<path d="M25.08 50.8H23.27V52.61H25.08V50.8Z" fill="black"/>
<path d="M25.08 54.42H23.27V59.84H25.08V54.42Z" fill="black"/>
<path d="M25.08 63.46H23.27V67.08H25.08V63.46Z" fill="black"/>
<path d="M25.08 72.5H23.27V74.3101H25.08V72.5Z" fill="black"/>
<path d="M26.89 7.41003H25.08V9.21997H26.89V7.41003Z" fill="black"/>
<path d="M26.89 11.02H25.08V14.64H26.89V11.02Z" fill="black"/>
<path d="M26.89 18.25H25.08V20.0601H26.89V18.25Z" fill="black"/>
<path d="M26.89 25.49H25.08V27.3H26.89V25.49Z" fill="black"/>
<path d="M26.89 30.91H25.08V32.72H26.89V30.91Z" fill="black"/>
<path d="M26.89 36.34H25.08V41.76H26.89V36.34Z" fill="black"/>
<path d="M26.89 43.5701H25.08V47.1901H26.89V43.5701Z" fill="black"/>
<path d="M26.89 50.8H25.08V54.42H26.89V50.8Z" fill="black"/>
<path d="M26.89 58.03H25.08V65.26H26.89V58.03Z" fill="black"/>
<path d="M26.89 67.0701H25.08V74.3H26.89V67.0701Z" fill="black"/>
<path d="M26.89 77.92H25.08V79.73H26.89V77.92Z" fill="black"/>
<path d="M28.7 9.20996H26.89V11.02H28.7V9.20996Z" fill="black"/>
<path d="M28.7 16.45H26.89V18.26H28.7V16.45Z" fill="black"/>
<path d="M28.7 20.0601H26.89V25.48H28.7V20.0601Z" fill="black"/>
<path d="M28.7 27.3H26.89V29.11H28.7V27.3Z" fill="black"/>
<path d="M28.7 30.91H26.89V32.72H28.7V30.91Z" fill="black"/>
<path d="M28.7 34.53H26.89V36.34H28.7V34.53Z" fill="black"/>
<path d="M28.7 38.14H26.89V41.76H28.7V38.14Z" fill="black"/>
<path d="M28.7 47.1801H26.89V50.8H28.7V47.1801Z" fill="black"/>
<path d="M28.7 56.23H26.89V63.46H28.7V56.23Z" fill="black"/>
<path d="M28.7 65.27H26.89V68.89H28.7V65.27Z" fill="black"/>
<path d="M28.7 74.3101H26.89V76.12H28.7V74.3101Z" fill="black"/>
<path d="M28.7 77.92H26.89V81.54H28.7V77.92Z" fill="black"/>
<path d="M30.51 7.41003H28.7V14.64H30.51V7.41003Z" fill="black"/>
<path d="M30.51 18.25H28.7V23.67H30.51V18.25Z" fill="black"/>
<path d="M30.51 29.1H28.7V32.72H30.51V29.1Z" fill="black"/>
<path d="M30.51 36.34H28.7V38.15H30.51V36.34Z" fill="black"/>
<path d="M30.51 39.95H28.7V50.8H30.51V39.95Z" fill="black"/>
<path d="M30.51 56.23H28.7V61.65H30.51V56.23Z" fill="black"/>
<path d="M30.51 63.46H28.7V67.08H30.51V63.46Z" fill="black"/>
<path d="M30.51 72.5H28.7V74.3101H30.51V72.5Z" fill="black"/>
<path d="M30.51 76.11H28.7V77.92H30.51V76.11Z" fill="black"/>
<path d="M30.51 79.73H28.7V81.54H30.51V79.73Z" fill="black"/>
<path d="M32.32 14.64H30.51V18.26H32.32V14.64Z" fill="black"/>
<path d="M32.32 20.0601H30.51V21.87H32.32V20.0601Z" fill="black"/>
<path d="M32.32 29.1H30.51V32.72H32.32V29.1Z" fill="black"/>
<path d="M32.32 34.53H30.51V36.34H32.32V34.53Z" fill="black"/>
<path d="M32.32 38.14H30.51V39.95H32.32V38.14Z" fill="black"/>
<path d="M32.32 43.5701H30.51V47.1901H32.32V43.5701Z" fill="black"/>
<path d="M32.32 50.8H30.51V54.42H32.32V50.8Z" fill="black"/>
<path d="M32.32 56.23H30.51V58.04H32.32V56.23Z" fill="black"/>
<path d="M32.32 61.65H30.51V63.46H32.32V61.65Z" fill="black"/>
<path d="M32.32 68.88H30.51V70.6901H32.32V68.88Z" fill="black"/>
<path d="M32.32 72.5H30.51V76.12H32.32V72.5Z" fill="black"/>
<path d="M32.32 77.92H30.51V81.54H32.32V77.92Z" fill="black"/>
<path d="M34.12 9.20996H32.31V20.0601H34.12V9.20996Z" fill="black"/>
<path d="M34.12 25.49H32.31V27.3H34.12V25.49Z" fill="black"/>
<path d="M34.12 29.1H32.31V30.91H34.12V29.1Z" fill="black"/>
<path d="M34.12 32.72H32.31V34.53H34.12V32.72Z" fill="black"/>
<path d="M34.12 36.34H32.31V38.15H34.12V36.34Z" fill="black"/>
<path d="M34.12 47.1801H32.31V52.6H34.12V47.1801Z" fill="black"/>
<path d="M34.12 63.46H32.31V65.27H34.12V63.46Z" fill="black"/>
<path d="M34.12 67.0701H32.31V68.88H34.12V67.0701Z" fill="black"/>
<path d="M34.12 72.5H32.31V79.73H34.12V72.5Z" fill="black"/>
<path d="M35.93 14.64H34.12V16.45H35.93V14.64Z" fill="black"/>
<path d="M35.93 20.0601H34.12V21.87H35.93V20.0601Z" fill="black"/>
<path d="M35.93 25.49H34.12V30.91H35.93V25.49Z" fill="black"/>
<path d="M35.93 32.72H34.12V41.76H35.93V32.72Z" fill="black"/>
<path d="M35.93 45.38H34.12V47.1901H35.93V45.38Z" fill="black"/>
<path d="M35.93 52.61H34.12V54.42H35.93V52.61Z" fill="black"/>
<path d="M35.93 56.23H34.12V58.04H35.93V56.23Z" fill="black"/>
<path d="M35.93 59.84H34.12V63.46H35.93V59.84Z" fill="black"/>
<path d="M35.93 68.88H34.12V70.6901H35.93V68.88Z" fill="black"/>
<path d="M35.93 74.3101H34.12V81.54H35.93V74.3101Z" fill="black"/>
<path d="M37.74 7.41003H35.93V12.83H37.74V7.41003Z" fill="black"/>
<path d="M37.74 14.64H35.93V20.0601H37.74V14.64Z" fill="black"/>
<path d="M37.74 23.6801H35.93V30.91H37.74V23.6801Z" fill="black"/>
<path d="M37.74 32.72H35.93V34.53H37.74V32.72Z" fill="black"/>
<path d="M37.74 36.34H35.93V38.15H37.74V36.34Z" fill="black"/>
<path d="M37.74 41.76H35.93V43.5701H37.74V41.76Z" fill="black"/>
<path d="M37.74 48.99H35.93V50.8H37.74V48.99Z" fill="black"/>
<path d="M37.74 52.61H35.93V58.03H37.74V52.61Z" fill="black"/>
<path d="M37.74 61.65H35.93V63.46H37.74V61.65Z" fill="black"/>
<path d="M37.74 65.27H35.93V67.08H37.74V65.27Z" fill="black"/>
<path d="M37.74 70.6901H35.93V76.11H37.74V70.6901Z" fill="black"/>
<path d="M39.55 16.45H37.74V18.26H39.55V16.45Z" fill="black"/>
<path d="M39.55 21.87H37.74V23.6801H39.55V21.87Z" fill="black"/>
<path d="M39.55 29.1H37.74V30.91H39.55V29.1Z" fill="black"/>
<path d="M39.55 36.34H37.74V43.5701H39.55V36.34Z" fill="black"/>
<path d="M39.55 50.8H37.74V52.61H39.55V50.8Z" fill="black"/>
<path d="M39.55 54.42H37.74V56.23H39.55V54.42Z" fill="black"/>
<path d="M39.55 58.03H37.74V59.84H39.55V58.03Z" fill="black"/>
<path d="M39.55 65.27H37.74V67.08H39.55V65.27Z" fill="black"/>
<path d="M39.55 74.3101H37.74V81.54H39.55V74.3101Z" fill="black"/>
<path d="M41.36 9.20996H39.55V11.02H41.36V9.20996Z" fill="black"/>
<path d="M41.36 12.83H39.55V14.64H41.36V12.83Z" fill="black"/>
<path d="M41.36 16.45H39.55V20.0701H41.36V16.45Z" fill="black"/>
<path d="M41.36 23.6801H39.55V25.49H41.36V23.6801Z" fill="black"/>
<path d="M41.36 27.3H39.55V29.11H41.36V27.3Z" fill="black"/>
<path d="M41.36 34.53H39.55V36.34H41.36V34.53Z" fill="black"/>
<path d="M41.36 41.76H39.55V43.5701H41.36V41.76Z" fill="black"/>
<path d="M41.36 45.38H39.55V49H41.36V45.38Z" fill="black"/>
<path d="M41.36 50.8H39.55V58.03H41.36V50.8Z" fill="black"/>
<path d="M41.36 59.84H39.55V61.65H41.36V59.84Z" fill="black"/>
<path d="M41.36 68.88H39.55V70.6901H41.36V68.88Z" fill="black"/>
<path d="M41.36 72.5H39.55V74.3101H41.36V72.5Z" fill="black"/>
<path d="M41.36 76.11H39.55V79.73H41.36V76.11Z" fill="black"/>
<path d="M43.16 7.41003H41.35V9.21997H43.16V7.41003Z" fill="black"/>
<path d="M43.16 14.64H41.35V16.45H43.16V14.64Z" fill="black"/>
<path d="M43.16 21.87H41.35V25.49H43.16V21.87Z" fill="black"/>
<path d="M43.16 27.3H41.35V30.92H43.16V27.3Z" fill="black"/>
<path d="M43.16 32.72H41.35V39.95H43.16V32.72Z" fill="black"/>
<path d="M43.16 41.76H41.35V43.5701H43.16V41.76Z" fill="black"/>
<path d="M43.16 45.38H41.35V47.1901H43.16V45.38Z" fill="black"/>
<path d="M43.16 50.8H41.35V54.42H43.16V50.8Z" fill="black"/>
<path d="M43.16 56.23H41.35V58.04H43.16V56.23Z" fill="black"/>
<path d="M43.16 67.0701H41.35V68.88H43.16V67.0701Z" fill="black"/>
<path d="M43.16 74.3101H41.35V76.12H43.16V74.3101Z" fill="black"/>
<path d="M43.16 79.73H41.35V81.54H43.16V79.73Z" fill="black"/>
<path d="M44.97 7.41003H43.16V11.03H44.97V7.41003Z" fill="black"/>
<path d="M44.97 14.64H43.16V16.45H44.97V14.64Z" fill="black"/>
<path d="M44.97 18.25H43.16V25.48H44.97V18.25Z" fill="black"/>
<path d="M44.97 27.3H43.16V29.11H44.97V27.3Z" fill="black"/>
<path d="M44.97 30.91H43.16V32.72H44.97V30.91Z" fill="black"/>
<path d="M44.97 34.53H43.16V36.34H44.97V34.53Z" fill="black"/>
<path d="M44.97 38.14H43.16V39.95H44.97V38.14Z" fill="black"/>
<path d="M44.97 45.38H43.16V49H44.97V45.38Z" fill="black"/>
<path d="M44.97 56.23H43.16V59.85H44.97V56.23Z" fill="black"/>
<path d="M44.97 61.65H43.16V63.46H44.97V61.65Z" fill="black"/>
<path d="M44.97 65.27H43.16V72.5H44.97V65.27Z" fill="black"/>
<path d="M44.97 74.3101H43.16V76.12H44.97V74.3101Z" fill="black"/>
<path d="M44.97 79.73H43.16V81.54H44.97V79.73Z" fill="black"/>
<path d="M46.78 12.83H44.97V14.64H46.78V12.83Z" fill="black"/>
<path d="M46.78 20.0601H44.97V21.87H46.78V20.0601Z" fill="black"/>
<path d="M46.78 27.3H44.97V29.11H46.78V27.3Z" fill="black"/>
<path d="M46.78 32.72H44.97V36.34H46.78V32.72Z" fill="black"/>
<path d="M46.78 38.14H44.97V47.1801H46.78V38.14Z" fill="black"/>
<path d="M46.78 48.99H44.97V50.8H46.78V48.99Z" fill="black"/>
<path d="M46.78 52.61H44.97V54.42H46.78V52.61Z" fill="black"/>
<path d="M46.78 56.23H44.97V58.04H46.78V56.23Z" fill="black"/>
<path d="M46.78 59.84H44.97V65.26H46.78V59.84Z" fill="black"/>
<path d="M46.78 72.5H44.97V74.3101H46.78V72.5Z" fill="black"/>
<path d="M46.78 77.92H44.97V79.73H46.78V77.92Z" fill="black"/>
<path d="M48.59 9.20996H46.78V11.02H48.59V9.20996Z" fill="black"/>
<path d="M48.59 12.83H46.78V14.64H48.59V12.83Z" fill="black"/>
<path d="M48.59 16.45H46.78V20.0701H48.59V16.45Z" fill="black"/>
<path d="M48.59 21.87H46.78V23.6801H48.59V21.87Z" fill="black"/>
<path d="M48.59 25.49H46.78V30.91H48.59V25.49Z" fill="black"/>
<path d="M48.59 34.53H46.78V39.95H48.59V34.53Z" fill="black"/>
<path d="M48.59 41.76H46.78V43.5701H48.59V41.76Z" fill="black"/>
<path d="M48.59 45.38H46.78V52.61H48.59V45.38Z" fill="black"/>
<path d="M48.59 56.23H46.78V59.85H48.59V56.23Z" fill="black"/>
<path d="M48.59 61.65H46.78V63.46H48.59V61.65Z" fill="black"/>
<path d="M48.59 65.27H46.78V67.08H48.59V65.27Z" fill="black"/>
<path d="M48.59 68.88H46.78V70.6901H48.59V68.88Z" fill="black"/>
<path d="M48.59 72.5H46.78V74.3101H48.59V72.5Z" fill="black"/>
<path d="M48.59 76.11H46.78V81.53H48.59V76.11Z" fill="black"/>
<path d="M50.4 7.41003H48.59V9.21997H50.4V7.41003Z" fill="black"/>
<path d="M50.4 11.02H48.59V14.64H50.4V11.02Z" fill="black"/>
<path d="M50.4 20.0601H48.59V25.48H50.4V20.0601Z" fill="black"/>
<path d="M50.4 27.3H48.59V29.11H50.4V27.3Z" fill="black"/>
<path d="M50.4 34.53H48.59V36.34H50.4V34.53Z" fill="black"/>
<path d="M50.4 45.38H48.59V47.1901H50.4V45.38Z" fill="black"/>
<path d="M50.4 50.8H48.59V54.42H50.4V50.8Z" fill="black"/>
<path d="M50.4 56.23H48.59V61.65H50.4V56.23Z" fill="black"/>
<path d="M50.4 65.27H48.59V68.89H50.4V65.27Z" fill="black"/>
<path d="M50.4 72.5H48.59V76.12H50.4V72.5Z" fill="black"/>
<path d="M50.4 77.92H48.59V81.54H50.4V77.92Z" fill="black"/>
<path d="M52.2 16.45H50.39V20.0701H52.2V16.45Z" fill="black"/>
<path d="M52.2 21.87H50.39V25.49H52.2V21.87Z" fill="black"/>
<path d="M52.2 27.3H50.39V32.72H52.2V27.3Z" fill="black"/>
<path d="M52.2 34.53H50.39V36.34H52.2V34.53Z" fill="black"/>
<path d="M52.2 39.95H50.39V41.76H52.2V39.95Z" fill="black"/>
<path d="M52.2 43.5701H50.39V45.38H52.2V43.5701Z" fill="black"/>
<path d="M52.2 48.99H50.39V52.61H52.2V48.99Z" fill="black"/>
<path d="M52.2 59.84H50.39V61.65H52.2V59.84Z" fill="black"/>
<path d="M52.2 68.88H50.39V70.6901H52.2V68.88Z" fill="black"/>
<path d="M52.2 72.5H50.39V74.3101H52.2V72.5Z" fill="black"/>
<path d="M52.2 79.73H50.39V81.54H52.2V79.73Z" fill="black"/>
<path d="M54.01 12.83H52.2V14.64H54.01V12.83Z" fill="black"/>
<path d="M54.01 21.87H52.2V23.6801H54.01V21.87Z" fill="black"/>
<path d="M54.01 29.1H52.2V30.91H54.01V29.1Z" fill="black"/>
<path d="M54.01 36.34H52.2V41.76H54.01V36.34Z" fill="black"/>
<path d="M54.01 43.5701H52.2V48.99H54.01V43.5701Z" fill="black"/>
<path d="M54.01 50.8H52.2V52.61H54.01V50.8Z" fill="black"/>
<path d="M54.01 54.42H52.2V56.23H54.01V54.42Z" fill="black"/>
<path d="M54.01 65.27H52.2V68.89H54.01V65.27Z" fill="black"/>
<path d="M54.01 72.5H52.2V76.12H54.01V72.5Z" fill="black"/>
<path d="M54.01 79.73H52.2V81.54H54.01V79.73Z" fill="black"/>
<path d="M55.82 9.20996H54.01V11.02H55.82V9.20996Z" fill="black"/>
<path d="M55.82 12.83H54.01V14.64H55.82V12.83Z" fill="black"/>
<path d="M55.82 16.45H54.01V21.87H55.82V16.45Z" fill="black"/>
<path d="M55.82 25.49H54.01V34.53H55.82V25.49Z" fill="black"/>
<path d="M55.82 36.34H54.01V45.38H55.82V36.34Z" fill="black"/>
<path d="M55.82 47.1801H54.01V48.99H55.82V47.1801Z" fill="black"/>
<path d="M55.82 50.8H54.01V52.61H55.82V50.8Z" fill="black"/>
<path d="M55.82 56.23H54.01V67.08H55.82V56.23Z" fill="black"/>
<path d="M55.82 68.88H54.01V72.5H55.82V68.88Z" fill="black"/>
<path d="M55.82 76.11H54.01V81.53H55.82V76.11Z" fill="black"/>
<path d="M57.63 9.20996H55.82V14.63H57.63V9.20996Z" fill="black"/>
<path d="M57.63 16.45H55.82V18.26H57.63V16.45Z" fill="black"/>
<path d="M57.63 20.0601H55.82V21.87H57.63V20.0601Z" fill="black"/>
<path d="M57.63 25.49H55.82V27.3H57.63V25.49Z" fill="black"/>
<path d="M57.63 29.1H55.82V30.91H57.63V29.1Z" fill="black"/>
<path d="M57.63 32.72H55.82V34.53H57.63V32.72Z" fill="black"/>
<path d="M57.63 36.34H55.82V38.15H57.63V36.34Z" fill="black"/>
<path d="M57.63 39.95H55.82V41.76H57.63V39.95Z" fill="black"/>
<path d="M57.63 47.1801H55.82V52.6H57.63V47.1801Z" fill="black"/>
<path d="M57.63 54.42H55.82V59.84H57.63V54.42Z" fill="black"/>
<path d="M57.63 61.65H55.82V70.6901H57.63V61.65Z" fill="black"/>
<path d="M57.63 72.5H55.82V74.3101H57.63V72.5Z" fill="black"/>
<path d="M57.63 76.11H55.82V81.53H57.63V76.11Z" fill="black"/>
<path d="M59.44 7.41003H57.63V11.03H59.44V7.41003Z" fill="black"/>
<path d="M59.44 14.64H57.63V20.0601H59.44V14.64Z" fill="black"/>
<path d="M59.44 23.6801H57.63V34.53H59.44V23.6801Z" fill="black"/>
<path d="M59.44 38.14H57.63V43.5601H59.44V38.14Z" fill="black"/>
<path d="M59.44 45.38H57.63V47.1901H59.44V45.38Z" fill="black"/>
<path d="M59.44 48.99H57.63V50.8H59.44V48.99Z" fill="black"/>
<path d="M59.44 52.61H57.63V56.23H59.44V52.61Z" fill="black"/>
<path d="M59.44 58.03H57.63V72.49H59.44V58.03Z" fill="black"/>
<path d="M59.44 74.3101H57.63V79.73H59.44V74.3101Z" fill="black"/>
<path d="M61.25 7.41003H59.44V11.03H61.25V7.41003Z" fill="black"/>
<path d="M61.25 12.83H59.44V14.64H61.25V12.83Z" fill="black"/>
<path d="M61.25 21.87H59.44V23.6801H61.25V21.87Z" fill="black"/>
<path d="M61.25 25.49H59.44V27.3H61.25V25.49Z" fill="black"/>
<path d="M61.25 29.1H59.44V30.91H61.25V29.1Z" fill="black"/>
<path d="M61.25 36.34H59.44V39.96H61.25V36.34Z" fill="black"/>
<path d="M61.25 43.5701H59.44V48.99H61.25V43.5701Z" fill="black"/>
<path d="M61.25 50.8H59.44V52.61H61.25V50.8Z" fill="black"/>
<path d="M61.25 58.03H59.44V63.45H61.25V58.03Z" fill="black"/>
<path d="M61.25 65.27H59.44V67.08H61.25V65.27Z" fill="black"/>
<path d="M61.25 68.88H59.44V70.6901H61.25V68.88Z" fill="black"/>
<path d="M61.25 72.5H59.44V74.3101H61.25V72.5Z" fill="black"/>
<path d="M61.25 76.11H59.44V77.92H61.25V76.11Z" fill="black"/>
<path d="M61.25 79.73H59.44V81.54H61.25V79.73Z" fill="black"/>
<path d="M63.05 11.02H61.24V16.4401H63.05V11.02Z" fill="black"/>
<path d="M63.05 18.25H61.24V20.0601H63.05V18.25Z" fill="black"/>
<path d="M63.05 23.6801H61.24V27.3H63.05V23.6801Z" fill="black"/>
<path d="M63.05 38.14H61.24V39.95H63.05V38.14Z" fill="black"/>
<path d="M63.05 45.38H61.24V47.1901H63.05V45.38Z" fill="black"/>
<path d="M63.05 48.99H61.24V50.8H63.05V48.99Z" fill="black"/>
<path d="M63.05 52.61H61.24V54.42H63.05V52.61Z" fill="black"/>
<path d="M63.05 56.23H61.24V58.04H63.05V56.23Z" fill="black"/>
<path d="M63.05 63.46H61.24V65.27H63.05V63.46Z" fill="black"/>
<path d="M63.05 67.0701H61.24V70.6901H63.05V67.0701Z" fill="black"/>
<path d="M64.86 7.41003H63.05V9.21997H64.86V7.41003Z" fill="black"/>
<path d="M64.86 11.02H63.05V16.4401H64.86V11.02Z" fill="black"/>
<path d="M64.86 20.0601H63.05V25.48H64.86V20.0601Z" fill="black"/>
<path d="M64.86 27.3H63.05V32.72H64.86V27.3Z" fill="black"/>
<path d="M64.86 34.53H63.05V39.95H64.86V34.53Z" fill="black"/>
<path d="M64.86 43.5701H63.05V45.38H64.86V43.5701Z" fill="black"/>
<path d="M64.86 50.8H63.05V54.42H64.86V50.8Z" fill="black"/>
<path d="M64.86 56.23H63.05V61.65H64.86V56.23Z" fill="black"/>
<path d="M64.86 65.27H63.05V72.5H64.86V65.27Z" fill="black"/>
<path d="M64.86 74.3101H63.05V77.9301H64.86V74.3101Z" fill="black"/>
<path d="M64.86 79.73H63.05V81.54H64.86V79.73Z" fill="black"/>
<path d="M66.67 7.41003H64.86V21.88H66.67V7.41003Z" fill="black"/>
<path d="M66.67 23.6801H64.86V29.1H66.67V23.6801Z" fill="black"/>
<path d="M66.67 30.91H64.86V36.33H66.67V30.91Z" fill="black"/>
<path d="M66.67 38.14H64.86V41.76H66.67V38.14Z" fill="black"/>
<path d="M66.67 43.5701H64.86V47.1901H66.67V43.5701Z" fill="black"/>
<path d="M66.67 54.42H64.86V58.04H66.67V54.42Z" fill="black"/>
<path d="M66.67 59.84H64.86V63.46H66.67V59.84Z" fill="black"/>
<path d="M66.67 65.27H64.86V79.73H66.67V65.27Z" fill="black"/>
<path d="M68.48 23.6801H66.67V27.3H68.48V23.6801Z" fill="black"/>
<path d="M68.48 32.72H66.67V34.53H68.48V32.72Z" fill="black"/>
<path d="M68.48 36.34H66.67V38.15H68.48V36.34Z" fill="black"/>
<path d="M68.48 39.95H66.67V43.5701H68.48V39.95Z" fill="black"/>
<path d="M68.48 45.38H66.67V47.1901H68.48V45.38Z" fill="black"/>
<path d="M68.48 48.99H66.67V50.8H68.48V48.99Z" fill="black"/>
<path d="M68.48 56.23H66.67V58.04H68.48V56.23Z" fill="black"/>
<path d="M68.48 59.84H66.67V67.0701H68.48V59.84Z" fill="black"/>
<path d="M68.48 72.5H66.67V79.73H68.48V72.5Z" fill="black"/>
<path d="M70.29 7.41003H68.48V20.0701H70.29V7.41003Z" fill="black"/>
<path d="M70.29 21.87H68.48V25.49H70.29V21.87Z" fill="black"/>
<path d="M70.29 27.3H68.48V29.11H70.29V27.3Z" fill="black"/>
<path d="M70.29 30.91H68.48V32.72H70.29V30.91Z" fill="black"/>
<path d="M70.29 34.53H68.48V36.34H70.29V34.53Z" fill="black"/>
<path d="M70.29 38.14H68.48V39.95H70.29V38.14Z" fill="black"/>
<path d="M70.29 41.76H68.48V43.5701H70.29V41.76Z" fill="black"/>
<path d="M70.29 45.38H68.48V47.1901H70.29V45.38Z" fill="black"/>
<path d="M70.29 59.84H68.48V67.0701H70.29V59.84Z" fill="black"/>
<path d="M70.29 68.88H68.48V70.6901H70.29V68.88Z" fill="black"/>
<path d="M70.29 72.5H68.48V74.3101H70.29V72.5Z" fill="black"/>
<path d="M70.29 76.11H68.48V77.92H70.29V76.11Z" fill="black"/>
<path d="M70.29 79.73H68.48V81.54H70.29V79.73Z" fill="black"/>
<path d="M72.09 7.41003H70.28V9.21997H72.09V7.41003Z" fill="black"/>
<path d="M72.09 18.25H70.28V20.0601H72.09V18.25Z" fill="black"/>
<path d="M72.09 21.87H70.28V25.49H72.09V21.87Z" fill="black"/>
<path d="M72.09 27.3H70.28V34.53H72.09V27.3Z" fill="black"/>
<path d="M72.09 36.34H70.28V39.96H72.09V36.34Z" fill="black"/>
<path d="M72.09 45.38H70.28V50.8H72.09V45.38Z" fill="black"/>
<path d="M72.09 52.61H70.28V56.23H72.09V52.61Z" fill="black"/>
<path d="M72.09 59.84H70.28V67.0701H72.09V59.84Z" fill="black"/>
<path d="M72.09 72.5H70.28V77.92H72.09V72.5Z" fill="black"/>
<path d="M72.09 79.73H70.28V81.54H72.09V79.73Z" fill="black"/>
<path d="M73.9 7.41003H72.09V9.21997H73.9V7.41003Z" fill="black"/>
<path d="M73.9 11.02H72.09V16.4401H73.9V11.02Z" fill="black"/>
<path d="M73.9 18.25H72.09V20.0601H73.9V18.25Z" fill="black"/>
<path d="M73.9 21.87H72.09V25.49H73.9V21.87Z" fill="black"/>
<path d="M73.9 30.91H72.09V36.33H73.9V30.91Z" fill="black"/>
<path d="M73.9 38.14H72.09V43.5601H73.9V38.14Z" fill="black"/>
<path d="M73.9 45.38H72.09V50.8H73.9V45.38Z" fill="black"/>
<path d="M73.9 52.61H72.09V58.03H73.9V52.61Z" fill="black"/>
<path d="M73.9 59.84H72.09V74.3H73.9V59.84Z" fill="black"/>
<path d="M73.9 76.11H72.09V81.53H73.9V76.11Z" fill="black"/>
<path d="M75.71 7.41003H73.9V9.21997H75.71V7.41003Z" fill="black"/>
<path d="M75.71 11.02H73.9V16.4401H75.71V11.02Z" fill="black"/>
<path d="M75.71 18.25H73.9V20.0601H75.71V18.25Z" fill="black"/>
<path d="M75.71 21.87H73.9V23.6801H75.71V21.87Z" fill="black"/>
<path d="M75.71 27.3H73.9V38.15H75.71V27.3Z" fill="black"/>
<path d="M75.71 39.95H73.9V45.37H75.71V39.95Z" fill="black"/>
<path d="M75.71 47.1801H73.9V54.41H75.71V47.1801Z" fill="black"/>
<path d="M75.71 56.23H73.9V59.85H75.71V56.23Z" fill="black"/>
<path d="M75.71 61.65H73.9V65.27H75.71V61.65Z" fill="black"/>
<path d="M75.71 67.0701H73.9V72.49H75.71V67.0701Z" fill="black"/>
<path d="M75.71 76.11H73.9V79.73H75.71V76.11Z" fill="black"/>
<path d="M77.52 7.41003H75.71V9.21997H77.52V7.41003Z" fill="black"/>
<path d="M77.52 11.02H75.71V16.4401H77.52V11.02Z" fill="black"/>
<path d="M77.52 18.25H75.71V20.0601H77.52V18.25Z" fill="black"/>
<path d="M77.52 21.87H75.71V25.49H77.52V21.87Z" fill="black"/>
<path d="M77.52 29.1H75.71V30.91H77.52V29.1Z" fill="black"/>
<path d="M77.52 36.34H75.71V38.15H77.52V36.34Z" fill="black"/>
<path d="M77.52 39.95H75.71V41.76H77.52V39.95Z" fill="black"/>
<path d="M77.52 47.1801H75.71V48.99H77.52V47.1801Z" fill="black"/>
<path d="M77.52 50.8H75.71V52.61H77.52V50.8Z" fill="black"/>
<path d="M77.52 58.03H75.71V59.84H77.52V58.03Z" fill="black"/>
<path d="M77.52 61.65H75.71V63.46H77.52V61.65Z" fill="black"/>
<path d="M77.52 65.27H75.71V70.6901H77.52V65.27Z" fill="black"/>
<path d="M77.52 72.5H75.71V74.3101H77.52V72.5Z" fill="black"/>
<path d="M77.52 76.11H75.71V77.92H77.52V76.11Z" fill="black"/>
<path d="M77.52 79.73H75.71V81.54H77.52V79.73Z" fill="black"/>
<path d="M79.33 7.41003H77.52V9.21997H79.33V7.41003Z" fill="black"/>
<path d="M79.33 18.25H77.52V20.0601H79.33V18.25Z" fill="black"/>
<path d="M79.33 23.6801H77.52V27.3H79.33V23.6801Z" fill="black"/>
<path d="M79.33 34.53H77.52V36.34H79.33V34.53Z" fill="black"/>
<path d="M79.33 38.14H77.52V39.95H79.33V38.14Z" fill="black"/>
<path d="M79.33 41.76H77.52V47.1801H79.33V41.76Z" fill="black"/>
<path d="M79.33 48.99H77.52V54.41H79.33V48.99Z" fill="black"/>
<path d="M79.33 56.23H77.52V61.65H79.33V56.23Z" fill="black"/>
<path d="M79.33 74.3101H77.52V76.12H79.33V74.3101Z" fill="black"/>
<path d="M79.33 77.92H77.52V79.73H79.33V77.92Z" fill="black"/>
<path d="M81.14 7.41003H79.33V20.0701H81.14V7.41003Z" fill="black"/>
<path d="M81.14 23.6801H79.33V25.49H81.14V23.6801Z" fill="black"/>
<path d="M81.14 30.91H79.33V32.72H81.14V30.91Z" fill="black"/>
<path d="M81.14 34.53H79.33V39.95H81.14V34.53Z" fill="black"/>
<path d="M81.14 41.76H79.33V43.5701H81.14V41.76Z" fill="black"/>
<path d="M81.14 45.38H79.33V47.1901H81.14V45.38Z" fill="black"/>
<path d="M81.14 48.99H79.33V50.8H81.14V48.99Z" fill="black"/>
<path d="M81.14 52.61H79.33V54.42H81.14V52.61Z" fill="black"/>
<path d="M81.14 56.23H79.33V58.04H81.14V56.23Z" fill="black"/>
<path d="M81.14 59.84H79.33V61.65H81.14V59.84Z" fill="black"/>
<path d="M81.14 67.0701H79.33V68.88H81.14V67.0701Z" fill="black"/>
<path d="M81.14 70.6901H79.33V76.11H81.14V70.6901Z" fill="black"/>
</svg>
