<svg width="88" height="87" viewBox="0 0 88 87" fill="none" xmlns="http://www.w3.org/2000/svg">
<path d="M87.47 0H0.579956V86.86H87.47V0Z" fill="white"/>
<path d="M8.43003 6.89001H7.03003V16.66H8.43003V6.89001Z" fill="black"/>
<path d="M8.43003 18.0601H7.03003V22.25H8.43003V18.0601Z" fill="black"/>
<path d="M8.43003 33.42H7.03003V34.8201H8.43003V33.42Z" fill="black"/>
<path d="M8.43003 36.21H7.03003V37.61H8.43003V36.21Z" fill="black"/>
<path d="M8.43003 39.01H7.03003V40.41H8.43003V39.01Z" fill="black"/>
<path d="M8.43003 43.2H7.03003V45.99H8.43003V43.2Z" fill="black"/>
<path d="M8.43003 48.78H7.03003V52.97H8.43003V48.78Z" fill="black"/>
<path d="M8.43003 54.37H7.03003V55.77H8.43003V54.37Z" fill="black"/>
<path d="M8.43003 64.14H7.03003V66.9301H8.43003V64.14Z" fill="black"/>
<path d="M8.43003 71.12H7.03003V80.89H8.43003V71.12Z" fill="black"/>
<path d="M9.83002 6.89001H8.43002V8.29004H9.83002V6.89001Z" fill="black"/>
<path d="M9.83002 15.27H8.43002V16.67H9.83002V15.27Z" fill="black"/>
<path d="M9.83002 22.25H8.43002V23.65H9.83002V22.25Z" fill="black"/>
<path d="M9.83002 25.05H8.43002V26.45H9.83002V25.05Z" fill="black"/>
<path d="M9.83002 27.84H8.43002V32.03H9.83002V27.84Z" fill="black"/>
<path d="M9.83002 33.42H8.43002V34.8201H9.83002V33.42Z" fill="black"/>
<path d="M9.83002 36.21H8.43002V40.4H9.83002V36.21Z" fill="black"/>
<path d="M9.83002 41.8H8.43002V43.2H9.83002V41.8Z" fill="black"/>
<path d="M9.83002 44.59H8.43002V45.99H9.83002V44.59Z" fill="black"/>
<path d="M9.83002 47.38H8.43002V48.78H9.83002V47.38Z" fill="black"/>
<path d="M9.83002 51.5701H8.43002V55.76H9.83002V51.5701Z" fill="black"/>
<path d="M9.83002 57.16H8.43002V59.95H9.83002V57.16Z" fill="black"/>
<path d="M9.83002 62.74H8.43002V68.3201H9.83002V62.74Z" fill="black"/>
<path d="M9.83002 71.12H8.43002V72.52H9.83002V71.12Z" fill="black"/>
<path d="M9.83002 79.5H8.43002V80.9H9.83002V79.5Z" fill="black"/>
<path d="M11.22 6.89001H9.82004V8.29004H11.22V6.89001Z" fill="black"/>
<path d="M11.22 9.69006H9.82004V13.88H11.22V9.69006Z" fill="black"/>
<path d="M11.22 15.27H9.82004V16.67H11.22V15.27Z" fill="black"/>
<path d="M11.22 18.0601H9.82004V26.4401H11.22V18.0601Z" fill="black"/>
<path d="M11.22 29.23H9.82004V33.42H11.22V29.23Z" fill="black"/>
<path d="M11.22 37.61H9.82004V39.01H11.22V37.61Z" fill="black"/>
<path d="M11.22 40.4H9.82004V41.8H11.22V40.4Z" fill="black"/>
<path d="M11.22 44.59H9.82004V45.99H11.22V44.59Z" fill="black"/>
<path d="M11.22 48.78H9.82004V50.1801H11.22V48.78Z" fill="black"/>
<path d="M11.22 51.5701H9.82004V55.76H11.22V51.5701Z" fill="black"/>
<path d="M11.22 57.16H9.82004V65.54H11.22V57.16Z" fill="black"/>
<path d="M11.22 66.9301H9.82004V68.33H11.22V66.9301Z" fill="black"/>
<path d="M11.22 71.12H9.82004V72.52H11.22V71.12Z" fill="black"/>
<path d="M11.22 73.91H9.82004V78.1H11.22V73.91Z" fill="black"/>
<path d="M11.22 79.5H9.82004V80.9H11.22V79.5Z" fill="black"/>
<path d="M12.62 6.89001H11.22V8.29004H12.62V6.89001Z" fill="black"/>
<path d="M12.62 9.69006H11.22V13.88H12.62V9.69006Z" fill="black"/>
<path d="M12.62 15.27H11.22V16.67H12.62V15.27Z" fill="black"/>
<path d="M12.62 18.0601H11.22V19.46H12.62V18.0601Z" fill="black"/>
<path d="M12.62 20.86H11.22V23.65H12.62V20.86Z" fill="black"/>
<path d="M12.62 26.4401H11.22V27.84H12.62V26.4401Z" fill="black"/>
<path d="M12.62 29.23H11.22V30.63H12.62V29.23Z" fill="black"/>
<path d="M12.62 32.03H11.22V36.22H12.62V32.03Z" fill="black"/>
<path d="M12.62 37.61H11.22V43.1901H12.62V37.61Z" fill="black"/>
<path d="M12.62 44.59H11.22V47.38H12.62V44.59Z" fill="black"/>
<path d="M12.62 48.78H11.22V51.5701H12.62V48.78Z" fill="black"/>
<path d="M12.62 52.97H11.22V54.37H12.62V52.97Z" fill="black"/>
<path d="M12.62 58.55H11.22V59.95H12.62V58.55Z" fill="black"/>
<path d="M12.62 61.35H11.22V64.14H12.62V61.35Z" fill="black"/>
<path d="M12.62 65.54H11.22V66.9401H12.62V65.54Z" fill="black"/>
<path d="M12.62 68.33H11.22V69.73H12.62V68.33Z" fill="black"/>
<path d="M12.62 71.12H11.22V72.52H12.62V71.12Z" fill="black"/>
<path d="M12.62 73.91H11.22V78.1H12.62V73.91Z" fill="black"/>
<path d="M12.62 79.5H11.22V80.9H12.62V79.5Z" fill="black"/>
<path d="M14.02 6.89001H12.62V8.29004H14.02V6.89001Z" fill="black"/>
<path d="M14.02 9.69006H12.62V13.88H14.02V9.69006Z" fill="black"/>
<path d="M14.02 15.27H12.62V16.67H14.02V15.27Z" fill="black"/>
<path d="M14.02 18.0601H12.62V19.46H14.02V18.0601Z" fill="black"/>
<path d="M14.02 20.86H12.62V23.65H14.02V20.86Z" fill="black"/>
<path d="M14.02 25.05H12.62V26.45H14.02V25.05Z" fill="black"/>
<path d="M14.02 33.42H12.62V36.21H14.02V33.42Z" fill="black"/>
<path d="M14.02 40.4H12.62V50.17H14.02V40.4Z" fill="black"/>
<path d="M14.02 51.5701H12.62V55.76H14.02V51.5701Z" fill="black"/>
<path d="M14.02 57.16H12.62V58.5601H14.02V57.16Z" fill="black"/>
<path d="M14.02 59.95H12.62V61.35H14.02V59.95Z" fill="black"/>
<path d="M14.02 62.74H12.62V64.14H14.02V62.74Z" fill="black"/>
<path d="M14.02 65.54H12.62V66.9401H14.02V65.54Z" fill="black"/>
<path d="M14.02 71.12H12.62V72.52H14.02V71.12Z" fill="black"/>
<path d="M14.02 73.91H12.62V78.1H14.02V73.91Z" fill="black"/>
<path d="M14.02 79.5H12.62V80.9H14.02V79.5Z" fill="black"/>
<path d="M15.41 6.89001H14.01V8.29004H15.41V6.89001Z" fill="black"/>
<path d="M15.41 15.27H14.01V16.67H15.41V15.27Z" fill="black"/>
<path d="M15.41 18.0601H14.01V20.85H15.41V18.0601Z" fill="black"/>
<path d="M15.41 22.25H14.01V23.65H15.41V22.25Z" fill="black"/>
<path d="M15.41 25.05H14.01V27.84H15.41V25.05Z" fill="black"/>
<path d="M15.41 30.63H14.01V34.8201H15.41V30.63Z" fill="black"/>
<path d="M15.41 37.61H14.01V39.01H15.41V37.61Z" fill="black"/>
<path d="M15.41 40.4H14.01V41.8H15.41V40.4Z" fill="black"/>
<path d="M15.41 45.99H14.01V47.39H15.41V45.99Z" fill="black"/>
<path d="M15.41 51.5701H14.01V61.34H15.41V51.5701Z" fill="black"/>
<path d="M15.41 64.14H14.01V66.9301H15.41V64.14Z" fill="black"/>
<path d="M15.41 71.12H14.01V72.52H15.41V71.12Z" fill="black"/>
<path d="M15.41 79.5H14.01V80.9H15.41V79.5Z" fill="black"/>
<path d="M16.81 6.89001H15.41V16.66H16.81V6.89001Z" fill="black"/>
<path d="M16.81 18.0601H15.41V19.46H16.81V18.0601Z" fill="black"/>
<path d="M16.81 20.86H15.41V22.26H16.81V20.86Z" fill="black"/>
<path d="M16.81 23.65H15.41V25.05H16.81V23.65Z" fill="black"/>
<path d="M16.81 26.4401H15.41V27.84H16.81V26.4401Z" fill="black"/>
<path d="M16.81 29.23H15.41V30.63H16.81V29.23Z" fill="black"/>
<path d="M16.81 32.03H15.41V33.4301H16.81V32.03Z" fill="black"/>
<path d="M16.81 34.8201H15.41V36.22H16.81V34.8201Z" fill="black"/>
<path d="M16.81 37.61H15.41V39.01H16.81V37.61Z" fill="black"/>
<path d="M16.81 40.4H15.41V41.8H16.81V40.4Z" fill="black"/>
<path d="M16.81 43.2H15.41V44.6H16.81V43.2Z" fill="black"/>
<path d="M16.81 45.99H15.41V47.39H16.81V45.99Z" fill="black"/>
<path d="M16.81 48.78H15.41V50.1801H16.81V48.78Z" fill="black"/>
<path d="M16.81 51.5701H15.41V52.97H16.81V51.5701Z" fill="black"/>
<path d="M16.81 54.37H15.41V55.77H16.81V54.37Z" fill="black"/>
<path d="M16.81 57.16H15.41V58.5601H16.81V57.16Z" fill="black"/>
<path d="M16.81 59.95H15.41V61.35H16.81V59.95Z" fill="black"/>
<path d="M16.81 62.74H15.41V64.14H16.81V62.74Z" fill="black"/>
<path d="M16.81 65.54H15.41V66.9401H16.81V65.54Z" fill="black"/>
<path d="M16.81 68.33H15.41V69.73H16.81V68.33Z" fill="black"/>
<path d="M16.81 71.12H15.41V80.89H16.81V71.12Z" fill="black"/>
<path d="M18.2 19.46H16.8V20.86H18.2V19.46Z" fill="black"/>
<path d="M18.2 23.65H16.8V26.4401H18.2V23.65Z" fill="black"/>
<path d="M18.2 30.63H16.8V32.03H18.2V30.63Z" fill="black"/>
<path d="M18.2 34.8201H16.8V37.61H18.2V34.8201Z" fill="black"/>
<path d="M18.2 40.4H16.8V41.8H18.2V40.4Z" fill="black"/>
<path d="M18.2 45.99H16.8V50.1801H18.2V45.99Z" fill="black"/>
<path d="M18.2 52.97H16.8V54.37H18.2V52.97Z" fill="black"/>
<path d="M18.2 59.95H16.8V62.74H18.2V59.95Z" fill="black"/>
<path d="M18.2 64.14H16.8V68.33H18.2V64.14Z" fill="black"/>
<path d="M19.6 9.69006H18.2V18.0701H19.6V9.69006Z" fill="black"/>
<path d="M19.6 22.25H18.2V23.65H19.6V22.25Z" fill="black"/>
<path d="M19.6 26.4401H18.2V30.63H19.6V26.4401Z" fill="black"/>
<path d="M19.6 40.4H18.2V48.78H19.6V40.4Z" fill="black"/>
<path d="M19.6 50.1801H18.2V52.97H19.6V50.1801Z" fill="black"/>
<path d="M19.6 55.76H18.2V57.16H19.6V55.76Z" fill="black"/>
<path d="M19.6 58.55H18.2V65.53H19.6V58.55Z" fill="black"/>
<path d="M19.6 66.9301H18.2V71.12H19.6V66.9301Z" fill="black"/>
<path d="M19.6 72.52H18.2V78.1H19.6V72.52Z" fill="black"/>
<path d="M19.6 79.5H18.2V80.9H19.6V79.5Z" fill="black"/>
<path d="M21 6.89001H19.6V11.08H21V6.89001Z" fill="black"/>
<path d="M21 13.88H19.6V15.28H21V13.88Z" fill="black"/>
<path d="M21 16.67H19.6V23.65H21V16.67Z" fill="black"/>
<path d="M21 25.05H19.6V26.45H21V25.05Z" fill="black"/>
<path d="M21 27.84H19.6V29.24H21V27.84Z" fill="black"/>
<path d="M21 32.03H19.6V40.41H21V32.03Z" fill="black"/>
<path d="M21 41.8H19.6V47.38H21V41.8Z" fill="black"/>
<path d="M21 48.78H19.6V50.1801H21V48.78Z" fill="black"/>
<path d="M21 51.5701H19.6V52.97H21V51.5701Z" fill="black"/>
<path d="M21 54.37H19.6V58.5601H21V54.37Z" fill="black"/>
<path d="M21 59.95H19.6V64.14H21V59.95Z" fill="black"/>
<path d="M21 65.54H19.6V68.33H21V65.54Z" fill="black"/>
<path d="M21 71.12H19.6V78.1H21V71.12Z" fill="black"/>
<path d="M22.39 6.89001H20.99V11.08H22.39V6.89001Z" fill="black"/>
<path d="M22.39 12.48H20.99V16.67H22.39V12.48Z" fill="black"/>
<path d="M22.39 18.0601H20.99V22.25H22.39V18.0601Z" fill="black"/>
<path d="M22.39 25.05H20.99V27.84H22.39V25.05Z" fill="black"/>
<path d="M22.39 29.23H20.99V30.63H22.39V29.23Z" fill="black"/>
<path d="M22.39 32.03H20.99V33.4301H22.39V32.03Z" fill="black"/>
<path d="M22.39 34.8201H20.99V37.61H22.39V34.8201Z" fill="black"/>
<path d="M22.39 40.4H20.99V41.8H22.39V40.4Z" fill="black"/>
<path d="M22.39 44.59H20.99V45.99H22.39V44.59Z" fill="black"/>
<path d="M22.39 47.38H20.99V51.5701H22.39V47.38Z" fill="black"/>
<path d="M22.39 57.16H20.99V58.5601H22.39V57.16Z" fill="black"/>
<path d="M22.39 59.95H20.99V69.72H22.39V59.95Z" fill="black"/>
<path d="M22.39 71.12H20.99V72.52H22.39V71.12Z" fill="black"/>
<path d="M22.39 76.71H20.99V79.5H22.39V76.71Z" fill="black"/>
<path d="M23.79 6.89001H22.39V8.29004H23.79V6.89001Z" fill="black"/>
<path d="M23.79 12.48H22.39V13.88H23.79V12.48Z" fill="black"/>
<path d="M23.79 19.46H22.39V26.4401H23.79V19.46Z" fill="black"/>
<path d="M23.79 27.84H22.39V29.24H23.79V27.84Z" fill="black"/>
<path d="M23.79 33.42H22.39V34.8201H23.79V33.42Z" fill="black"/>
<path d="M23.79 39.01H22.39V43.2H23.79V39.01Z" fill="black"/>
<path d="M23.79 44.59H22.39V45.99H23.79V44.59Z" fill="black"/>
<path d="M23.79 50.1801H22.39V51.58H23.79V50.1801Z" fill="black"/>
<path d="M23.79 54.37H22.39V55.77H23.79V54.37Z" fill="black"/>
<path d="M23.79 57.16H22.39V58.5601H23.79V57.16Z" fill="black"/>
<path d="M23.79 62.74H22.39V64.14H23.79V62.74Z" fill="black"/>
<path d="M23.79 65.54H22.39V66.9401H23.79V65.54Z" fill="black"/>
<path d="M23.79 68.33H22.39V73.91H23.79V68.33Z" fill="black"/>
<path d="M23.79 75.3101H22.39V76.71H23.79V75.3101Z" fill="black"/>
<path d="M23.79 78.1H22.39V80.89H23.79V78.1Z" fill="black"/>
<path d="M25.19 9.69006H23.79V11.09H25.19V9.69006Z" fill="black"/>
<path d="M25.19 12.48H23.79V16.67H25.19V12.48Z" fill="black"/>
<path d="M25.19 18.0601H23.79V19.46H25.19V18.0601Z" fill="black"/>
<path d="M25.19 27.84H23.79V30.63H25.19V27.84Z" fill="black"/>
<path d="M25.19 33.42H23.79V36.21H25.19V33.42Z" fill="black"/>
<path d="M25.19 39.01H23.79V41.8H25.19V39.01Z" fill="black"/>
<path d="M25.19 44.59H23.79V45.99H25.19V44.59Z" fill="black"/>
<path d="M25.19 47.38H23.79V48.78H25.19V47.38Z" fill="black"/>
<path d="M25.19 51.5701H23.79V54.36H25.19V51.5701Z" fill="black"/>
<path d="M25.19 57.16H23.79V58.5601H25.19V57.16Z" fill="black"/>
<path d="M25.19 59.95H23.79V61.35H25.19V59.95Z" fill="black"/>
<path d="M25.19 62.74H23.79V65.53H25.19V62.74Z" fill="black"/>
<path d="M25.19 66.9301H23.79V68.33H25.19V66.9301Z" fill="black"/>
<path d="M25.19 69.72H23.79V71.12H25.19V69.72Z" fill="black"/>
<path d="M25.19 72.52H23.79V78.1H25.19V72.52Z" fill="black"/>
<path d="M26.58 6.89001H25.18V9.68005H26.58V6.89001Z" fill="black"/>
<path d="M26.58 11.08H25.18V15.27H26.58V11.08Z" fill="black"/>
<path d="M26.58 20.86H25.18V26.4401H26.58V20.86Z" fill="black"/>
<path d="M26.58 27.84H25.18V29.24H26.58V27.84Z" fill="black"/>
<path d="M26.58 32.03H25.18V33.4301H26.58V32.03Z" fill="black"/>
<path d="M26.58 36.21H25.18V39H26.58V36.21Z" fill="black"/>
<path d="M26.58 43.2H25.18V47.39H26.58V43.2Z" fill="black"/>
<path d="M26.58 50.1801H25.18V51.58H26.58V50.1801Z" fill="black"/>
<path d="M26.58 52.97H25.18V54.37H26.58V52.97Z" fill="black"/>
<path d="M26.58 55.76H25.18V57.16H26.58V55.76Z" fill="black"/>
<path d="M26.58 59.95H25.18V61.35H26.58V59.95Z" fill="black"/>
<path d="M26.58 64.14H25.18V65.54H26.58V64.14Z" fill="black"/>
<path d="M26.58 68.33H25.18V69.73H26.58V68.33Z" fill="black"/>
<path d="M26.58 71.12H25.18V72.52H26.58V71.12Z" fill="black"/>
<path d="M26.58 73.91H25.18V75.3101H26.58V73.91Z" fill="black"/>
<path d="M26.58 76.71H25.18V79.5H26.58V76.71Z" fill="black"/>
<path d="M27.98 6.89001H26.58V8.29004H27.98V6.89001Z" fill="black"/>
<path d="M27.98 12.48H26.58V13.88H27.98V12.48Z" fill="black"/>
<path d="M27.98 15.27H26.58V18.0601H27.98V15.27Z" fill="black"/>
<path d="M27.98 20.86H26.58V27.84H27.98V20.86Z" fill="black"/>
<path d="M27.98 29.23H26.58V32.02H27.98V29.23Z" fill="black"/>
<path d="M27.98 34.8201H26.58V36.22H27.98V34.8201Z" fill="black"/>
<path d="M27.98 39.01H26.58V44.59H27.98V39.01Z" fill="black"/>
<path d="M27.98 50.1801H26.58V54.37H27.98V50.1801Z" fill="black"/>
<path d="M27.98 58.55H26.58V59.95H27.98V58.55Z" fill="black"/>
<path d="M27.98 65.54H26.58V69.73H27.98V65.54Z" fill="black"/>
<path d="M27.98 71.12H26.58V72.52H27.98V71.12Z" fill="black"/>
<path d="M27.98 73.91H26.58V75.3101H27.98V73.91Z" fill="black"/>
<path d="M27.98 76.71H26.58V78.11H27.98V76.71Z" fill="black"/>
<path d="M27.98 79.5H26.58V80.9H27.98V79.5Z" fill="black"/>
<path d="M29.37 6.89001H27.97V13.87H29.37V6.89001Z" fill="black"/>
<path d="M29.37 16.67H27.97V22.25H29.37V16.67Z" fill="black"/>
<path d="M29.37 25.05H27.97V26.45H29.37V25.05Z" fill="black"/>
<path d="M29.37 27.84H27.97V30.63H29.37V27.84Z" fill="black"/>
<path d="M29.37 32.03H27.97V36.22H29.37V32.03Z" fill="black"/>
<path d="M29.37 37.61H27.97V43.1901H29.37V37.61Z" fill="black"/>
<path d="M29.37 47.38H27.97V50.17H29.37V47.38Z" fill="black"/>
<path d="M29.37 57.16H27.97V58.5601H29.37V57.16Z" fill="black"/>
<path d="M29.37 61.35H27.97V64.14H29.37V61.35Z" fill="black"/>
<path d="M29.37 71.12H27.97V72.52H29.37V71.12Z" fill="black"/>
<path d="M29.37 73.91H27.97V75.3101H29.37V73.91Z" fill="black"/>
<path d="M29.37 78.1H27.97V80.89H29.37V78.1Z" fill="black"/>
<path d="M30.77 9.69006H29.37V11.09H30.77V9.69006Z" fill="black"/>
<path d="M30.77 12.48H29.37V13.88H30.77V12.48Z" fill="black"/>
<path d="M30.77 15.27H29.37V19.46H30.77V15.27Z" fill="black"/>
<path d="M30.77 22.25H29.37V23.65H30.77V22.25Z" fill="black"/>
<path d="M30.77 25.05H29.37V30.63H30.77V25.05Z" fill="black"/>
<path d="M30.77 33.42H29.37V34.8201H30.77V33.42Z" fill="black"/>
<path d="M30.77 39.01H29.37V40.41H30.77V39.01Z" fill="black"/>
<path d="M30.77 48.78H29.37V50.1801H30.77V48.78Z" fill="black"/>
<path d="M30.77 51.5701H29.37V52.97H30.77V51.5701Z" fill="black"/>
<path d="M30.77 55.76H29.37V58.55H30.77V55.76Z" fill="black"/>
<path d="M30.77 65.54H29.37V68.33H30.77V65.54Z" fill="black"/>
<path d="M30.77 69.72H29.37V71.12H30.77V69.72Z" fill="black"/>
<path d="M30.77 72.52H29.37V73.92H30.77V72.52Z" fill="black"/>
<path d="M30.77 75.3101H29.37V78.1H30.77V75.3101Z" fill="black"/>
<path d="M30.77 79.5H29.37V80.9H30.77V79.5Z" fill="black"/>
<path d="M32.17 6.89001H30.77V8.29004H32.17V6.89001Z" fill="black"/>
<path d="M32.17 9.69006H30.77V11.09H32.17V9.69006Z" fill="black"/>
<path d="M32.17 12.48H30.77V15.27H32.17V12.48Z" fill="black"/>
<path d="M32.17 20.86H30.77V22.26H32.17V20.86Z" fill="black"/>
<path d="M32.17 25.05H30.77V26.45H32.17V25.05Z" fill="black"/>
<path d="M32.17 27.84H30.77V30.63H32.17V27.84Z" fill="black"/>
<path d="M32.17 34.8201H30.77V37.61H32.17V34.8201Z" fill="black"/>
<path d="M32.17 39.01H30.77V40.41H32.17V39.01Z" fill="black"/>
<path d="M32.17 44.59H30.77V45.99H32.17V44.59Z" fill="black"/>
<path d="M32.17 48.78H30.77V50.1801H32.17V48.78Z" fill="black"/>
<path d="M32.17 51.5701H30.77V54.36H32.17V51.5701Z" fill="black"/>
<path d="M32.17 58.55H30.77V62.74H32.17V58.55Z" fill="black"/>
<path d="M32.17 64.14H30.77V68.33H32.17V64.14Z" fill="black"/>
<path d="M32.17 69.72H30.77V72.51H32.17V69.72Z" fill="black"/>
<path d="M32.17 73.91H30.77V75.3101H32.17V73.91Z" fill="black"/>
<path d="M32.17 76.71H30.77V80.9H32.17V76.71Z" fill="black"/>
<path d="M33.56 8.29004H32.16V9.69006H33.56V8.29004Z" fill="black"/>
<path d="M33.56 12.48H32.16V13.88H33.56V12.48Z" fill="black"/>
<path d="M33.56 15.27H32.16V23.65H33.56V15.27Z" fill="black"/>
<path d="M33.56 27.84H32.16V29.24H33.56V27.84Z" fill="black"/>
<path d="M33.56 30.63H32.16V33.42H33.56V30.63Z" fill="black"/>
<path d="M33.56 34.8201H32.16V36.22H33.56V34.8201Z" fill="black"/>
<path d="M33.56 41.8H32.16V48.78H33.56V41.8Z" fill="black"/>
<path d="M33.56 50.1801H32.16V61.35H33.56V50.1801Z" fill="black"/>
<path d="M33.56 62.74H32.16V65.53H33.56V62.74Z" fill="black"/>
<path d="M33.56 68.33H32.16V69.73H33.56V68.33Z" fill="black"/>
<path d="M33.56 71.12H32.16V72.52H33.56V71.12Z" fill="black"/>
<path d="M33.56 73.91H32.16V76.7H33.56V73.91Z" fill="black"/>
<path d="M33.56 78.1H32.16V79.5H33.56V78.1Z" fill="black"/>
<path d="M34.96 6.89001H33.56V9.68005H34.96V6.89001Z" fill="black"/>
<path d="M34.96 11.08H33.56V15.27H34.96V11.08Z" fill="black"/>
<path d="M34.96 18.0601H33.56V19.46H34.96V18.0601Z" fill="black"/>
<path d="M34.96 20.86H33.56V22.26H34.96V20.86Z" fill="black"/>
<path d="M34.96 26.4401H33.56V32.02H34.96V26.4401Z" fill="black"/>
<path d="M34.96 33.42H33.56V36.21H34.96V33.42Z" fill="black"/>
<path d="M34.96 43.2H33.56V45.99H34.96V43.2Z" fill="black"/>
<path d="M34.96 51.5701H33.56V57.15H34.96V51.5701Z" fill="black"/>
<path d="M34.96 58.55H33.56V59.95H34.96V58.55Z" fill="black"/>
<path d="M34.96 68.33H33.56V78.1H34.96V68.33Z" fill="black"/>
<path d="M34.96 79.5H33.56V80.9H34.96V79.5Z" fill="black"/>
<path d="M36.35 8.29004H34.95V9.69006H36.35V8.29004Z" fill="black"/>
<path d="M36.35 15.27H34.95V18.0601H36.35V15.27Z" fill="black"/>
<path d="M36.35 22.25H34.95V25.04H36.35V22.25Z" fill="black"/>
<path d="M36.35 26.4401H34.95V27.84H36.35V26.4401Z" fill="black"/>
<path d="M36.35 29.23H34.95V30.63H36.35V29.23Z" fill="black"/>
<path d="M36.35 33.42H34.95V34.8201H36.35V33.42Z" fill="black"/>
<path d="M36.35 39.01H34.95V40.41H36.35V39.01Z" fill="black"/>
<path d="M36.35 43.2H34.95V44.6H36.35V43.2Z" fill="black"/>
<path d="M36.35 45.99H34.95V51.5701H36.35V45.99Z" fill="black"/>
<path d="M36.35 52.97H34.95V55.76H36.35V52.97Z" fill="black"/>
<path d="M36.35 58.55H34.95V65.53H36.35V58.55Z" fill="black"/>
<path d="M36.35 69.72H34.95V71.12H36.35V69.72Z" fill="black"/>
<path d="M36.35 72.52H34.95V76.71H36.35V72.52Z" fill="black"/>
<path d="M37.75 6.89001H36.35V8.29004H37.75V6.89001Z" fill="black"/>
<path d="M37.75 16.67H36.35V18.0701H37.75V16.67Z" fill="black"/>
<path d="M37.75 22.25H36.35V23.65H37.75V22.25Z" fill="black"/>
<path d="M37.75 26.4401H36.35V29.23H37.75V26.4401Z" fill="black"/>
<path d="M37.75 32.03H36.35V33.4301H37.75V32.03Z" fill="black"/>
<path d="M37.75 34.8201H36.35V36.22H37.75V34.8201Z" fill="black"/>
<path d="M37.75 37.61H36.35V39.01H37.75V37.61Z" fill="black"/>
<path d="M37.75 43.2H36.35V45.99H37.75V43.2Z" fill="black"/>
<path d="M37.75 47.38H36.35V51.5701H37.75V47.38Z" fill="black"/>
<path d="M37.75 52.97H36.35V57.16H37.75V52.97Z" fill="black"/>
<path d="M37.75 58.55H36.35V59.95H37.75V58.55Z" fill="black"/>
<path d="M37.75 61.35H36.35V62.75H37.75V61.35Z" fill="black"/>
<path d="M37.75 64.14H36.35V66.9301H37.75V64.14Z" fill="black"/>
<path d="M37.75 71.12H36.35V72.52H37.75V71.12Z" fill="black"/>
<path d="M37.75 73.91H36.35V75.3101H37.75V73.91Z" fill="black"/>
<path d="M37.75 79.5H36.35V80.9H37.75V79.5Z" fill="black"/>
<path d="M39.15 12.48H37.75V13.88H39.15V12.48Z" fill="black"/>
<path d="M39.15 15.27H37.75V18.0601H39.15V15.27Z" fill="black"/>
<path d="M39.15 22.25H37.75V23.65H39.15V22.25Z" fill="black"/>
<path d="M39.15 26.4401H37.75V27.84H39.15V26.4401Z" fill="black"/>
<path d="M39.15 39.01H37.75V40.41H39.15V39.01Z" fill="black"/>
<path d="M39.15 41.8H37.75V45.99H39.15V41.8Z" fill="black"/>
<path d="M39.15 47.38H37.75V51.5701H39.15V47.38Z" fill="black"/>
<path d="M39.15 52.97H37.75V57.16H39.15V52.97Z" fill="black"/>
<path d="M39.15 58.55H37.75V64.13H39.15V58.55Z" fill="black"/>
<path d="M39.15 65.54H37.75V66.9401H39.15V65.54Z" fill="black"/>
<path d="M39.15 69.72H37.75V71.12H39.15V69.72Z" fill="black"/>
<path d="M39.15 78.1H37.75V79.5H39.15V78.1Z" fill="black"/>
<path d="M40.54 6.89001H39.14V8.29004H40.54V6.89001Z" fill="black"/>
<path d="M40.54 9.69006H39.14V13.88H40.54V9.69006Z" fill="black"/>
<path d="M40.54 16.67H39.14V18.0701H40.54V16.67Z" fill="black"/>
<path d="M40.54 22.25H39.14V25.04H40.54V22.25Z" fill="black"/>
<path d="M40.54 27.84H39.14V30.63H40.54V27.84Z" fill="black"/>
<path d="M40.54 32.03H39.14V36.22H40.54V32.03Z" fill="black"/>
<path d="M40.54 37.61H39.14V39.01H40.54V37.61Z" fill="black"/>
<path d="M40.54 40.4H39.14V41.8H40.54V40.4Z" fill="black"/>
<path d="M40.54 45.99H39.14V47.39H40.54V45.99Z" fill="black"/>
<path d="M40.54 50.1801H39.14V51.58H40.54V50.1801Z" fill="black"/>
<path d="M40.54 55.76H39.14V57.16H40.54V55.76Z" fill="black"/>
<path d="M40.54 61.35H39.14V62.75H40.54V61.35Z" fill="black"/>
<path d="M40.54 64.14H39.14V65.54H40.54V64.14Z" fill="black"/>
<path d="M40.54 66.9301H39.14V69.72H40.54V66.9301Z" fill="black"/>
<path d="M40.54 72.52H39.14V75.3101H40.54V72.52Z" fill="black"/>
<path d="M40.54 76.71H39.14V79.5H40.54V76.71Z" fill="black"/>
<path d="M41.94 11.08H40.54V19.46H41.94V11.08Z" fill="black"/>
<path d="M41.94 22.25H40.54V23.65H41.94V22.25Z" fill="black"/>
<path d="M41.94 27.84H40.54V29.24H41.94V27.84Z" fill="black"/>
<path d="M41.94 33.42H40.54V34.8201H41.94V33.42Z" fill="black"/>
<path d="M41.94 36.21H40.54V47.38H41.94V36.21Z" fill="black"/>
<path d="M41.94 48.78H40.54V52.97H41.94V48.78Z" fill="black"/>
<path d="M41.94 54.37H40.54V58.5601H41.94V54.37Z" fill="black"/>
<path d="M41.94 59.95H40.54V64.14H41.94V59.95Z" fill="black"/>
<path d="M41.94 68.33H40.54V75.3101H41.94V68.33Z" fill="black"/>
<path d="M41.94 79.5H40.54V80.9H41.94V79.5Z" fill="black"/>
<path d="M43.34 6.89001H41.94V8.29004H43.34V6.89001Z" fill="black"/>
<path d="M43.34 9.69006H41.94V11.09H43.34V9.69006Z" fill="black"/>
<path d="M43.34 12.48H41.94V13.88H43.34V12.48Z" fill="black"/>
<path d="M43.34 18.0601H41.94V23.64H43.34V18.0601Z" fill="black"/>
<path d="M43.34 25.05H41.94V41.8H43.34V25.05Z" fill="black"/>
<path d="M43.34 45.99H41.94V47.39H43.34V45.99Z" fill="black"/>
<path d="M43.34 48.78H41.94V50.1801H43.34V48.78Z" fill="black"/>
<path d="M43.34 54.37H41.94V57.16H43.34V54.37Z" fill="black"/>
<path d="M43.34 59.95H41.94V61.35H43.34V59.95Z" fill="black"/>
<path d="M43.34 64.14H41.94V66.9301H43.34V64.14Z" fill="black"/>
<path d="M43.34 68.33H41.94V69.73H43.34V68.33Z" fill="black"/>
<path d="M43.34 73.91H41.94V75.3101H43.34V73.91Z" fill="black"/>
<path d="M43.34 76.71H41.94V80.9H43.34V76.71Z" fill="black"/>
<path d="M44.73 11.08H43.33V13.87H44.73V11.08Z" fill="black"/>
<path d="M44.73 15.27H43.33V16.67H44.73V15.27Z" fill="black"/>
<path d="M44.73 18.0601H43.33V19.46H44.73V18.0601Z" fill="black"/>
<path d="M44.73 20.86H43.33V22.26H44.73V20.86Z" fill="black"/>
<path d="M44.73 23.65H43.33V25.05H44.73V23.65Z" fill="black"/>
<path d="M44.73 26.4401H43.33V27.84H44.73V26.4401Z" fill="black"/>
<path d="M44.73 29.23H43.33V33.42H44.73V29.23Z" fill="black"/>
<path d="M44.73 34.8201H43.33V37.61H44.73V34.8201Z" fill="black"/>
<path d="M44.73 40.4H43.33V41.8H44.73V40.4Z" fill="black"/>
<path d="M44.73 43.2H43.33V44.6H44.73V43.2Z" fill="black"/>
<path d="M44.73 45.99H43.33V47.39H44.73V45.99Z" fill="black"/>
<path d="M44.73 50.1801H43.33V51.58H44.73V50.1801Z" fill="black"/>
<path d="M44.73 58.55H43.33V59.95H44.73V58.55Z" fill="black"/>
<path d="M44.73 64.14H43.33V65.54H44.73V64.14Z" fill="black"/>
<path d="M44.73 68.33H43.33V69.73H44.73V68.33Z" fill="black"/>
<path d="M44.73 71.12H43.33V72.52H44.73V71.12Z" fill="black"/>
<path d="M44.73 73.91H43.33V75.3101H44.73V73.91Z" fill="black"/>
<path d="M44.73 76.71H43.33V78.11H44.73V76.71Z" fill="black"/>
<path d="M46.13 6.89001H44.73V8.29004H46.13V6.89001Z" fill="black"/>
<path d="M46.13 11.08H44.73V13.87H46.13V11.08Z" fill="black"/>
<path d="M46.13 18.0601H44.73V20.85H46.13V18.0601Z" fill="black"/>
<path d="M46.13 23.65H44.73V26.4401H46.13V23.65Z" fill="black"/>
<path d="M46.13 29.23H44.73V32.02H46.13V29.23Z" fill="black"/>
<path d="M46.13 34.8201H44.73V37.61H46.13V34.8201Z" fill="black"/>
<path d="M46.13 39.01H44.73V41.8H46.13V39.01Z" fill="black"/>
<path d="M46.13 45.99H44.73V48.78H46.13V45.99Z" fill="black"/>
<path d="M46.13 50.1801H44.73V55.76H46.13V50.1801Z" fill="black"/>
<path d="M46.13 57.16H44.73V61.35H46.13V57.16Z" fill="black"/>
<path d="M46.13 62.74H44.73V66.9301H46.13V62.74Z" fill="black"/>
<path d="M46.13 68.33H44.73V69.73H46.13V68.33Z" fill="black"/>
<path d="M46.13 73.91H44.73V75.3101H46.13V73.91Z" fill="black"/>
<path d="M47.52 6.89001H46.12V8.29004H47.52V6.89001Z" fill="black"/>
<path d="M47.52 11.08H46.12V20.85H47.52V11.08Z" fill="black"/>
<path d="M47.52 22.25H46.12V26.4401H47.52V22.25Z" fill="black"/>
<path d="M47.52 27.84H46.12V32.03H47.52V27.84Z" fill="black"/>
<path d="M47.52 36.21H46.12V37.61H47.52V36.21Z" fill="black"/>
<path d="M47.52 40.4H46.12V47.38H47.52V40.4Z" fill="black"/>
<path d="M47.52 48.78H46.12V50.1801H47.52V48.78Z" fill="black"/>
<path d="M47.52 57.16H46.12V58.5601H47.52V57.16Z" fill="black"/>
<path d="M47.52 62.74H46.12V64.14H47.52V62.74Z" fill="black"/>
<path d="M47.52 65.54H46.12V66.9401H47.52V65.54Z" fill="black"/>
<path d="M47.52 68.33H46.12V76.71H47.52V68.33Z" fill="black"/>
<path d="M47.52 78.1H46.12V79.5H47.52V78.1Z" fill="black"/>
<path d="M48.92 6.89001H47.52V8.29004H48.92V6.89001Z" fill="black"/>
<path d="M48.92 9.69006H47.52V11.09H48.92V9.69006Z" fill="black"/>
<path d="M48.92 12.48H47.52V13.88H48.92V12.48Z" fill="black"/>
<path d="M48.92 16.67H47.52V18.0701H48.92V16.67Z" fill="black"/>
<path d="M48.92 19.46H47.52V20.86H48.92V19.46Z" fill="black"/>
<path d="M48.92 22.25H47.52V25.04H48.92V22.25Z" fill="black"/>
<path d="M48.92 26.4401H47.52V32.02H48.92V26.4401Z" fill="black"/>
<path d="M48.92 33.42H47.52V37.61H48.92V33.42Z" fill="black"/>
<path d="M48.92 40.4H47.52V43.1901H48.92V40.4Z" fill="black"/>
<path d="M48.92 44.59H47.52V45.99H48.92V44.59Z" fill="black"/>
<path d="M48.92 47.38H47.52V52.96H48.92V47.38Z" fill="black"/>
<path d="M48.92 55.76H47.52V57.16H48.92V55.76Z" fill="black"/>
<path d="M48.92 58.55H47.52V59.95H48.92V58.55Z" fill="black"/>
<path d="M48.92 62.74H47.52V64.14H48.92V62.74Z" fill="black"/>
<path d="M48.92 65.54H47.52V68.33H48.92V65.54Z" fill="black"/>
<path d="M48.92 71.12H47.52V72.52H48.92V71.12Z" fill="black"/>
<path d="M48.92 73.91H47.52V79.49H48.92V73.91Z" fill="black"/>
<path d="M50.32 6.89001H48.92V8.29004H50.32V6.89001Z" fill="black"/>
<path d="M50.32 9.69006H48.92V13.88H50.32V9.69006Z" fill="black"/>
<path d="M50.32 15.27H48.92V16.67H50.32V15.27Z" fill="black"/>
<path d="M50.32 18.0601H48.92V20.85H50.32V18.0601Z" fill="black"/>
<path d="M50.32 22.25H48.92V23.65H50.32V22.25Z" fill="black"/>
<path d="M50.32 25.05H48.92V26.45H50.32V25.05Z" fill="black"/>
<path d="M50.32 27.84H48.92V32.03H50.32V27.84Z" fill="black"/>
<path d="M50.32 34.8201H48.92V39.01H50.32V34.8201Z" fill="black"/>
<path d="M50.32 40.4H48.92V43.1901H50.32V40.4Z" fill="black"/>
<path d="M50.32 47.38H48.92V50.17H50.32V47.38Z" fill="black"/>
<path d="M50.32 51.5701H48.92V54.36H50.32V51.5701Z" fill="black"/>
<path d="M50.32 58.55H48.92V59.95H50.32V58.55Z" fill="black"/>
<path d="M50.32 64.14H48.92V65.54H50.32V64.14Z" fill="black"/>
<path d="M50.32 69.72H48.92V71.12H50.32V69.72Z" fill="black"/>
<path d="M50.32 73.91H48.92V76.7H50.32V73.91Z" fill="black"/>
<path d="M51.71 8.29004H50.31V9.69006H51.71V8.29004Z" fill="black"/>
<path d="M51.71 11.08H50.31V15.27H51.71V11.08Z" fill="black"/>
<path d="M51.71 18.0601H50.31V19.46H51.71V18.0601Z" fill="black"/>
<path d="M51.71 23.65H50.31V25.05H51.71V23.65Z" fill="black"/>
<path d="M51.71 27.84H50.31V32.03H51.71V27.84Z" fill="black"/>
<path d="M51.71 34.8201H50.31V36.22H51.71V34.8201Z" fill="black"/>
<path d="M51.71 41.8H50.31V47.38H51.71V41.8Z" fill="black"/>
<path d="M51.71 48.78H50.31V51.5701H51.71V48.78Z" fill="black"/>
<path d="M51.71 52.97H50.31V55.76H51.71V52.97Z" fill="black"/>
<path d="M51.71 57.16H50.31V58.5601H51.71V57.16Z" fill="black"/>
<path d="M51.71 62.74H50.31V64.14H51.71V62.74Z" fill="black"/>
<path d="M51.71 68.33H50.31V72.52H51.71V68.33Z" fill="black"/>
<path d="M51.71 73.91H50.31V78.1H51.71V73.91Z" fill="black"/>
<path d="M51.71 79.5H50.31V80.9H51.71V79.5Z" fill="black"/>
<path d="M53.11 6.89001H51.71V11.08H53.11V6.89001Z" fill="black"/>
<path d="M53.11 12.48H51.71V18.0601H53.11V12.48Z" fill="black"/>
<path d="M53.11 19.46H51.71V22.25H53.11V19.46Z" fill="black"/>
<path d="M53.11 25.05H51.71V26.45H53.11V25.05Z" fill="black"/>
<path d="M53.11 27.84H51.71V29.24H53.11V27.84Z" fill="black"/>
<path d="M53.11 32.03H51.71V33.4301H53.11V32.03Z" fill="black"/>
<path d="M53.11 37.61H51.71V40.4H53.11V37.61Z" fill="black"/>
<path d="M53.11 43.2H51.71V45.99H53.11V43.2Z" fill="black"/>
<path d="M53.11 47.38H51.71V51.5701H53.11V47.38Z" fill="black"/>
<path d="M53.11 55.76H51.71V57.16H53.11V55.76Z" fill="black"/>
<path d="M53.11 58.55H51.71V62.74H53.11V58.55Z" fill="black"/>
<path d="M53.11 64.14H51.71V68.33H53.11V64.14Z" fill="black"/>
<path d="M53.11 69.72H51.71V72.51H53.11V69.72Z" fill="black"/>
<path d="M54.51 6.89001H53.11V12.47H54.51V6.89001Z" fill="black"/>
<path d="M54.51 13.88H53.11V15.28H54.51V13.88Z" fill="black"/>
<path d="M54.51 16.67H53.11V19.46H54.51V16.67Z" fill="black"/>
<path d="M54.51 20.86H53.11V26.4401H54.51V20.86Z" fill="black"/>
<path d="M54.51 27.84H53.11V30.63H54.51V27.84Z" fill="black"/>
<path d="M54.51 34.8201H53.11V36.22H54.51V34.8201Z" fill="black"/>
<path d="M54.51 37.61H53.11V40.4H54.51V37.61Z" fill="black"/>
<path d="M54.51 43.2H53.11V45.99H54.51V43.2Z" fill="black"/>
<path d="M54.51 48.78H53.11V51.5701H54.51V48.78Z" fill="black"/>
<path d="M54.51 54.37H53.11V57.16H54.51V54.37Z" fill="black"/>
<path d="M54.51 58.55H53.11V59.95H54.51V58.55Z" fill="black"/>
<path d="M54.51 61.35H53.11V62.75H54.51V61.35Z" fill="black"/>
<path d="M54.51 65.54H53.11V66.9401H54.51V65.54Z" fill="black"/>
<path d="M54.51 68.33H53.11V69.73H54.51V68.33Z" fill="black"/>
<path d="M54.51 73.91H53.11V75.3101H54.51V73.91Z" fill="black"/>
<path d="M55.9 8.29004H54.5V9.69006H55.9V8.29004Z" fill="black"/>
<path d="M55.9 11.08H54.5V12.48H55.9V11.08Z" fill="black"/>
<path d="M55.9 15.27H54.5V16.67H55.9V15.27Z" fill="black"/>
<path d="M55.9 18.0601H54.5V19.46H55.9V18.0601Z" fill="black"/>
<path d="M55.9 26.4401H54.5V30.63H55.9V26.4401Z" fill="black"/>
<path d="M55.9 33.42H54.5V36.21H55.9V33.42Z" fill="black"/>
<path d="M55.9 37.61H54.5V41.8H55.9V37.61Z" fill="black"/>
<path d="M55.9 43.2H54.5V47.39H55.9V43.2Z" fill="black"/>
<path d="M55.9 48.78H54.5V51.5701H55.9V48.78Z" fill="black"/>
<path d="M55.9 54.37H54.5V57.16H55.9V54.37Z" fill="black"/>
<path d="M55.9 59.95H54.5V61.35H55.9V59.95Z" fill="black"/>
<path d="M55.9 62.74H54.5V64.14H55.9V62.74Z" fill="black"/>
<path d="M55.9 65.54H54.5V66.9401H55.9V65.54Z" fill="black"/>
<path d="M55.9 68.33H54.5V69.73H55.9V68.33Z" fill="black"/>
<path d="M55.9 73.91H54.5V75.3101H55.9V73.91Z" fill="black"/>
<path d="M55.9 78.1H54.5V79.5H55.9V78.1Z" fill="black"/>
<path d="M57.3 6.89001H55.9V8.29004H57.3V6.89001Z" fill="black"/>
<path d="M57.3 9.69006H55.9V12.48H57.3V9.69006Z" fill="black"/>
<path d="M57.3 13.88H55.9V15.28H57.3V13.88Z" fill="black"/>
<path d="M57.3 16.67H55.9V20.86H57.3V16.67Z" fill="black"/>
<path d="M57.3 22.25H55.9V23.65H57.3V22.25Z" fill="black"/>
<path d="M57.3 26.4401H55.9V29.23H57.3V26.4401Z" fill="black"/>
<path d="M57.3 34.8201H55.9V36.22H57.3V34.8201Z" fill="black"/>
<path d="M57.3 37.61H55.9V39.01H57.3V37.61Z" fill="black"/>
<path d="M57.3 40.4H55.9V43.1901H57.3V40.4Z" fill="black"/>
<path d="M57.3 44.59H55.9V48.78H57.3V44.59Z" fill="black"/>
<path d="M57.3 51.5701H55.9V59.95H57.3V51.5701Z" fill="black"/>
<path d="M57.3 62.74H55.9V68.3201H57.3V62.74Z" fill="black"/>
<path d="M57.3 69.72H55.9V73.91H57.3V69.72Z" fill="black"/>
<path d="M57.3 75.3101H55.9V76.71H57.3V75.3101Z" fill="black"/>
<path d="M57.3 79.5H55.9V80.9H57.3V79.5Z" fill="black"/>
<path d="M58.69 6.89001H57.29V8.29004H58.69V6.89001Z" fill="black"/>
<path d="M58.69 11.08H57.29V12.48H58.69V11.08Z" fill="black"/>
<path d="M58.69 15.27H57.29V16.67H58.69V15.27Z" fill="black"/>
<path d="M58.69 18.0601H57.29V20.85H58.69V18.0601Z" fill="black"/>
<path d="M58.69 23.65H57.29V27.84H58.69V23.65Z" fill="black"/>
<path d="M58.69 29.23H57.29V30.63H58.69V29.23Z" fill="black"/>
<path d="M58.69 34.8201H57.29V47.39H58.69V34.8201Z" fill="black"/>
<path d="M58.69 48.78H57.29V54.36H58.69V48.78Z" fill="black"/>
<path d="M58.69 57.16H57.29V59.95H58.69V57.16Z" fill="black"/>
<path d="M58.69 62.74H57.29V66.9301H58.69V62.74Z" fill="black"/>
<path d="M58.69 68.33H57.29V72.52H58.69V68.33Z" fill="black"/>
<path d="M58.69 73.91H57.29V75.3101H58.69V73.91Z" fill="black"/>
<path d="M58.69 76.71H57.29V78.11H58.69V76.71Z" fill="black"/>
<path d="M58.69 79.5H57.29V80.9H58.69V79.5Z" fill="black"/>
<path d="M60.09 6.89001H58.69V8.29004H60.09V6.89001Z" fill="black"/>
<path d="M60.09 12.48H58.69V15.27H60.09V12.48Z" fill="black"/>
<path d="M60.09 19.46H58.69V20.86H60.09V19.46Z" fill="black"/>
<path d="M60.09 23.65H58.69V27.84H60.09V23.65Z" fill="black"/>
<path d="M60.09 30.63H58.69V32.03H60.09V30.63Z" fill="black"/>
<path d="M60.09 33.42H58.69V34.8201H60.09V33.42Z" fill="black"/>
<path d="M60.09 36.21H58.69V39H60.09V36.21Z" fill="black"/>
<path d="M60.09 40.4H58.69V43.1901H60.09V40.4Z" fill="black"/>
<path d="M60.09 44.59H58.69V45.99H60.09V44.59Z" fill="black"/>
<path d="M60.09 47.38H58.69V48.78H60.09V47.38Z" fill="black"/>
<path d="M60.09 52.97H58.69V54.37H60.09V52.97Z" fill="black"/>
<path d="M60.09 58.55H58.69V59.95H60.09V58.55Z" fill="black"/>
<path d="M60.09 64.14H58.69V66.9301H60.09V64.14Z" fill="black"/>
<path d="M60.09 68.33H58.69V73.91H60.09V68.33Z" fill="black"/>
<path d="M60.09 75.3101H58.69V76.71H60.09V75.3101Z" fill="black"/>
<path d="M60.09 78.1H58.69V79.5H60.09V78.1Z" fill="black"/>
<path d="M61.49 9.69006H60.09V11.09H61.49V9.69006Z" fill="black"/>
<path d="M61.49 13.88H60.09V19.46H61.49V13.88Z" fill="black"/>
<path d="M61.49 20.86H60.09V23.65H61.49V20.86Z" fill="black"/>
<path d="M61.49 26.4401H60.09V30.63H61.49V26.4401Z" fill="black"/>
<path d="M61.49 32.03H60.09V36.22H61.49V32.03Z" fill="black"/>
<path d="M61.49 37.61H60.09V39.01H61.49V37.61Z" fill="black"/>
<path d="M61.49 40.4H60.09V41.8H61.49V40.4Z" fill="black"/>
<path d="M61.49 43.2H60.09V45.99H61.49V43.2Z" fill="black"/>
<path d="M61.49 51.5701H60.09V52.97H61.49V51.5701Z" fill="black"/>
<path d="M61.49 54.37H60.09V57.16H61.49V54.37Z" fill="black"/>
<path d="M61.49 61.35H60.09V64.14H61.49V61.35Z" fill="black"/>
<path d="M61.49 71.12H60.09V75.3101H61.49V71.12Z" fill="black"/>
<path d="M61.49 76.71H60.09V78.11H61.49V76.71Z" fill="black"/>
<path d="M62.88 6.89001H61.48V9.68005H62.88V6.89001Z" fill="black"/>
<path d="M62.88 12.48H61.48V13.88H62.88V12.48Z" fill="black"/>
<path d="M62.88 20.86H61.48V22.26H62.88V20.86Z" fill="black"/>
<path d="M62.88 25.05H61.48V26.45H62.88V25.05Z" fill="black"/>
<path d="M62.88 27.84H61.48V29.24H62.88V27.84Z" fill="black"/>
<path d="M62.88 32.03H61.48V33.4301H62.88V32.03Z" fill="black"/>
<path d="M62.88 34.8201H61.48V36.22H62.88V34.8201Z" fill="black"/>
<path d="M62.88 39.01H61.48V40.41H62.88V39.01Z" fill="black"/>
<path d="M62.88 43.2H61.48V44.6H62.88V43.2Z" fill="black"/>
<path d="M62.88 45.99H61.48V47.39H62.88V45.99Z" fill="black"/>
<path d="M62.88 48.78H61.48V51.5701H62.88V48.78Z" fill="black"/>
<path d="M62.88 54.37H61.48V57.16H62.88V54.37Z" fill="black"/>
<path d="M62.88 58.55H61.48V59.95H62.88V58.55Z" fill="black"/>
<path d="M62.88 61.35H61.48V62.75H62.88V61.35Z" fill="black"/>
<path d="M62.88 64.14H61.48V68.33H62.88V64.14Z" fill="black"/>
<path d="M62.88 69.72H61.48V73.91H62.88V69.72Z" fill="black"/>
<path d="M62.88 76.71H61.48V79.5H62.88V76.71Z" fill="black"/>
<path d="M64.28 12.48H62.88V13.88H64.28V12.48Z" fill="black"/>
<path d="M64.28 15.27H62.88V16.67H64.28V15.27Z" fill="black"/>
<path d="M64.28 19.46H62.88V20.86H64.28V19.46Z" fill="black"/>
<path d="M64.28 25.05H62.88V26.45H64.28V25.05Z" fill="black"/>
<path d="M64.28 27.84H62.88V29.24H64.28V27.84Z" fill="black"/>
<path d="M64.28 32.03H62.88V34.8201H64.28V32.03Z" fill="black"/>
<path d="M64.28 37.61H62.88V40.4H64.28V37.61Z" fill="black"/>
<path d="M64.28 41.8H62.88V45.99H64.28V41.8Z" fill="black"/>
<path d="M64.28 48.78H62.88V51.5701H64.28V48.78Z" fill="black"/>
<path d="M64.28 52.97H62.88V57.16H64.28V52.97Z" fill="black"/>
<path d="M64.28 58.55H62.88V61.34H64.28V58.55Z" fill="black"/>
<path d="M64.28 64.14H62.88V66.9301H64.28V64.14Z" fill="black"/>
<path d="M64.28 69.72H62.88V71.12H64.28V69.72Z" fill="black"/>
<path d="M64.28 72.52H62.88V73.92H64.28V72.52Z" fill="black"/>
<path d="M64.28 76.71H62.88V78.11H64.28V76.71Z" fill="black"/>
<path d="M65.68 8.29004H64.28V9.69006H65.68V8.29004Z" fill="black"/>
<path d="M65.68 12.48H64.28V15.27H65.68V12.48Z" fill="black"/>
<path d="M65.68 18.0601H64.28V20.85H65.68V18.0601Z" fill="black"/>
<path d="M65.68 23.65H64.28V25.05H65.68V23.65Z" fill="black"/>
<path d="M65.68 30.63H64.28V37.61H65.68V30.63Z" fill="black"/>
<path d="M65.68 40.4H64.28V43.1901H65.68V40.4Z" fill="black"/>
<path d="M65.68 44.59H64.28V45.99H65.68V44.59Z" fill="black"/>
<path d="M65.68 47.38H64.28V48.78H65.68V47.38Z" fill="black"/>
<path d="M65.68 50.1801H64.28V52.97H65.68V50.1801Z" fill="black"/>
<path d="M65.68 54.37H64.28V55.77H65.68V54.37Z" fill="black"/>
<path d="M65.68 58.55H64.28V59.95H65.68V58.55Z" fill="black"/>
<path d="M65.68 65.54H64.28V71.12H65.68V65.54Z" fill="black"/>
<path d="M65.68 72.52H64.28V73.92H65.68V72.52Z" fill="black"/>
<path d="M67.07 6.89001H65.67V9.68005H67.07V6.89001Z" fill="black"/>
<path d="M67.07 11.08H65.67V18.0601H67.07V11.08Z" fill="black"/>
<path d="M67.07 19.46H65.67V20.86H67.07V19.46Z" fill="black"/>
<path d="M67.07 22.25H65.67V23.65H67.07V22.25Z" fill="black"/>
<path d="M67.07 25.05H65.67V26.45H67.07V25.05Z" fill="black"/>
<path d="M67.07 29.23H65.67V33.42H67.07V29.23Z" fill="black"/>
<path d="M67.07 34.8201H65.67V40.4H67.07V34.8201Z" fill="black"/>
<path d="M67.07 41.8H65.67V48.78H67.07V41.8Z" fill="black"/>
<path d="M67.07 52.97H65.67V54.37H67.07V52.97Z" fill="black"/>
<path d="M67.07 58.55H65.67V59.95H67.07V58.55Z" fill="black"/>
<path d="M67.07 61.35H65.67V62.75H67.07V61.35Z" fill="black"/>
<path d="M67.07 64.14H65.67V65.54H67.07V64.14Z" fill="black"/>
<path d="M67.07 68.33H65.67V71.12H67.07V68.33Z" fill="black"/>
<path d="M67.07 75.3101H65.67V76.71H67.07V75.3101Z" fill="black"/>
<path d="M67.07 78.1H65.67V79.5H67.07V78.1Z" fill="black"/>
<path d="M68.47 8.29004H67.07V11.08H68.47V8.29004Z" fill="black"/>
<path d="M68.47 16.67H67.07V18.0701H68.47V16.67Z" fill="black"/>
<path d="M68.47 19.46H67.07V22.25H68.47V19.46Z" fill="black"/>
<path d="M68.47 25.05H67.07V27.84H68.47V25.05Z" fill="black"/>
<path d="M68.47 29.23H67.07V32.02H68.47V29.23Z" fill="black"/>
<path d="M68.47 33.42H67.07V34.8201H68.47V33.42Z" fill="black"/>
<path d="M68.47 36.21H67.07V40.4H68.47V36.21Z" fill="black"/>
<path d="M68.47 43.2H67.07V44.6H68.47V43.2Z" fill="black"/>
<path d="M68.47 47.38H67.07V51.5701H68.47V47.38Z" fill="black"/>
<path d="M68.47 58.55H67.07V59.95H68.47V58.55Z" fill="black"/>
<path d="M68.47 61.35H67.07V62.75H68.47V61.35Z" fill="black"/>
<path d="M68.47 66.9301H67.07V68.33H68.47V66.9301Z" fill="black"/>
<path d="M68.47 69.72H67.07V75.3H68.47V69.72Z" fill="black"/>
<path d="M68.47 76.71H67.07V78.11H68.47V76.71Z" fill="black"/>
<path d="M69.86 11.08H68.46V12.48H69.86V11.08Z" fill="black"/>
<path d="M69.86 15.27H68.46V16.67H69.86V15.27Z" fill="black"/>
<path d="M69.86 18.0601H68.46V19.46H69.86V18.0601Z" fill="black"/>
<path d="M69.86 22.25H68.46V23.65H69.86V22.25Z" fill="black"/>
<path d="M69.86 27.84H68.46V30.63H69.86V27.84Z" fill="black"/>
<path d="M69.86 34.8201H68.46V36.22H69.86V34.8201Z" fill="black"/>
<path d="M69.86 37.61H68.46V47.38H69.86V37.61Z" fill="black"/>
<path d="M69.86 48.78H68.46V50.1801H69.86V48.78Z" fill="black"/>
<path d="M69.86 52.97H68.46V57.16H69.86V52.97Z" fill="black"/>
<path d="M69.86 61.35H68.46V64.14H69.86V61.35Z" fill="black"/>
<path d="M69.86 68.33H68.46V76.71H69.86V68.33Z" fill="black"/>
<path d="M69.86 78.1H68.46V80.89H69.86V78.1Z" fill="black"/>
<path d="M71.26 19.46H69.86V20.86H71.26V19.46Z" fill="black"/>
<path d="M71.26 23.65H69.86V25.05H71.26V23.65Z" fill="black"/>
<path d="M71.26 26.4401H69.86V27.84H71.26V26.4401Z" fill="black"/>
<path d="M71.26 34.8201H69.86V36.22H71.26V34.8201Z" fill="black"/>
<path d="M71.26 39.01H69.86V41.8H71.26V39.01Z" fill="black"/>
<path d="M71.26 45.99H69.86V47.39H71.26V45.99Z" fill="black"/>
<path d="M71.26 51.5701H69.86V57.15H71.26V51.5701Z" fill="black"/>
<path d="M71.26 61.35H69.86V62.75H71.26V61.35Z" fill="black"/>
<path d="M71.26 64.14H69.86V66.9301H71.26V64.14Z" fill="black"/>
<path d="M71.26 68.33H69.86V69.73H71.26V68.33Z" fill="black"/>
<path d="M71.26 73.91H69.86V76.7H71.26V73.91Z" fill="black"/>
<path d="M72.66 6.89001H71.26V16.66H72.66V6.89001Z" fill="black"/>
<path d="M72.66 18.0601H71.26V19.46H72.66V18.0601Z" fill="black"/>
<path d="M72.66 20.86H71.26V23.65H72.66V20.86Z" fill="black"/>
<path d="M72.66 26.4401H71.26V27.84H72.66V26.4401Z" fill="black"/>
<path d="M72.66 32.03H71.26V33.4301H72.66V32.03Z" fill="black"/>
<path d="M72.66 39.01H71.26V41.8H72.66V39.01Z" fill="black"/>
<path d="M72.66 43.2H71.26V44.6H72.66V43.2Z" fill="black"/>
<path d="M72.66 45.99H71.26V48.78H72.66V45.99Z" fill="black"/>
<path d="M72.66 51.5701H71.26V54.36H72.66V51.5701Z" fill="black"/>
<path d="M72.66 55.76H71.26V59.95H72.66V55.76Z" fill="black"/>
<path d="M72.66 61.35H71.26V62.75H72.66V61.35Z" fill="black"/>
<path d="M72.66 66.9301H71.26V69.72H72.66V66.9301Z" fill="black"/>
<path d="M72.66 71.12H71.26V72.52H72.66V71.12Z" fill="black"/>
<path d="M72.66 73.91H71.26V76.7H72.66V73.91Z" fill="black"/>
<path d="M72.66 79.5H71.26V80.9H72.66V79.5Z" fill="black"/>
<path d="M74.05 6.89001H72.65V8.29004H74.05V6.89001Z" fill="black"/>
<path d="M74.05 15.27H72.65V16.67H74.05V15.27Z" fill="black"/>
<path d="M74.05 18.0601H72.65V20.85H74.05V18.0601Z" fill="black"/>
<path d="M74.05 23.65H72.65V25.05H74.05V23.65Z" fill="black"/>
<path d="M74.05 27.84H72.65V30.63H74.05V27.84Z" fill="black"/>
<path d="M74.05 33.42H72.65V36.21H74.05V33.42Z" fill="black"/>
<path d="M74.05 37.61H72.65V39.01H74.05V37.61Z" fill="black"/>
<path d="M74.05 40.4H72.65V41.8H74.05V40.4Z" fill="black"/>
<path d="M74.05 45.99H72.65V48.78H74.05V45.99Z" fill="black"/>
<path d="M74.05 51.5701H72.65V54.36H74.05V51.5701Z" fill="black"/>
<path d="M74.05 58.55H72.65V59.95H74.05V58.55Z" fill="black"/>
<path d="M74.05 61.35H72.65V65.54H74.05V61.35Z" fill="black"/>
<path d="M74.05 68.33H72.65V69.73H74.05V68.33Z" fill="black"/>
<path d="M74.05 73.91H72.65V75.3101H74.05V73.91Z" fill="black"/>
<path d="M74.05 76.71H72.65V78.11H74.05V76.71Z" fill="black"/>
<path d="M75.45 6.89001H74.05V8.29004H75.45V6.89001Z" fill="black"/>
<path d="M75.45 9.69006H74.05V13.88H75.45V9.69006Z" fill="black"/>
<path d="M75.45 15.27H74.05V16.67H75.45V15.27Z" fill="black"/>
<path d="M75.45 18.0601H74.05V19.46H75.45V18.0601Z" fill="black"/>
<path d="M75.45 20.86H74.05V22.26H75.45V20.86Z" fill="black"/>
<path d="M75.45 23.65H74.05V25.05H75.45V23.65Z" fill="black"/>
<path d="M75.45 26.4401H74.05V30.63H75.45V26.4401Z" fill="black"/>
<path d="M75.45 33.42H74.05V37.61H75.45V33.42Z" fill="black"/>
<path d="M75.45 40.4H74.05V51.5701H75.45V40.4Z" fill="black"/>
<path d="M75.45 52.97H74.05V59.95H75.45V52.97Z" fill="black"/>
<path d="M75.45 62.74H74.05V65.53H75.45V62.74Z" fill="black"/>
<path d="M75.45 66.9301H74.05V78.1H75.45V66.9301Z" fill="black"/>
<path d="M75.45 79.5H74.05V80.9H75.45V79.5Z" fill="black"/>
<path d="M76.85 6.89001H75.45V8.29004H76.85V6.89001Z" fill="black"/>
<path d="M76.85 9.69006H75.45V13.88H76.85V9.69006Z" fill="black"/>
<path d="M76.85 15.27H75.45V16.67H76.85V15.27Z" fill="black"/>
<path d="M76.85 18.0601H75.45V29.23H76.85V18.0601Z" fill="black"/>
<path d="M76.85 32.03H75.45V34.8201H76.85V32.03Z" fill="black"/>
<path d="M76.85 39.01H75.45V40.41H76.85V39.01Z" fill="black"/>
<path d="M76.85 41.8H75.45V43.2H76.85V41.8Z" fill="black"/>
<path d="M76.85 44.59H75.45V52.97H76.85V44.59Z" fill="black"/>
<path d="M76.85 54.37H75.45V55.77H76.85V54.37Z" fill="black"/>
<path d="M76.85 57.16H75.45V59.95H76.85V57.16Z" fill="black"/>
<path d="M76.85 62.74H75.45V65.53H76.85V62.74Z" fill="black"/>
<path d="M76.85 66.9301H75.45V68.33H76.85V66.9301Z" fill="black"/>
<path d="M76.85 69.72H75.45V71.12H76.85V69.72Z" fill="black"/>
<path d="M76.85 72.52H75.45V80.9H76.85V72.52Z" fill="black"/>
<path d="M78.24 6.89001H76.84V8.29004H78.24V6.89001Z" fill="black"/>
<path d="M78.24 9.69006H76.84V13.88H78.24V9.69006Z" fill="black"/>
<path d="M78.24 15.27H76.84V16.67H78.24V15.27Z" fill="black"/>
<path d="M78.24 18.0601H76.84V20.85H78.24V18.0601Z" fill="black"/>
<path d="M78.24 25.05H76.84V26.45H78.24V25.05Z" fill="black"/>
<path d="M78.24 30.63H76.84V32.03H78.24V30.63Z" fill="black"/>
<path d="M78.24 34.8201H76.84V36.22H78.24V34.8201Z" fill="black"/>
<path d="M78.24 45.99H76.84V50.1801H78.24V45.99Z" fill="black"/>
<path d="M78.24 51.5701H76.84V52.97H78.24V51.5701Z" fill="black"/>
<path d="M78.24 54.37H76.84V55.77H78.24V54.37Z" fill="black"/>
<path d="M78.24 57.16H76.84V61.35H78.24V57.16Z" fill="black"/>
<path d="M78.24 62.74H76.84V65.53H78.24V62.74Z" fill="black"/>
<path d="M78.24 68.33H76.84V69.73H78.24V68.33Z" fill="black"/>
<path d="M78.24 73.91H76.84V75.3101H78.24V73.91Z" fill="black"/>
<path d="M78.24 79.5H76.84V80.9H78.24V79.5Z" fill="black"/>
<path d="M79.64 6.89001H78.24V8.29004H79.64V6.89001Z" fill="black"/>
<path d="M79.64 15.27H78.24V16.67H79.64V15.27Z" fill="black"/>
<path d="M79.64 22.25H78.24V25.04H79.64V22.25Z" fill="black"/>
<path d="M79.64 29.23H78.24V32.02H79.64V29.23Z" fill="black"/>
<path d="M79.64 33.42H78.24V34.8201H79.64V33.42Z" fill="black"/>
<path d="M79.64 36.21H78.24V37.61H79.64V36.21Z" fill="black"/>
<path d="M79.64 39.01H78.24V40.41H79.64V39.01Z" fill="black"/>
<path d="M79.64 41.8H78.24V43.2H79.64V41.8Z" fill="black"/>
<path d="M79.64 47.38H78.24V48.78H79.64V47.38Z" fill="black"/>
<path d="M79.64 50.1801H78.24V51.58H79.64V50.1801Z" fill="black"/>
<path d="M79.64 52.97H78.24V54.37H79.64V52.97Z" fill="black"/>
<path d="M79.64 55.76H78.24V57.16H79.64V55.76Z" fill="black"/>
<path d="M79.64 58.55H78.24V59.95H79.64V58.55Z" fill="black"/>
<path d="M79.64 61.35H78.24V65.54H79.64V61.35Z" fill="black"/>
<path d="M79.64 66.9301H78.24V71.12H79.64V66.9301Z" fill="black"/>
<path d="M79.64 72.52H78.24V73.92H79.64V72.52Z" fill="black"/>
<path d="M79.64 75.3101H78.24V79.5H79.64V75.3101Z" fill="black"/>
<path d="M81.03 6.89001H79.63V16.66H81.03V6.89001Z" fill="black"/>
<path d="M81.03 19.46H79.63V20.86H81.03V19.46Z" fill="black"/>
<path d="M81.03 23.65H79.63V26.4401H81.03V23.65Z" fill="black"/>
<path d="M81.03 29.23H79.63V32.02H81.03V29.23Z" fill="black"/>
<path d="M81.03 33.42H79.63V37.61H81.03V33.42Z" fill="black"/>
<path d="M81.03 39.01H79.63V43.2H81.03V39.01Z" fill="black"/>
<path d="M81.03 44.59H79.63V48.78H81.03V44.59Z" fill="black"/>
<path d="M81.03 50.1801H79.63V54.37H81.03V50.1801Z" fill="black"/>
<path d="M81.03 62.74H79.63V64.14H81.03V62.74Z" fill="black"/>
<path d="M81.03 68.33H79.63V71.12H81.03V68.33Z" fill="black"/>
<path d="M81.03 75.3101H79.63V78.1H81.03V75.3101Z" fill="black"/>
</svg>
