<svg width="95" height="95" viewBox="0 0 95 95" fill="none" xmlns="http://www.w3.org/2000/svg">
<rect width="95" height="95" fill="white"/>
<path d="M10.7211 8H8V13.4511H10.7211V8Z" fill="black"/>
<path d="M10.7211 13.4423H8V18.8933H10.7211V13.4423Z" fill="black"/>
<path d="M10.7211 18.8933H8V27.0654H10.7211V18.8933Z" fill="black"/>
<path d="M10.7211 29.7953H8V40.6884H10.7211V29.7953Z" fill="black"/>
<path d="M10.7211 43.4095H8V46.1306H10.7211V43.4095Z" fill="black"/>
<path d="M10.7211 48.8605H8V65.2047H10.7211V48.8605Z" fill="black"/>
<path d="M10.7211 67.9347H8V87H10.7211V67.9347Z" fill="black"/>
<path d="M13.4423 8H10.7212V10.7212H13.4423V8Z" fill="black"/>
<path d="M13.4423 24.3442H10.7212V27.0654H13.4423V24.3442Z" fill="black"/>
<path d="M13.4423 37.9674H10.7212V43.4185H13.4423V37.9674Z" fill="black"/>
<path d="M13.4423 51.5817H10.7212V57.0326H13.4423V51.5817Z" fill="black"/>
<path d="M13.4423 67.9347H10.7212V70.6557H13.4423V67.9347Z" fill="black"/>
<path d="M13.4423 84.2789H10.7212V87H13.4423V84.2789Z" fill="black"/>
<path d="M16.1635 8H13.4424V10.7212H16.1635V8Z" fill="black"/>
<path d="M16.1635 13.4423H13.4424V18.8933H16.1635V13.4423Z" fill="black"/>
<path d="M16.1635 18.8933H13.4424V21.6144H16.1635V18.8933Z" fill="black"/>
<path d="M16.1635 24.3442H13.4424V27.0654H16.1635V24.3442Z" fill="black"/>
<path d="M16.1635 29.7953H13.4424V35.2463H16.1635V29.7953Z" fill="black"/>
<path d="M16.1635 37.9674H13.4424V43.4185H16.1635V37.9674Z" fill="black"/>
<path d="M16.1635 48.8605H13.4424V51.5816H16.1635V48.8605Z" fill="black"/>
<path d="M16.1635 57.0326H13.4424V62.4836H16.1635V57.0326Z" fill="black"/>
<path d="M16.1635 67.9347H13.4424V70.6557H16.1635V67.9347Z" fill="black"/>
<path d="M16.1635 73.3768H13.4424V81.5489H16.1635V73.3768Z" fill="black"/>
<path d="M16.1635 84.2789H13.4424V87H16.1635V84.2789Z" fill="black"/>
<path d="M18.893 8H16.1719V10.7212H18.893V8Z" fill="black"/>
<path d="M18.893 13.4423H16.1719V18.8933H18.893V13.4423Z" fill="black"/>
<path d="M18.893 18.8933H16.1719V21.6144H18.893V18.8933Z" fill="black"/>
<path d="M18.893 24.3442H16.1719V27.0654H18.893V24.3442Z" fill="black"/>
<path d="M18.893 29.7953H16.1719V32.5163H18.893V29.7953Z" fill="black"/>
<path d="M18.893 35.2374H16.1719V40.6884H18.893V35.2374Z" fill="black"/>
<path d="M18.893 48.8605H16.1719V51.5816H18.893V48.8605Z" fill="black"/>
<path d="M18.893 57.0326H16.1719V59.7538H18.893V57.0326Z" fill="black"/>
<path d="M18.893 67.9347H16.1719V70.6557H18.893V67.9347Z" fill="black"/>
<path d="M18.893 73.3768H16.1719V81.5489H18.893V73.3768Z" fill="black"/>
<path d="M18.893 84.2789H16.1719V87H18.893V84.2789Z" fill="black"/>
<path d="M21.6142 8H18.8931V10.7212H21.6142V8Z" fill="black"/>
<path d="M21.6142 13.4423H18.8931V18.8933H21.6142V13.4423Z" fill="black"/>
<path d="M21.6142 18.8933H18.8931V21.6144H21.6142V18.8933Z" fill="black"/>
<path d="M21.6142 24.3442H18.8931V27.0654H21.6142V24.3442Z" fill="black"/>
<path d="M21.6142 29.7953H18.8931V35.2463H21.6142V29.7953Z" fill="black"/>
<path d="M21.6142 37.9674H18.8931V40.6885H21.6142V37.9674Z" fill="black"/>
<path d="M21.6142 48.8605H18.8931V54.3115H21.6142V48.8605Z" fill="black"/>
<path d="M21.6142 59.7538H18.8931V65.2047H21.6142V59.7538Z" fill="black"/>
<path d="M21.6142 67.9347H18.8931V70.6557H21.6142V67.9347Z" fill="black"/>
<path d="M21.6142 73.3768H18.8931V81.5489H21.6142V73.3768Z" fill="black"/>
<path d="M21.6142 84.2789H18.8931V87H21.6142V84.2789Z" fill="black"/>
<path d="M24.3354 8H21.6143V10.7212H24.3354V8Z" fill="black"/>
<path d="M24.3354 24.3442H21.6143V27.0654H24.3354V24.3442Z" fill="black"/>
<path d="M24.3354 29.7953H21.6143V35.2463H24.3354V29.7953Z" fill="black"/>
<path d="M24.3354 51.5817H21.6143V59.7538H24.3354V51.5817Z" fill="black"/>
<path d="M24.3354 67.9347H21.6143V70.6557H24.3354V67.9347Z" fill="black"/>
<path d="M24.3354 84.2789H21.6143V87H24.3354V84.2789Z" fill="black"/>
<path d="M27.0653 8H24.3442V13.4511H27.0653V8Z" fill="black"/>
<path d="M27.0653 13.4423H24.3442V18.8933H27.0653V13.4423Z" fill="black"/>
<path d="M27.0653 18.8933H24.3442V27.0654H27.0653V18.8933Z" fill="black"/>
<path d="M27.0653 29.7953H24.3442V32.5163H27.0653V29.7953Z" fill="black"/>
<path d="M27.0653 35.2374H24.3442V37.9585H27.0653V35.2374Z" fill="black"/>
<path d="M27.0653 40.6885H24.3442V43.4096H27.0653V40.6885Z" fill="black"/>
<path d="M27.0653 46.1395H24.3442V48.8606H27.0653V46.1395Z" fill="black"/>
<path d="M27.0653 51.5817H24.3442V54.3027H27.0653V51.5817Z" fill="black"/>
<path d="M27.0653 57.0326H24.3442V59.7538H27.0653V57.0326Z" fill="black"/>
<path d="M27.0653 62.4836H24.3442V65.2047H27.0653V62.4836Z" fill="black"/>
<path d="M27.0653 67.9347H24.3442V87H27.0653V67.9347Z" fill="black"/>
<path d="M29.7865 35.2374H27.0654V48.8605H29.7865V35.2374Z" fill="black"/>
<path d="M29.7865 51.5817H27.0654V54.3027H29.7865V51.5817Z" fill="black"/>
<path d="M29.7865 59.7538H27.0654V65.2047H29.7865V59.7538Z" fill="black"/>
<path d="M32.5077 13.4423H29.7866V18.8933H32.5077V13.4423Z" fill="black"/>
<path d="M32.5077 18.8933H29.7866V29.7865H32.5077V18.8933Z" fill="black"/>
<path d="M32.5077 32.5164H29.7866V35.2375H32.5077V32.5164Z" fill="black"/>
<path d="M32.5077 37.9674H29.7866V40.6885H32.5077V37.9674Z" fill="black"/>
<path d="M32.5077 46.1395H29.7866V48.8606H32.5077V46.1395Z" fill="black"/>
<path d="M32.5077 57.0326H29.7866V67.9259H32.5077V57.0326Z" fill="black"/>
<path d="M32.5077 70.6558H29.7866V81.5489H32.5077V70.6558Z" fill="black"/>
<path d="M32.5077 84.2789H29.7866V87H32.5077V84.2789Z" fill="black"/>
<path d="M35.2372 8H32.5161V13.4511H35.2372V8Z" fill="black"/>
<path d="M35.2372 13.4423H32.5161V16.1633H35.2372V13.4423Z" fill="black"/>
<path d="M35.2372 21.6143H32.5161V24.3353H35.2372V21.6143Z" fill="black"/>
<path d="M35.2372 29.7953H32.5161V32.5163H35.2372V29.7953Z" fill="black"/>
<path d="M35.2372 35.2374H32.5161V37.9585H35.2372V35.2374Z" fill="black"/>
<path d="M35.2372 40.6885H32.5161V43.4096H35.2372V40.6885Z" fill="black"/>
<path d="M35.2372 46.1395H32.5161V54.3116H35.2372V46.1395Z" fill="black"/>
<path d="M35.2372 57.0326H32.5161V59.7538H35.2372V57.0326Z" fill="black"/>
<path d="M35.2372 70.6558H32.5161V76.1068H35.2372V70.6558Z" fill="black"/>
<path d="M35.2372 78.8279H32.5161V81.5489H35.2372V78.8279Z" fill="black"/>
<path d="M35.2372 84.2789H32.5161V87H35.2372V84.2789Z" fill="black"/>
<path d="M37.9584 10.7212H35.2373V13.4422H37.9584V10.7212Z" fill="black"/>
<path d="M37.9584 13.4423H35.2373V16.1633H37.9584V13.4423Z" fill="black"/>
<path d="M37.9584 21.6143H35.2373V27.0653H37.9584V21.6143Z" fill="black"/>
<path d="M37.9584 32.5164H35.2373V35.2375H37.9584V32.5164Z" fill="black"/>
<path d="M37.9584 40.6885H35.2373V46.1395H37.9584V40.6885Z" fill="black"/>
<path d="M37.9584 65.2047H35.2373V78.8279H37.9584V65.2047Z" fill="black"/>
<path d="M37.9584 84.2789H35.2373V87H37.9584V84.2789Z" fill="black"/>
<path d="M40.6796 8H37.9585V10.7212H40.6796V8Z" fill="black"/>
<path d="M40.6796 13.4423H37.9585V16.1633H40.6796V13.4423Z" fill="black"/>
<path d="M40.6796 18.8933H37.9585V21.6144H40.6796V18.8933Z" fill="black"/>
<path d="M40.6796 27.0654H37.9585V32.5164H40.6796V27.0654Z" fill="black"/>
<path d="M40.6796 37.9674H37.9585V48.8606H40.6796V37.9674Z" fill="black"/>
<path d="M40.6796 65.2047H37.9585V67.9259H40.6796V65.2047Z" fill="black"/>
<path d="M40.6796 70.6558H37.9585V73.3768H40.6796V70.6558Z" fill="black"/>
<path d="M40.6796 76.1068H37.9585V78.8279H40.6796V76.1068Z" fill="black"/>
<path d="M40.6796 81.549H37.9585V87H40.6796V81.549Z" fill="black"/>
<path d="M43.4096 10.7212H40.6885V13.4422H43.4096V10.7212Z" fill="black"/>
<path d="M43.4096 16.1721H40.6885V18.8933H43.4096V16.1721Z" fill="black"/>
<path d="M43.4096 24.3442H40.6885V27.0654H43.4096V24.3442Z" fill="black"/>
<path d="M43.4096 35.2374H40.6885V54.3027H43.4096V35.2374Z" fill="black"/>
<path d="M43.4096 57.0326H40.6885V59.7538H43.4096V57.0326Z" fill="black"/>
<path d="M43.4096 65.2047H40.6885V67.9259H43.4096V65.2047Z" fill="black"/>
<path d="M43.4096 73.3768H40.6885V76.098H43.4096V73.3768Z" fill="black"/>
<path d="M43.4096 84.2789H40.6885V87H43.4096V84.2789Z" fill="black"/>
<path d="M46.1308 10.7212H43.4097V13.4422H46.1308V10.7212Z" fill="black"/>
<path d="M46.1308 16.1721H43.4097V18.8933H46.1308V16.1721Z" fill="black"/>
<path d="M46.1308 21.6143H43.4097V24.3353H46.1308V21.6143Z" fill="black"/>
<path d="M46.1308 29.7953H43.4097V37.9674H46.1308V29.7953Z" fill="black"/>
<path d="M46.1308 40.6885H43.4097V43.4096H46.1308V40.6885Z" fill="black"/>
<path d="M46.1308 51.5817H43.4097V57.0326H46.1308V51.5817Z" fill="black"/>
<path d="M46.1308 62.4836H43.4097V65.2047H46.1308V62.4836Z" fill="black"/>
<path d="M46.1308 67.9347H43.4097V70.6557H46.1308V67.9347Z" fill="black"/>
<path d="M46.1308 78.8279H43.4097V87H46.1308V78.8279Z" fill="black"/>
<path d="M48.8603 13.4423H46.1392V18.8933H48.8603V13.4423Z" fill="black"/>
<path d="M48.8603 21.6143H46.1392V32.5074H48.8603V21.6143Z" fill="black"/>
<path d="M48.8603 35.2374H46.1392V43.4095H48.8603V35.2374Z" fill="black"/>
<path d="M48.8603 48.8605H46.1392V54.3115H48.8603V48.8605Z" fill="black"/>
<path d="M48.8603 57.0326H46.1392V59.7538H48.8603V57.0326Z" fill="black"/>
<path d="M48.8603 62.4836H46.1392V67.9347H48.8603V62.4836Z" fill="black"/>
<path d="M48.8603 70.6558H46.1392V73.3768H48.8603V70.6558Z" fill="black"/>
<path d="M48.8603 81.549H46.1392V84.2701H48.8603V81.549Z" fill="black"/>
<path d="M51.5814 10.7212H48.8604V13.4422H51.5814V10.7212Z" fill="black"/>
<path d="M51.5814 21.6143H48.8604V24.3353H51.5814V21.6143Z" fill="black"/>
<path d="M51.5814 27.0654H48.8604V32.5164H51.5814V27.0654Z" fill="black"/>
<path d="M51.5814 35.2374H48.8604V43.4095H51.5814V35.2374Z" fill="black"/>
<path d="M51.5814 46.1395H48.8604V48.8606H51.5814V46.1395Z" fill="black"/>
<path d="M51.5814 51.5817H48.8604V54.3027H51.5814V51.5817Z" fill="black"/>
<path d="M51.5814 57.0326H48.8604V62.4836H51.5814V57.0326Z" fill="black"/>
<path d="M51.5814 67.9347H48.8604V76.1068H51.5814V67.9347Z" fill="black"/>
<path d="M51.5814 78.8279H48.8604V84.2789H51.5814V78.8279Z" fill="black"/>
<path d="M54.3026 10.7212H51.5815V13.4422H54.3026V10.7212Z" fill="black"/>
<path d="M54.3026 18.8933H51.5815V29.7865H54.3026V18.8933Z" fill="black"/>
<path d="M54.3026 32.5164H51.5815V40.6885H54.3026V32.5164Z" fill="black"/>
<path d="M54.3026 43.4095H51.5815V62.4748H54.3026V43.4095Z" fill="black"/>
<path d="M54.3026 70.6558H51.5815V73.3768H54.3026V70.6558Z" fill="black"/>
<path d="M54.3026 76.1068H51.5815V78.8279H54.3026V76.1068Z" fill="black"/>
<path d="M54.3026 81.549H51.5815V84.2701H54.3026V81.549Z" fill="black"/>
<path d="M57.0326 8H54.3115V13.4511H57.0326V8Z" fill="black"/>
<path d="M57.0326 16.1721H54.3115V18.8933H57.0326V16.1721Z" fill="black"/>
<path d="M57.0326 21.6143H54.3115V24.3353H57.0326V21.6143Z" fill="black"/>
<path d="M57.0326 29.7953H54.3115V32.5163H57.0326V29.7953Z" fill="black"/>
<path d="M57.0326 40.6885H54.3115V48.8606H57.0326V40.6885Z" fill="black"/>
<path d="M57.0326 51.5817H54.3115V54.3027H57.0326V51.5817Z" fill="black"/>
<path d="M57.0326 57.0326H54.3115V59.7538H57.0326V57.0326Z" fill="black"/>
<path d="M57.0326 62.4836H54.3115V67.9347H57.0326V62.4836Z" fill="black"/>
<path d="M57.0326 73.3768H54.3115V78.8279H57.0326V73.3768Z" fill="black"/>
<path d="M57.0326 84.2789H54.3115V87H57.0326V84.2789Z" fill="black"/>
<path d="M59.7538 8H57.0327V10.7212H59.7538V8Z" fill="black"/>
<path d="M59.7538 13.4423H57.0327V16.1633H59.7538V13.4423Z" fill="black"/>
<path d="M59.7538 21.6143H57.0327V27.0653H59.7538V21.6143Z" fill="black"/>
<path d="M59.7538 32.5164H57.0327V37.9674H59.7538V32.5164Z" fill="black"/>
<path d="M59.7538 40.6885H57.0327V46.1395H59.7538V40.6885Z" fill="black"/>
<path d="M59.7538 54.3115H57.0327V59.7626H59.7538V54.3115Z" fill="black"/>
<path d="M59.7538 65.2047H57.0327V73.3768H59.7538V65.2047Z" fill="black"/>
<path d="M59.7538 76.1068H57.0327V81.5578H59.7538V76.1068Z" fill="black"/>
<path d="M62.475 8H59.7539V10.7212H62.475V8Z" fill="black"/>
<path d="M62.475 13.4423H59.7539V16.1633H62.475V13.4423Z" fill="black"/>
<path d="M62.475 18.8933H59.7539V21.6144H62.475V18.8933Z" fill="black"/>
<path d="M62.475 27.0654H59.7539V35.2375H62.475V27.0654Z" fill="black"/>
<path d="M62.475 37.9674H59.7539V40.6885H62.475V37.9674Z" fill="black"/>
<path d="M62.475 43.4095H59.7539V46.1306H62.475V43.4095Z" fill="black"/>
<path d="M62.475 48.8605H59.7539V57.0326H62.475V48.8605Z" fill="black"/>
<path d="M62.475 59.7538H59.7539V62.4748H62.475V59.7538Z" fill="black"/>
<path d="M62.475 67.9347H59.7539V73.3856H62.475V67.9347Z" fill="black"/>
<path d="M62.475 76.1068H59.7539V81.5578H62.475V76.1068Z" fill="black"/>
<path d="M62.475 84.2789H59.7539V87H62.475V84.2789Z" fill="black"/>
<path d="M65.2045 13.4423H62.4834V18.8933H65.2045V13.4423Z" fill="black"/>
<path d="M65.2045 18.8933H62.4834V29.7865H65.2045V18.8933Z" fill="black"/>
<path d="M65.2045 32.5164H62.4834V40.6885H65.2045V32.5164Z" fill="black"/>
<path d="M65.2045 43.4095H62.4834V46.1306H65.2045V43.4095Z" fill="black"/>
<path d="M65.2045 48.8605H62.4834V51.5816H65.2045V48.8605Z" fill="black"/>
<path d="M65.2045 57.0326H62.4834V59.7538H65.2045V57.0326Z" fill="black"/>
<path d="M65.2045 62.4836H62.4834V84.2789H65.2045V62.4836Z" fill="black"/>
<path d="M67.9257 32.5164H65.2046V35.2375H67.9257V32.5164Z" fill="black"/>
<path d="M67.9257 43.4095H65.2046V46.1306H67.9257V43.4095Z" fill="black"/>
<path d="M67.9257 51.5817H65.2046V57.0326H67.9257V51.5817Z" fill="black"/>
<path d="M67.9257 59.7538H65.2046V65.2047H67.9257V59.7538Z" fill="black"/>
<path d="M67.9257 73.3768H65.2046V76.098H67.9257V73.3768Z" fill="black"/>
<path d="M67.9257 78.8279H65.2046V81.5489H67.9257V78.8279Z" fill="black"/>
<path d="M70.6469 8H67.9258V13.4511H70.6469V8Z" fill="black"/>
<path d="M70.6469 13.4423H67.9258V18.8933H70.6469V13.4423Z" fill="black"/>
<path d="M70.6469 18.8933H67.9258V27.0654H70.6469V18.8933Z" fill="black"/>
<path d="M70.6469 29.7953H67.9258V35.2463H70.6469V29.7953Z" fill="black"/>
<path d="M70.6469 37.9674H67.9258V40.6885H70.6469V37.9674Z" fill="black"/>
<path d="M70.6469 43.4095H67.9258V46.1306H70.6469V43.4095Z" fill="black"/>
<path d="M70.6469 54.3115H67.9258V65.2047H70.6469V54.3115Z" fill="black"/>
<path d="M70.6469 67.9347H67.9258V70.6557H70.6469V67.9347Z" fill="black"/>
<path d="M70.6469 73.3768H67.9258V76.098H70.6469V73.3768Z" fill="black"/>
<path d="M70.6469 78.8279H67.9258V84.2789H70.6469V78.8279Z" fill="black"/>
<path d="M73.3769 8H70.6558V10.7212H73.3769V8Z" fill="black"/>
<path d="M73.3769 24.3442H70.6558V27.0654H73.3769V24.3442Z" fill="black"/>
<path d="M73.3769 29.7953H70.6558V37.9674H73.3769V29.7953Z" fill="black"/>
<path d="M73.3769 43.4095H70.6558V51.5817H73.3769V43.4095Z" fill="black"/>
<path d="M73.3769 54.3115H70.6558V57.0326H73.3769V54.3115Z" fill="black"/>
<path d="M73.3769 59.7538H70.6558V65.2047H73.3769V59.7538Z" fill="black"/>
<path d="M73.3769 73.3768H70.6558V76.098H73.3769V73.3768Z" fill="black"/>
<path d="M73.3769 78.8279H70.6558V87H73.3769V78.8279Z" fill="black"/>
<path d="M76.098 8H73.377V10.7212H76.098V8Z" fill="black"/>
<path d="M76.098 13.4423H73.377V18.8933H76.098V13.4423Z" fill="black"/>
<path d="M76.098 18.8933H73.377V21.6144H76.098V18.8933Z" fill="black"/>
<path d="M76.098 24.3442H73.377V27.0654H76.098V24.3442Z" fill="black"/>
<path d="M76.098 29.7953H73.377V40.6884H76.098V29.7953Z" fill="black"/>
<path d="M76.098 43.4095H73.377V46.1306H76.098V43.4095Z" fill="black"/>
<path d="M76.098 48.8605H73.377V51.5816H76.098V48.8605Z" fill="black"/>
<path d="M76.098 54.3115H73.377V57.0326H76.098V54.3115Z" fill="black"/>
<path d="M76.098 62.4836H73.377V76.1068H76.098V62.4836Z" fill="black"/>
<path d="M76.098 78.8279H73.377V87H76.098V78.8279Z" fill="black"/>
<path d="M78.8192 8H76.0981V10.7212H78.8192V8Z" fill="black"/>
<path d="M78.8192 13.4423H76.0981V18.8933H78.8192V13.4423Z" fill="black"/>
<path d="M78.8192 18.8933H76.0981V21.6144H78.8192V18.8933Z" fill="black"/>
<path d="M78.8192 24.3442H76.0981V27.0654H78.8192V24.3442Z" fill="black"/>
<path d="M78.8192 29.7953H76.0981V32.5163H78.8192V29.7953Z" fill="black"/>
<path d="M78.8192 37.9674H76.0981V43.4185H78.8192V37.9674Z" fill="black"/>
<path d="M78.8192 46.1395H76.0981V48.8606H78.8192V46.1395Z" fill="black"/>
<path d="M78.8192 51.5817H76.0981V54.3027H78.8192V51.5817Z" fill="black"/>
<path d="M78.8192 65.2047H76.0981V70.6558H78.8192V65.2047Z" fill="black"/>
<path d="M78.8192 76.1068H76.0981V84.2789H78.8192V76.1068Z" fill="black"/>
<path d="M81.5487 8H78.8276V10.7212H81.5487V8Z" fill="black"/>
<path d="M81.5487 13.4423H78.8276V18.8933H81.5487V13.4423Z" fill="black"/>
<path d="M81.5487 18.8933H78.8276V21.6144H81.5487V18.8933Z" fill="black"/>
<path d="M81.5487 24.3442H78.8276V27.0654H81.5487V24.3442Z" fill="black"/>
<path d="M81.5487 29.7953H78.8276V32.5163H81.5487V29.7953Z" fill="black"/>
<path d="M81.5487 40.6885H78.8276V43.4096H81.5487V40.6885Z" fill="black"/>
<path d="M81.5487 46.1395H78.8276V48.8606H81.5487V46.1395Z" fill="black"/>
<path d="M81.5487 51.5817H78.8276V59.7538H81.5487V51.5817Z" fill="black"/>
<path d="M81.5487 62.4836H78.8276V70.6557H81.5487V62.4836Z" fill="black"/>
<path d="M81.5487 73.3768H78.8276V81.5489H81.5487V73.3768Z" fill="black"/>
<path d="M81.5487 84.2789H78.8276V87H81.5487V84.2789Z" fill="black"/>
<path d="M84.2699 8H81.5488V10.7212H84.2699V8Z" fill="black"/>
<path d="M84.2699 24.3442H81.5488V27.0654H84.2699V24.3442Z" fill="black"/>
<path d="M84.2699 37.9674H81.5488V40.6885H84.2699V37.9674Z" fill="black"/>
<path d="M84.2699 48.8605H81.5488V51.5816H84.2699V48.8605Z" fill="black"/>
<path d="M84.2699 59.7538H81.5488V67.9259H84.2699V59.7538Z" fill="black"/>
<path d="M84.2699 70.6558H81.5488V84.2789H84.2699V70.6558Z" fill="black"/>
<path d="M86.9911 8H84.27V13.4511H86.9911V8Z" fill="black"/>
<path d="M86.9911 13.4423H84.27V18.8933H86.9911V13.4423Z" fill="black"/>
<path d="M86.9911 18.8933H84.27V27.0654H86.9911V18.8933Z" fill="black"/>
<path d="M86.9911 32.5164H84.27V35.2375H86.9911V32.5164Z" fill="black"/>
<path d="M86.9911 43.4095H84.27V46.1306H86.9911V43.4095Z" fill="black"/>
<path d="M86.9911 54.3115H84.27V57.0326H86.9911V54.3115Z" fill="black"/>
<path d="M86.9911 62.4836H84.27V67.9347H86.9911V62.4836Z" fill="black"/>
<path d="M86.9911 70.6558H84.27V78.8279H86.9911V70.6558Z" fill="black"/>
</svg>
