<svg width="121" height="114" viewBox="0 0 121 114" fill="none" xmlns="http://www.w3.org/2000/svg">
<path d="M121 0.300049H0V113.3H121V0.300049Z" fill="white"/>
<path d="M13.3399 8.30005H10.6599V27.03H13.3399V8.30005Z" fill="black"/>
<path d="M13.3399 29.7101H10.6599V32.39H13.3399V29.7101Z" fill="black"/>
<path d="M13.3399 35.0601H10.6599V37.74H13.3399V35.0601Z" fill="black"/>
<path d="M13.3399 45.76H10.6599V53.79H13.3399V45.76Z" fill="black"/>
<path d="M13.3399 61.8101H10.6599V64.49H13.3399V61.8101Z" fill="black"/>
<path d="M13.3399 67.16H10.6599V69.8401H13.3399V67.16Z" fill="black"/>
<path d="M13.3399 72.52H10.6599V85.9H13.3399V72.52Z" fill="black"/>
<path d="M13.3399 88.5701H10.6599V107.3H13.3399V88.5701Z" fill="black"/>
<path d="M16.0198 8.30005H13.3398V10.9801H16.0198V8.30005Z" fill="black"/>
<path d="M16.0198 24.3501H13.3398V27.03H16.0198V24.3501Z" fill="black"/>
<path d="M16.0198 32.38H13.3398V35.0601H16.0198V32.38Z" fill="black"/>
<path d="M16.0198 45.76H13.3398V48.4401H16.0198V45.76Z" fill="black"/>
<path d="M16.0198 59.14H13.3398V61.8201H16.0198V59.14Z" fill="black"/>
<path d="M16.0198 64.49H13.3398V67.17H16.0198V64.49Z" fill="black"/>
<path d="M16.0198 69.8401H13.3398V77.87H16.0198V69.8401Z" fill="black"/>
<path d="M16.0198 88.5701H13.3398V91.25H16.0198V88.5701Z" fill="black"/>
<path d="M16.0198 104.62H13.3398V107.3H16.0198V104.62Z" fill="black"/>
<path d="M18.69 8.30005H16.01V10.9801H18.69V8.30005Z" fill="black"/>
<path d="M18.69 13.65H16.01V21.6801H18.69V13.65Z" fill="black"/>
<path d="M18.69 24.3501H16.01V27.03H18.69V24.3501Z" fill="black"/>
<path d="M18.69 29.7101H16.01V32.39H18.69V29.7101Z" fill="black"/>
<path d="M18.69 37.7301H16.01V40.41H18.69V37.7301Z" fill="black"/>
<path d="M18.69 51.1101H16.01V53.79H18.69V51.1101Z" fill="black"/>
<path d="M18.69 56.4601H16.01V64.49H18.69V56.4601Z" fill="black"/>
<path d="M18.69 67.16H16.01V72.51H18.69V67.16Z" fill="black"/>
<path d="M18.69 88.5701H16.01V91.25H18.69V88.5701Z" fill="black"/>
<path d="M18.69 93.92H16.01V101.95H18.69V93.92Z" fill="black"/>
<path d="M18.69 104.62H16.01V107.3H18.69V104.62Z" fill="black"/>
<path d="M21.3699 8.30005H18.6899V10.9801H21.3699V8.30005Z" fill="black"/>
<path d="M21.3699 13.65H18.6899V21.6801H21.3699V13.65Z" fill="black"/>
<path d="M21.3699 24.3501H18.6899V27.03H21.3699V24.3501Z" fill="black"/>
<path d="M21.3699 29.7101H18.6899V53.79H21.3699V29.7101Z" fill="black"/>
<path d="M21.3699 59.14H18.6899V69.8401H21.3699V59.14Z" fill="black"/>
<path d="M21.3699 72.52H18.6899V77.87H21.3699V72.52Z" fill="black"/>
<path d="M21.3699 80.54H18.6899V85.89H21.3699V80.54Z" fill="black"/>
<path d="M21.3699 88.5701H18.6899V91.25H21.3699V88.5701Z" fill="black"/>
<path d="M21.3699 93.92H18.6899V101.95H21.3699V93.92Z" fill="black"/>
<path d="M21.3699 104.62H18.6899V107.3H21.3699V104.62Z" fill="black"/>
<path d="M24.0499 8.30005H21.3699V10.9801H24.0499V8.30005Z" fill="black"/>
<path d="M24.0499 13.65H21.3699V21.6801H24.0499V13.65Z" fill="black"/>
<path d="M24.0499 24.3501H21.3699V27.03H24.0499V24.3501Z" fill="black"/>
<path d="M24.0499 29.7101H21.3699V35.0601H24.0499V29.7101Z" fill="black"/>
<path d="M24.0499 37.7301H21.3699V40.41H24.0499V37.7301Z" fill="black"/>
<path d="M24.0499 51.1101H21.3699V53.79H24.0499V51.1101Z" fill="black"/>
<path d="M24.0499 64.49H21.3699V67.17H24.0499V64.49Z" fill="black"/>
<path d="M24.0499 69.8401H21.3699V77.87H24.0499V69.8401Z" fill="black"/>
<path d="M24.0499 80.54H21.3699V83.2201H24.0499V80.54Z" fill="black"/>
<path d="M24.0499 88.5701H21.3699V91.25H24.0499V88.5701Z" fill="black"/>
<path d="M24.0499 93.92H21.3699V101.95H24.0499V93.92Z" fill="black"/>
<path d="M24.0499 104.62H21.3699V107.3H24.0499V104.62Z" fill="black"/>
<path d="M26.7198 8.30005H24.0398V10.9801H26.7198V8.30005Z" fill="black"/>
<path d="M26.7198 24.3501H24.0398V27.03H26.7198V24.3501Z" fill="black"/>
<path d="M26.7198 29.7101H24.0398V32.39H26.7198V29.7101Z" fill="black"/>
<path d="M26.7198 37.7301H24.0398V51.1101H26.7198V37.7301Z" fill="black"/>
<path d="M26.7198 56.4601H24.0398V61.8101H26.7198V56.4601Z" fill="black"/>
<path d="M26.7198 64.49H24.0398V75.1901H26.7198V64.49Z" fill="black"/>
<path d="M26.7198 83.2201H24.0398V85.9H26.7198V83.2201Z" fill="black"/>
<path d="M26.7198 88.5701H24.0398V91.25H26.7198V88.5701Z" fill="black"/>
<path d="M26.7198 104.62H24.0398V107.3H26.7198V104.62Z" fill="black"/>
<path d="M29.4 8.30005H26.72V27.03H29.4V8.30005Z" fill="black"/>
<path d="M29.4 29.7101H26.72V32.39H29.4V29.7101Z" fill="black"/>
<path d="M29.4 35.0601H26.72V37.74H29.4V35.0601Z" fill="black"/>
<path d="M29.4 40.41H26.72V43.0901H29.4V40.41Z" fill="black"/>
<path d="M29.4 45.76H26.72V48.4401H29.4V45.76Z" fill="black"/>
<path d="M29.4 51.1101H26.72V53.79H29.4V51.1101Z" fill="black"/>
<path d="M29.4 56.4601H26.72V59.14H29.4V56.4601Z" fill="black"/>
<path d="M29.4 61.8101H26.72V64.49H29.4V61.8101Z" fill="black"/>
<path d="M29.4 67.16H26.72V69.8401H29.4V67.16Z" fill="black"/>
<path d="M29.4 72.52H26.72V75.2001H29.4V72.52Z" fill="black"/>
<path d="M29.4 77.87H26.72V80.55H29.4V77.87Z" fill="black"/>
<path d="M29.4 83.2201H26.72V85.9H29.4V83.2201Z" fill="black"/>
<path d="M29.4 88.5701H26.72V107.3H29.4V88.5701Z" fill="black"/>
<path d="M32.0699 37.7301H29.3899V48.4301H32.0699V37.7301Z" fill="black"/>
<path d="M32.0699 56.4601H29.3899V59.14H32.0699V56.4601Z" fill="black"/>
<path d="M32.0699 61.8101H29.3899V75.1901H32.0699V61.8101Z" fill="black"/>
<path d="M32.0699 80.54H29.3899V85.89H32.0699V80.54Z" fill="black"/>
<path d="M34.7498 13.65H32.0698V29.7001H34.7498V13.65Z" fill="black"/>
<path d="M34.7498 32.38H32.0698V35.0601H34.7498V32.38Z" fill="black"/>
<path d="M34.7498 45.76H32.0698V59.14H34.7498V45.76Z" fill="black"/>
<path d="M34.7498 61.8101H32.0698V64.49H34.7498V61.8101Z" fill="black"/>
<path d="M34.7498 67.16H32.0698V72.51H34.7498V67.16Z" fill="black"/>
<path d="M34.7498 75.1901H32.0698V80.54H34.7498V75.1901Z" fill="black"/>
<path d="M34.7498 85.89H32.0698V88.5701H34.7498V85.89Z" fill="black"/>
<path d="M34.7498 91.25H32.0698V101.95H34.7498V91.25Z" fill="black"/>
<path d="M34.7498 104.62H32.0698V107.3H34.7498V104.62Z" fill="black"/>
<path d="M37.42 8.30005H34.74V10.9801H37.42V8.30005Z" fill="black"/>
<path d="M37.42 13.65H34.74V16.3301H37.42V13.65Z" fill="black"/>
<path d="M37.42 19H34.74V21.6801H37.42V19Z" fill="black"/>
<path d="M37.42 27.03H34.74V32.38H37.42V27.03Z" fill="black"/>
<path d="M37.42 37.7301H34.74V40.41H37.42V37.7301Z" fill="black"/>
<path d="M37.42 48.4401H34.74V61.8201H37.42V48.4401Z" fill="black"/>
<path d="M37.42 77.87H34.74V83.2201H37.42V77.87Z" fill="black"/>
<path d="M37.42 88.5701H34.74V93.92H37.42V88.5701Z" fill="black"/>
<path d="M37.42 99.27H34.74V104.62H37.42V99.27Z" fill="black"/>
<path d="M40.0999 8.30005H37.4199V10.9801H40.0999V8.30005Z" fill="black"/>
<path d="M40.0999 13.65H37.4199V19H40.0999V13.65Z" fill="black"/>
<path d="M40.0999 24.3501H37.4199V29.7001H40.0999V24.3501Z" fill="black"/>
<path d="M40.0999 32.38H37.4199V37.7301H40.0999V32.38Z" fill="black"/>
<path d="M40.0999 43.0801H37.4199V45.76H40.0999V43.0801Z" fill="black"/>
<path d="M40.0999 48.4401H37.4199V59.14H40.0999V48.4401Z" fill="black"/>
<path d="M40.0999 67.16H37.4199V72.51H40.0999V67.16Z" fill="black"/>
<path d="M40.0999 77.87H37.4199V80.55H40.0999V77.87Z" fill="black"/>
<path d="M40.0999 83.2201H37.4199V91.25H40.0999V83.2201Z" fill="black"/>
<path d="M40.0999 101.95H37.4199V104.63H40.0999V101.95Z" fill="black"/>
<path d="M42.7798 8.30005H40.0999V13.65H42.7798V8.30005Z" fill="black"/>
<path d="M42.7798 16.3301H40.0999V19.01H42.7798V16.3301Z" fill="black"/>
<path d="M42.7798 21.6801H40.0999V24.3601H42.7798V21.6801Z" fill="black"/>
<path d="M42.7798 40.41H40.0999V43.0901H42.7798V40.41Z" fill="black"/>
<path d="M42.7798 51.1101H40.0999V53.79H42.7798V51.1101Z" fill="black"/>
<path d="M42.7798 61.8101H40.0999V69.8401H42.7798V61.8101Z" fill="black"/>
<path d="M42.7798 72.52H40.0999V75.2001H42.7798V72.52Z" fill="black"/>
<path d="M42.7798 77.87H40.0999V80.55H42.7798V77.87Z" fill="black"/>
<path d="M42.7798 83.2201H40.0999V85.9H42.7798V83.2201Z" fill="black"/>
<path d="M42.7798 88.5701H40.0999V91.25H42.7798V88.5701Z" fill="black"/>
<path d="M42.7798 93.92H40.0999V104.62H42.7798V93.92Z" fill="black"/>
<path d="M45.45 10.9801H42.77V19.01H45.45V10.9801Z" fill="black"/>
<path d="M45.45 24.3501H42.77V43.0801H45.45V24.3501Z" fill="black"/>
<path d="M45.45 45.76H42.77V48.4401H45.45V45.76Z" fill="black"/>
<path d="M45.45 51.1101H42.77V53.79H45.45V51.1101Z" fill="black"/>
<path d="M45.45 56.4601H42.77V59.14H45.45V56.4601Z" fill="black"/>
<path d="M45.45 72.52H42.77V75.2001H45.45V72.52Z" fill="black"/>
<path d="M45.45 77.87H42.77V80.55H45.45V77.87Z" fill="black"/>
<path d="M45.45 83.2201H42.77V85.9H45.45V83.2201Z" fill="black"/>
<path d="M45.45 91.25H42.77V96.6001H45.45V91.25Z" fill="black"/>
<path d="M45.45 99.27H42.77V107.3H45.45V99.27Z" fill="black"/>
<path d="M48.13 10.9801H45.45V21.6801H48.13V10.9801Z" fill="black"/>
<path d="M48.13 27.03H45.45V32.38H48.13V27.03Z" fill="black"/>
<path d="M48.13 40.41H45.45V43.0901H48.13V40.41Z" fill="black"/>
<path d="M48.13 45.76H45.45V48.4401H48.13V45.76Z" fill="black"/>
<path d="M48.13 51.1101H45.45V56.4601H48.13V51.1101Z" fill="black"/>
<path d="M48.13 61.8101H45.45V67.16H48.13V61.8101Z" fill="black"/>
<path d="M48.13 83.2201H45.45V85.9H48.13V83.2201Z" fill="black"/>
<path d="M48.13 88.5701H45.45V91.25H48.13V88.5701Z" fill="black"/>
<path d="M48.13 99.27H45.45V104.62H48.13V99.27Z" fill="black"/>
<path d="M50.7999 10.9801H48.1199V13.66H50.7999V10.9801Z" fill="black"/>
<path d="M50.7999 21.6801H48.1199V27.03H50.7999V21.6801Z" fill="black"/>
<path d="M50.7999 32.38H48.1199V35.0601H50.7999V32.38Z" fill="black"/>
<path d="M50.7999 40.41H48.1199V43.0901H50.7999V40.41Z" fill="black"/>
<path d="M50.7999 48.4401H48.1199V53.79H50.7999V48.4401Z" fill="black"/>
<path d="M50.7999 59.14H48.1199V67.17H50.7999V59.14Z" fill="black"/>
<path d="M50.7999 77.87H48.1199V80.55H50.7999V77.87Z" fill="black"/>
<path d="M50.7999 96.6001H48.1199V104.63H50.7999V96.6001Z" fill="black"/>
<path d="M53.4798 8.30005H50.7998V10.9801H53.4798V8.30005Z" fill="black"/>
<path d="M53.4798 19H50.7998V24.3501H53.4798V19Z" fill="black"/>
<path d="M53.4798 32.38H50.7998V35.0601H53.4798V32.38Z" fill="black"/>
<path d="M53.4798 45.76H50.7998V48.4401H53.4798V45.76Z" fill="black"/>
<path d="M53.4798 51.1101H50.7998V64.49H53.4798V51.1101Z" fill="black"/>
<path d="M53.4798 67.16H50.7998V69.8401H53.4798V67.16Z" fill="black"/>
<path d="M53.4798 75.1901H50.7998V77.87H53.4798V75.1901Z" fill="black"/>
<path d="M53.4798 88.5701H50.7998V93.92H53.4798V88.5701Z" fill="black"/>
<path d="M53.4798 96.6001H50.7998V107.3H53.4798V96.6001Z" fill="black"/>
<path d="M56.15 8.30005H53.47V13.65H56.15V8.30005Z" fill="black"/>
<path d="M56.15 16.3301H53.47V19.01H56.15V16.3301Z" fill="black"/>
<path d="M56.15 24.3501H53.47V27.03H56.15V24.3501Z" fill="black"/>
<path d="M56.15 32.38H53.47V35.0601H56.15V32.38Z" fill="black"/>
<path d="M56.15 37.7301H53.47V40.41H56.15V37.7301Z" fill="black"/>
<path d="M56.15 43.0801H53.47V48.4301H56.15V43.0801Z" fill="black"/>
<path d="M56.15 51.1101H53.47V53.79H56.15V51.1101Z" fill="black"/>
<path d="M56.15 56.4601H53.47V59.14H56.15V56.4601Z" fill="black"/>
<path d="M56.15 61.8101H53.47V72.51H56.15V61.8101Z" fill="black"/>
<path d="M56.15 75.1901H53.47V77.87H56.15V75.1901Z" fill="black"/>
<path d="M56.15 80.54H53.47V83.2201H56.15V80.54Z" fill="black"/>
<path d="M56.15 85.89H53.47V88.5701H56.15V85.89Z" fill="black"/>
<path d="M56.15 91.25H53.47V96.6001H56.15V91.25Z" fill="black"/>
<path d="M56.15 99.27H53.47V101.95H56.15V99.27Z" fill="black"/>
<path d="M58.8299 8.30005H56.1499V10.9801H58.8299V8.30005Z" fill="black"/>
<path d="M58.8299 32.38H56.1499V37.7301H58.8299V32.38Z" fill="black"/>
<path d="M58.8299 40.41H56.1499V51.1101H58.8299V40.41Z" fill="black"/>
<path d="M58.8299 61.8101H56.1499V64.49H58.8299V61.8101Z" fill="black"/>
<path d="M58.8299 75.1901H56.1499V77.87H58.8299V75.1901Z" fill="black"/>
<path d="M58.8299 83.2201H56.1499V93.92H58.8299V83.2201Z" fill="black"/>
<path d="M58.8299 96.6001H56.1499V99.28H58.8299V96.6001Z" fill="black"/>
<path d="M58.8299 104.62H56.1499V107.3H58.8299V104.62Z" fill="black"/>
<path d="M61.4998 8.30005H58.8198V16.3301H61.4998V8.30005Z" fill="black"/>
<path d="M61.4998 21.6801H58.8198V27.03H61.4998V21.6801Z" fill="black"/>
<path d="M61.4998 29.7101H58.8198V32.39H61.4998V29.7101Z" fill="black"/>
<path d="M61.4998 48.4401H58.8198V51.12H61.4998V48.4401Z" fill="black"/>
<path d="M61.4998 53.79H58.8198V61.8201H61.4998V53.79Z" fill="black"/>
<path d="M61.4998 64.49H58.8198V69.8401H61.4998V64.49Z" fill="black"/>
<path d="M61.4998 72.52H58.8198V75.2001H61.4998V72.52Z" fill="black"/>
<path d="M61.4998 77.87H58.8198V83.2201H61.4998V77.87Z" fill="black"/>
<path d="M61.4998 85.89H58.8198V88.5701H61.4998V85.89Z" fill="black"/>
<path d="M61.4998 91.25H58.8198V93.9301H61.4998V91.25Z" fill="black"/>
<path d="M61.4998 96.6001H58.8198V101.95H61.4998V96.6001Z" fill="black"/>
<path d="M64.18 10.9801H61.5V21.6801H64.18V10.9801Z" fill="black"/>
<path d="M64.18 27.03H61.5V29.7101H64.18V27.03Z" fill="black"/>
<path d="M64.18 43.0801H61.5V45.76H64.18V43.0801Z" fill="black"/>
<path d="M64.18 48.4401H61.5V51.12H64.18V48.4401Z" fill="black"/>
<path d="M64.18 56.4601H61.5V67.16H64.18V56.4601Z" fill="black"/>
<path d="M64.18 85.89H61.5V88.5701H64.18V85.89Z" fill="black"/>
<path d="M64.18 99.27H61.5V107.3H64.18V99.27Z" fill="black"/>
<path d="M66.8599 8.30005H64.1799V10.9801H66.8599V8.30005Z" fill="black"/>
<path d="M66.8599 13.65H64.1799V16.3301H66.8599V13.65Z" fill="black"/>
<path d="M66.8599 19H64.1799V27.03H66.8599V19Z" fill="black"/>
<path d="M66.8599 29.7101H64.1799V32.39H66.8599V29.7101Z" fill="black"/>
<path d="M66.8599 35.0601H64.1799V37.74H66.8599V35.0601Z" fill="black"/>
<path d="M66.8599 43.0801H64.1799V45.76H66.8599V43.0801Z" fill="black"/>
<path d="M66.8599 53.79H64.1799V56.4701H66.8599V53.79Z" fill="black"/>
<path d="M66.8599 59.14H64.1799V69.8401H66.8599V59.14Z" fill="black"/>
<path d="M66.8599 72.52H64.1799V75.2001H66.8599V72.52Z" fill="black"/>
<path d="M66.8599 77.87H64.1799V80.55H66.8599V77.87Z" fill="black"/>
<path d="M66.8599 85.89H64.1799V93.92H66.8599V85.89Z" fill="black"/>
<path d="M66.8599 96.6001H64.1799V99.28H66.8599V96.6001Z" fill="black"/>
<path d="M66.8599 101.95H64.1799V104.63H66.8599V101.95Z" fill="black"/>
<path d="M69.5298 8.30005H66.8499V16.3301H69.5298V8.30005Z" fill="black"/>
<path d="M69.5298 29.7101H66.8499V32.39H69.5298V29.7101Z" fill="black"/>
<path d="M69.5298 37.7301H66.8499V40.41H69.5298V37.7301Z" fill="black"/>
<path d="M69.5298 43.0801H66.8499V56.4601H69.5298V43.0801Z" fill="black"/>
<path d="M69.5298 59.14H66.8499V61.8201H69.5298V59.14Z" fill="black"/>
<path d="M69.5298 72.52H66.8499V83.2201H69.5298V72.52Z" fill="black"/>
<path d="M69.5298 85.89H66.8499V99.27H69.5298V85.89Z" fill="black"/>
<path d="M69.5298 101.95H66.8499V104.63H69.5298V101.95Z" fill="black"/>
<path d="M72.2098 8.30005H69.5298V10.9801H72.2098V8.30005Z" fill="black"/>
<path d="M72.2098 13.65H69.5298V16.3301H72.2098V13.65Z" fill="black"/>
<path d="M72.2098 21.6801H69.5298V27.03H72.2098V21.6801Z" fill="black"/>
<path d="M72.2098 29.7101H69.5298V32.39H72.2098V29.7101Z" fill="black"/>
<path d="M72.2098 35.0601H69.5298V45.76H72.2098V35.0601Z" fill="black"/>
<path d="M72.2098 48.4401H69.5298V51.12H72.2098V48.4401Z" fill="black"/>
<path d="M72.2098 53.79H69.5298V56.4701H72.2098V53.79Z" fill="black"/>
<path d="M72.2098 61.8101H69.5298V64.49H72.2098V61.8101Z" fill="black"/>
<path d="M72.2098 67.16H69.5298V69.8401H72.2098V67.16Z" fill="black"/>
<path d="M72.2098 72.52H69.5298V75.2001H72.2098V72.52Z" fill="black"/>
<path d="M72.2098 77.87H69.5298V88.5701H72.2098V77.87Z" fill="black"/>
<path d="M72.2098 91.25H69.5298V93.9301H72.2098V91.25Z" fill="black"/>
<path d="M72.2098 96.6001H69.5298V99.28H72.2098V96.6001Z" fill="black"/>
<path d="M72.2098 101.95H69.5298V107.3H72.2098V101.95Z" fill="black"/>
<path d="M74.88 19H72.2V21.6801H74.88V19Z" fill="black"/>
<path d="M74.88 27.03H72.2V29.7101H74.88V27.03Z" fill="black"/>
<path d="M74.88 35.0601H72.2V45.76H74.88V35.0601Z" fill="black"/>
<path d="M74.88 48.4401H72.2V53.79H74.88V48.4401Z" fill="black"/>
<path d="M74.88 59.14H72.2V67.17H74.88V59.14Z" fill="black"/>
<path d="M74.88 69.8401H72.2V72.52H74.88V69.8401Z" fill="black"/>
<path d="M74.88 75.1901H72.2V77.87H74.88V75.1901Z" fill="black"/>
<path d="M74.88 80.54H72.2V83.2201H74.88V80.54Z" fill="black"/>
<path d="M74.88 85.89H72.2V88.5701H74.88V85.89Z" fill="black"/>
<path d="M74.88 91.25H72.2V99.28H74.88V91.25Z" fill="black"/>
<path d="M77.5599 8.30005H74.8799V10.9801H77.5599V8.30005Z" fill="black"/>
<path d="M77.5599 13.65H74.8799V19H77.5599V13.65Z" fill="black"/>
<path d="M77.5599 24.3501H74.8799V32.38H77.5599V24.3501Z" fill="black"/>
<path d="M77.5599 35.0601H74.8799V37.74H77.5599V35.0601Z" fill="black"/>
<path d="M77.5599 45.76H74.8799V48.4401H77.5599V45.76Z" fill="black"/>
<path d="M77.5599 51.1101H74.8799V56.4601H77.5599V51.1101Z" fill="black"/>
<path d="M77.5599 61.8101H74.8799V69.8401H77.5599V61.8101Z" fill="black"/>
<path d="M77.5599 72.52H74.8799V75.2001H77.5599V72.52Z" fill="black"/>
<path d="M77.5599 77.87H74.8799V83.2201H77.5599V77.87Z" fill="black"/>
<path d="M77.5599 104.62H74.8799V107.3H77.5599V104.62Z" fill="black"/>
<path d="M80.2298 8.30005H77.5498V10.9801H80.2298V8.30005Z" fill="black"/>
<path d="M80.2298 16.3301H77.5498V24.3601H80.2298V16.3301Z" fill="black"/>
<path d="M80.2298 29.7101H77.5498V37.74H80.2298V29.7101Z" fill="black"/>
<path d="M80.2298 40.41H77.5498V48.4401H80.2298V40.41Z" fill="black"/>
<path d="M80.2298 51.1101H77.5498V53.79H80.2298V51.1101Z" fill="black"/>
<path d="M80.2298 56.4601H77.5498V59.14H80.2298V56.4601Z" fill="black"/>
<path d="M80.2298 61.8101H77.5498V67.16H80.2298V61.8101Z" fill="black"/>
<path d="M80.2298 72.52H77.5498V80.55H80.2298V72.52Z" fill="black"/>
<path d="M80.2298 83.2201H77.5498V88.5701H80.2298V83.2201Z" fill="black"/>
<path d="M80.2298 93.92H77.5498V96.6001H80.2298V93.92Z" fill="black"/>
<path d="M80.2298 99.27H77.5498V101.95H80.2298V99.27Z" fill="black"/>
<path d="M80.2298 104.62H77.5498V107.3H80.2298V104.62Z" fill="black"/>
<path d="M82.91 10.9801H80.23V19.01H82.91V10.9801Z" fill="black"/>
<path d="M82.91 21.6801H80.23V32.38H82.91V21.6801Z" fill="black"/>
<path d="M82.91 35.0601H80.23V43.0901H82.91V35.0601Z" fill="black"/>
<path d="M82.91 45.76H80.23V48.4401H82.91V45.76Z" fill="black"/>
<path d="M82.91 59.14H80.23V61.8201H82.91V59.14Z" fill="black"/>
<path d="M82.91 67.16H80.23V75.1901H82.91V67.16Z" fill="black"/>
<path d="M82.91 77.87H80.23V80.55H82.91V77.87Z" fill="black"/>
<path d="M82.91 83.2201H80.23V85.9H82.91V83.2201Z" fill="black"/>
<path d="M82.91 93.92H80.23V96.6001H82.91V93.92Z" fill="black"/>
<path d="M82.91 99.27H80.23V107.3H82.91V99.27Z" fill="black"/>
<path d="M85.5899 10.9801H82.9099V16.3301H85.5899V10.9801Z" fill="black"/>
<path d="M85.5899 21.6801H82.9099V24.3601H85.5899V21.6801Z" fill="black"/>
<path d="M85.5899 35.0601H82.9099V43.0901H85.5899V35.0601Z" fill="black"/>
<path d="M85.5899 45.76H82.9099V53.79H85.5899V45.76Z" fill="black"/>
<path d="M85.5899 56.4601H82.9099V59.14H85.5899V56.4601Z" fill="black"/>
<path d="M85.5899 61.8101H82.9099V64.49H85.5899V61.8101Z" fill="black"/>
<path d="M85.5899 67.16H82.9099V69.8401H85.5899V67.16Z" fill="black"/>
<path d="M85.5899 72.52H82.9099V75.2001H85.5899V72.52Z" fill="black"/>
<path d="M85.5899 77.87H82.9099V88.5701H85.5899V77.87Z" fill="black"/>
<path d="M85.5899 93.92H82.9099V96.6001H85.5899V93.92Z" fill="black"/>
<path d="M85.5899 99.27H82.9099V104.62H85.5899V99.27Z" fill="black"/>
<path d="M88.2598 8.30005H85.5798V13.65H88.2598V8.30005Z" fill="black"/>
<path d="M88.2598 19H85.5798V21.6801H88.2598V19Z" fill="black"/>
<path d="M88.2598 24.3501H85.5798V29.7001H88.2598V24.3501Z" fill="black"/>
<path d="M88.2598 32.38H85.5798V35.0601H88.2598V32.38Z" fill="black"/>
<path d="M88.2598 37.7301H85.5798V40.41H88.2598V37.7301Z" fill="black"/>
<path d="M88.2598 45.76H85.5798V59.14H88.2598V45.76Z" fill="black"/>
<path d="M88.2598 64.49H85.5798V72.52H88.2598V64.49Z" fill="black"/>
<path d="M88.2598 75.1901H85.5798V96.6001H88.2598V75.1901Z" fill="black"/>
<path d="M88.2598 101.95H85.5798V104.63H88.2598V101.95Z" fill="black"/>
<path d="M90.94 32.38H88.26V43.0801H90.94V32.38Z" fill="black"/>
<path d="M90.94 48.4401H88.26V51.12H90.94V48.4401Z" fill="black"/>
<path d="M90.94 56.4601H88.26V59.14H90.94V56.4601Z" fill="black"/>
<path d="M90.94 61.8101H88.26V64.49H90.94V61.8101Z" fill="black"/>
<path d="M90.94 69.8401H88.26V85.89H90.94V69.8401Z" fill="black"/>
<path d="M90.94 93.92H88.26V99.27H90.94V93.92Z" fill="black"/>
<path d="M90.94 104.62H88.26V107.3H90.94V104.62Z" fill="black"/>
<path d="M93.6099 8.30005H90.9299V27.03H93.6099V8.30005Z" fill="black"/>
<path d="M93.6099 29.7101H90.9299V32.39H93.6099V29.7101Z" fill="black"/>
<path d="M93.6099 35.0601H90.9299V43.0901H93.6099V35.0601Z" fill="black"/>
<path d="M93.6099 45.76H90.9299V48.4401H93.6099V45.76Z" fill="black"/>
<path d="M93.6099 51.1101H90.9299V53.79H93.6099V51.1101Z" fill="black"/>
<path d="M93.6099 61.8101H90.9299V64.49H93.6099V61.8101Z" fill="black"/>
<path d="M93.6099 67.16H90.9299V69.8401H93.6099V67.16Z" fill="black"/>
<path d="M93.6099 72.52H90.9299V75.2001H93.6099V72.52Z" fill="black"/>
<path d="M93.6099 77.87H90.9299V80.55H93.6099V77.87Z" fill="black"/>
<path d="M93.6099 83.2201H90.9299V85.9H93.6099V83.2201Z" fill="black"/>
<path d="M93.6099 88.5701H90.9299V91.25H93.6099V88.5701Z" fill="black"/>
<path d="M93.6099 93.92H90.9299V99.27H93.6099V93.92Z" fill="black"/>
<path d="M93.6099 101.95H90.9299V104.63H93.6099V101.95Z" fill="black"/>
<path d="M96.2899 8.30005H93.6099V10.9801H96.2899V8.30005Z" fill="black"/>
<path d="M96.2899 24.3501H93.6099V27.03H96.2899V24.3501Z" fill="black"/>
<path d="M96.2899 29.7101H93.6099V35.0601H96.2899V29.7101Z" fill="black"/>
<path d="M96.2899 37.7301H93.6099V40.41H96.2899V37.7301Z" fill="black"/>
<path d="M96.2899 43.0801H93.6099V56.4601H96.2899V43.0801Z" fill="black"/>
<path d="M96.2899 59.14H93.6099V61.8201H96.2899V59.14Z" fill="black"/>
<path d="M96.2899 67.16H93.6099V72.51H96.2899V67.16Z" fill="black"/>
<path d="M96.2899 75.1901H93.6099V80.54H96.2899V75.1901Z" fill="black"/>
<path d="M96.2899 83.2201H93.6099V85.9H96.2899V83.2201Z" fill="black"/>
<path d="M96.2899 93.92H93.6099V96.6001H96.2899V93.92Z" fill="black"/>
<path d="M98.9598 8.30005H96.2798V10.9801H98.9598V8.30005Z" fill="black"/>
<path d="M98.9598 13.65H96.2798V21.6801H98.9598V13.65Z" fill="black"/>
<path d="M98.9598 24.3501H96.2798V27.03H98.9598V24.3501Z" fill="black"/>
<path d="M98.9598 29.7101H96.2798V32.39H98.9598V29.7101Z" fill="black"/>
<path d="M98.9598 40.41H96.2798V43.0901H98.9598V40.41Z" fill="black"/>
<path d="M98.9598 45.76H96.2798V53.79H98.9598V45.76Z" fill="black"/>
<path d="M98.9598 56.4601H96.2798V64.49H98.9598V56.4601Z" fill="black"/>
<path d="M98.9598 67.16H96.2798V75.1901H98.9598V67.16Z" fill="black"/>
<path d="M98.9598 83.2201H96.2798V99.27H98.9598V83.2201Z" fill="black"/>
<path d="M98.9598 101.95H96.2798V107.3H98.9598V101.95Z" fill="black"/>
<path d="M101.64 8.30005H98.96V10.9801H101.64V8.30005Z" fill="black"/>
<path d="M101.64 13.65H98.96V21.6801H101.64V13.65Z" fill="black"/>
<path d="M101.64 24.3501H98.96V27.03H101.64V24.3501Z" fill="black"/>
<path d="M101.64 29.7101H98.96V35.0601H101.64V29.7101Z" fill="black"/>
<path d="M101.64 45.76H98.96V48.4401H101.64V45.76Z" fill="black"/>
<path d="M101.64 61.8101H98.96V69.8401H101.64V61.8101Z" fill="black"/>
<path d="M101.64 85.89H98.96V88.5701H101.64V85.89Z" fill="black"/>
<path d="M101.64 91.25H98.96V93.9301H101.64V91.25Z" fill="black"/>
<path d="M101.64 96.6001H98.96V101.95H101.64V96.6001Z" fill="black"/>
<path d="M101.64 104.62H98.96V107.3H101.64V104.62Z" fill="black"/>
<path d="M104.32 8.30005H101.64V10.9801H104.32V8.30005Z" fill="black"/>
<path d="M104.32 13.65H101.64V21.6801H104.32V13.65Z" fill="black"/>
<path d="M104.32 24.3501H101.64V27.03H104.32V24.3501Z" fill="black"/>
<path d="M104.32 29.7101H101.64V35.0601H104.32V29.7101Z" fill="black"/>
<path d="M104.32 51.1101H101.64V59.14H104.32V51.1101Z" fill="black"/>
<path d="M104.32 61.8101H101.64V64.49H104.32V61.8101Z" fill="black"/>
<path d="M104.32 72.52H101.64V75.2001H104.32V72.52Z" fill="black"/>
<path d="M104.32 77.87H101.64V80.55H104.32V77.87Z" fill="black"/>
<path d="M104.32 83.2201H101.64V85.9H104.32V83.2201Z" fill="black"/>
<path d="M104.32 88.5701H101.64V91.25H104.32V88.5701Z" fill="black"/>
<path d="M104.32 93.92H101.64V96.6001H104.32V93.92Z" fill="black"/>
<path d="M104.32 99.27H101.64V101.95H104.32V99.27Z" fill="black"/>
<path d="M104.32 104.62H101.64V107.3H104.32V104.62Z" fill="black"/>
<path d="M106.99 8.30005H104.31V10.9801H106.99V8.30005Z" fill="black"/>
<path d="M106.99 24.3501H104.31V27.03H106.99V24.3501Z" fill="black"/>
<path d="M106.99 32.38H104.31V37.7301H106.99V32.38Z" fill="black"/>
<path d="M106.99 40.41H104.31V48.4401H106.99V40.41Z" fill="black"/>
<path d="M106.99 53.79H104.31V59.14H106.99V53.79Z" fill="black"/>
<path d="M106.99 67.16H104.31V69.8401H106.99V67.16Z" fill="black"/>
<path d="M106.99 77.87H104.31V83.2201H106.99V77.87Z" fill="black"/>
<path d="M106.99 85.89H104.31V96.5901H106.99V85.89Z" fill="black"/>
<path d="M106.99 99.27H104.31V101.95H106.99V99.27Z" fill="black"/>
<path d="M106.99 104.62H104.31V107.3H106.99V104.62Z" fill="black"/>
<path d="M109.67 8.30005H106.99V27.03H109.67V8.30005Z" fill="black"/>
<path d="M109.67 35.0601H106.99V43.0901H109.67V35.0601Z" fill="black"/>
<path d="M109.67 45.76H106.99V51.1101H109.67V45.76Z" fill="black"/>
<path d="M109.67 56.4601H106.99V61.8101H109.67V56.4601Z" fill="black"/>
<path d="M109.67 67.16H106.99V75.1901H109.67V67.16Z" fill="black"/>
<path d="M109.67 77.87H106.99V85.9H109.67V77.87Z" fill="black"/>
<path d="M109.67 88.5701H106.99V91.25H109.67V88.5701Z" fill="black"/>
<path d="M109.67 96.6001H106.99V107.3H109.67V96.6001Z" fill="black"/>
</svg>
