<svg width="1080" height="99" viewBox="0 0 1080 99" fill="none" xmlns="http://www.w3.org/2000/svg">
<path d="M102.59 62.8292C102.59 62.8292 102.58 62.8292 102.57 62.8292C98.8001 62.7592 93.6601 62.6293 91.5101 62.5693L90.5101 62.5392C88.6101 62.4692 86.8001 62.0093 85.1101 61.1893C84.5301 60.9093 83.9701 60.6192 83.4201 60.3392C82.8601 60.0492 82.3601 59.8192 81.8801 59.5892C80.8601 59.1092 79.9001 58.6492 79.0001 58.0892C77.3401 57.0592 76.0601 56.1792 74.9601 55.3292C73.8001 54.4292 72.8201 53.4592 71.9601 52.5992L71.3601 52.0092C71.0401 51.6992 70.7201 51.3992 70.4201 51.0992C69.4701 50.1892 68.5801 49.3392 67.9101 48.4792C66.4001 46.5392 66.3001 46.3792 65.8001 45.1392C65.6901 44.8792 65.5601 44.5493 65.3801 44.1293C65.1701 43.6293 65.4001 43.0592 65.8901 42.8392C66.3901 42.6292 66.9601 42.8592 67.1801 43.3492C67.3701 43.7892 67.5001 44.1192 67.6201 44.3992C68.0401 45.4292 68.0501 45.4492 69.4701 47.2692C70.0501 48.0092 70.8601 48.7792 71.7901 49.6692C72.1001 49.9692 72.4201 50.2692 72.7501 50.5892L73.3601 51.1992C74.2201 52.0592 75.1101 52.9392 76.1801 53.7692C77.2301 54.5792 78.4601 55.4192 80.0601 56.4192C80.8701 56.9192 81.7801 57.3593 82.7401 57.8193C83.2401 58.0593 83.7401 58.2992 84.2501 58.5492C84.8701 58.8592 85.4201 59.1392 85.9901 59.4192C87.4401 60.1292 88.9801 60.5192 90.5801 60.5792C90.5801 60.5792 90.9501 60.5792 91.5901 60.6092C93.7401 60.6692 98.8701 60.7993 102.64 60.8693C103.18 60.8693 103.61 61.3293 103.6 61.8693C103.6 62.3993 103.15 62.8292 102.62 62.8292H102.59Z" fill="white"/>
<path d="M80.6302 35.8992H75.6902C74.3502 35.8992 73.6802 35.7493 73.0202 35.6093C72.4402 35.4893 71.8802 35.3693 70.7502 35.3693C69.6202 35.3693 69.0302 35.4593 68.4302 35.5493C67.7902 35.6493 67.1202 35.7493 65.8102 35.7493C64.5902 35.7493 63.9802 35.7692 63.3602 35.7792C62.7402 35.7992 62.1102 35.8093 60.8702 35.8093C59.6302 35.8093 59.0202 35.8093 58.4102 35.8093C57.7902 35.8093 57.1702 35.8093 55.9402 35.8093C55.4002 35.8093 54.9602 35.3692 54.9602 34.8292C54.9602 34.2892 55.4002 33.8492 55.9402 33.8492C57.1702 33.8492 57.7902 33.8492 58.4002 33.8492C59.0202 33.8492 59.6402 33.8492 60.8702 33.8492C62.1002 33.8492 62.7002 33.8293 63.3102 33.8193C63.9302 33.7993 64.5602 33.7892 65.8002 33.7892C66.9602 33.7892 67.5202 33.6993 68.1202 33.6093C68.7602 33.5093 69.4302 33.4092 70.7402 33.4092C72.0502 33.4092 72.7502 33.5493 73.4102 33.6893C73.9902 33.8093 74.5502 33.9293 75.6802 33.9293H80.6202C81.8202 33.9293 82.4002 33.8892 83.0102 33.8392C83.6402 33.7892 84.2902 33.7292 85.5602 33.7292C86.8302 33.7292 87.4202 33.7293 88.0402 33.7393C88.6602 33.7393 89.2702 33.7493 90.5002 33.7493C91.0402 33.7493 91.4802 34.1892 91.4802 34.7292C91.4802 35.2692 91.0402 35.7092 90.5002 35.7092C89.2602 35.7092 88.6402 35.7092 88.0202 35.6992C87.4002 35.6992 86.7902 35.6893 85.5602 35.6893C84.3302 35.6893 83.7802 35.7392 83.1702 35.7892C82.5402 35.8392 81.8902 35.8992 80.6202 35.8992H80.6302Z" fill="white"/>
<path d="M73.2902 35.6893C72.7502 35.6893 72.3102 35.2492 72.3102 34.7092C72.3102 33.0792 72.2902 32.2593 72.2702 31.4393C72.2502 30.6093 72.2302 29.7793 72.2302 28.1193C72.2302 27.5793 72.6702 27.1392 73.2102 27.1392C73.7502 27.1392 74.1902 27.5793 74.1902 28.1193C74.1902 29.7493 74.2102 30.5692 74.2302 31.3892C74.2502 32.2192 74.2702 33.0492 74.2702 34.7092C74.2702 35.2492 73.8302 35.6893 73.2902 35.6893Z" fill="white"/>
<path d="M57.85 62.3693C57.45 62.3693 57.07 62.1192 56.93 61.7192C56.75 61.2092 57.01 60.6492 57.52 60.4692C58.04 60.2892 58.56 60.1093 59.07 59.9393C60.3 59.5293 61.46 59.1493 62.5 58.6293C63.63 58.0693 64.66 57.3293 65.65 56.6193C66.08 56.3093 66.5 56.0092 66.92 55.7192L67.85 55.0992C69.07 54.2892 70.23 53.5192 71.2 52.6492C72.51 51.4592 73.74 50.1792 74.85 48.8392C76.03 47.4092 76.93 45.9592 77.82 44.4792C78.85 42.7692 79.54 41.0993 80.1 39.7493C80.63 38.4793 81 37.8092 81.27 37.3292C81.65 36.6492 81.81 36.3693 82.05 34.9193C82.14 34.3893 82.64 34.0293 83.18 34.1193C83.71 34.2093 84.07 34.7093 83.98 35.2493C83.69 36.9593 83.45 37.4393 82.97 38.2993C82.71 38.7693 82.38 39.3492 81.9 40.5092C81.32 41.9192 80.59 43.6693 79.49 45.4993C78.6 46.9793 77.62 48.5592 76.36 50.0892C75.19 51.5092 73.9 52.8593 72.52 54.1093C71.44 55.0893 70.23 55.8893 68.94 56.7393L68.02 57.3492C67.61 57.6292 67.21 57.9192 66.79 58.2092C65.74 58.9692 64.65 59.7492 63.37 60.3892C62.21 60.9692 60.98 61.3793 59.68 61.8093C59.18 61.9793 58.68 62.1393 58.17 62.3193C58.06 62.3593 57.95 62.3793 57.84 62.3793L57.85 62.3693Z" fill="white"/>
<path d="M192.7 40.6592C187.47 40.6592 178.71 40.6193 165.53 40.5493C150.47 40.4793 129.64 40.3792 101.74 40.2792C101.2 40.2792 100.76 39.8393 100.76 39.2993C100.76 38.7593 101.2 38.3193 101.74 38.3193C129.64 38.4193 150.47 38.5192 165.53 38.5892C178.7 38.6492 187.46 38.6992 192.69 38.6992C195.95 38.6992 215.78 38.6792 218.33 38.6492C218.88 38.5892 219.31 39.0793 219.32 39.6193C219.32 40.1593 218.89 40.5993 218.35 40.6093C215.8 40.6393 195.95 40.6592 192.69 40.6592H192.7Z" fill="white"/>
<path d="M486.98 90.0992C482.42 90.0992 470.57 89.9093 439.4 89.0693C438.96 89.0593 438.57 88.7492 438.47 88.3092C438.37 87.8792 438.57 87.4292 438.97 87.2192C439.48 86.9492 451.75 80.6092 468.76 81.9292C478.62 82.6992 483.27 83.5192 485.18 83.9392L489.35 54.2192C489.43 53.6892 489.92 53.3192 490.46 53.3892C491 53.4692 491.37 53.9592 491.29 54.4992L486.97 85.2992C486.93 85.5892 486.76 85.8392 486.51 85.9992C486.26 86.1492 485.96 86.1792 485.68 86.0892C485.65 86.0792 482.06 84.9393 468.61 83.8792C457.86 83.0392 448.92 85.4492 444 87.2192C461.84 87.6892 485.02 88.2292 488.87 88.1392C489.45 85.7592 490.7 75.2692 491.66 65.8492C491.71 65.3492 492.13 64.9692 492.63 64.9692L497.57 64.9992C497.85 64.9992 498.11 65.1292 498.29 65.3392C498.47 65.5492 498.56 65.8192 498.52 66.0992C497.75 72.5892 497.06 79.7592 497.08 81.9892C497.53 81.9792 498.04 81.9592 498.46 81.9492L501.07 61.1592C501.13 60.6692 501.55 60.2992 502.04 60.2992H502.06C504.45 60.3592 512.5 60.3992 517.83 60.4292L520.93 60.4492L558.37 60.3193C576.96 60.4093 599 60.6492 607.62 60.7492C608.43 60.7492 609.58 57.6792 610.21 56.0292C611.26 53.2392 612.09 51.0392 613.72 50.8892C615.05 50.7692 615.87 52.1492 616.14 52.5992C616.38 53.0092 616.57 53.4292 616.76 53.8892C617.26 55.0792 617.79 56.3192 619.63 57.5892C621.24 58.6992 622.92 59.3292 624.55 59.9392L624.79 60.0292C625.3 60.2192 625.55 60.7892 625.36 61.2892C625.17 61.7992 624.6 62.0492 624.1 61.8592L623.86 61.7692C622.2 61.1492 620.32 60.4392 618.52 59.1992C616.2 57.6092 615.48 55.8992 614.95 54.6492C614.78 54.2492 614.63 53.8992 614.46 53.6092C614.17 53.1292 613.97 52.9392 613.88 52.8692C613.35 53.2492 612.54 55.4092 612.04 56.7192C610.88 59.7992 609.78 62.7092 607.62 62.7092H607.59C598.98 62.6092 576.94 62.3692 558.36 62.2792L520.91 62.4092L517.8 62.3892C513 62.3592 505.99 62.3192 502.88 62.2692L500.28 83.0192C500.22 83.4992 499.82 83.8592 499.34 83.8792C499.34 83.8792 497.02 83.9592 496.26 83.9592C495.98 83.9592 495.67 83.8192 495.48 83.6092C495.17 83.2592 494.59 82.6092 496.43 66.9392H496.14H493.49C491.18 89.4392 490.56 89.6992 489.9 89.9792C489.8 90.0192 489.64 90.0892 486.95 90.0892L486.98 90.0992Z" fill="white"/>
<path d="M238.69 96.8193C231.56 96.8193 225.84 94.9693 221.69 91.3092C217.34 87.3992 215.14 81.8392 215.14 74.7792C215.14 71.8592 215.45 68.8792 216.06 65.9292C216.17 65.3992 216.69 65.0592 217.22 65.1692C217.75 65.2792 218.09 65.7992 217.98 66.3292C217.4 69.1492 217.1 71.9992 217.1 74.7892C217.1 81.2792 219.08 86.3492 223 89.8592C226.78 93.1892 232.07 94.8793 238.7 94.8793C248.3 94.8793 256.48 91.9292 263.02 86.1092C267.86 81.7792 271.35 75.7492 273.09 68.6692C273.59 66.6492 273.66 64.2592 273.74 61.7192C273.88 57.2792 274.02 52.6892 276.49 49.4592C276.67 49.2292 276.93 49.0892 277.22 49.0792C277.51 49.0692 277.79 49.1792 277.99 49.3992C279.56 51.1092 280.49 53.0793 281.31 54.8193C282.81 57.9893 283.99 60.4792 288.26 60.9992C297 62.0492 310.05 61.6292 321.56 61.2592C326.92 61.0892 331.96 60.9392 336.12 60.9292C347.81 60.9292 357.91 60.7893 368.64 60.6293C374.37 60.5493 380.24 60.4592 386.52 60.3892C386.78 60.3692 387.07 60.4992 387.26 60.7092C387.453 60.9225 387.157 64.9625 386.37 72.8292L385.23 84.1992L384.84 86.9292C398.07 87.1492 429.03 87.6393 430.23 87.5693C430.66 87.5293 431.07 87.4892 431.07 84.8592C431.07 83.3392 429.9 81.6993 421.25 81.0693C415.34 80.6393 409.8 82.4992 405.77 83.8692C404.94 84.1492 404.19 84.4092 403.52 84.6092C399.52 85.8292 389.45 85.8292 389.04 85.8292C388.76 85.8292 388.5 85.7093 388.31 85.4993C388.13 85.2893 388.04 85.0092 388.07 84.7392L391.52 54.9292C391.58 54.3892 392.07 54.0093 392.6 54.0693C393.14 54.1293 393.52 54.6192 393.46 55.1492L390.13 83.8592C392.86 83.8292 399.96 83.6492 402.94 82.7392C403.59 82.5392 404.33 82.2892 405.14 82.0192C409.1 80.6792 415.08 78.6593 421.4 79.1293C427.44 79.5693 433.03 80.5792 433.03 84.8692C433.03 87.1092 432.83 89.3092 430.41 89.5292C429.2 89.6392 388.36 88.9593 383.71 88.8793C383.43 88.8793 383.16 88.7492 382.98 88.5392C382.8 88.3292 382.72 88.0392 382.76 87.7692L383.3 83.9792C383.3 83.9792 385.01 66.8892 385.46 62.3692C379.59 62.4292 374.08 62.5192 368.68 62.5892C357.95 62.7492 347.8 62.8892 336.13 62.8892H336.05C331.95 62.8892 326.94 63.0492 321.63 63.2192C310.05 63.5892 296.92 64.0093 288.03 62.9393C282.69 62.2993 281.09 58.9192 279.55 55.6492C278.92 54.3192 278.28 52.9592 277.37 51.7192C275.93 54.4292 275.82 58.1592 275.7 61.7892C275.62 64.3192 275.54 66.9292 274.99 69.1492C273.15 76.6192 269.46 82.9892 264.32 87.5892C257.41 93.7392 248.79 96.8592 238.69 96.8592V96.8193ZM218.35 40.6092C217.83 40.6092 217.4 40.1992 217.37 39.6792C217.34 39.1392 217.76 38.6792 218.3 38.6492C229.74 38.0592 231.39 35.9992 239.3 26.0892L240.47 24.6192C241.9 22.8292 245.13 17.5992 246.33 15.6592L238.17 9.31926L232.16 17.6692L236.28 20.5592C236.72 20.8692 236.83 21.4792 236.52 21.9192C236.21 22.3592 235.6 22.4692 235.16 22.1592L230.24 18.6992C230.24 18.6992 230.24 18.6992 230.23 18.6992C230.23 18.6992 230.21 18.6892 230.2 18.6792C230.12 18.6192 230.05 18.5392 229.99 18.4592C229.92 18.3592 229.88 18.2492 229.85 18.1392C229.82 17.9792 229.82 17.8092 229.87 17.6492C229.89 17.5692 229.93 17.4892 229.98 17.4192C229.98 17.4092 229.99 17.3992 230 17.3892C230 17.3892 230 17.3893 230 17.3793L237.18 7.40922C237.34 7.18922 237.57 7.0492 237.83 7.0092C238.09 6.9692 238.36 7.03921 238.57 7.20921L248.22 14.7092C248.61 15.0092 248.71 15.5592 248.46 15.9892C248.27 16.2992 243.85 23.5992 242 25.9092L240.83 27.3793C232.86 37.3593 230.72 40.0392 218.4 40.6792C218.38 40.6792 218.37 40.6792 218.35 40.6792V40.6092Z" fill="white"/>
<path d="M50.2502 90.3993C49.2302 90.3993 48.2402 90.2093 47.3502 89.7993C45.6902 89.0393 42.0602 86.3793 44.1802 78.1393C45.1302 74.4293 45.7002 70.5093 45.9102 66.1493C45.9402 65.6093 46.3702 65.1993 46.9302 65.2193C47.4702 65.2493 47.8902 65.6993 47.8602 66.2393C47.6402 70.7393 47.0602 74.7893 46.0702 78.6293C44.8402 83.4193 45.6002 86.8493 48.1602 88.0193C50.8702 89.2593 54.9602 87.7093 57.0902 84.6393C59.5702 81.0593 59.3902 77.8993 58.3902 76.1293C57.6602 74.8393 56.4602 74.1593 55.0802 74.2293C54.0902 74.2893 53.2402 74.8393 52.7402 75.7493C51.9902 77.1093 52.1702 79.0092 53.2402 80.9492C53.5002 81.4192 53.3302 82.0193 52.8502 82.2793C52.3702 82.5393 51.7802 82.3693 51.5202 81.8893C50.1202 79.3393 49.9402 76.7593 51.0202 74.7993C51.8402 73.3193 53.3102 72.3693 54.9602 72.2693C57.0802 72.1393 59.0002 73.2193 60.0902 75.1593C61.3802 77.4493 61.6902 81.4293 58.6902 85.7393C56.6802 88.6393 53.3102 90.3893 50.2402 90.3893L50.2502 90.3993Z" fill="white"/>
<path d="M46.8801 67.1792C46.8801 67.1792 46.8501 67.1792 46.8301 67.1792C46.2901 67.1492 45.8701 66.6992 45.9001 66.1592C45.9601 64.9192 45.9901 63.6392 45.9901 62.3292C45.9901 62.1592 45.9401 62.0492 45.8201 61.9292C44.8101 60.9392 40.9301 61.0093 38.3601 61.0693C37.4801 61.0893 36.6701 61.0992 35.9901 61.0892L35.0101 61.0693C33.1901 61.0293 31.3701 60.9792 29.5501 60.9592C27.8401 60.9392 -8.28988 60.9592 -8.64988 60.9592C-9.18988 60.9592 -9.62988 60.5192 -9.62988 59.9792C-9.62988 59.4392 -9.18988 58.9992 -8.64988 58.9992C-7.15988 58.9992 27.8501 58.9792 29.5801 58.9992C31.4101 59.0292 33.2301 59.0692 35.0601 59.1192L36.0401 59.1392C36.7001 59.1592 37.4801 59.1392 38.3301 59.1192C41.7401 59.0492 45.6001 58.9792 47.2001 60.5392C47.6901 61.0292 47.9601 61.6492 47.9601 62.3292C47.9601 63.6592 47.9301 64.9792 47.8701 66.2492C47.8401 66.7692 47.4101 67.1792 46.8901 67.1792H46.8801Z" fill="white"/>
<path d="M107.06 90.4293C106.52 90.4293 106.08 89.9892 106.08 89.4492C106.08 88.9092 106.52 88.4692 107.06 88.4692C110.09 88.4692 111.11 86.9392 112.23 84.7792C114.15 81.0692 114.58 77.8492 113.43 75.9592C112.56 74.5392 110.98 74.2393 109.81 74.2393C109.27 74.2393 108.83 73.7992 108.83 73.2592C108.83 72.7192 109.27 72.2792 109.81 72.2792C112.18 72.2792 114.06 73.2193 115.1 74.9393C116.64 77.4693 116.24 81.2793 113.97 85.6793C112.73 88.0893 111.17 90.4293 107.06 90.4293Z" fill="white"/>
<path d="M40.3501 39.3792C39.7901 39.3792 39.2301 39.3692 38.6701 39.3592L37.1501 39.3292C33.8901 39.2792 30.5101 39.2292 27.2001 39.2992C25.6901 39.3292 -7.24988 39.2692 -8.64988 39.2592C-9.18988 39.2592 -9.62988 38.8192 -9.62988 38.2792C-9.62988 37.7392 -9.18988 37.2992 -8.64988 37.2992C-8.49988 37.2992 13.9301 37.3492 23.2401 37.3492C25.4201 37.3492 26.8701 37.3492 27.1601 37.3492C30.5101 37.2792 33.9001 37.3292 37.1801 37.3792L38.7101 37.4092C41.3901 37.4592 44.1601 37.5092 45.3301 36.3592C45.7801 35.9192 46.0001 35.2792 46.0001 34.4092V22.7592C45.9801 17.8792 43.3801 15.3392 40.9501 14.5892C38.4701 13.8192 35.9001 14.7292 34.3901 16.8992C31.7101 20.7592 31.9601 26.3392 33.7401 29.4992C34.1801 30.2792 35.1201 31.5892 36.3901 31.5092C38.4901 31.3792 40.1201 28.1392 40.3201 25.1992C40.3601 24.6592 40.8201 24.2492 41.3601 24.2892C41.9001 24.3292 42.3101 24.7892 42.2701 25.3292C42.0101 29.1192 39.9101 33.2492 36.5101 33.4592C34.7701 33.5492 33.1801 32.4992 32.0301 30.4592C29.9501 26.7692 29.6601 20.2692 32.7801 15.7792C34.7801 12.8892 38.2201 11.6892 41.5301 12.7092C44.6201 13.6692 47.9301 16.8092 47.9601 22.7492V34.3992C47.9601 35.8092 47.5401 36.9292 46.7101 37.7492C45.2701 39.1592 42.8701 39.3792 40.3601 39.3792H40.3501Z" fill="white"/>
<path d="M41.3001 26.2393C41.3001 26.2393 41.2601 26.2393 41.2301 26.2393C40.6901 26.1993 40.2801 25.7392 40.3201 25.1992C40.4301 23.5892 40.1102 22.2793 39.4702 21.6793C39.1302 21.3693 38.7002 21.2592 38.1301 21.3392C37.5901 21.4192 37.1001 21.0492 37.0201 20.5092C36.9401 19.9792 37.3101 19.4792 37.8501 19.3992C39.0101 19.2292 40.0302 19.5193 40.8102 20.2393C41.9102 21.2593 42.4401 23.0692 42.2901 25.3292C42.2501 25.8492 41.8202 26.2393 41.3102 26.2393H41.3001Z" fill="white"/>
<path d="M101.75 53.8992C101.21 53.8992 100.77 53.4592 100.77 52.9192V22.7592C100.74 16.9692 96.9401 14.3292 93.4101 14.3292C93.2101 14.3192 81.3101 13.2992 70.1601 14.3292C62.5601 15.0192 40.3401 14.3592 39.3901 14.3292C38.8501 14.3092 38.4301 13.8592 38.4401 13.3192C38.4601 12.7792 38.9301 12.3492 39.4501 12.3692C39.6801 12.3692 62.4901 13.0592 69.9801 12.3692C81.3101 11.3292 93.3701 12.3592 93.4901 12.3692C98.0101 12.3692 102.68 15.9392 102.71 22.7492V52.9192C102.71 53.4592 102.27 53.8992 101.73 53.8992H101.75Z" fill="white"/>
<path d="M93.4201 90.6992C89.7201 90.6992 85.8001 90.6292 82.3601 90.4092C71.8101 89.7492 51.1201 90.3892 50.9101 90.4092C50.3901 90.4392 49.9201 89.9992 49.9001 89.4592C49.8801 88.9192 50.3101 88.4692 50.8501 88.4492C51.0601 88.4492 71.8401 87.7992 82.4801 88.4592C92.5401 89.0792 106.88 88.4692 107.02 88.4592C107.58 88.4392 108.02 88.8592 108.04 89.3892C108.06 89.9292 107.64 90.3892 107.11 90.4092C107.01 90.4092 100.66 90.6893 93.4201 90.6893V90.6992Z" fill="white"/>
<path d="M109.81 74.2393H55.03C54.49 74.2393 54.05 73.7992 54.05 73.2592C54.05 72.7192 54.49 72.2792 55.03 72.2792H109.81C110.35 72.2792 110.79 72.7192 110.79 73.2592C110.79 73.7992 110.35 74.2393 109.81 74.2393Z" fill="white"/>
<path d="M46.9702 33.4592H36.4502C35.9102 33.4592 35.4702 33.0192 35.4702 32.4792C35.4702 31.9392 35.9102 31.4993 36.4502 31.4993H46.9702C47.5102 31.4993 47.9502 31.9392 47.9502 32.4792C47.9502 33.0192 47.5102 33.4592 46.9702 33.4592Z" fill="white"/>
<path d="M106.15 62.8692C105.35 62.8692 104.07 62.8492 102.58 62.8192C102.04 62.8092 101.61 62.3592 101.62 61.8192C101.63 61.2892 102.07 60.8592 102.6 60.8592C102.6 60.8592 102.61 60.8592 102.62 60.8592C104.1 60.8892 105.36 60.9092 106.16 60.9092C125 60.9092 155.84 60.7692 176.58 60.6192C179.51 60.5992 181.8 60.6392 183.82 60.6692C188.86 60.7492 192.19 60.7992 199.53 59.8292C200.15 59.7492 200.89 59.6592 201.73 59.5692C207.09 58.9592 218.23 57.6792 220.36 53.5692C222.11 50.1892 223.47 48.6992 224.89 48.5892C225.43 48.5592 225.9 48.9492 225.94 49.4892C225.98 50.0292 225.58 50.4992 225.04 50.5392C224.88 50.5492 224 50.7992 222.09 54.4692C219.48 59.5092 208.5 60.7592 201.94 61.5192C201.12 61.6092 200.38 61.6992 199.78 61.7792C192.29 62.7692 188.91 62.7192 183.78 62.6392C181.77 62.6092 179.49 62.5692 176.58 62.5892C155.84 62.7292 124.99 62.8792 106.15 62.8792V62.8692Z" fill="white"/>
<path d="M1025.4 58.3393C1022.72 63.5493 1019.46 66.1593 1014.55 67.1793C1010.18 68.0893 1005.72 67.9492 1001.3 66.7692C995.91 75.4193 989.58 80.5492 982.49 82.0192C977.64 83.0192 973.66 82.4693 970.64 80.3693C967.64 78.2793 965.58 74.6493 964.53 69.5693L964.49 69.3993C964.17 67.8393 963.8 66.0693 963.88 64.0293C964.03 60.3793 963.44 57.6793 962.72 56.8493C962.51 57.2193 962.25 57.9093 962.06 58.3993C961.48 59.9293 960.81 61.6593 959.47 62.1693C956.18 63.3993 950.68 62.7893 945.84 62.2493C943.71 62.0093 941.7 61.7892 940.2 61.7692C931.07 61.6392 922.67 61.6093 914.51 61.6693C895.91 61.7993 879.13 62.4193 863.21 63.5393C855.93 64.0493 848.81 64.5093 841.67 64.4293C837.76 64.3893 835.66 60.9793 834.13 58.4893C833.44 57.3593 832.78 56.2993 832.19 55.8793C831.07 55.0993 828.51 58.0493 827.55 59.1593L827.12 59.6493C820.91 66.5893 814.64 71.4993 808.48 74.2493C806.65 75.0893 803.88 76.3492 802.37 74.8892C801.15 73.7192 801.35 71.4093 803.02 67.4193C803.67 65.8493 805.95 61.5092 806.05 61.3292C807.35 58.8692 808.76 56.4092 810.22 54.0192C818.71 40.1493 829.09 28.2593 836.31 20.7293C836.74 20.2793 837.5 20.3293 837.85 20.8993C838.09 21.2793 838.01 21.7893 837.69 22.1093C830.55 29.5693 820.28 41.3293 811.88 55.0393C810.44 57.3993 809.06 59.8193 807.77 62.2393C807.75 62.2793 805.44 66.6793 804.82 68.1693C802.95 72.6593 803.69 73.4493 803.73 73.4793C804.1 73.8293 805.42 73.4893 807.67 72.4593C813.58 69.8193 819.63 65.0693 825.66 58.3393L826.07 57.8693C827.7 55.9893 830.74 52.4792 833.31 54.2592C834.24 54.9092 834.97 56.0892 835.81 57.4492C837.24 59.7792 838.87 62.4293 841.7 62.4593C848.77 62.5393 855.85 62.0793 863.08 61.5693C879.04 60.4393 895.86 59.8293 914.5 59.6893C922.67 59.6293 931.09 59.6693 940.23 59.7893C941.82 59.8093 943.88 60.0393 946.06 60.2793C950.46 60.7693 955.94 61.3693 958.79 60.3093C959.31 60.1193 959.89 58.5893 960.24 57.6793C960.78 56.2593 961.21 55.1393 962.14 54.7993C962.55 54.6493 963 54.6793 963.41 54.9093C965.96 56.2893 965.92 62.2893 965.84 64.0993C965.77 65.9093 966.11 67.5493 966.41 68.9893L966.45 69.1593C967.4 73.7293 969.19 76.9593 971.76 78.7493C974.32 80.5293 977.79 80.9793 982.09 80.0893C988.8 78.6993 994.83 73.6593 1000.01 65.1193C1000.24 64.7293 1000.71 64.5493 1001.14 64.6793C1005.49 65.9493 1009.87 66.1393 1014.15 65.2493C1016.31 64.7993 1018.35 63.9493 1019.98 62.4293C1020.85 61.6193 1021.63 60.7193 1022.21 59.6893C1023.4 57.5826 1025.14 56.5326 1027.41 56.5393C1038.17 56.5993 1048.93 56.8693 1059.69 57.0393C1070.09 57.1993 1080.65 56.8793 1091.02 57.5493C1090.99 58.1993 1091 58.8592 1091 59.5192L1025 58.5192M1025.4 58.3393L1026.34 37.2293L1026.29 36.4993C1026.13 34.2193 1025.78 31.7793 1025.17 28.8393L1022.42 15.5693C1017.53 22.0193 1015.72 28.5193 1017.05 34.9193C1017.25 35.8993 1017.68 37.3193 1018.31 39.1193C1018.98 41.0393 1019.41 42.4293 1019.6 43.3793C1019.89 44.7693 1019.58 45.9993 1018.71 46.9293C1017.91 47.7893 1016.67 48.3793 1014.92 48.7493C1004.95 50.8193 1001.78 46.0493 1000.87 41.6793C1000.14 38.1393 999.72 35.4993 999.61 33.6093C999.56 31.8693 999.19 31.5293 999.15 31.4893C999.12 31.4593 999.03 31.4693 998.97 31.4893C995.57 32.1993 993.99 36.2693 994.28 43.6093C994.73 55.1993 990.83 61.9293 982.67 63.6193C979.26 64.3293 974.84 63.4092 973.1 55.0192C972.68 52.9792 972.68 50.0793 973.1 46.1293C973.59 41.5393 973.5 39.6093 973.33 38.7993C973.12 37.7993 972.67 36.1393 971.82 36.3193C970.93 36.4993 969.58 37.9593 968.5 39.1293L967.97 39.6992C965.89 41.9092 964.15 41.7593 962.86 41.3793C955.17 39.0893 946.17 39.3293 937.46 39.5593C934.68 39.6293 932.05 39.6993 929.5 39.6893C918.54 39.6293 907.41 40.0493 896.65 40.4593C881.87 41.0093 866.58 41.5892 851.49 40.9492C851.45 40.9492 844.03 40.6392 844.03 40.6392C843.66 40.6192 843.34 40.4093 843.18 40.0693C843.03 39.7393 843.07 39.3493 843.3 39.0593C843.99 38.1793 844.3 37.6092 844.66 36.9492C844.9 36.5192 845.15 36.0493 845.53 35.4593C843.72 35.2192 839.45 35.2693 835.77 35.4793C835.33 35.5093 834.91 35.2193 834.78 34.7993C834.65 34.3693 834.82 33.9093 835.2 33.6693C847.42 26.2193 857.54 7.03927 860.06 1.97927C856.6 1.83927 846.02 2.66924 828.01 14.6392C819.91 20.0192 812.9 26.7493 807.17 34.6293C805.35 37.1393 803.63 38.5793 802.08 38.8993C798.57 39.6393 792.72 39.7593 787.06 39.8693L784.33 39.9293C771.72 40.2193 760.22 40.2892 749.19 40.1392C724.7 39.7992 699.78 39.7593 675.69 39.7093L662.37 39.6793H662.33C659.27 39.6793 658.03 40.8493 656.32 42.4693C655.71 43.0493 655.07 43.6493 654.3 44.2493C645.72 50.8393 635.35 50.8793 626.57 44.3693C623.13 41.8193 623.13 38.3892 623.13 35.6392C623.13 33.4092 625.27 31.3993 629.87 29.3093C633.68 27.6693 636.64 26.8693 638.94 26.8693C645.04 26.8693 649.83 28.7593 653.22 32.4993C654.17 30.9893 654.91 29.8493 655.47 29.0493C656.81 27.0793 657.5 24.9493 657.5 22.7093C657.5 15.4593 654.17 11.9393 647.31 11.9393C634.44 11.9393 623.04 23.2593 617.19 32.9593C616.71 33.7493 616.31 34.6093 615.89 35.5293C615.36 36.6593 614.82 37.8293 614.11 38.8693C612.76 40.8493 610.72 40.9693 608.91 40.9193C601.25 40.7293 589.91 40.5993 575.22 40.5192L518.43 40.4993C517.69 40.4693 508.29 40.4593 506.96 40.4793C506.16 40.4893 503.82 40.6793 503.8 40.6893C503.5 40.7093 503.2 40.5993 503 40.3693C502.8 40.1493 502.71 39.8393 502.76 39.5393C504.31 30.6393 506.72 16.2693 506.84 14.1093C506.16 13.6393 503.58 13.0893 502.32 12.9893C502.09 14.3693 501.61 17.6992 501.13 20.9492C499.284 33.6092 497.984 39.9393 497.23 39.9393H497.09C494.38 40.1293 493.02 39.9193 492.4 39.2093C492.1 38.8693 491.99 38.4493 492.07 37.9993C492.4 36.2793 496.06 14.6993 496.29 10.0993C496.25 10.0993 496.2 10.1093 496.16 10.1193C493.68 10.4593 487.08 11.3492 477.83 9.00924C467.16 6.31924 460.06 8.16925 457.02 8.95925L456.82 9.00924C456.57 9.06924 456.33 9.12929 456.1 9.18929C453.87 9.71929 452.52 10.0293 451.14 17.5593C449.53 26.3593 440.32 67.2493 440.23 67.6593C440.12 68.1593 439.63 68.4993 439.12 68.4093C438.61 68.3293 438.25 67.8693 438.3 67.3493C438.33 67.0693 440.91 39.6993 441.22 35.9293C441.6 31.4793 442.59 24.9693 443.38 19.7393C443.87 16.5193 444.38 13.1893 444.36 12.6693C444.12 9.21927 440.73 7.32926 435.31 7.58926C431.23 7.78926 424.07 9.19924 417.75 10.4492C413.16 11.3592 409.19 12.1393 407.27 12.2793C403.81 12.5293 400.75 12.5893 399.24 12.5993C398.52 15.6593 396.18 29.7493 394.74 38.6893C394.72 39.4593 394.43 40.1092 393.91 40.5792C392.49 41.8492 389.72 41.5493 386.8 41.2193C386.06 41.1393 385.33 41.0592 384.65 41.0092C378.46 40.5692 372.59 41.0692 372.53 41.0792C362.73 41.0592 349.18 41.0593 335.4 41.0493C319.14 41.0293 302.6 41.0092 291.88 41.0092C287.63 41.0092 285.22 41.4693 283.09 41.8793C280.35 42.4093 278.19 42.8193 273.78 41.7993C271.52 41.2793 269 38.8792 268.27 37.4593C266.8 34.5393 265.22 32.0493 263.56 30.0193L261.21 38.8493C261.99 39.9393 263.38 42.4493 266.46 47.9893C270.17 54.6793 272.05 60.2693 272.05 64.6193C272.05 70.7393 267.73 75.9793 259.22 80.1793C252.36 83.5793 245.9 85.3093 240.04 85.3093C234.59 85.3093 229.99 83.9593 226.37 81.2893C222.29 78.1793 220.23 73.8893 220.23 68.5393C220.23 66.4893 221.01 63.3293 222.6 58.8793C224.47 53.6693 224.86 51.5393 224.86 50.6693C224.86 50.5993 224.86 50.5393 224.86 50.4993C224.43 50.3793 224.09 49.9792 224.11 49.5192C224.13 48.9893 224.52 48.5792 225.05 48.5792C225.91 48.5792 226.83 49.1293 226.83 50.6793C226.83 52.2293 226.05 55.0893 224.46 59.5493C222.96 63.7293 222.2 66.7593 222.2 68.5493C222.2 73.3293 223.95 76.9893 227.56 79.7393C230.82 82.1493 235.02 83.3693 240.05 83.3693C245.61 83.3693 251.78 81.7092 258.37 78.4492C266.16 74.5992 270.11 69.9593 270.11 64.6493C270.11 60.6393 268.31 55.3593 264.77 48.9693C261.08 42.3193 259.93 40.4093 259.59 39.9093C259.34 39.7293 259.19 39.4393 259.19 39.1193C259.19 39.0293 259.2 38.9493 259.22 38.8693L262.17 27.7793C262.26 27.4393 262.53 27.1692 262.88 27.0792C263.22 26.9892 263.59 27.0993 263.83 27.3593C266.05 29.7293 268.14 32.8393 270.04 36.5993C270.51 37.5093 272.53 39.5193 274.25 39.9193C278.26 40.8493 280.04 40.5093 282.75 39.9893C284.85 39.5893 287.48 39.0792 291.91 39.0792C302.63 39.0792 319.17 39.0993 335.43 39.1193C349.21 39.1393 362.8 39.1493 372.48 39.1493C372.64 39.1293 378.47 38.6392 384.82 39.0792C385.52 39.1292 386.28 39.2093 387.05 39.2993C389.09 39.5293 391.87 39.8293 392.64 39.1493C392.73 39.0693 392.82 38.9392 392.82 38.6392C392.82 38.5892 392.82 38.5393 392.83 38.4793C397.3 10.6793 397.47 10.6793 398.56 10.6793C399.54 10.6793 403.07 10.6593 407.16 10.3593C408.96 10.2293 412.88 9.45929 417.41 8.55929C423.79 7.29929 431.03 5.87927 435.25 5.66927C443.06 5.28927 446.11 8.9793 446.35 12.5693C446.39 13.1793 446.11 15.1093 445.36 20.0593C444.57 25.2693 443.58 31.7393 443.21 36.1193C443.06 37.9193 442.39 45.1093 441.73 52.1593C444.56 39.4493 448.28 22.5093 449.25 17.2293C450.78 8.84927 452.6 8.02928 455.68 7.29928C455.9 7.24928 456.12 7.1893 456.36 7.1293L456.56 7.07925C459.74 6.24925 467.18 4.3093 478.34 7.1293C487.23 9.3693 493.33 8.54924 495.93 8.19924C496.66 8.09924 497.02 8.04926 497.31 8.08926C497.58 8.11926 497.86 8.28924 498.02 8.50924C499.07 9.95924 494.74 34.4093 494.1 37.9693C494.43 38.0393 495.12 38.1193 496.54 38.0493C497.05 35.6693 498.4 26.4293 499.24 20.6893C500.53 11.8593 500.54 11.8493 500.73 11.5593C500.97 11.1993 501.3 10.6993 504.78 11.4193C508.13 12.1093 508.7 12.9793 508.82 13.6593C509.03 14.8293 506.34 30.6493 504.95 38.6593C505.67 38.6093 506.53 38.5493 506.98 38.5393C508.32 38.5193 517.81 38.5393 518.52 38.5593L575.28 38.5792C589.99 38.6592 601.34 38.7993 609.01 38.9793C610.75 39.0193 611.82 38.8393 612.54 37.7793C613.16 36.8693 613.65 35.8193 614.16 34.7093C614.59 33.7893 615.03 32.8393 615.56 31.9593C621.67 21.8293 633.67 9.98928 647.35 9.98928C655.29 9.98928 659.49 14.3893 659.49 22.7193C659.49 25.3593 658.69 27.8693 657.12 30.1793C656.45 31.1393 655.47 32.6592 654.2 34.6992C654.03 34.9692 653.74 35.1493 653.42 35.1593C653.1 35.1693 652.79 35.0293 652.59 34.7793C649.53 30.7893 645.07 28.8493 638.97 28.8493C636.97 28.8493 634.18 29.6093 630.69 31.1193C625.84 33.3193 625.11 34.9093 625.11 35.6593C625.11 38.3293 625.11 40.8493 627.76 42.8193C630.77 45.0493 641.5 51.6493 653.13 42.7193C653.82 42.1893 654.42 41.6193 655 41.0693C656.81 39.3593 658.52 37.7393 662.36 37.7393H662.4L675.72 37.7692C699.82 37.8092 724.74 37.8592 749.25 38.1992C760.26 38.3492 771.73 38.2793 784.32 37.9893L787.06 37.9293C792.63 37.8193 798.38 37.7093 801.71 36.9993C802.73 36.7793 804.15 35.5093 805.62 33.4893C811.49 25.4093 818.67 18.5293 826.96 13.0192C850.11 -2.37075 861.35 0.0992524 861.81 0.209252C862.1 0.279252 862.33 0.469282 862.46 0.739282C862.59 0.999282 862.59 1.30925 862.46 1.57925C862.02 2.51925 852.27 23.3693 839.12 33.3793C846.94 33.1293 847.51 33.9993 847.77 34.3993C848.01 34.7593 848.03 35.2093 847.83 35.5993C847.81 35.6493 847.78 35.6893 847.75 35.7293C847.07 36.6593 846.73 37.2892 846.39 37.8892C846.24 38.1692 846.08 38.4492 845.9 38.7592C848.09 38.8492 851.52 38.9993 851.58 38.9993C866.6 39.6293 881.85 39.0592 896.59 38.5092C907.37 38.1092 918.52 37.6893 929.52 37.7393C932.05 37.7493 934.66 37.6793 937.42 37.6093C946.28 37.3793 955.45 37.1292 963.43 39.5092C964.07 39.6992 965.04 39.9893 966.56 38.3693L967.08 37.8093C968.49 36.2893 969.94 34.7193 971.44 34.4093C972.74 34.1393 974.48 34.6093 975.27 38.4093C975.56 39.8093 975.49 42.3993 975.07 46.3493C974.68 50.0393 974.67 52.8292 975.04 54.6392C976.57 62.0192 979.92 62.2093 982.3 61.7193C989.48 60.2293 992.77 54.3392 992.35 43.6992C992.01 35.2592 994.11 30.5093 998.59 29.5893C999.45 29.4193 1000.04 29.6993 1000.39 29.9693C1001.16 30.5793 1001.54 31.7093 1001.6 33.5293C1001.71 35.2693 1002.12 37.8893 1002.83 41.2893C1003.9 46.4393 1007.74 48.2593 1014.56 46.8393C1015.88 46.5693 1016.81 46.1493 1017.32 45.5993C1017.59 45.3093 1017.93 44.7993 1017.72 43.7893C1017.54 42.9393 1017.13 41.5893 1016.5 39.7793C1015.84 37.8993 1015.39 36.3992 1015.17 35.3292C1013.6 27.7792 1015.98 20.1693 1022.24 12.7093C1022.48 12.4193 1022.87 12.2992 1023.23 12.3892C1023.59 12.4792 1023.87 12.7692 1023.95 13.1392L1027.13 28.4492C1027.76 31.4892 1028.13 33.9993 1028.29 36.3793L1028.34 37.1093L1026.39 37.2493L1025.4 58.3393ZM497.19 37.9993C497.19 37.9993 497.15 37.9993 497.14 37.9993C497.16 37.9993 497.18 37.9993 497.19 37.9993Z" fill="white"/>
<path d="M791.38 98.1392C791.3 98.1392 791.23 98.1393 791.15 98.1093C790.62 97.9793 790.3 97.4493 790.43 96.9293C791.32 93.2593 793.93 84.0493 795.96 78.7793C796.44 77.4593 796.33 77.0493 796.26 76.9293C795.99 76.4893 794.3 76.2593 793.17 76.0993C791.8 75.9093 790.73 75.2993 790.01 74.2893C788.12 71.6393 789.1 66.7192 789.89 62.7592C789.99 62.0292 790.16 61.2193 790.33 60.4393C790.61 59.1693 790.99 57.4293 790.65 56.9293C790.63 56.8993 790.58 56.8293 790.36 56.7893C789.71 56.6693 787.45 58.1593 786.1 59.0393C784.24 60.2593 782.48 61.4193 781.15 61.5993C775.31 62.3893 768.89 62.2092 768.62 62.1992C742.73 61.3892 717.34 61.3992 695.92 61.5092C694.86 61.5092 693.7 61.5893 692.48 61.6793C687.63 62.0093 682.14 62.3793 678.68 58.5193C677.49 57.1893 676.94 56.1793 676.4 55.2093C675.99 54.4693 675.61 53.7693 674.94 52.9393C674.87 52.8793 674.67 52.7993 674.53 52.7893C674.51 52.8693 674.48 52.9993 674.46 53.0793C674.37 53.4893 674.31 54.0293 674.24 54.6293C673.94 57.0993 673.56 60.1692 671.47 61.1392C670.91 61.3992 670.24 61.4093 669.65 61.4193C669.43 61.4193 669.22 61.4192 669.04 61.4492C667.04 61.6892 665.05 62.1693 663.13 62.6293C656.18 64.2893 649.38 66.3892 641.84 68.7592C639.27 69.5892 635.41 72.7093 630.36 78.0493C625.52 83.1993 621.3 85.6992 617.46 85.6992C616.9 85.6992 615.6 85.4493 615.6 83.1093C615.6 79.4793 617.32 75.2593 620.71 70.5693C623.13 67.2093 625.58 64.6893 628.02 63.0393C626.77 62.7893 625.47 62.4093 624.11 61.8993C623.6 61.7093 623.35 61.1492 623.54 60.6392C623.73 60.1292 624.3 59.8793 624.8 60.0693C627.18 60.9693 629.36 61.4193 631.27 61.4193C631.74 61.4193 632.14 61.7493 632.23 62.2193C632.32 62.6893 632.06 63.1393 631.63 63.3093C628.59 64.5093 625.45 67.3393 622.3 71.7093C619.16 76.0693 617.56 79.8993 617.56 83.1093C617.56 83.4393 617.59 83.6393 617.62 83.7493C620.82 83.6693 624.62 81.3093 628.94 76.7093C634.3 71.0493 638.32 67.8393 641.25 66.8993C648.83 64.5193 655.66 62.4093 662.68 60.7293C664.66 60.2593 666.71 59.7693 668.82 59.5193C669.06 59.4893 669.34 59.4793 669.63 59.4793C669.97 59.4793 670.48 59.4693 670.66 59.3793C671.77 58.8693 672.09 56.1793 672.31 54.4093C672.39 53.7493 672.46 53.1592 672.56 52.6992C672.63 52.3592 672.74 51.8393 673.14 51.4093C673.5 51.0293 674.01 50.8393 674.59 50.8593C675.3 50.8893 676.08 51.2493 676.47 51.7393C677.25 52.7093 677.69 53.5193 678.12 54.2993C678.62 55.2193 679.1 56.0793 680.14 57.2493C682.96 60.3993 687.95 60.0592 692.35 59.7592C693.61 59.6692 694.79 59.5893 695.92 59.5893C717.36 59.4793 742.77 59.4693 768.69 60.2793C768.95 60.2793 775.22 60.4693 780.9 59.6893C781.79 59.5693 783.52 58.4293 785.04 57.4293C787.33 55.9293 789.3 54.6392 790.72 54.8892C791.58 55.0392 792.05 55.5093 792.29 55.8693C793.09 57.0693 792.69 58.9192 792.26 60.8892C792.1 61.6392 791.93 62.4093 791.83 63.1193C791.15 66.5793 790.22 71.2392 791.62 73.1992C792.02 73.7592 792.62 74.0892 793.45 74.1992C795.78 74.5192 797.25 74.7993 797.95 75.9593C798.58 77.0093 798.23 78.3392 797.8 79.5092C795.79 84.7192 793.22 93.7993 792.34 97.4293C792.23 97.8793 791.83 98.1793 791.39 98.1793L791.38 98.1392Z" fill="white"/>
<path d="M1090.99 37.9993C1075.93 37.9293 1055.1 37.8292 1027.2 37.7292C1026.66 37.7292 1026.22 37.2893 1026.22 36.7493C1026.22 36.2093 1026.66 35.7692 1027.2 35.7692C1055.1 35.8692 1075.93 35.9692 1090.99 36.0392" fill="white"/>
<path d="M743 0.539246H321.45V98.5392H743V0.539246Z" fill="#85B8B1"/>
<path d="M419.665 52.3392C419.665 55.0392 418.848 57.1559 417.215 58.6892C415.582 60.1892 413.332 60.9392 410.465 60.9392C407.532 60.9392 405.265 60.1892 403.665 58.6892C402.098 57.1892 401.315 55.0226 401.315 52.1892C401.315 50.4559 401.548 48.8226 402.015 47.2892C402.515 45.7226 403.182 44.3726 404.015 43.2392C404.848 42.0726 405.815 41.1559 406.915 40.4892C408.015 39.8226 409.198 39.4892 410.465 39.4892C411.765 39.4892 412.965 39.8226 414.065 40.4892C415.198 41.1559 416.165 42.0726 416.965 43.2392C417.798 44.3726 418.448 45.7226 418.915 47.2892C419.415 48.8559 419.665 50.5392 419.665 52.3392ZM415.365 52.4892C415.365 50.3892 414.898 48.6892 413.965 47.3892C413.032 46.0892 411.865 45.4392 410.465 45.4392C409.832 45.4392 409.215 45.5892 408.615 45.8892C408.048 46.1892 407.532 46.6059 407.065 47.1392C406.632 47.6392 406.282 48.2392 406.015 48.9392C405.748 49.6059 405.615 50.3392 405.615 51.1392C405.615 52.4726 406.048 53.4726 406.915 54.1392C407.782 54.8059 408.965 55.1392 410.465 55.1392C411.765 55.1392 412.898 54.8892 413.865 54.3892C414.865 53.8559 415.365 53.2226 415.365 52.4892ZM413.665 36.3392L410.465 33.0892L407.265 36.3392L403.515 32.5392L407.265 28.7392L410.465 31.9892L413.665 28.7392L417.415 32.5392L413.665 36.3392ZM420.923 65.4892C422.723 64.7892 424.39 64.0059 425.923 63.1392C427.457 62.3059 428.79 61.4392 429.923 60.5392C431.057 59.6392 431.94 58.7559 432.573 57.8892C433.207 57.0226 433.523 56.2059 433.523 55.4392C433.523 54.9392 433.39 54.2892 433.123 53.4892C432.89 52.6559 432.54 51.7392 432.073 50.7392C431.64 49.7392 431.123 48.6892 430.523 47.5892C429.957 46.4892 429.323 45.4059 428.623 44.3392L433.273 41.7392C434.74 43.7392 435.89 45.9059 436.723 48.2392C437.557 50.5726 437.973 52.7726 437.973 54.8392C437.973 58.1726 436.74 61.2059 434.273 63.9392C431.84 66.6726 428.39 68.8726 423.923 70.5392L420.923 65.4892ZM441.185 54.4892C441.985 54.6559 442.968 54.7892 444.135 54.8892C445.335 54.9892 446.435 55.0392 447.435 55.0392C448.268 55.0392 449.118 54.9892 449.985 54.8892C450.852 54.7892 451.635 54.6726 452.335 54.5392C453.068 54.3726 453.652 54.2059 454.085 54.0392C454.552 53.8392 454.785 53.6559 454.785 53.4892C454.785 52.8559 454.585 52.0892 454.185 51.1892C453.785 50.2892 453.235 49.3392 452.535 48.3392C451.835 47.3059 451.002 46.2559 450.035 45.1892C449.068 44.1226 448.018 43.0892 446.885 42.0892L450.885 38.2892C452.185 39.4559 453.352 40.6726 454.385 41.9392C455.418 43.2059 456.285 44.4892 456.985 45.7892C457.718 47.0892 458.268 48.3892 458.635 49.6892C459.035 50.9559 459.235 52.1892 459.235 53.3892C459.235 54.7559 459.018 55.9226 458.585 56.8892C458.152 57.8559 457.468 58.6392 456.535 59.2392C455.602 59.8392 454.385 60.2726 452.885 60.5392C451.385 60.8059 449.568 60.9392 447.435 60.9392C446.635 60.9392 445.768 60.9059 444.835 60.8392C443.935 60.7726 443.135 60.6726 442.435 60.5392L441.185 54.4892ZM473.177 60.5392C470.343 60.5392 468.16 59.9226 466.627 58.6892C465.093 57.4226 464.31 55.6226 464.277 53.2892L463.977 28.6392L469.077 27.7392L468.877 50.8892C468.877 52.2226 469.21 53.1892 469.877 53.7892C470.543 54.3559 471.643 54.6392 473.177 54.6392L473.977 55.1392V60.0392L473.177 60.5392ZM472.389 60.0392V55.1392L473.189 54.6392H477.189L477.989 55.1392V60.0392L477.189 60.5392H473.189L472.389 60.0392ZM476.393 60.0392V55.1392L477.193 54.6392H481.193L481.993 55.1392V60.0392L481.193 60.5392H477.193L476.393 60.0392ZM480.397 60.0392V55.1392L481.197 54.6392H485.197L485.997 55.1392V60.0392L485.197 60.5392H481.197L480.397 60.0392ZM484.401 60.0392V55.1392L485.201 54.6392H489.201L490.001 55.1392V60.0392L489.201 60.5392H485.201L484.401 60.0392ZM488.405 60.0392V55.1392L489.205 54.6392H493.205L494.005 55.1392V60.0392L493.205 60.5392H489.205L488.405 60.0392ZM492.409 60.0392V55.1392L493.209 54.6392H497.209L498.009 55.1392V60.0392L497.209 60.5392H493.209L492.409 60.0392ZM496.413 60.0392V55.1392L497.213 54.6392H501.213L502.013 55.1392V60.0392L501.213 60.5392H497.213L496.413 60.0392ZM517.767 60.5392C515.767 60.5392 514.133 60.2559 512.867 59.6892C511.633 59.1226 510.65 58.2726 509.917 57.1392C509.117 58.3059 507.917 59.1726 506.317 59.7392C504.75 60.2726 503.05 60.5392 501.217 60.5392L500.417 60.0392V55.1392L501.217 54.6392C503.383 54.6392 504.917 54.3726 505.817 53.8392C506.717 53.2726 507.25 52.5559 507.417 51.6892C507.483 51.2892 507.567 50.8392 507.667 50.3392C507.767 49.8059 507.85 49.2559 507.917 48.6892C508.017 48.1226 508.1 47.5726 508.167 47.0392C508.267 46.4726 508.35 45.9726 508.417 45.5392L512.717 46.0892C512.483 47.9226 512.317 49.2892 512.217 50.1892C512.15 51.0892 512.117 51.6226 512.117 51.7892C512.117 53.6892 514 54.6392 517.767 54.6392L518.567 55.1392V60.0392L517.767 60.5392ZM509.817 71.9892L506.067 68.1892L509.817 64.3892L513.567 68.1892L509.817 71.9892ZM526.22 61.2392C525.686 60.9726 525.203 60.7892 524.77 60.6892C524.37 60.5892 523.736 60.5392 522.87 60.5392H517.77L516.97 60.0392V55.1392L517.77 54.6392H523.67C523.436 53.9059 523.27 53.1559 523.17 52.3892C523.103 51.5892 523.07 50.7226 523.07 49.7892L522.87 28.6392L527.97 27.7392L527.72 51.0392C527.72 51.8059 527.77 52.4726 527.87 53.0392C527.97 53.5726 528.186 54.0726 528.52 54.5392C528.853 54.9726 529.303 55.3892 529.87 55.7892C530.47 56.1892 531.22 56.6059 532.12 57.0392L533.72 57.7892L530.67 63.6892L526.22 61.2392ZM536.647 60.5392L536.297 28.6392L541.397 27.7392L541.097 60.5392H536.647ZM585.964 49.7892C584.597 50.7892 582.964 51.2892 581.064 51.2892C578.797 51.2892 576.997 50.6226 575.664 49.2892C574.331 47.9226 573.664 46.0226 573.664 43.5892C573.664 42.2226 573.864 40.9392 574.264 39.7392C574.697 38.5392 575.281 37.4892 576.014 36.5892C576.747 35.6892 577.597 34.9892 578.564 34.4892C579.564 33.9559 580.631 33.6892 581.764 33.6892C583.197 33.6892 584.431 34.0726 585.464 34.8392C586.531 35.6059 587.414 36.7059 588.114 38.1392C588.814 39.5726 589.331 41.3392 589.664 43.4392C590.031 45.5059 590.214 47.8559 590.214 50.4892C590.214 52.8892 589.864 54.7559 589.164 56.0892C588.497 57.4226 587.381 58.4226 585.814 59.0892C584.481 59.6559 582.747 60.1059 580.614 60.4392C578.481 60.7726 575.931 60.9392 572.964 60.9392C566.897 60.9392 562.464 60.1559 559.664 58.5892C556.897 57.0226 555.514 54.5392 555.514 51.1392C555.514 49.6392 555.781 48.0226 556.314 46.2892C556.881 44.5226 557.647 42.8559 558.614 41.2892L561.964 42.8892C561.464 43.9892 561.064 45.0892 560.764 46.1892C560.497 47.2559 560.364 48.1892 560.364 48.9892C560.364 51.1226 561.331 52.6559 563.264 53.5892C565.231 54.4892 568.464 54.9392 572.964 54.9392C574.797 54.9392 576.514 54.9059 578.114 54.8392C579.714 54.7392 581.081 54.6059 582.214 54.4392C583.381 54.2726 584.297 54.0726 584.964 53.8392C585.631 53.5726 585.964 53.2559 585.964 52.8892V49.7892ZM581.664 46.5892C583.331 46.5892 584.697 46.2392 585.764 45.5392C585.531 43.3392 585.097 41.7059 584.464 40.6392C583.831 39.5392 582.881 38.9892 581.614 38.9892C580.481 38.9892 579.531 39.4059 578.764 40.2392C577.997 41.0392 577.614 42.0726 577.614 43.3392C577.614 44.3726 577.964 45.1726 578.664 45.7392C579.364 46.3059 580.364 46.5892 581.664 46.5892ZM581.764 30.5892L578.014 26.7892L581.764 22.9892L585.514 26.7892L581.764 30.5892ZM596.071 60.5392L595.721 28.6392L600.821 27.7392L600.521 60.5392H596.071ZM628.005 60.5392C625.238 60.5392 623.055 59.8059 621.455 58.3392C620.588 59.2726 619.338 59.9392 617.705 60.3392C616.071 60.7392 613.905 60.9392 611.205 60.9392C610.405 60.9392 609.538 60.9059 608.605 60.8392C607.705 60.7726 606.905 60.6726 606.205 60.5392L604.955 54.4892C605.755 54.6559 606.738 54.7892 607.905 54.8892C609.105 54.9892 610.205 55.0392 611.205 55.0392C612.571 55.0392 613.921 54.9392 615.255 54.7392C616.588 54.5059 617.688 54.2226 618.555 53.8892C618.188 53.1559 617.821 52.3726 617.455 51.5392C617.121 50.7059 616.738 49.7726 616.305 48.7392C615.871 47.6726 615.405 46.4892 614.905 45.1892C614.405 43.8892 613.855 42.3892 613.255 40.6892L618.105 38.3892C618.771 40.3226 619.488 42.3392 620.255 44.4392C621.055 46.5392 621.988 48.9226 623.055 51.5892C623.288 52.1892 623.538 52.6892 623.805 53.0892C624.105 53.4892 624.438 53.8059 624.805 54.0392C625.171 54.2726 625.605 54.4392 626.105 54.5392C626.638 54.6059 627.271 54.6392 628.005 54.6392L628.805 55.1392V60.0392L628.005 60.5392ZM645.323 49.3892C645.323 50.4559 645.19 51.4226 644.923 52.2892C644.657 53.1226 644.223 53.9059 643.623 54.6392C643.89 54.6726 644.157 54.6892 644.423 54.6892C644.723 54.6892 645.023 54.6892 645.323 54.6892C646.357 54.6892 647.207 54.6059 647.873 54.4392C648.573 54.2726 649.107 54.0892 649.473 53.8892C649.873 53.6559 650.14 53.4059 650.273 53.1392C650.44 52.8726 650.523 52.6392 650.523 52.4392C650.523 51.4392 650.307 50.3059 649.873 49.0392C649.473 47.7392 648.79 46.4226 647.823 45.0892C646.857 43.7559 645.59 42.4892 644.023 41.2892C642.49 40.0559 640.573 39.0392 638.273 38.2392L640.473 33.3392C642.84 34.2726 644.923 35.4226 646.723 36.7892C648.523 38.1559 650.023 39.6559 651.223 41.2892C652.423 42.9226 653.323 44.6392 653.923 46.4392C654.523 48.2392 654.823 50.0226 654.823 51.7892C654.823 53.3559 654.557 54.6892 654.023 55.7892C653.523 56.8892 652.84 57.7892 651.973 58.4892C651.107 59.1892 650.123 59.7059 649.023 60.0392C647.923 60.3726 646.773 60.5392 645.573 60.5392C644.207 60.5392 642.857 60.3726 641.523 60.0392C640.19 59.6726 638.923 59.2059 637.723 58.6392C636.223 59.2059 634.607 59.6726 632.873 60.0392C631.14 60.3726 629.523 60.5392 628.023 60.5392L627.223 60.0392V55.1392L628.023 54.6392C628.79 54.6392 629.507 54.6392 630.173 54.6392C630.84 54.6392 631.473 54.6059 632.073 54.5392C631.507 53.8059 631.107 53.0226 630.873 52.1892C630.64 51.3559 630.523 50.4226 630.523 49.3892C630.523 48.2559 630.707 47.1892 631.073 46.1892C631.44 45.1559 631.94 44.2559 632.573 43.4892C633.24 42.6892 634.023 42.0559 634.923 41.5892C635.857 41.1226 636.857 40.8892 637.923 40.8892C638.99 40.8892 639.973 41.1226 640.873 41.5892C641.807 42.0559 642.59 42.6892 643.223 43.4892C643.89 44.2559 644.407 45.1559 644.773 46.1892C645.14 47.1892 645.323 48.2559 645.323 49.3892ZM634.423 49.3892C634.423 50.2559 634.74 51.0392 635.373 51.7392C636.007 52.4059 636.873 52.9726 637.973 53.4392C639.273 52.9726 640.173 52.3892 640.673 51.6892C641.173 50.9892 641.423 50.2226 641.423 49.3892C641.423 48.5226 641.107 47.7226 640.473 46.9892C639.873 46.2559 639.023 45.8892 637.923 45.8892C636.823 45.8892 635.957 46.2559 635.323 46.9892C634.723 47.7226 634.423 48.5226 634.423 49.3892ZM660.084 60.5392L659.734 28.6392L664.834 27.7392L664.534 60.5392H660.084ZM666.484 23.1892C664.984 23.2892 663.584 23.4726 662.284 23.7392C661.018 23.9726 659.768 24.2726 658.534 24.6392L657.684 22.5892C658.584 22.2226 659.401 21.9226 660.134 21.6892C659.034 21.0559 658.484 20.1059 658.484 18.8392C658.484 18.3059 658.584 17.7892 658.784 17.2892C659.018 16.7892 659.318 16.3559 659.684 15.9892C660.084 15.5892 660.534 15.2892 661.034 15.0892C661.534 14.8559 662.084 14.7392 662.684 14.7392C663.918 14.7392 664.968 15.2226 665.834 16.1892L664.584 17.8392C664.318 17.7059 664.034 17.6059 663.734 17.5392C663.468 17.4392 663.184 17.3892 662.884 17.3892C662.284 17.3892 661.801 17.5392 661.434 17.8392C661.068 18.1392 660.884 18.5059 660.884 18.9392C660.884 19.4059 661.134 19.7892 661.634 20.0892C662.168 20.3892 662.868 20.6059 663.734 20.7392C664.301 20.6392 664.834 20.5559 665.334 20.4892C665.868 20.4226 666.384 20.3726 666.884 20.3392L666.484 23.1892Z" fill="white"/>
</svg>
