<svg width="1080" height="170" viewBox="0 0 1080 170" fill="none" xmlns="http://www.w3.org/2000/svg">
<path d="M107.83 99.26C107.83 99.26 107.82 99.26 107.81 99.26C104.09 99.19 99.0298 99.06 96.8998 99.01L95.9098 98.99C94.0398 98.92 92.2598 98.47 90.5798 97.65C90.0098 97.37 89.4498 97.09 88.9098 96.81C88.3498 96.53 87.8698 96.3 87.3998 96.07C86.3998 95.59 85.4498 95.14 84.5598 94.59C82.9198 93.57 81.6598 92.7 80.5698 91.86C79.4198 90.97 78.4598 90.02 77.6098 89.17L77.0198 88.58C76.6998 88.27 76.3898 87.97 76.0898 87.69C75.1498 86.8 74.2698 85.95 73.6098 85.11C72.1198 83.19 72.0198 83.04 71.5298 81.82C71.4198 81.56 71.2998 81.24 71.1198 80.82C70.9098 80.33 71.1398 79.76 71.6298 79.55C72.1198 79.34 72.6898 79.57 72.8998 80.06C73.0898 80.49 73.2198 80.82 73.3298 81.09C73.7398 82.1 73.7498 82.12 75.1498 83.92C75.7198 84.65 76.5198 85.41 77.4398 86.29C77.7498 86.58 78.0598 86.88 78.3798 87.2L78.9898 87.8C79.8398 88.64 80.7198 89.52 81.7698 90.33C82.7998 91.13 84.0198 91.96 85.5998 92.95C86.3898 93.45 87.2898 93.87 88.2498 94.33C88.7398 94.56 89.2398 94.8 89.7398 95.05C90.3498 95.36 90.8998 95.64 91.4598 95.91C92.8898 96.61 94.4098 96.99 95.9798 97.05C95.9798 97.05 96.3498 97.05 96.9698 97.07C99.0898 97.12 104.15 97.26 107.86 97.33C108.39 97.33 108.82 97.78 108.81 98.31C108.81 98.84 108.37 99.26 107.85 99.26H107.83Z" fill="white"/>
<path d="M86.1799 72.7103H81.3099C79.9899 72.7103 79.3299 72.5602 78.6799 72.4302C78.0999 72.3102 77.5599 72.2003 76.4399 72.2003C75.3199 72.2003 74.7399 72.2902 74.1499 72.3802C73.5199 72.4802 72.8599 72.5803 71.5699 72.5803C70.3599 72.5803 69.7599 72.5902 69.1599 72.6102C68.5499 72.6202 67.9299 72.6403 66.6999 72.6403C65.4699 72.6403 64.8799 72.6403 64.2699 72.6403C63.6599 72.6403 63.0499 72.6403 61.8299 72.6403C61.2999 72.6403 60.8599 72.2102 60.8599 71.6702C60.8599 71.1302 61.2899 70.7003 61.8299 70.7003C63.0399 70.7003 63.6499 70.7003 64.2599 70.7003C64.8699 70.7003 65.4799 70.7003 66.6999 70.7003C67.9199 70.7003 68.5099 70.6903 69.1099 70.6703C69.7199 70.6603 70.3399 70.6403 71.5699 70.6403C72.7099 70.6403 73.2699 70.5502 73.8599 70.4602C74.4899 70.3602 75.1499 70.2603 76.4399 70.2603C77.7299 70.2603 78.4199 70.4002 79.0699 70.5302C79.6499 70.6502 80.1899 70.7603 81.3099 70.7603H86.1799C87.3599 70.7603 87.9299 70.7203 88.5399 70.6703C89.1599 70.6203 89.7999 70.5703 91.0599 70.5703C92.3199 70.5703 92.8999 70.5702 93.5099 70.5802C94.1199 70.5802 94.7199 70.5902 95.9399 70.5902C96.4699 70.5902 96.9099 71.0202 96.9099 71.5602C96.9099 72.1002 96.4799 72.5303 95.9399 72.5303C94.7199 72.5303 94.0999 72.5303 93.4899 72.5203C92.8799 72.5203 92.2799 72.5103 91.0599 72.5103C89.8399 72.5103 89.3099 72.5602 88.6999 72.6102C88.0799 72.6602 87.4399 72.7103 86.1799 72.7103Z" fill="white"/>
<path d="M78.9399 72.5003C78.4099 72.5003 77.9699 72.0703 77.9699 71.5303C77.9699 69.9203 77.9499 69.1103 77.9299 68.3103C77.9099 67.4903 77.8899 66.6803 77.8899 65.0403C77.8899 64.5103 78.3199 64.0703 78.8599 64.0703C79.3999 64.0703 79.8299 64.5003 79.8299 65.0403C79.8299 66.6503 79.8499 67.4603 79.8699 68.2603C79.8899 69.0803 79.9099 69.8903 79.9099 71.5303C79.9099 72.0603 79.4799 72.5003 78.9399 72.5003Z" fill="white"/>
<path d="M63.7099 98.8101C63.3099 98.8101 62.9399 98.5601 62.7999 98.1701C62.6199 97.6701 62.8799 97.1201 63.3899 96.9401C63.8999 96.7601 64.4099 96.5901 64.9199 96.4201C66.1299 96.0201 67.2799 95.6401 68.3099 95.1301C69.4299 94.5701 70.4399 93.8501 71.4099 93.1501C71.8299 92.8501 72.2499 92.5501 72.6699 92.2601L73.5899 91.6501C74.7999 90.8501 75.9299 90.0901 76.8899 89.2301C78.1799 88.0601 79.3899 86.8001 80.4799 85.4701C81.6399 84.0601 82.5299 82.6301 83.4099 81.1701C84.4299 79.4801 85.1099 77.8301 85.6599 76.5101C86.1799 75.2601 86.5499 74.6001 86.8199 74.1201C87.1999 73.4501 87.3499 73.1701 87.5899 71.7401C87.6799 71.2101 88.1699 70.8601 88.6999 70.9501C89.2299 71.0401 89.5799 71.5301 89.4899 72.0601C89.2099 73.7501 88.9699 74.2201 88.4999 75.0601C88.2399 75.5201 87.9199 76.1001 87.4399 77.2401C86.8699 78.6301 86.1499 80.3501 85.0599 82.1601C84.1799 83.6201 83.2199 85.1801 81.9699 86.6901C80.8199 88.0901 79.5399 89.4201 78.1799 90.6501C77.1199 91.6101 75.9199 92.4101 74.6499 93.2501L73.7399 93.8601C73.3399 94.1301 72.9399 94.4201 72.5299 94.7101C71.4899 95.4601 70.4199 96.2301 69.1599 96.8601C68.0099 97.4301 66.7999 97.8301 65.5199 98.2601C65.0299 98.4201 64.5299 98.5901 64.0299 98.7701C63.9199 98.8101 63.8099 98.8301 63.7099 98.8301V98.8101Z" fill="white"/>
<path d="M196.68 77.3998C191.52 77.3998 182.88 77.3598 169.89 77.2898C155.04 77.2198 134.5 77.1198 106.99 77.0198C106.46 77.0198 106.03 76.5798 106.03 76.0498C106.03 75.5198 106.46 75.0898 107 75.0898C134.51 75.1898 155.05 75.2898 169.9 75.3598C182.88 75.4198 191.52 75.4598 196.68 75.4598C199.9 75.4598 219.45 75.4398 221.96 75.4098C222.5 75.3498 222.93 75.8298 222.94 76.3598C222.94 76.8898 222.52 77.3298 221.99 77.3398C219.47 77.3698 199.9 77.3898 196.68 77.3898V77.3998Z" fill="white"/>
<path d="M486.85 126.15C482.35 126.15 470.67 125.96 439.93 125.14C439.49 125.13 439.12 124.82 439.02 124.39C438.92 123.96 439.12 123.52 439.51 123.32C440.02 123.05 452.11 116.8 468.89 118.1C478.62 118.86 483.2 119.67 485.08 120.09L489.19 90.7802C489.26 90.2502 489.75 89.8902 490.28 89.9602C490.81 90.0302 491.18 90.5201 491.1 91.0501L486.84 121.42C486.8 121.7 486.63 121.96 486.39 122.11C486.14 122.26 485.84 122.29 485.57 122.2C485.54 122.2 482 121.06 468.74 120.02C458.14 119.19 449.33 121.56 444.47 123.32C462.06 123.78 484.92 124.31 488.71 124.23C489.28 121.88 490.52 111.54 491.46 102.25C491.51 101.76 491.93 101.38 492.42 101.38L497.29 101.41C497.56 101.41 497.82 101.54 498 101.74C498.18 101.95 498.26 102.22 498.23 102.49C497.47 108.89 496.79 115.96 496.81 118.16C497.25 118.15 497.76 118.13 498.17 118.12L500.74 97.6201C500.8 97.1401 501.21 96.7702 501.7 96.7702H501.72C504.08 96.8202 512.02 96.8702 517.27 96.9002L520.33 96.9201L557.25 96.7901C575.58 96.8801 597.32 97.1202 605.81 97.2102C606.6 97.2102 607.75 94.1801 608.36 92.5501C609.4 89.8001 610.21 87.6301 611.82 87.4801C613.13 87.3601 613.94 88.7201 614.2 89.1601C614.44 89.5601 614.62 89.9801 614.81 90.4301C615.31 91.6101 615.82 92.8302 617.64 94.0802C619.23 95.1702 620.89 95.8002 622.49 96.4002L622.73 96.4901C623.23 96.6801 623.48 97.2401 623.29 97.7301C623.1 98.2301 622.54 98.4801 622.05 98.2901L621.81 98.2002C620.18 97.5802 618.32 96.8901 616.54 95.6601C614.25 94.0901 613.54 92.4001 613.02 91.1701C612.85 90.7701 612.71 90.4302 612.54 90.1402C612.25 89.6602 612.06 89.4801 611.97 89.4101C611.45 89.7901 610.64 91.9202 610.16 93.2102C609.02 96.2502 607.93 99.1201 605.81 99.1201H605.78C597.29 99.0201 575.56 98.7902 557.24 98.7002L520.32 98.8302L517.26 98.8101C512.52 98.7801 505.61 98.7401 502.55 98.6901L499.99 119.15C499.93 119.62 499.54 119.98 499.07 119.99C499.07 119.99 496.79 120.07 496.03 120.07C495.75 120.07 495.45 119.93 495.26 119.72C494.95 119.37 494.38 118.73 496.19 103.28H495.91H493.3C491.02 125.47 490.41 125.73 489.76 126C489.66 126.04 489.51 126.11 486.85 126.11V126.15Z" fill="white"/>
<path d="M242.03 132.78C235 132.78 229.36 130.95 225.27 127.35C220.98 123.5 218.81 118.02 218.81 111.05C218.81 108.17 219.11 105.23 219.71 102.32C219.82 101.8 220.33 101.47 220.85 101.57C221.37 101.68 221.71 102.19 221.6 102.71C221.03 105.49 220.74 108.3 220.74 111.05C220.74 117.45 222.7 122.45 226.56 125.91C230.29 129.19 235.5 130.86 242.04 130.86C251.51 130.86 259.57 127.95 266.02 122.21C270.79 117.94 274.23 111.99 275.95 105.01C276.44 103.02 276.51 100.66 276.59 98.15C276.73 93.77 276.87 89.25 279.3 86.06C279.47 85.83 279.74 85.69 280.02 85.68C280.3 85.67 280.58 85.78 280.77 85.99C282.32 87.67 283.24 89.62 284.05 91.33C285.53 94.45 286.69 96.92 290.9 97.42C299.52 98.46 312.39 98.05 323.74 97.68C329.02 97.51 333.99 97.37 338.1 97.35C349.63 97.35 359.59 97.21 370.17 97.05C375.82 96.97 381.6 96.88 387.8 96.82C388.05 96.8 388.34 96.93 388.53 97.14C388.723 97.3534 388.43 101.337 387.65 109.09L386.53 120.3L386.15 123C399.2 123.22 429.72 123.7 430.91 123.63C431.33 123.59 431.73 123.56 431.73 120.96C431.73 119.46 430.58 117.85 422.05 117.22C416.22 116.79 410.76 118.63 406.78 119.98C405.96 120.26 405.22 120.51 404.56 120.71C400.62 121.91 390.69 121.91 390.28 121.91C390.01 121.91 389.74 121.79 389.56 121.59C389.38 121.38 389.29 121.11 389.32 120.84L392.73 91.45C392.79 90.92 393.27 90.54 393.8 90.6C394.33 90.66 394.71 91.14 394.65 91.67L391.37 119.98C394.06 119.95 401.06 119.77 404 118.87C404.64 118.67 405.37 118.43 406.17 118.16C410.07 116.84 415.97 114.85 422.2 115.31C428.16 115.75 433.67 116.74 433.67 120.97C433.67 123.18 433.47 125.35 431.08 125.56C429.89 125.67 389.62 125 385.03 124.92C384.75 124.92 384.49 124.79 384.31 124.58C384.13 124.37 384.05 124.09 384.09 123.82L384.62 120.08C384.62 120.08 386.31 103.23 386.75 98.78C380.96 98.84 375.53 98.92 370.21 99C359.63 99.16 349.62 99.29 338.11 99.3H338.03C333.99 99.3 329.04 99.46 323.81 99.63C312.39 100 299.45 100.41 290.68 99.36C285.41 98.72 283.84 95.4 282.32 92.18C281.7 90.87 281.07 89.53 280.17 88.31C278.75 90.98 278.64 94.66 278.53 98.24C278.45 100.73 278.37 103.31 277.83 105.5C276.02 112.86 272.38 119.15 267.31 123.68C260.5 129.74 252 132.82 242.04 132.82L242.03 132.78ZM221.98 77.35C221.47 77.35 221.04 76.95 221.02 76.43C220.99 75.9 221.4 75.44 221.93 75.42C233.21 74.84 234.83 72.81 242.64 63.03L243.8 61.58C245.21 59.81 248.4 54.66 249.57 52.74L241.52 46.49L235.6 54.72L239.66 57.57C240.1 57.88 240.2 58.48 239.9 58.91C239.6 59.34 238.99 59.45 238.56 59.15L233.71 55.74C233.71 55.74 233.71 55.74 233.7 55.74C233.7 55.74 233.68 55.73 233.67 55.72C233.59 55.66 233.52 55.58 233.47 55.5C233.41 55.4 233.36 55.29 233.33 55.18C233.3 55.02 233.3 54.86 233.35 54.7C233.37 54.62 233.41 54.55 233.45 54.48C233.45 54.47 233.46 54.46 233.47 54.45C233.47 54.45 233.47 54.45 233.47 54.44L240.55 44.61C240.7 44.4 240.94 44.26 241.2 44.22C241.46 44.18 241.72 44.25 241.93 44.41L251.45 51.81C251.84 52.11 251.94 52.65 251.68 53.07C251.5 53.38 247.14 60.57 245.31 62.85L244.15 64.3C236.29 74.14 234.18 76.78 222.03 77.41C222.01 77.41 222 77.41 221.98 77.41V77.35Z" fill="white"/>
<path d="M56.2199 126.45C55.2099 126.45 54.2399 126.26 53.3599 125.86C51.7199 125.11 48.1399 122.49 50.2299 114.37C51.1699 110.71 51.7299 106.85 51.9399 102.55C51.9699 102.02 52.3899 101.61 52.9499 101.63C53.4799 101.66 53.8899 102.11 53.8699 102.64C53.6599 107.07 53.0799 111.07 52.1099 114.85C50.8899 119.58 51.6399 122.95 54.1699 124.11C56.8399 125.33 60.8799 123.8 62.9799 120.77C65.4199 117.24 65.2499 114.12 64.2599 112.38C63.5399 111.11 62.3499 110.43 60.9999 110.51C60.0199 110.57 59.1799 111.12 58.6899 112.01C57.9499 113.35 58.1299 115.22 59.1799 117.14C59.4399 117.61 59.2599 118.19 58.7999 118.45C58.3299 118.71 57.7499 118.53 57.4899 118.07C56.1099 115.56 55.9399 113.01 56.9999 111.08C57.7999 109.62 59.2599 108.69 60.8799 108.59C62.9699 108.46 64.8599 109.53 65.9399 111.44C67.2099 113.69 67.5099 117.62 64.5599 121.88C62.5699 124.74 59.2499 126.47 56.2199 126.47V126.45Z" fill="white"/>
<path d="M52.8999 103.55C52.8999 103.55 52.8699 103.55 52.8499 103.55C52.3199 103.52 51.9099 103.07 51.9299 102.54C51.9899 101.32 52.0199 100.05 52.0199 98.7704C52.0199 98.6104 51.9699 98.5003 51.8499 98.3803C50.8499 97.4003 47.0299 97.4804 44.4899 97.5304C43.6199 97.5504 42.8199 97.5603 42.1499 97.5503L41.1799 97.5304C39.3899 97.4904 37.5899 97.4403 35.7999 97.4203C34.1099 97.4003 -1.51009 97.4203 -1.87009 97.4203C-2.40009 97.4203 -2.83009 96.9904 -2.84009 96.4604C-2.84009 95.9304 -2.41009 95.4903 -1.88009 95.4903C-0.410088 95.4903 34.1099 95.4703 35.8099 95.4903C37.6099 95.5103 39.4099 95.5603 41.2099 95.6003L42.1799 95.6203C42.8299 95.6303 43.5999 95.6203 44.4399 95.6003C47.7999 95.5303 51.6099 95.4603 53.1799 97.0003C53.6699 97.4803 53.9299 98.0904 53.9299 98.7704C53.9299 100.08 53.8999 101.39 53.8399 102.64C53.8199 103.16 53.3899 103.56 52.8799 103.56L52.8999 103.55Z" fill="white"/>
<path d="M112.24 126.47C111.71 126.47 111.27 126.04 111.27 125.5C111.27 124.96 111.7 124.53 112.24 124.53C115.23 124.53 116.24 123.02 117.34 120.89C119.23 117.23 119.66 114.06 118.52 112.19C117.67 110.79 116.11 110.49 114.95 110.49C114.42 110.49 113.98 110.06 113.98 109.52C113.98 108.98 114.41 108.55 114.95 108.55C117.29 108.55 119.14 109.48 120.17 111.17C121.69 113.66 121.29 117.42 119.06 121.76C117.84 124.13 116.3 126.45 112.25 126.45L112.24 126.47Z" fill="white"/>
<path d="M46.4499 76.1404C45.8999 76.1404 45.3499 76.1304 44.7999 76.1204L43.2999 76.1004C40.0799 76.0504 36.7599 76.0004 33.4899 76.0704C31.9999 76.1004 -0.480068 76.0404 -1.86007 76.0304C-2.39007 76.0304 -2.82007 75.6004 -2.82007 75.0604C-2.82007 74.5204 -2.39007 74.1004 -1.85007 74.1004C-1.71007 74.1004 20.4199 74.1404 29.5999 74.1404C31.7499 74.1404 33.1799 74.1404 33.4599 74.1404C36.7599 74.0704 40.1099 74.1204 43.3399 74.1704L44.8499 74.1904C47.4899 74.2404 50.2199 74.2903 51.3799 73.1603C51.8199 72.7303 52.0399 72.1004 52.0399 71.2404V59.7504C52.0199 54.9404 49.4499 52.4304 47.0599 51.6904C44.6199 50.9304 42.0799 51.8304 40.5899 53.9704C37.9499 57.7804 38.1899 63.2704 39.9499 66.3904C40.3799 67.1604 41.3099 68.4504 42.5699 68.3704C44.6399 68.2404 46.2499 65.0504 46.4399 62.1504C46.4799 61.6204 46.9399 61.2204 47.4699 61.2504C47.9999 61.2904 48.3999 61.7504 48.3699 62.2804C48.1199 66.0104 46.0399 70.0904 42.6899 70.3004C40.9799 70.3904 39.4099 69.3604 38.2699 67.3404C36.2199 63.7004 35.9399 57.3004 39.0099 52.8704C40.9899 50.0204 44.3699 48.8304 47.6399 49.8504C50.6799 50.7904 53.9499 53.8904 53.9799 59.7504V71.2404C53.9799 72.6304 53.5599 73.7404 52.7399 74.5404C51.3199 75.9304 48.9499 76.1504 46.4799 76.1504L46.4499 76.1404Z" fill="white"/>
<path d="M47.3898 63.1802C47.3898 63.1802 47.3498 63.1802 47.3198 63.1802C46.7898 63.1402 46.3898 62.6802 46.4198 62.1502C46.5298 60.5602 46.2098 59.2702 45.5798 58.6802C45.2498 58.3702 44.8198 58.2602 44.2498 58.3502C43.7198 58.4202 43.2298 58.0602 43.1598 57.5302C43.0798 57.0002 43.4498 56.5102 43.9798 56.4402C45.1198 56.2802 46.1298 56.5602 46.8898 57.2702C47.9798 58.2802 48.4998 60.0602 48.3398 62.2902C48.3098 62.8002 47.8798 63.1902 47.3798 63.1902L47.3898 63.1802Z" fill="white"/>
<path d="M107 90.4503C106.47 90.4503 106.03 90.0202 106.03 89.4802V59.7402C106 54.0302 102.25 51.4203 98.78 51.4203C98.58 51.4103 86.85 50.4103 75.85 51.4203C68.35 52.1003 46.44 51.4503 45.51 51.4203C44.98 51.4003 44.56 50.9602 44.57 50.4302C44.59 49.9002 45.05 49.4702 45.56 49.4902C45.79 49.4902 68.28 50.1702 75.66 49.4902C86.84 48.4702 98.73 49.4802 98.85 49.4902C103.3 49.4902 107.91 53.0103 107.94 59.7303V89.4802C107.94 90.0102 107.51 90.4503 106.97 90.4503H107Z" fill="white"/>
<path d="M98.7798 126.74C95.1298 126.74 91.2598 126.67 87.8798 126.46C77.4798 125.81 57.0698 126.45 56.8698 126.46C56.3598 126.49 55.8898 126.06 55.8698 125.53C55.8498 125 56.2698 124.55 56.7998 124.53C57.0098 124.53 77.4998 123.89 87.9898 124.54C97.9098 125.16 112.05 124.55 112.19 124.54C112.74 124.52 113.17 124.93 113.2 125.46C113.22 125.99 112.81 126.44 112.28 126.47C112.19 126.47 105.92 126.74 98.7798 126.74Z" fill="white"/>
<path d="M114.95 110.51H60.94C60.41 110.51 59.97 110.08 59.97 109.54C59.97 109 60.4 108.57 60.94 108.57H114.95C115.48 108.57 115.92 109 115.92 109.54C115.92 110.08 115.49 110.51 114.95 110.51Z" fill="white"/>
<path d="M52.9899 70.3004H42.6199C42.0899 70.3004 41.6499 69.8704 41.6499 69.3304C41.6499 68.7904 42.0799 68.3604 42.6199 68.3604H52.9899C53.5199 68.3604 53.9599 68.7904 53.9599 69.3304C53.9599 69.8704 53.5299 70.3004 52.9899 70.3004Z" fill="white"/>
<path d="M111.34 99.3001C110.55 99.3001 109.29 99.2801 107.82 99.2501C107.29 99.2501 106.86 98.8001 106.87 98.2701C106.87 97.7401 107.31 97.3201 107.83 97.3201C107.83 97.3201 107.84 97.3201 107.85 97.3201C109.3 97.3501 110.55 97.3601 111.34 97.3601C129.91 97.3601 160.33 97.2201 180.78 97.0801C183.67 97.0601 185.93 97.1001 187.92 97.1301C192.89 97.2101 196.18 97.2601 203.41 96.3001C204.02 96.2201 204.75 96.1401 205.58 96.0401C210.86 95.4401 221.85 94.1801 223.95 90.1201C225.68 86.7901 227.02 85.3201 228.42 85.2101C228.95 85.1801 229.42 85.5701 229.46 86.1001C229.5 86.6301 229.1 87.1001 228.57 87.1401C228.41 87.1501 227.54 87.4001 225.66 91.0201C223.08 95.9901 212.26 97.2301 205.79 97.9701C204.98 98.0601 204.26 98.1501 203.66 98.2201C196.28 99.2001 192.94 99.1501 187.88 99.0701C185.9 99.0401 183.65 99.0001 180.78 99.0201C160.33 99.1601 129.91 99.3001 111.33 99.3001H111.34Z" fill="white"/>
<path d="M1017.76 94.8301C1015.12 99.9601 1011.9 102.54 1007.06 103.55C1002.75 104.44 998.36 104.31 993.99 103.14C988.67 111.67 982.43 116.73 975.44 118.18C970.66 119.17 966.73 118.63 963.76 116.56C960.8 114.5 958.78 110.92 957.74 105.91L957.7 105.74C957.38 104.2 957.02 102.46 957.1 100.44C957.25 96.8401 956.66 94.1801 955.95 93.3601C955.74 93.7301 955.48 94.4001 955.3 94.8901C954.72 96.4001 954.07 98.11 952.74 98.6C949.5 99.81 944.08 99.2101 939.3 98.6801C937.2 98.4501 935.22 98.2301 933.74 98.2101C924.74 98.0801 916.45 98.0501 908.41 98.1101C890.07 98.2401 873.53 98.8501 857.83 99.9601C850.66 100.47 843.63 100.92 836.59 100.84C832.73 100.8 830.67 97.44 829.16 94.98C828.48 93.87 827.83 92.82 827.24 92.41C826.13 91.64 823.61 94.5501 822.66 95.6501L822.23 96.1401C816.11 102.98 809.92 107.83 803.85 110.54C802.05 111.36 799.32 112.62 797.83 111.17C796.63 110.01 796.83 107.74 798.47 103.81C799.12 102.26 801.36 97.9901 801.45 97.8001C802.73 95.3701 804.12 92.9501 805.56 90.5901C813.94 76.9101 824.17 65.1901 831.28 57.7701C831.71 57.3301 832.45 57.3801 832.8 57.9401C833.04 58.3201 832.95 58.8101 832.65 59.1301C825.6 66.4901 815.48 78.09 807.21 91.6C805.79 93.92 804.42 96.3101 803.16 98.7001C803.14 98.7401 800.86 103.08 800.25 104.55C798.41 108.97 799.14 109.75 799.17 109.78C799.53 110.13 800.84 109.79 803.06 108.78C808.89 106.18 814.85 101.49 820.79 94.85L821.2 94.3901C822.81 92.5301 825.8 89.0801 828.34 90.8301C829.26 91.4701 829.97 92.63 830.8 93.97C832.21 96.27 833.81 98.88 836.61 98.91C843.58 98.98 850.57 98.5401 857.7 98.0301C873.44 96.9201 890.03 96.3101 908.41 96.1801C916.46 96.1201 924.76 96.1601 933.78 96.2801C935.35 96.3001 937.38 96.5301 939.52 96.7601C943.86 97.2401 949.26 97.84 952.07 96.79C952.58 96.6 953.15 95.0901 953.5 94.2001C954.03 92.8001 954.46 91.7001 955.37 91.3601C955.78 91.2101 956.22 91.2501 956.63 91.4601C959.15 92.8201 959.1 98.7401 959.03 100.52C958.96 102.3 959.29 103.92 959.59 105.35L959.63 105.52C960.57 110.03 962.33 113.21 964.87 114.98C967.39 116.73 970.82 117.18 975.06 116.3C981.68 114.93 987.62 109.96 992.74 101.53C992.97 101.16 993.42 100.98 993.84 101.1C998.13 102.36 1002.45 102.55 1006.68 101.67C1010.53 100.87 1012.9 99.1701 1015.09 95.4301C1015.21 95.2201 1015.48 95.1401 1015.69 95.2501L1016.56 95.6901M1017.76 94.8301L1018.68 74.0201L1018.63 73.3001C1018.48 71.0501 1018.13 68.6501 1017.52 65.7401L1014.8 52.6501C1009.98 59.0101 1008.2 65.42 1009.51 71.73C1009.71 72.7001 1010.13 74.0901 1010.75 75.8701C1011.41 77.7601 1011.83 79.1301 1012.02 80.0701C1012.3 81.4401 1012 82.6501 1011.15 83.5701C1010.36 84.4201 1009.14 85.0001 1007.41 85.3601C997.58 87.4001 994.45 82.6901 993.56 78.3901C992.84 74.9001 992.43 72.3001 992.31 70.4401C992.26 68.7201 991.89 68.3901 991.85 68.3501C991.82 68.3201 991.73 68.3301 991.67 68.3501C988.32 69.0501 986.76 73.0701 987.05 80.3001C987.5 91.7301 983.65 98.3601 975.6 100.03C972.24 100.73 967.88 99.8201 966.16 91.5501C965.74 89.5401 965.74 86.6701 966.16 82.7801C966.65 78.2501 966.55 76.3501 966.38 75.5501C966.18 74.5701 965.73 72.9301 964.89 73.1101C964.02 73.2901 962.68 74.7301 961.61 75.8901L961.09 76.4501C959.04 78.6301 957.32 78.48 956.05 78.1C948.47 75.84 939.59 76.0801 931 76.3001C928.26 76.3701 925.67 76.4401 923.15 76.4301C912.34 76.3701 901.37 76.7901 890.76 77.1801C876.18 77.7301 861.11 78.29 846.23 77.66C846.19 77.66 838.87 77.35 838.87 77.35C838.51 77.34 838.19 77.12 838.03 76.79C837.88 76.46 837.92 76.08 838.15 75.79C838.83 74.92 839.14 74.3601 839.49 73.7101C839.72 73.2801 839.98 72.8201 840.35 72.2401C838.57 72.0001 834.36 72.0501 830.73 72.2601C830.3 72.2901 829.88 72.0101 829.75 71.5801C829.62 71.1601 829.79 70.7001 830.17 70.4701C842.22 63.1201 852.2 44.2201 854.68 39.2301C851.27 39.0901 840.84 39.9101 823.08 51.7101C815.1 57.0201 808.18 63.6501 802.53 71.4201C800.73 73.8901 799.04 75.3101 797.51 75.6301C794.05 76.3601 788.28 76.4701 782.7 76.5801L780.01 76.6401C767.57 76.9301 756.24 76.9901 745.36 76.8401C721.21 76.5101 696.64 76.4601 672.88 76.4201L659.74 76.3901H659.7C656.68 76.3901 655.46 77.5501 653.77 79.1401C653.16 79.7101 652.54 80.3101 651.77 80.8901C643.31 87.3901 633.09 87.4301 624.43 81.0101C621.04 78.5001 621.04 75.1201 621.04 72.4001C621.04 70.2001 623.15 68.2201 627.69 66.1601C631.44 64.5401 634.36 63.7601 636.63 63.7601C642.64 63.7601 647.37 65.6301 650.71 69.3101C651.65 67.8201 652.38 66.7001 652.93 65.9101C654.25 63.9701 654.93 61.8601 654.93 59.6601C654.93 52.5101 651.65 49.0401 644.89 49.0401C632.2 49.0401 620.96 60.2101 615.19 69.7701C614.72 70.5501 614.32 71.4001 613.91 72.3001C613.39 73.4101 612.86 74.57 612.15 75.6C610.82 77.55 608.81 77.6701 607.03 77.6201C599.48 77.4401 588.3 77.3 573.81 77.22L517.81 77.2001C517.08 77.1701 507.81 77.1601 506.5 77.1801C505.71 77.1901 503.4 77.3801 503.38 77.3801C503.09 77.4001 502.79 77.2901 502.59 77.0701C502.39 76.8501 502.3 76.5501 502.35 76.2501C503.88 67.4801 506.26 53.3101 506.37 51.1801C505.7 50.7201 503.15 50.1701 501.91 50.0801C501.69 51.4401 501.21 54.7301 500.74 57.9201C498.92 70.4067 497.637 76.6501 496.89 76.6501H496.75C494.08 76.8401 492.74 76.6301 492.12 75.9301C491.83 75.6001 491.71 75.1801 491.8 74.7401C492.13 73.0401 495.73 51.7701 495.96 47.2301C495.92 47.2301 495.87 47.2401 495.83 47.2501C493.38 47.5801 486.88 48.4601 477.75 46.1601C467.23 43.5101 460.23 45.3301 457.23 46.1101L457.03 46.1601C456.79 46.2201 456.55 46.2801 456.32 46.3301C454.12 46.8501 452.79 47.1601 451.43 54.5901C449.84 63.2701 440.76 103.59 440.67 103.99C440.56 104.49 440.08 104.81 439.58 104.73C439.08 104.65 438.72 104.19 438.77 103.69C438.8 103.42 441.34 76.4301 441.65 72.7101C442.02 68.3301 443 61.9001 443.78 56.7401C444.26 53.5601 444.76 50.2801 444.74 49.7701C444.51 46.3701 441.16 44.5001 435.81 44.7601C431.79 44.9601 424.73 46.3501 418.5 47.5801C413.97 48.4701 410.06 49.2401 408.16 49.3801C404.75 49.6301 401.73 49.6901 400.24 49.7001C399.53 52.7201 397.22 66.6101 395.8 75.4201C395.78 76.1701 395.5 76.8201 394.98 77.2801C393.58 78.5301 390.85 78.23 387.97 77.91C387.24 77.83 386.52 77.7501 385.85 77.7001C379.74 77.2701 373.96 77.7601 373.9 77.7701C364.24 77.7501 350.88 77.7601 337.28 77.7401C321.24 77.7201 304.94 77.7001 294.37 77.7001C290.18 77.7001 287.8 78.1601 285.7 78.5601C283 79.0801 280.87 79.49 276.52 78.48C274.29 77.96 271.81 75.6001 271.08 74.2001C269.63 71.3301 268.07 68.8701 266.43 66.8701L264.11 75.5701C264.88 76.6501 266.25 79.1201 269.28 84.5801C272.94 91.1701 274.79 96.69 274.79 100.98C274.79 107.02 270.53 112.18 262.14 116.32C255.37 119.67 249.01 121.38 243.22 121.38C237.84 121.38 233.31 120.05 229.75 117.41C225.73 114.34 223.69 110.11 223.69 104.83C223.69 102.81 224.45 99.6901 226.03 95.3001C227.87 90.1601 228.26 88.0601 228.26 87.2101C228.26 87.1401 228.26 87.08 228.26 87.04C227.83 86.92 227.5 86.5301 227.52 86.0701C227.54 85.5501 227.93 85.1401 228.45 85.1401C229.3 85.1401 230.2 85.6801 230.2 87.2101C230.2 88.7401 229.44 91.5601 227.86 95.9501C226.38 100.07 225.64 103.06 225.64 104.83C225.64 109.54 227.37 113.15 230.92 115.86C234.13 118.23 238.28 119.44 243.24 119.44C248.73 119.44 254.8 117.81 261.3 114.58C268.98 110.79 272.88 106.21 272.88 100.97C272.88 97.01 271.11 91.8101 267.61 85.5101C263.97 78.9501 262.84 77.0701 262.5 76.5801C262.26 76.4001 262.1 76.1201 262.1 75.8001C262.1 75.7201 262.11 75.6301 262.13 75.5501L265.04 64.6201C265.13 64.2801 265.4 64.0201 265.74 63.9301C266.08 63.8401 266.44 63.9501 266.68 64.2101C268.87 66.5501 270.93 69.6201 272.81 73.3201C273.28 74.2201 275.27 76.2 276.97 76.6C280.92 77.52 282.68 77.18 285.35 76.6701C287.43 76.2701 290.01 75.7701 294.38 75.7701C304.95 75.7701 321.25 75.7901 337.29 75.8101C350.88 75.8301 364.28 75.8401 373.82 75.8401C373.98 75.8201 379.72 75.3301 385.99 75.7701C386.68 75.8201 387.43 75.9001 388.19 75.9901C390.2 76.2101 392.94 76.5201 393.7 75.8401C393.79 75.7601 393.88 75.6401 393.88 75.3301C393.88 75.2801 393.88 75.2301 393.89 75.1801C398.3 47.7601 398.46 47.7601 399.54 47.7601C400.51 47.7601 403.99 47.7401 408.02 47.4401C409.8 47.3101 413.66 46.5501 418.12 45.6701C424.41 44.4301 431.55 43.0201 435.71 42.8201C443.41 42.4401 446.41 46.0801 446.66 49.6201C446.7 50.2201 446.42 52.1201 445.68 57.0101C444.9 62.1401 443.93 68.53 443.56 72.85C443.41 74.63 442.75 81.71 442.1 88.66C444.89 76.12 448.56 59.4201 449.52 54.2201C451.03 45.9601 452.82 45.1501 455.86 44.4301C456.08 44.3801 456.3 44.3301 456.53 44.2701L456.73 44.2201C459.86 43.4001 467.21 41.4901 478.21 44.2701C486.97 46.4801 492.99 45.6701 495.56 45.3201C496.28 45.2201 496.63 45.1701 496.92 45.2101C497.19 45.2401 497.46 45.4101 497.62 45.6301C498.66 47.0601 494.39 71.1701 493.76 74.6701C494.08 74.7401 494.77 74.8201 496.16 74.7401C496.66 72.4001 497.99 63.2801 498.82 57.6301C500.09 48.9301 500.1 48.9101 500.29 48.6201C500.53 48.2601 500.86 47.7701 504.29 48.4801C507.59 49.1601 508.15 50.0201 508.28 50.6901C508.49 51.8401 505.83 67.4401 504.46 75.3401C505.17 75.2901 506.02 75.23 506.46 75.23C507.78 75.21 517.14 75.2301 517.84 75.2501L573.81 75.2701C588.32 75.3501 599.5 75.4801 607.07 75.6701C608.79 75.7101 609.84 75.5401 610.55 74.4901C611.16 73.5901 611.64 72.56 612.15 71.47C612.57 70.56 613.01 69.6301 613.53 68.7601C619.56 58.7701 631.38 47.1001 644.88 47.1001C652.71 47.1001 656.85 51.4401 656.85 59.6501C656.85 62.2501 656.06 64.7301 654.51 67.0001C653.85 67.9501 652.88 69.4401 651.64 71.4501C651.47 71.7201 651.18 71.89 650.87 71.91C650.55 71.92 650.25 71.7801 650.06 71.5301C647.04 67.5901 642.65 65.6801 636.63 65.6801C634.65 65.6801 631.91 66.4301 628.47 67.9201C623.69 70.0901 622.97 71.6501 622.97 72.3901C622.97 75.0201 622.97 77.5101 625.58 79.4501C628.55 81.6501 639.13 88.16 650.6 79.35C651.28 78.82 651.87 78.2701 652.44 77.73C654.22 76.0401 655.91 74.4501 659.69 74.4501H659.73L672.86 74.48C696.62 74.5201 721.2 74.5701 745.36 74.9001C756.22 75.0501 767.53 74.9801 779.94 74.7001L782.64 74.6401C788.13 74.5301 793.8 74.42 797.09 73.73C798.09 73.5201 799.5 72.2601 800.95 70.2701C806.74 62.3101 813.82 55.5201 822 50.0801C844.83 34.9101 855.91 37.3401 856.37 37.4501C856.65 37.5201 856.89 37.7101 857.01 37.9701C857.14 38.2301 857.14 38.5301 857.01 38.8001C856.58 39.7301 846.96 60.2901 834 70.1601C841.71 69.9101 842.27 70.7701 842.53 71.1701C842.76 71.5301 842.78 71.97 842.59 72.35C842.57 72.4 842.54 72.44 842.51 72.48C841.84 73.4 841.5 74.0201 841.17 74.6101C841.02 74.8901 840.87 75.17 840.68 75.47C842.83 75.56 846.22 75.7001 846.29 75.7001C861.1 76.3201 876.13 75.76 890.67 75.22C901.3 74.82 912.29 74.4101 923.14 74.4601C925.63 74.4701 928.21 74.4001 930.93 74.3301C939.67 74.1001 948.71 73.8601 956.58 76.2101C957.21 76.4001 958.16 76.6801 959.66 75.0801L960.17 74.5301C961.56 73.0301 962.99 71.4801 964.47 71.1801C965.76 70.9101 967.47 71.3801 968.24 75.1201C968.52 76.5001 968.46 79.0601 968.04 82.9401C967.65 86.5801 967.64 89.3301 968.01 91.1101C969.52 98.3801 972.82 98.5701 975.17 98.0901C982.25 96.6201 985.49 90.8101 985.08 80.3201C984.75 72.0001 986.82 67.3201 991.24 66.4001C992.08 66.2301 992.67 66.5101 993.01 66.7801C993.77 67.3801 994.15 68.4901 994.2 70.2901C994.31 72.0101 994.71 74.5901 995.41 77.9401C996.46 83.0201 1000.25 84.81 1006.98 83.41C1008.28 83.14 1009.2 82.7301 1009.7 82.1901C1009.97 81.9001 1010.3 81.4001 1010.09 80.4001C1009.92 79.5601 1009.51 78.2301 1008.88 76.4501C1008.23 74.5901 1007.79 73.1201 1007.57 72.0601C1006.03 64.6201 1008.37 57.1101 1014.54 49.7601C1014.78 49.4801 1015.16 49.3501 1015.52 49.4401C1015.88 49.5301 1016.15 49.8201 1016.23 50.1801L1019.36 65.2801C1019.98 68.2701 1020.35 70.76 1020.5 73.1L1020.55 73.8201L1018.62 73.9501L1017.76 94.8301ZM496.92 74.7701C496.92 74.7701 496.88 74.7701 496.87 74.7701C496.89 74.7701 496.91 74.7701 496.92 74.7701Z" fill="white"/>
<path d="M787.01 134.07C786.94 134.07 786.86 134.07 786.78 134.04C786.26 133.91 785.94 133.39 786.07 132.87C786.95 129.25 789.52 120.17 791.52 114.97C792 113.67 791.89 113.26 791.82 113.15C791.56 112.71 789.88 112.49 788.78 112.33C787.43 112.14 786.38 111.55 785.67 110.55C783.81 107.94 784.77 103.08 785.55 99.1801C785.64 98.4601 785.82 97.6601 785.99 96.8901C786.26 95.6401 786.64 93.9301 786.3 93.4201C786.28 93.3901 786.23 93.3201 786.02 93.2801C785.38 93.1601 783.15 94.6301 781.82 95.5001C779.98 96.7101 778.25 97.8501 776.94 98.0301C771.18 98.8101 764.85 98.6301 764.58 98.6201C739.05 97.8201 714.02 97.8301 692.89 97.9401C691.84 97.9401 690.7 98.0201 689.5 98.1101C684.72 98.4401 679.3 98.8101 675.89 94.9901C674.72 93.6801 674.17 92.6901 673.65 91.7301C673.25 91.0001 672.87 90.3101 672.21 89.4901C672.14 89.4301 671.94 89.3501 671.81 89.3401C671.79 89.4201 671.76 89.5501 671.74 89.6201C671.66 90.0301 671.59 90.5601 671.52 91.1501C671.22 93.5901 670.85 96.6201 668.78 97.5701C668.23 97.8201 667.57 97.8401 666.99 97.8501C666.77 97.8501 666.57 97.8501 666.39 97.8801C664.42 98.1201 662.46 98.5901 660.56 99.0401C653.71 100.68 647 102.75 639.57 105.09C637.04 105.9 633.23 108.99 628.25 114.25C623.48 119.33 619.32 121.79 615.53 121.79C614.98 121.79 613.7 121.54 613.7 119.23C613.7 115.65 615.39 111.49 618.73 106.86C621.11 103.55 623.53 101.07 625.94 99.4401C624.71 99.2001 623.42 98.8201 622.08 98.3201C621.58 98.1301 621.33 97.5801 621.52 97.0801C621.71 96.5801 622.27 96.3301 622.76 96.5201C625.1 97.4001 627.25 97.8501 629.14 97.8501C629.6 97.8501 630 98.1801 630.09 98.6301C630.18 99.0801 629.93 99.5401 629.5 99.7101C626.5 100.89 623.4 103.68 620.3 107.99C617.2 112.29 615.63 116.07 615.63 119.23C615.63 119.56 615.66 119.75 615.69 119.86C618.84 119.78 622.59 117.45 626.85 112.92C632.13 107.34 636.1 104.18 638.99 103.25C646.46 100.9 653.2 98.8201 660.12 97.1601C662.07 96.6901 664.09 96.2101 666.17 95.9601C666.4 95.9301 666.68 95.9301 666.97 95.9201C667.3 95.9201 667.8 95.9101 667.99 95.8201C669.08 95.3201 669.4 92.6701 669.62 90.9201C669.7 90.2701 669.77 89.6901 669.87 89.2301C669.94 88.8901 670.05 88.3801 670.44 87.9601C670.79 87.5901 671.29 87.3901 671.87 87.4101C672.57 87.4401 673.34 87.7901 673.73 88.2801C674.5 89.2301 674.94 90.0301 675.36 90.8001C675.86 91.7001 676.33 92.5601 677.35 93.7101C680.13 96.8201 685.05 96.4901 689.39 96.1901C690.63 96.1101 691.8 96.0301 692.91 96.0201C714.05 95.9101 739.11 95.9001 764.67 96.7001C764.93 96.7001 771.11 96.8901 776.71 96.1201C777.59 96.0001 779.29 94.8801 780.79 93.8901C783.04 92.4101 784.99 91.1301 786.39 91.3801C787.23 91.5301 787.7 91.9901 787.94 92.3501C788.73 93.5301 788.33 95.3601 787.91 97.3001C787.75 98.0401 787.58 98.8001 787.49 99.5001C786.81 102.91 785.9 107.5 787.28 109.44C787.68 109.99 788.27 110.32 789.08 110.43C791.38 110.74 792.83 111.02 793.52 112.16C794.14 113.2 793.79 114.51 793.37 115.66C791.39 120.8 788.85 129.76 787.99 133.33C787.88 133.77 787.49 134.07 787.05 134.07H787.01Z" fill="white"/>
<path d="M1082.43 74.7801C1067.58 74.7101 1047.04 74.6101 1019.53 74.5101C1019 74.5101 1018.57 74.07 1018.57 73.54C1018.57 73.01 1019 72.5801 1019.54 72.5801C1047.05 72.6801 1067.59 72.78 1082.44 72.85" fill="white"/>
<path d="M1080.64 0.100098H910.9V169.83H1080.64V0.100098Z" fill="#FC4C2E"/>
<path d="M1080.64 169.83H910.91V0.100098H1080.64V169.83ZM913 167.74H1078.54V2.2001H913V167.74Z" fill="white"/>
<path d="M976.38 124.17C973.1 124.17 970.28 123.36 967.97 121.76C964.57 119.4 962.25 115.28 961.05 109.52L961.01 109.32C960.64 107.55 960.22 105.55 960.32 103.23C960.5 98.8202 959.77 95.8203 958.93 94.9603C958.68 95.3703 958.36 96.2102 958.13 96.8002C957.47 98.5302 956.72 100.48 955.22 101.04C955.08 101.09 954.94 101.11 954.79 101.1C953.08 100.99 951.32 100.82 949.45 100.63C945.04 100.2 940.05 99.7102 932.83 99.6802H910.94V97.5803H932.83C940.15 97.6103 945.42 98.1302 949.65 98.5402C951.41 98.7102 953.04 98.8702 954.63 98.9802C955.2 98.5702 955.78 97.0603 956.17 96.0303C956.78 94.4403 957.26 93.1802 958.29 92.7902C958.74 92.6202 959.24 92.6602 959.68 92.9102C962.55 94.4602 962.49 101.25 962.41 103.3C962.32 105.36 962.71 107.23 963.06 108.88L963.1 109.08C964.18 114.3 966.22 117.98 969.16 120.02C972.08 122.05 976.05 122.57 980.96 121.55C988.61 119.96 995.48 114.22 1001.38 104.49C1001.63 104.08 1002.12 103.89 1002.57 104.03C1007.53 105.48 1012.52 105.7 1017.41 104.69C1023.18 103.49 1027.09 99.5103 1029.37 92.5203C1030.33 89.8803 1031.37 86.7903 1031.9 83.6403C1032.33 81.0803 1031.99 78.2903 1031.67 75.5903L1031.52 74.3102C1030.89 68.7802 1030.05 63.5102 1028.95 58.2102L1026.83 47.9803C1021.2 55.3603 1019.11 62.8103 1020.63 70.1403C1020.87 71.2703 1021.35 72.8802 1022.07 74.9202C1022.83 77.1002 1023.31 78.6802 1023.53 79.7502C1023.85 81.3102 1023.51 82.6802 1022.54 83.7202C1021.64 84.6902 1020.24 85.3603 1018.26 85.7703C1006.99 88.1103 1003.39 82.7203 1002.37 77.7803C1001.54 73.7603 1001.07 70.7602 1000.93 68.6202C1000.87 66.6102 1000.43 66.2103 1000.38 66.1703C1000.36 66.1503 1000.31 66.1102 1000.12 66.1502C996.22 66.9602 994.41 71.6202 994.74 79.9902C995.26 93.1202 990.83 100.76 981.59 102.67C977.75 103.47 972.75 102.43 970.79 92.9503C970.31 90.6403 970.31 87.3402 970.79 82.8602C971.35 77.6302 971.24 75.4303 971.05 74.5103C970.74 73.0203 970.35 72.3102 970.08 71.9802C969.78 71.6202 969.54 71.5903 969.26 71.6403C968.23 71.8503 966.69 73.5202 965.45 74.8602L964.85 75.5103C962.51 78.0003 960.55 77.8303 959.11 77.4003C953.36 75.6903 948.25 75.7302 938.96 75.8202C936.99 75.8402 934.85 75.8602 932.48 75.8602H910.95V73.7603H932.48C934.83 73.7603 936.97 73.7402 938.94 73.7202C948.11 73.6402 953.65 73.5803 959.7 75.3903C960.44 75.6103 961.56 75.9403 963.32 74.0803L963.91 73.4402C965.5 71.7202 967.15 69.9402 968.83 69.5902C969.93 69.3602 970.95 69.7403 971.7 70.6403C972.32 71.3903 972.78 72.5203 973.1 74.0803C973.43 75.6603 973.35 78.6003 972.88 83.0803C972.43 87.2803 972.42 90.4603 972.85 92.5203C974.6 100.96 978.45 101.18 981.17 100.61C989.37 98.9102 993.12 92.1902 992.65 80.0602C992.27 70.5102 994.64 65.1302 999.7 64.0802C1000.65 63.8802 1001.31 64.2002 1001.69 64.5002C1002.55 65.1802 1002.98 66.4502 1003.04 68.5002C1003.16 70.4802 1003.63 73.4603 1004.43 77.3303C1005.65 83.2303 1010.04 85.3102 1017.84 83.6902C1019.36 83.3702 1020.42 82.9003 1021.01 82.2703C1021.33 81.9303 1021.73 81.3403 1021.48 80.1503C1021.28 79.1803 1020.81 77.6503 1020.09 75.5903C1019.34 73.4603 1018.83 71.7602 1018.58 70.5402C1016.8 61.9802 1019.5 53.3503 1026.6 44.8903C1026.86 44.5803 1027.27 44.4502 1027.66 44.5502C1028.05 44.6502 1028.35 44.9602 1028.43 45.3502L1031 57.7603C1032.11 63.1302 1032.97 68.4602 1033.6 74.0502L1033.75 75.3102C1034.09 78.1602 1034.45 81.1003 1033.97 83.9603C1033.41 87.2703 1032.33 90.4802 1031.35 93.1702C1028.87 100.8 1024.32 105.37 1017.84 106.71C1012.86 107.74 1007.8 107.58 1002.76 106.23C996.63 116.07 989.45 121.91 981.39 123.58C979.61 123.95 977.94 124.13 976.38 124.13V124.17Z" fill="white"/>
</svg>
