<svg width="131" height="132" viewBox="0 0 131 132" fill="none" xmlns="http://www.w3.org/2000/svg">
<path d="M131 0.350098H0V131.35H131V0.350098Z" fill="white"/>
<path d="M15.54 12.9302H12.28V22.7002H15.54V12.9302Z" fill="black"/>
<path d="M15.54 22.6902H12.28V35.7102H15.54V22.6902Z" fill="black"/>
<path d="M15.54 38.9702H12.28V45.4802H15.54V38.9702Z" fill="black"/>
<path d="M15.54 61.7603H12.28V68.2703H15.54V61.7603Z" fill="black"/>
<path d="M15.54 71.5203H12.28V74.7803H15.54V71.5203Z" fill="black"/>
<path d="M15.54 81.29H12.28V84.55H15.54V81.29Z" fill="black"/>
<path d="M15.54 84.54H12.28V94.3101H15.54V84.54Z" fill="black"/>
<path d="M15.54 97.5601H12.28V113.84H15.54V97.5601Z" fill="black"/>
<path d="M15.54 113.84H12.28V120.35H15.54V113.84Z" fill="black"/>
<path d="M18.79 12.9302H15.53V16.1902H18.79V12.9302Z" fill="black"/>
<path d="M18.79 32.4602H15.53V35.7202H18.79V32.4602Z" fill="black"/>
<path d="M18.79 45.4802H15.53V48.7402H18.79V45.4802Z" fill="black"/>
<path d="M18.79 51.9902H15.53V58.5002H18.79V51.9902Z" fill="black"/>
<path d="M18.79 61.7603H15.53V65.0203H18.79V61.7603Z" fill="black"/>
<path d="M18.79 74.7803H15.53V84.5502H18.79V74.7803Z" fill="black"/>
<path d="M18.79 97.5601H15.53V100.82H18.79V97.5601Z" fill="black"/>
<path d="M18.79 117.09H15.53V120.35H18.79V117.09Z" fill="black"/>
<path d="M22.05 12.9302H18.79V16.1902H22.05V12.9302Z" fill="black"/>
<path d="M22.05 19.4402H18.79V22.7002H22.05V19.4402Z" fill="black"/>
<path d="M22.05 22.6902H18.79V29.2002H22.05V22.6902Z" fill="black"/>
<path d="M22.05 32.4602H18.79V35.7202H22.05V32.4602Z" fill="black"/>
<path d="M22.05 38.9702H18.79V42.2302H22.05V38.9702Z" fill="black"/>
<path d="M22.05 45.4802H18.79V48.7402H22.05V45.4802Z" fill="black"/>
<path d="M22.05 51.9902H18.79V55.2502H22.05V51.9902Z" fill="black"/>
<path d="M22.05 58.5002H18.79V65.0103H22.05V58.5002Z" fill="black"/>
<path d="M22.05 71.5203H18.79V74.7803H22.05V71.5203Z" fill="black"/>
<path d="M22.05 78.0303H18.79V81.2902H22.05V78.0303Z" fill="black"/>
<path d="M22.05 91.0503H18.79V94.3103H22.05V91.0503Z" fill="black"/>
<path d="M22.05 97.5601H18.79V100.82H22.05V97.5601Z" fill="black"/>
<path d="M22.05 104.07H18.79V113.84H22.05V104.07Z" fill="black"/>
<path d="M22.05 117.09H18.79V120.35H22.05V117.09Z" fill="black"/>
<path d="M25.3 12.9302H22.04V16.1902H25.3V12.9302Z" fill="black"/>
<path d="M25.3 19.4402H22.04V22.7002H25.3V19.4402Z" fill="black"/>
<path d="M25.3 22.6902H22.04V29.2002H25.3V22.6902Z" fill="black"/>
<path d="M25.3 32.4602H22.04V35.7202H25.3V32.4602Z" fill="black"/>
<path d="M25.3 38.9702H22.04V42.2302H25.3V38.9702Z" fill="black"/>
<path d="M25.3 45.4802H22.04V48.7402H25.3V45.4802Z" fill="black"/>
<path d="M25.3 58.5002H22.04V61.7603H25.3V58.5002Z" fill="black"/>
<path d="M25.3 68.2703H22.04V71.5303H25.3V68.2703Z" fill="black"/>
<path d="M25.3 81.29H22.04V84.55H25.3V81.29Z" fill="black"/>
<path d="M25.3 87.8003H22.04V94.3103H25.3V87.8003Z" fill="black"/>
<path d="M25.3 97.5601H22.04V100.82H25.3V97.5601Z" fill="black"/>
<path d="M25.3 104.07H22.04V113.84H25.3V104.07Z" fill="black"/>
<path d="M25.3 117.09H22.04V120.35H25.3V117.09Z" fill="black"/>
<path d="M28.56 12.9302H25.3V16.1902H28.56V12.9302Z" fill="black"/>
<path d="M28.56 19.4402H25.3V22.7002H28.56V19.4402Z" fill="black"/>
<path d="M28.56 22.6902H25.3V29.2002H28.56V22.6902Z" fill="black"/>
<path d="M28.56 32.4602H25.3V35.7202H28.56V32.4602Z" fill="black"/>
<path d="M28.56 38.9702H25.3V42.2302H28.56V38.9702Z" fill="black"/>
<path d="M28.56 51.9902H25.3V61.7603H28.56V51.9902Z" fill="black"/>
<path d="M28.56 68.2703H25.3V78.0402H28.56V68.2703Z" fill="black"/>
<path d="M28.56 81.29H25.3V84.55H28.56V81.29Z" fill="black"/>
<path d="M28.56 87.8003H25.3V94.3103H28.56V87.8003Z" fill="black"/>
<path d="M28.56 97.5601H25.3V100.82H28.56V97.5601Z" fill="black"/>
<path d="M28.56 104.07H25.3V113.84H28.56V104.07Z" fill="black"/>
<path d="M28.56 117.09H25.3V120.35H28.56V117.09Z" fill="black"/>
<path d="M31.81 12.9302H28.55V16.1902H31.81V12.9302Z" fill="black"/>
<path d="M31.81 32.4602H28.55V35.7202H31.81V32.4602Z" fill="black"/>
<path d="M31.81 38.9702H28.55V48.7402H31.81V38.9702Z" fill="black"/>
<path d="M31.81 61.7603H28.55V65.0203H31.81V61.7603Z" fill="black"/>
<path d="M31.81 68.2703H28.55V71.5303H31.81V68.2703Z" fill="black"/>
<path d="M31.81 78.0303H28.55V84.5402H31.81V78.0303Z" fill="black"/>
<path d="M31.81 84.54H28.55V91.05H31.81V84.54Z" fill="black"/>
<path d="M31.81 97.5601H28.55V100.82H31.81V97.5601Z" fill="black"/>
<path d="M31.81 117.09H28.55V120.35H31.81V117.09Z" fill="black"/>
<path d="M35.0701 12.9302H31.8101V22.7002H35.0701V12.9302Z" fill="black"/>
<path d="M35.0701 22.6902H31.8101V35.7102H35.0701V22.6902Z" fill="black"/>
<path d="M35.0701 38.9702H31.8101V42.2302H35.0701V38.9702Z" fill="black"/>
<path d="M35.0701 45.4802H31.8101V48.7402H35.0701V45.4802Z" fill="black"/>
<path d="M35.0701 51.9902H31.8101V55.2502H35.0701V51.9902Z" fill="black"/>
<path d="M35.0701 58.5002H31.8101V61.7603H35.0701V58.5002Z" fill="black"/>
<path d="M35.0701 65.0103H31.8101V68.2703H35.0701V65.0103Z" fill="black"/>
<path d="M35.0701 71.5203H31.8101V74.7803H35.0701V71.5203Z" fill="black"/>
<path d="M35.0701 78.0303H31.8101V81.2902H35.0701V78.0303Z" fill="black"/>
<path d="M35.0701 84.54H31.8101V87.8H35.0701V84.54Z" fill="black"/>
<path d="M35.0701 91.0503H31.8101V94.3103H35.0701V91.0503Z" fill="black"/>
<path d="M35.0701 97.5601H31.8101V113.84H35.0701V97.5601Z" fill="black"/>
<path d="M35.0701 113.84H31.8101V120.35H35.0701V113.84Z" fill="black"/>
<path d="M38.3201 61.7603H35.0601V65.0203H38.3201V61.7603Z" fill="black"/>
<path d="M38.3201 68.2703H35.0601V74.7803H38.3201V68.2703Z" fill="black"/>
<path d="M38.3201 84.54H35.0601V87.8H38.3201V84.54Z" fill="black"/>
<path d="M41.5801 19.4402H38.3201V22.7002H41.5801V19.4402Z" fill="black"/>
<path d="M41.5801 22.6902H38.3201V38.9702H41.5801V22.6902Z" fill="black"/>
<path d="M41.5801 42.2302H38.3201V45.4902H41.5801V42.2302Z" fill="black"/>
<path d="M41.5801 55.2502H38.3201V61.7603H41.5801V55.2502Z" fill="black"/>
<path d="M41.5801 68.2703H38.3201V74.7803H41.5801V68.2703Z" fill="black"/>
<path d="M41.5801 94.3101H38.3201V97.5701H41.5801V94.3101Z" fill="black"/>
<path d="M41.5801 100.82H38.3201V113.84H41.5801V100.82Z" fill="black"/>
<path d="M41.5801 117.09H38.3201V120.35H41.5801V117.09Z" fill="black"/>
<path d="M44.8401 16.1802H41.5801V22.6902H44.8401V16.1802Z" fill="black"/>
<path d="M44.8401 22.6902H41.5801V25.9502H44.8401V22.6902Z" fill="black"/>
<path d="M44.8401 35.7102H41.5801V42.2202H44.8401V35.7102Z" fill="black"/>
<path d="M44.8401 45.4802H41.5801V48.7402H44.8401V45.4802Z" fill="black"/>
<path d="M44.8401 55.2502H41.5801V58.5103H44.8401V55.2502Z" fill="black"/>
<path d="M44.8401 61.7603H41.5801V65.0203H44.8401V61.7603Z" fill="black"/>
<path d="M44.8401 74.7803H41.5801V78.0402H44.8401V74.7803Z" fill="black"/>
<path d="M44.8401 91.0503H41.5801V97.5603H44.8401V91.0503Z" fill="black"/>
<path d="M44.8401 97.5601H41.5801V107.33H44.8401V97.5601Z" fill="black"/>
<path d="M44.8401 113.84H41.5801V120.35H44.8401V113.84Z" fill="black"/>
<path d="M48.0901 16.1802H44.8301V19.4402H48.0901V16.1802Z" fill="black"/>
<path d="M48.0901 22.6902H44.8301V25.9502H48.0901V22.6902Z" fill="black"/>
<path d="M48.0901 29.2002H44.8301V35.7102H48.0901V29.2002Z" fill="black"/>
<path d="M48.0901 38.9702H44.8301V45.4802H48.0901V38.9702Z" fill="black"/>
<path d="M48.0901 55.2502H44.8301V58.5103H48.0901V55.2502Z" fill="black"/>
<path d="M48.0901 65.0103H44.8301V71.5203H48.0901V65.0103Z" fill="black"/>
<path d="M48.0901 78.0303H44.8301V84.5402H48.0901V78.0303Z" fill="black"/>
<path d="M48.0901 84.54H44.8301V94.3101H48.0901V84.54Z" fill="black"/>
<path d="M48.0901 100.82H44.8301V113.84H48.0901V100.82Z" fill="black"/>
<path d="M48.0901 113.84H44.8301V120.35H48.0901V113.84Z" fill="black"/>
<path d="M51.3501 19.4402H48.0901V22.7002H51.3501V19.4402Z" fill="black"/>
<path d="M51.3501 38.9702H48.0901V42.2302H51.3501V38.9702Z" fill="black"/>
<path d="M51.3501 45.4802H48.0901V51.9902H51.3501V45.4802Z" fill="black"/>
<path d="M51.3501 55.2502H48.0901V58.5103H51.3501V55.2502Z" fill="black"/>
<path d="M51.3501 65.0103H48.0901V68.2703H51.3501V65.0103Z" fill="black"/>
<path d="M51.3501 71.5203H48.0901V74.7803H51.3501V71.5203Z" fill="black"/>
<path d="M51.3501 78.0303H48.0901V81.2902H51.3501V78.0303Z" fill="black"/>
<path d="M51.3501 84.54H48.0901V97.5601H51.3501V84.54Z" fill="black"/>
<path d="M51.3501 113.84H48.0901V120.35H51.3501V113.84Z" fill="black"/>
<path d="M54.6001 12.9302H51.3401V22.7002H54.6001V12.9302Z" fill="black"/>
<path d="M54.6001 25.9502H51.3401V29.2102H54.6001V25.9502Z" fill="black"/>
<path d="M54.6001 32.4602H51.3401V38.9702H54.6001V32.4602Z" fill="black"/>
<path d="M54.6001 42.2302H51.3401V45.4902H54.6001V42.2302Z" fill="black"/>
<path d="M54.6001 48.7402H51.3401V58.5103H54.6001V48.7402Z" fill="black"/>
<path d="M54.6001 81.29H51.3401V84.55H54.6001V81.29Z" fill="black"/>
<path d="M54.6001 84.54H51.3401V87.8H54.6001V84.54Z" fill="black"/>
<path d="M54.6001 94.3101H51.3401V97.5701H54.6001V94.3101Z" fill="black"/>
<path d="M54.6001 107.33H51.3401V113.84H54.6001V107.33Z" fill="black"/>
<path d="M54.6001 113.84H51.3401V117.1H54.6001V113.84Z" fill="black"/>
<path d="M57.8601 25.9502H54.6001V29.2102H57.8601V25.9502Z" fill="black"/>
<path d="M57.8601 38.9702H54.6001V51.9902H57.8601V38.9702Z" fill="black"/>
<path d="M57.8601 55.2502H54.6001V58.5103H57.8601V55.2502Z" fill="black"/>
<path d="M57.8601 61.7603H54.6001V68.2703H57.8601V61.7603Z" fill="black"/>
<path d="M57.8601 71.5203H54.6001V78.0303H57.8601V71.5203Z" fill="black"/>
<path d="M57.8601 84.54H54.6001V94.3101H57.8601V84.54Z" fill="black"/>
<path d="M57.8601 97.5601H54.6001V100.82H57.8601V97.5601Z" fill="black"/>
<path d="M57.8601 107.33H54.6001V113.84H57.8601V107.33Z" fill="black"/>
<path d="M57.8601 113.84H54.6001V117.1H57.8601V113.84Z" fill="black"/>
<path d="M61.1101 19.4402H57.8501V22.7002H61.1101V19.4402Z" fill="black"/>
<path d="M61.1101 25.9502H57.8501V35.7202H61.1101V25.9502Z" fill="black"/>
<path d="M61.1101 38.9702H57.8501V42.2302H61.1101V38.9702Z" fill="black"/>
<path d="M61.1101 45.4802H57.8501V48.7402H61.1101V45.4802Z" fill="black"/>
<path d="M61.1101 51.9902H57.8501V55.2502H61.1101V51.9902Z" fill="black"/>
<path d="M61.1101 61.7603H57.8501V71.5303H61.1101V61.7603Z" fill="black"/>
<path d="M61.1101 74.7803H57.8501V84.5502H61.1101V74.7803Z" fill="black"/>
<path d="M61.1101 84.54H57.8501V97.5601H61.1101V84.54Z" fill="black"/>
<path d="M61.1101 100.82H57.8501V107.33H61.1101V100.82Z" fill="black"/>
<path d="M61.1101 110.58H57.8501V113.84H61.1101V110.58Z" fill="black"/>
<path d="M64.3701 16.1802H61.1101V22.6902H64.3701V16.1802Z" fill="black"/>
<path d="M64.3701 25.9502H61.1101V29.2102H64.3701V25.9502Z" fill="black"/>
<path d="M64.3701 45.4802H61.1101V51.9902H64.3701V45.4802Z" fill="black"/>
<path d="M64.3701 55.2502H61.1101V68.2703H64.3701V55.2502Z" fill="black"/>
<path d="M64.3701 71.5203H61.1101V84.5402H64.3701V71.5203Z" fill="black"/>
<path d="M64.3701 97.5601H61.1101V100.82H64.3701V97.5601Z" fill="black"/>
<path d="M64.3701 107.33H61.1101V113.84H64.3701V107.33Z" fill="black"/>
<path d="M64.3701 113.84H61.1101V120.35H64.3701V113.84Z" fill="black"/>
<path d="M67.6201 12.9302H64.3601V19.4402H67.6201V12.9302Z" fill="black"/>
<path d="M67.6201 25.9502H64.3601V29.2102H67.6201V25.9502Z" fill="black"/>
<path d="M67.6201 32.4602H64.3601V38.9702H67.6201V32.4602Z" fill="black"/>
<path d="M67.6201 42.2302H64.3601V45.4902H67.6201V42.2302Z" fill="black"/>
<path d="M67.6201 51.9902H64.3601V55.2502H67.6201V51.9902Z" fill="black"/>
<path d="M67.6201 58.5002H64.3601V61.7603H67.6201V58.5002Z" fill="black"/>
<path d="M67.6201 68.2703H64.3601V71.5303H67.6201V68.2703Z" fill="black"/>
<path d="M67.6201 81.29H64.3601V84.55H67.6201V81.29Z" fill="black"/>
<path d="M67.6201 87.8003H64.3601V97.5703H67.6201V87.8003Z" fill="black"/>
<path d="M67.6201 97.5601H64.3601V107.33H67.6201V97.5601Z" fill="black"/>
<path d="M67.6201 110.58H64.3601V113.84H67.6201V110.58Z" fill="black"/>
<path d="M70.8801 29.2002H67.6201V32.4602H70.8801V29.2002Z" fill="black"/>
<path d="M70.8801 38.9702H67.6201V51.9902H70.8801V38.9702Z" fill="black"/>
<path d="M70.8801 55.2502H67.6201V61.7603H70.8801V55.2502Z" fill="black"/>
<path d="M70.8801 65.0103H67.6201V68.2703H70.8801V65.0103Z" fill="black"/>
<path d="M70.8801 84.54H67.6201V87.8H70.8801V84.54Z" fill="black"/>
<path d="M70.8801 91.0503H67.6201V97.5603H70.8801V91.0503Z" fill="black"/>
<path d="M70.8801 97.5601H67.6201V104.07H70.8801V97.5601Z" fill="black"/>
<path d="M70.8801 117.09H67.6201V120.35H70.8801V117.09Z" fill="black"/>
<path d="M74.1301 16.1802H70.8701V19.4402H74.1301V16.1802Z" fill="black"/>
<path d="M74.1301 22.6902H70.8701V25.9502H74.1301V22.6902Z" fill="black"/>
<path d="M74.1301 32.4602H70.8701V45.4802H74.1301V32.4602Z" fill="black"/>
<path d="M74.1301 48.7402H70.8701V52.0002H74.1301V48.7402Z" fill="black"/>
<path d="M74.1301 55.2502H70.8701V58.5103H74.1301V55.2502Z" fill="black"/>
<path d="M74.1301 61.7603H70.8701V65.0203H74.1301V61.7603Z" fill="black"/>
<path d="M74.1301 71.5203H70.8701V74.7803H74.1301V71.5203Z" fill="black"/>
<path d="M74.1301 78.0303H70.8701V81.2902H74.1301V78.0303Z" fill="black"/>
<path d="M74.1301 84.54H70.8701V87.8H74.1301V84.54Z" fill="black"/>
<path d="M74.1301 94.3101H70.8701V97.5701H74.1301V94.3101Z" fill="black"/>
<path d="M74.1301 100.82H70.8701V104.08H74.1301V100.82Z" fill="black"/>
<path d="M74.1301 107.33H70.8701V113.84H74.1301V107.33Z" fill="black"/>
<path d="M74.1301 117.09H70.8701V120.35H74.1301V117.09Z" fill="black"/>
<path d="M77.3901 12.9302H74.1301V16.1902H77.3901V12.9302Z" fill="black"/>
<path d="M77.3901 19.4402H74.1301V22.7002H77.3901V19.4402Z" fill="black"/>
<path d="M77.3901 22.6902H74.1301V25.9502H77.3901V22.6902Z" fill="black"/>
<path d="M77.3901 29.2002H74.1301V32.4602H77.3901V29.2002Z" fill="black"/>
<path d="M77.3901 35.7102H74.1301V45.4802H77.3901V35.7102Z" fill="black"/>
<path d="M77.3901 48.7402H74.1301V52.0002H77.3901V48.7402Z" fill="black"/>
<path d="M77.3901 61.7603H74.1301V71.5303H77.3901V61.7603Z" fill="black"/>
<path d="M77.3901 74.7803H74.1301V84.5502H77.3901V74.7803Z" fill="black"/>
<path d="M77.3901 91.0503H74.1301V97.5603H77.3901V91.0503Z" fill="black"/>
<path d="M77.3901 100.82H74.1301V104.08H77.3901V100.82Z" fill="black"/>
<path d="M77.3901 107.33H74.1301V110.59H77.3901V107.33Z" fill="black"/>
<path d="M77.3901 113.84H74.1301V117.1H77.3901V113.84Z" fill="black"/>
<path d="M80.6401 12.9302H77.3801V22.7002H80.6401V12.9302Z" fill="black"/>
<path d="M80.6401 25.9502H77.3801V29.2102H80.6401V25.9502Z" fill="black"/>
<path d="M80.6401 32.4602H77.3801V38.9702H80.6401V32.4602Z" fill="black"/>
<path d="M80.6401 42.2302H77.3801V52.0002H80.6401V42.2302Z" fill="black"/>
<path d="M80.6401 61.7603H77.3801V65.0203H80.6401V61.7603Z" fill="black"/>
<path d="M80.6401 68.2703H77.3801V71.5303H80.6401V68.2703Z" fill="black"/>
<path d="M80.6401 74.7803H77.3801V78.0402H80.6401V74.7803Z" fill="black"/>
<path d="M80.6401 81.29H77.3801V84.55H80.6401V81.29Z" fill="black"/>
<path d="M80.6401 84.54H77.3801V87.8H80.6401V84.54Z" fill="black"/>
<path d="M80.6401 97.5601H77.3801V100.82H80.6401V97.5601Z" fill="black"/>
<path d="M80.6401 107.33H77.3801V113.84H80.6401V107.33Z" fill="black"/>
<path d="M80.6401 113.84H77.3801V117.1H80.6401V113.84Z" fill="black"/>
<path d="M83.9001 12.9302H80.6401V16.1902H83.9001V12.9302Z" fill="black"/>
<path d="M83.9001 19.4402H80.6401V22.7002H83.9001V19.4402Z" fill="black"/>
<path d="M83.9001 25.9502H80.6401V32.4602H83.9001V25.9502Z" fill="black"/>
<path d="M83.9001 35.7102H80.6401V38.9702H83.9001V35.7102Z" fill="black"/>
<path d="M83.9001 48.7402H80.6401V52.0002H83.9001V48.7402Z" fill="black"/>
<path d="M83.9001 61.7603H80.6401V65.0203H83.9001V61.7603Z" fill="black"/>
<path d="M83.9001 71.5203H80.6401V78.0303H83.9001V71.5203Z" fill="black"/>
<path d="M83.9001 84.54H80.6401V91.05H83.9001V84.54Z" fill="black"/>
<path d="M83.9001 100.82H80.6401V104.08H83.9001V100.82Z" fill="black"/>
<path d="M83.9001 113.84H80.6401V117.1H83.9001V113.84Z" fill="black"/>
<path d="M87.1501 16.1802H83.8901V22.6902H87.1501V16.1802Z" fill="black"/>
<path d="M87.1501 29.2002H83.8901V38.9702H87.1501V29.2002Z" fill="black"/>
<path d="M87.1501 45.4802H83.8901V55.2502H87.1501V45.4802Z" fill="black"/>
<path d="M87.1501 58.5002H83.8901V61.7603H87.1501V58.5002Z" fill="black"/>
<path d="M87.1501 65.0103H83.8901V68.2703H87.1501V65.0103Z" fill="black"/>
<path d="M87.1501 71.5203H83.8901V74.7803H87.1501V71.5203Z" fill="black"/>
<path d="M87.1501 78.0303H83.8901V81.2902H87.1501V78.0303Z" fill="black"/>
<path d="M87.1501 84.54H83.8901V94.3101H87.1501V84.54Z" fill="black"/>
<path d="M87.1501 97.5601H83.8901V107.33H87.1501V97.5601Z" fill="black"/>
<path d="M87.1501 110.58H83.8901V113.84H87.1501V110.58Z" fill="black"/>
<path d="M87.1501 113.84H83.8901V120.35H87.1501V113.84Z" fill="black"/>
<path d="M90.4099 12.9302H87.1499V16.1902H90.4099V12.9302Z" fill="black"/>
<path d="M90.4099 19.4402H87.1499V22.7002H90.4099V19.4402Z" fill="black"/>
<path d="M90.4099 25.9502H87.1499V29.2102H90.4099V25.9502Z" fill="black"/>
<path d="M90.4099 35.7102H87.1499V45.4802H90.4099V35.7102Z" fill="black"/>
<path d="M90.4099 55.2502H87.1499V58.5103H90.4099V55.2502Z" fill="black"/>
<path d="M90.4099 65.0103H87.1499V71.5203H90.4099V65.0103Z" fill="black"/>
<path d="M90.4099 74.7803H87.1499V78.0402H90.4099V74.7803Z" fill="black"/>
<path d="M90.4099 81.29H87.1499V84.55H90.4099V81.29Z" fill="black"/>
<path d="M90.4099 87.8003H87.1499V94.3103H90.4099V87.8003Z" fill="black"/>
<path d="M90.4099 97.5601H87.1499V104.07H90.4099V97.5601Z" fill="black"/>
<path d="M90.4099 110.58H87.1499V113.84H90.4099V110.58Z" fill="black"/>
<path d="M90.4099 117.09H87.1499V120.35H90.4099V117.09Z" fill="black"/>
<path d="M93.6599 22.6902H90.3999V25.9502H93.6599V22.6902Z" fill="black"/>
<path d="M93.6599 29.2002H90.3999V35.7102H93.6599V29.2002Z" fill="black"/>
<path d="M93.6599 38.9702H90.3999V42.2302H93.6599V38.9702Z" fill="black"/>
<path d="M93.6599 48.7402H90.3999V55.2502H93.6599V48.7402Z" fill="black"/>
<path d="M93.6599 61.7603H90.3999V68.2703H93.6599V61.7603Z" fill="black"/>
<path d="M93.6599 78.0303H90.3999V81.2902H93.6599V78.0303Z" fill="black"/>
<path d="M93.6599 84.54H90.3999V87.8H93.6599V84.54Z" fill="black"/>
<path d="M93.6599 91.0503H90.3999V97.5603H93.6599V91.0503Z" fill="black"/>
<path d="M93.6599 97.5601H90.3999V107.33H93.6599V97.5601Z" fill="black"/>
<path d="M93.6599 117.09H90.3999V120.35H93.6599V117.09Z" fill="black"/>
<path d="M96.9202 51.9902H93.6602V55.2502H96.9202V51.9902Z" fill="black"/>
<path d="M96.9202 58.5002H93.6602V68.2703H96.9202V58.5002Z" fill="black"/>
<path d="M96.9202 74.7803H93.6602V81.2902H96.9202V74.7803Z" fill="black"/>
<path d="M96.9202 84.54H93.6602V94.3101H96.9202V84.54Z" fill="black"/>
<path d="M96.9202 104.07H93.6602V110.58H96.9202V104.07Z" fill="black"/>
<path d="M96.9202 117.09H93.6602V120.35H96.9202V117.09Z" fill="black"/>
<path d="M100.17 12.9302H96.9102V22.7002H100.17V12.9302Z" fill="black"/>
<path d="M100.17 22.6902H96.9102V35.7102H100.17V22.6902Z" fill="black"/>
<path d="M100.17 38.9702H96.9102V45.4802H100.17V38.9702Z" fill="black"/>
<path d="M100.17 48.7402H96.9102V52.0002H100.17V48.7402Z" fill="black"/>
<path d="M100.17 55.2502H96.9102V65.0203H100.17V55.2502Z" fill="black"/>
<path d="M100.17 68.2703H96.9102V71.5303H100.17V68.2703Z" fill="black"/>
<path d="M100.17 81.29H96.9102V84.55H100.17V81.29Z" fill="black"/>
<path d="M100.17 91.0503H96.9102V94.3103H100.17V91.0503Z" fill="black"/>
<path d="M100.17 97.5601H96.9102V100.82H100.17V97.5601Z" fill="black"/>
<path d="M100.17 104.07H96.9102V107.33H100.17V104.07Z" fill="black"/>
<path d="M100.17 110.58H96.9102V113.84H100.17V110.58Z" fill="black"/>
<path d="M100.17 113.84H96.9102V117.1H100.17V113.84Z" fill="black"/>
<path d="M103.43 12.9302H100.17V16.1902H103.43V12.9302Z" fill="black"/>
<path d="M103.43 32.4602H100.17V35.7202H103.43V32.4602Z" fill="black"/>
<path d="M103.43 38.9702H100.17V45.4802H103.43V38.9702Z" fill="black"/>
<path d="M103.43 58.5002H100.17V61.7603H103.43V58.5002Z" fill="black"/>
<path d="M103.43 65.0103H100.17V78.0303H103.43V65.0103Z" fill="black"/>
<path d="M103.43 91.0503H100.17V94.3103H103.43V91.0503Z" fill="black"/>
<path d="M103.43 104.07H100.17V107.33H103.43V104.07Z" fill="black"/>
<path d="M103.43 110.58H100.17V113.84H103.43V110.58Z" fill="black"/>
<path d="M103.43 117.09H100.17V120.35H103.43V117.09Z" fill="black"/>
<path d="M106.68 12.9302H103.42V16.1902H106.68V12.9302Z" fill="black"/>
<path d="M106.68 19.4402H103.42V22.7002H106.68V19.4402Z" fill="black"/>
<path d="M106.68 22.6902H103.42V29.2002H106.68V22.6902Z" fill="black"/>
<path d="M106.68 32.4602H103.42V35.7202H106.68V32.4602Z" fill="black"/>
<path d="M106.68 38.9702H103.42V42.2302H106.68V38.9702Z" fill="black"/>
<path d="M106.68 45.4802H103.42V55.2502H106.68V45.4802Z" fill="black"/>
<path d="M106.68 65.0103H103.42V68.2703H106.68V65.0103Z" fill="black"/>
<path d="M106.68 71.5203H103.42V81.2902H106.68V71.5203Z" fill="black"/>
<path d="M106.68 87.8003H103.42V97.5703H106.68V87.8003Z" fill="black"/>
<path d="M106.68 97.5601H103.42V110.58H106.68V97.5601Z" fill="black"/>
<path d="M106.68 113.84H103.42V117.1H106.68V113.84Z" fill="black"/>
<path d="M109.94 12.9302H106.68V16.1902H109.94V12.9302Z" fill="black"/>
<path d="M109.94 19.4402H106.68V22.7002H109.94V19.4402Z" fill="black"/>
<path d="M109.94 22.6902H106.68V29.2002H109.94V22.6902Z" fill="black"/>
<path d="M109.94 32.4602H106.68V35.7202H109.94V32.4602Z" fill="black"/>
<path d="M109.94 38.9702H106.68V45.4802H109.94V38.9702Z" fill="black"/>
<path d="M109.94 48.7402H106.68V55.2502H109.94V48.7402Z" fill="black"/>
<path d="M109.94 61.7603H106.68V65.0203H109.94V61.7603Z" fill="black"/>
<path d="M109.94 68.2703H106.68V71.5303H109.94V68.2703Z" fill="black"/>
<path d="M109.94 74.7803H106.68V81.2902H109.94V74.7803Z" fill="black"/>
<path d="M109.94 87.8003H106.68V94.3103H109.94V87.8003Z" fill="black"/>
<path d="M109.94 100.82H106.68V107.33H109.94V100.82Z" fill="black"/>
<path d="M109.94 110.58H106.68V113.84H109.94V110.58Z" fill="black"/>
<path d="M113.19 12.9302H109.93V16.1902H113.19V12.9302Z" fill="black"/>
<path d="M113.19 19.4402H109.93V22.7002H113.19V19.4402Z" fill="black"/>
<path d="M113.19 22.6902H109.93V29.2002H113.19V22.6902Z" fill="black"/>
<path d="M113.19 32.4602H109.93V35.7202H113.19V32.4602Z" fill="black"/>
<path d="M113.19 38.9702H109.93V51.9902H113.19V38.9702Z" fill="black"/>
<path d="M113.19 55.2502H109.93V65.0203H113.19V55.2502Z" fill="black"/>
<path d="M113.19 68.2703H109.93V78.0402H113.19V68.2703Z" fill="black"/>
<path d="M113.19 84.54H109.93V91.05H113.19V84.54Z" fill="black"/>
<path d="M113.19 94.3101H109.93V97.5701H113.19V94.3101Z" fill="black"/>
<path d="M113.19 97.5601H109.93V104.07H113.19V97.5601Z" fill="black"/>
<path d="M113.19 110.58H109.93V113.84H113.19V110.58Z" fill="black"/>
<path d="M113.19 113.84H109.93V117.1H113.19V113.84Z" fill="black"/>
<path d="M116.45 12.9302H113.19V16.1902H116.45V12.9302Z" fill="black"/>
<path d="M116.45 32.4602H113.19V35.7202H116.45V32.4602Z" fill="black"/>
<path d="M116.45 42.2302H113.19V61.7603H116.45V42.2302Z" fill="black"/>
<path d="M116.45 71.5203H113.19V78.0303H116.45V71.5203Z" fill="black"/>
<path d="M116.45 84.54H113.19V91.05H116.45V84.54Z" fill="black"/>
<path d="M116.45 94.3101H113.19V97.5701H116.45V94.3101Z" fill="black"/>
<path d="M116.45 97.5601H113.19V110.58H116.45V97.5601Z" fill="black"/>
<path d="M116.45 117.09H113.19V120.35H116.45V117.09Z" fill="black"/>
<path d="M119.7 12.9302H116.44V22.7002H119.7V12.9302Z" fill="black"/>
<path d="M119.7 22.6902H116.44V35.7102H119.7V22.6902Z" fill="black"/>
<path d="M119.7 42.2302H116.44V45.4902H119.7V42.2302Z" fill="black"/>
<path d="M119.7 48.7402H116.44V58.5103H119.7V48.7402Z" fill="black"/>
<path d="M119.7 65.0103H116.44V71.5203H119.7V65.0103Z" fill="black"/>
<path d="M119.7 74.7803H116.44V78.0402H119.7V74.7803Z" fill="black"/>
<path d="M119.7 81.29H116.44V84.55H119.7V81.29Z" fill="black"/>
<path d="M119.7 87.8003H116.44V91.0603H119.7V87.8003Z" fill="black"/>
<path d="M119.7 94.3101H116.44V97.5701H119.7V94.3101Z" fill="black"/>
<path d="M119.7 100.82H116.44V110.59H119.7V100.82Z" fill="black"/>
</svg>
